<svg width="430" height="162" viewBox="0 0 430 162" fill="none" xmlns="http://www.w3.org/2000/svg">
<path d="M76.8316 156.164V157.664H78.3316H103.997H105.497V156.164V118.9H125.384H126.884V117.4V96.3636V94.8636H125.384H105.497V5.59999V4.09999H103.997H72.3906H71.6365L71.1867 4.70522L1.7961 98.0689L1.5 98.4673V98.9636V117.4V118.9H3H76.8316V156.164ZM76.8325 60.3844L76.8316 60.4104V60.4364V94.8636H33.8306L63.841 55.4358L63.8724 55.3945L63.9008 55.3512C66.5892 51.2616 69.2774 47.251 71.9654 43.3193C74.0258 40.3055 76.0402 37.2915 78.0084 34.2774C77.7754 37.7917 77.5424 41.5183 77.3095 45.4569L77.3082 45.479L77.3075 45.5011C77.1491 50.8566 76.9908 55.8176 76.8325 60.3844ZM173.988 139.562L173.994 139.571C184.424 153.51 198.577 160.5 216.307 160.5C234.036 160.5 248.114 153.511 258.386 139.566C268.792 125.655 273.89 105.828 273.89 80.2909C273.89 54.6086 268.797 34.9967 258.368 21.7005C248.087 8.23403 234.013 1.5 216.307 1.5C198.598 1.5 184.447 8.23571 174.01 21.6991L174.008 21.7012C163.739 34.9964 158.724 54.6072 158.724 80.2909C158.724 105.827 163.743 125.652 173.988 139.562ZM237.373 123.697L237.362 123.713L237.353 123.729C234.774 128.105 231.63 131.283 227.943 133.339C224.368 135.263 220.498 136.227 216.307 136.227C211.953 136.227 208.009 135.261 204.444 133.345C200.909 131.289 197.757 128.104 195.014 123.713C192.431 119.325 190.342 113.586 188.781 106.445C187.225 99.172 186.439 90.4599 186.439 80.2909C186.439 70.1176 187.226 61.5678 188.779 54.618L188.78 54.6112C190.341 47.4702 192.429 41.8187 195.002 37.598C197.739 33.3675 200.875 30.4318 204.38 28.6885L204.402 28.6776L204.424 28.666C207.993 26.7428 211.945 25.7727 216.307 25.7727C220.502 25.7727 224.375 26.7386 227.953 28.666L227.985 28.6833L228.018 28.6991C231.673 30.4439 234.796 33.3726 237.365 37.5815L237.375 37.598L237.385 37.6142C240.108 41.827 242.273 47.4716 243.834 54.6112L243.835 54.618C245.388 61.5678 246.175 70.1176 246.175 80.2909C246.175 90.4603 245.388 99.1726 243.833 106.446C242.273 113.584 240.106 119.317 237.373 123.697ZM378.447 156.164V157.664H379.947H405.613H407.113V156.164V118.9H427H428.5V117.4V96.3636V94.8636H427H407.113V5.59999V4.09999H405.613H374.007H373.252L372.803 4.70522L303.412 98.0689L303.116 98.4673V98.9636V117.4V118.9H304.616H378.447V156.164ZM378.448 60.3844L378.447 60.4104V60.4364V94.8636H335.446L365.457 55.4358L365.488 55.3945L365.517 55.3512C368.205 51.2616 370.893 47.251 373.581 43.3193C375.642 40.3055 377.656 37.2915 379.624 34.2774C379.391 37.7917 379.158 41.5183 378.925 45.4569L378.924 45.479L378.923 45.5011C378.765 50.8566 378.607 55.8176 378.448 60.3844ZM203.633 92.7266C207.096 95.9989 211.352 97.6273 216.307 97.6273C221.262 97.6273 225.518 95.9989 228.982 92.7266C232.507 89.3952 234.204 84.8719 234.204 79.3455C234.204 73.819 232.507 69.2957 228.982 65.9643C225.518 62.692 221.262 61.0636 216.307 61.0636C211.352 61.0636 207.096 62.692 203.633 65.9643C200.107 69.2957 198.41 73.819 198.41 79.3455C198.41 84.8719 200.107 89.3952 203.633 92.7266Z" stroke="#27F3B5" stroke-width="3"/>
</svg>
