<svg width="328" height="210" viewBox="0 0 328 210" fill="none" xmlns="http://www.w3.org/2000/svg">
<path d="M149.159 17.1053C149.468 16.951 149.828 16.951 150.291 17.2082C174.051 30.9396 225.994 60.9225 227.742 61.9511C240.291 69.3054 252.788 82.3683 261.943 97.7969C271.714 114.151 277.063 131.843 277.063 147.528C277.063 162.494 271.817 174.117 262.611 179.466C253.148 184.917 240.754 183.734 227.691 176.02C219.411 171.134 172.251 144.031 150.239 131.328C149.365 130.814 148.645 129.58 148.645 128.551C148.645 128.037 148.799 127.677 149.108 127.523C149.417 127.368 149.777 127.368 150.239 127.626C172.2 140.328 219.36 167.431 227.691 172.317C239.88 179.466 251.451 180.649 260.297 175.506C260.297 175.506 260.348 175.506 260.348 175.454C268.937 170.517 273.823 159.614 273.823 145.626C273.823 130.968 268.783 114.46 259.68 99.134C251.04 84.6826 239.365 72.3911 227.64 65.5511C225.891 64.5225 173.948 34.5396 150.188 20.8596C149.314 20.3453 148.594 19.111 148.594 18.0824C148.697 17.6196 148.851 17.2596 149.159 17.1053Z" fill="url(#paint0_linear_1010_10290)"/>
<path d="M192.566 75.6824C200.949 70.7967 211.441 73.471 219.875 78.3567C251.504 96.6139 270.378 150.048 250.269 168.048C248.058 170.003 243.121 172.625 253.767 166.505C278.144 152.465 260.607 94.2996 226.458 74.551C215.812 68.3795 206.144 67.8138 199.149 71.8767L192.566 75.6824Z" fill="url(#paint1_linear_1010_10290)"/>
<path d="M181.201 100.677C181.201 140.02 222.807 184.403 247.184 170.312C255.618 165.478 258.498 155.089 258.498 145.318C258.498 108.597 221.521 65.7059 196.013 74.1402C185.161 77.7917 181.201 89.2088 181.201 100.677Z" fill="url(#paint2_linear_1010_10290)"/>
<path d="M242.966 162.979C255.708 155.623 255.698 131.753 242.945 109.665C230.192 87.5766 209.525 75.6341 196.783 82.9905C184.042 90.347 184.051 114.217 196.804 136.305C209.557 158.393 230.225 170.336 242.966 162.979Z" fill="white"/>
<path d="M218.179 97.6426L219.773 128.14L216.842 126.443L218.179 97.6426Z" fill="url(#paint3_linear_1010_10290)"/>
<path d="M217.664 125.465L234.636 129.065H218.538L217.664 125.465Z" fill="url(#paint4_linear_1010_10290)"/>
<path d="M217.149 125.104C217.767 124.744 218.795 125.31 219.412 126.39C220.029 127.47 220.029 128.653 219.412 129.013C218.795 129.373 217.767 128.807 217.149 127.727C216.532 126.647 216.532 125.464 217.149 125.104Z" fill="url(#paint5_linear_1010_10290)"/>
<path d="M238.954 107.672L239.519 108.495L237.154 110.346L236.588 109.523L238.954 107.672Z" fill="#105383"/>
<path d="M240.085 115.437L242.862 114.408L243.325 115.334L240.548 116.362L240.085 115.437Z" fill="#105383"/>
<path d="M234.376 101.449L234.993 102.221L233.193 104.792L232.576 104.021L234.376 101.449Z" fill="#105383"/>
<path d="M242.862 121.66L246.051 121.506L246.359 122.432L243.222 122.637L242.862 121.66Z" fill="#105383"/>
<path d="M229.285 95.9453L229.954 96.6139L228.823 99.9053L228.103 99.2368L229.285 95.9453Z" fill="#105383"/>
<path d="M244.868 127.986L248.314 128.655L248.52 129.581L245.074 128.912L244.868 127.986Z" fill="#105383"/>
<path d="M223.884 91.3691L224.604 91.9349L224.09 95.7406L223.37 95.2263L223.884 91.3691Z" fill="#105383"/>
<path d="M245.999 134.105L249.599 135.597L249.702 136.523L246.102 134.98L245.999 134.105Z" fill="#105383"/>
<path d="M218.382 87.9219L219.102 88.3333L219.205 92.6019L218.485 92.1904L218.382 87.9219Z" fill="#105383"/>
<path d="M246.256 139.865L249.857 142.18V142.951L246.205 140.688L246.256 139.865Z" fill="#105383"/>
<path d="M212.879 85.6602L213.599 85.9173L214.37 90.443L213.702 90.2373L212.879 85.6602Z" fill="#105383"/>
<path d="M245.639 145.061L249.136 148.095L248.982 148.815L245.434 145.781L245.639 145.061Z" fill="#105383"/>
<path d="M207.634 84.7344L208.302 84.7858L209.742 89.4144L209.074 89.363L207.634 84.7344Z" fill="#105383"/>
<path d="M244.097 149.535L247.388 153.135L247.131 153.752L243.788 150.101L244.097 149.535Z" fill="#105383"/>
<path d="M202.799 85.0937L203.416 84.9395L205.422 89.568L204.856 89.7223L202.799 85.0937Z" fill="#105383"/>
<path d="M241.782 153.084L244.714 157.198L244.302 157.661L241.319 153.547L241.782 153.084Z" fill="#105383"/>
<path d="M198.582 86.7402L199.096 86.4316L201.616 90.9059L201.102 91.1631L198.582 86.7402Z" fill="#105383"/>
<path d="M238.131 155.963L238.697 155.654L241.217 160.129L240.702 160.386L238.131 155.963Z" fill="#105383"/>
<path d="M195.445 89.209L198.427 93.3233L198.016 93.7347L195.033 89.6204L195.445 89.209Z" fill="#105383"/>
<path d="M234.325 157.249L234.942 157.146L236.948 161.775L236.382 161.878L234.325 157.249Z" fill="#105383"/>
<path d="M192.668 93.1172L195.959 96.7172L195.702 97.3343L192.359 93.6829L192.668 93.1172Z" fill="#105383"/>
<path d="M230.057 157.404L230.725 157.456L232.165 162.136L231.497 162.084L230.057 157.404Z" fill="#105383"/>
<path d="M190.816 98.0547L194.314 101.089L194.159 101.809L190.662 98.7747L190.816 98.0547Z" fill="#105383"/>
<path d="M225.376 156.375L226.096 156.632L226.919 161.158L226.199 160.952L225.376 156.375Z" fill="#105383"/>
<path d="M189.942 103.865L193.542 106.18V107.002L189.891 104.688L189.942 103.865Z" fill="#105383"/>
<path d="M220.542 154.266L221.262 154.677L221.416 158.894L220.696 158.534L220.542 154.266Z" fill="#105383"/>
<path d="M190.097 110.346L193.697 111.889L193.8 112.763L190.2 111.22L190.097 110.346Z" fill="#105383"/>
<path d="M215.708 151.078L216.428 151.644L215.913 155.45L215.193 154.935L215.708 151.078Z" fill="#105383"/>
<path d="M191.278 117.289L194.724 117.958L194.93 118.883L191.484 118.215L191.278 117.289Z" fill="#105383"/>
<path d="M210.976 146.963L211.644 147.631L210.513 150.923L209.793 150.254L210.976 146.963Z" fill="#105383"/>
<path d="M193.388 124.387L196.576 124.232L196.936 125.158L193.748 125.364L193.388 124.387Z" fill="#105383"/>
<path d="M206.553 142.025L207.222 142.797L205.422 145.42L204.805 144.648L206.553 142.025Z" fill="#105383"/>
<path d="M196.422 131.484L199.25 130.455L199.713 131.381L196.885 132.409L196.422 131.484Z" fill="#105383"/>
<path d="M202.594 136.471L203.159 137.345L200.845 139.196L200.279 138.322L202.594 136.471Z" fill="#105383"/>
<path d="M155.742 53.2596C156 53.1053 156.36 53.1053 156.771 53.3624C164.743 57.8367 172.457 62.311 180.377 66.991C181.2 67.4539 181.817 68.5853 181.817 69.5111C181.817 69.9739 181.663 70.2825 181.405 70.4368C181.148 70.5911 180.788 70.5911 180.377 70.3339C172.457 65.6539 164.743 61.1796 156.822 56.7567C156 56.2939 155.331 55.1625 155.331 54.2367C155.331 53.7225 155.485 53.4139 155.742 53.2596Z" fill="url(#paint6_linear_1010_10290)"/>
<path d="M140.623 54.9061C140.881 54.7518 141.241 54.7518 141.652 55.0089C153.378 61.7461 164.744 68.2775 176.418 75.0661C177.241 75.529 177.858 76.6604 177.858 77.5861C177.858 78.049 177.704 78.3576 177.446 78.5118C177.189 78.6661 176.829 78.6147 176.418 78.409C164.744 71.6204 153.378 65.089 141.652 58.3518C140.829 57.8889 140.212 56.7575 140.212 55.8318C140.161 55.3689 140.366 55.0604 140.623 54.9061Z" fill="url(#paint7_linear_1010_10290)"/>
<path d="M154.663 73.4197C154.92 73.2655 155.28 73.2655 155.692 73.5226C161.76 77.0712 167.983 80.6712 174.206 84.2198C175.029 84.6826 175.646 85.8141 175.646 86.7398C175.646 87.2026 175.492 87.5626 175.235 87.7169C174.977 87.8712 174.617 87.8712 174.206 87.6141C171.069 85.8141 158.674 78.6655 155.64 76.9169C154.817 76.454 154.2 75.3226 154.2 74.3969C154.2 73.8826 154.406 73.574 154.663 73.4197Z" fill="url(#paint8_linear_1010_10290)"/>
<path d="M139.852 44.0545C140.109 43.9002 140.469 43.9002 140.829 44.1574C144.892 46.3688 148.8 48.6831 152.555 50.946C153.378 51.4088 153.995 52.5917 153.995 53.5174C153.995 53.9802 153.84 54.2888 153.583 54.3917C153.326 54.546 152.966 54.546 152.555 54.2888C148.852 52.026 144.943 49.7631 140.932 47.5517C140.109 47.0888 139.492 45.9574 139.44 45.0317C139.44 44.5688 139.595 44.2088 139.852 44.0545Z" fill="url(#paint9_linear_1010_10290)"/>
<path d="M127.919 68.3807C128.177 68.2264 128.537 68.2779 128.948 68.4836C143.965 77.2779 158.571 85.7122 173.639 94.3008C174.462 94.7636 175.079 95.8951 175.079 96.8208C175.079 97.2836 174.925 97.6436 174.668 97.7979C174.411 97.9522 174.051 97.9008 173.639 97.6951C166.131 93.4265 136.457 76.3007 128.948 71.8779C128.125 71.415 127.508 70.2836 127.508 69.3579C127.457 68.8436 127.662 68.535 127.919 68.3807Z" fill="url(#paint10_linear_1010_10290)"/>
<path d="M155.024 94.4549C155.281 94.3006 155.641 94.3006 156.001 94.5578C162.018 97.8492 168.292 101.449 174.515 105.255C175.338 105.718 175.955 106.901 175.955 107.826C175.955 108.289 175.801 108.598 175.544 108.752C175.287 108.906 174.875 108.855 174.464 108.598C168.241 104.843 156.052 97.9521 156.052 97.9521C155.281 97.4892 154.612 96.4092 154.612 95.4835C154.612 94.9692 154.767 94.6092 155.024 94.4549Z" fill="url(#paint11_linear_1010_10290)"/>
<path d="M139.852 64.8827C140.109 64.7284 140.469 64.7798 140.88 64.9855C144.583 67.197 147.823 69.0484 151.269 71.0027C152.092 71.4655 152.709 72.597 152.76 73.5227C152.76 73.9856 152.606 74.3456 152.349 74.4998C152.092 74.6541 151.732 74.6541 151.32 74.397C149.572 73.4198 142.783 69.4598 140.88 68.3798C140.058 67.917 139.44 66.7855 139.44 65.8598C139.44 65.3455 139.595 65.037 139.852 64.8827Z" fill="url(#paint12_linear_1010_10290)"/>
<path d="M144.532 98.7733C144.789 98.619 145.149 98.6704 145.56 98.8762C156 104.79 166.594 110.91 177.086 117.082C177.909 117.545 178.526 118.676 178.526 119.602C178.526 120.065 178.372 120.373 178.114 120.528C177.857 120.682 177.497 120.682 177.086 120.425C166.594 114.305 145.56 102.27 145.56 102.27C144.737 101.808 144.12 100.676 144.12 99.7505C144.12 99.2876 144.274 98.9276 144.532 98.7733Z" fill="url(#paint13_linear_1010_10290)"/>
<path d="M158.315 43.9003C158.572 43.746 158.932 43.7974 159.343 44.0031C169.783 49.9174 180.378 56.0374 190.869 62.2089C191.692 62.6717 192.309 63.8032 192.309 64.7289C192.309 65.1917 192.155 65.5003 191.898 65.6546C191.641 65.8089 191.281 65.8089 190.869 65.5517C180.378 59.4317 159.395 47.346 159.395 47.346C158.572 46.8831 157.955 45.7517 157.955 44.826C157.852 44.4145 158.058 44.0545 158.315 43.9003Z" fill="url(#paint14_linear_1010_10290)"/>
<path d="M130.439 49.0428C130.696 48.8885 131.056 48.8885 131.468 49.1457C133.576 50.3285 135.222 51.2542 137.073 52.3857C137.896 52.8485 138.513 53.9799 138.513 54.9057C138.513 55.3685 138.359 55.6771 138.102 55.8314C137.845 55.9857 137.485 55.9342 137.073 55.7285C135.222 54.6485 131.519 52.5399 131.519 52.4885C130.748 52.0257 130.079 50.8942 130.079 49.9685C130.028 49.5057 130.182 49.1971 130.439 49.0428Z" fill="url(#paint15_linear_1010_10290)"/>
<path d="M157.389 116.621C157.646 116.467 158.006 116.467 158.418 116.724C166.389 121.301 173.743 125.57 181.612 130.095C182.435 130.558 183.052 131.69 183.052 132.615C183.052 133.078 182.898 133.387 182.64 133.541C182.383 133.695 182.023 133.644 181.612 133.438C173.795 128.912 166.389 124.644 158.469 120.067C157.646 119.604 157.029 118.472 157.029 117.547C156.926 117.084 157.132 116.775 157.389 116.621Z" fill="url(#paint16_linear_1010_10290)"/>
<path d="M139.852 85.6608C140.109 85.5065 140.418 85.5065 140.829 85.7122C144.275 87.5122 147.875 89.5693 151.218 91.6779C152.04 92.1922 152.658 93.3236 152.606 94.2493C152.606 94.6608 152.452 94.9694 152.195 95.1236C151.938 95.2779 151.578 95.2779 151.166 95.0208L151.115 94.9694C147.875 92.9122 144.378 90.9065 141.035 89.1579C140.212 88.7465 139.543 87.615 139.492 86.6893C139.389 86.175 139.595 85.8665 139.852 85.6608Z" fill="url(#paint17_linear_1010_10290)"/>
<path d="M139.851 106.488C140.108 106.334 140.468 106.334 140.88 106.591C144.943 108.905 149.108 111.322 153.068 113.637C153.891 114.1 154.508 115.231 154.508 116.157C154.508 116.62 154.354 116.928 154.097 117.082C153.84 117.237 153.48 117.237 153.068 116.98C149.16 114.717 144.943 112.3 140.931 109.985C140.108 109.522 139.491 108.391 139.491 107.465C139.44 106.951 139.594 106.642 139.851 106.488Z" fill="url(#paint18_linear_1010_10290)"/>
<path d="M111.411 58.8153C111.669 58.661 112.08 58.7124 112.491 58.9696C116.451 61.3867 120.309 63.5982 124.269 65.7582C125.091 66.1696 125.76 67.301 125.76 68.2782C125.76 68.7925 125.606 69.101 125.349 69.2553C125.091 69.4096 124.731 69.4096 124.371 69.1525C122.366 68.0725 120.36 66.941 118.406 65.8096C116.451 64.6782 114.446 63.4953 112.44 62.261C111.617 61.7467 111 60.6153 111 59.6896C111 59.2782 111.154 58.9696 111.411 58.8153Z" fill="url(#paint19_linear_1010_10290)"/>
<path d="M130.44 90.6483C130.697 90.494 131.057 90.494 131.417 90.7511C134.503 92.4483 137.485 94.1454 140.52 95.9968C141.343 96.5111 141.96 97.6426 141.96 98.5683C141.96 99.0311 141.805 99.3397 141.548 99.494C141.291 99.6483 140.931 99.5969 140.52 99.3911H140.468C137.485 97.5911 134.554 95.894 131.52 94.2483C130.697 93.7854 130.08 92.7054 130.028 91.7797C130.028 91.1626 130.183 90.8025 130.44 90.6483Z" fill="url(#paint20_linear_1010_10290)"/>
<path d="M276.342 92.6042C276.393 92.6042 276.445 92.5528 276.496 92.5528C277.113 92.3471 278.039 93.0157 278.553 94.0442C282.205 101.501 284.931 109.164 286.731 116.827C286.885 117.547 286.731 118.113 286.371 118.319C286.216 118.421 286.011 118.421 285.805 118.37C285.651 118.319 285.496 118.267 285.342 118.216C284.725 117.856 284.159 117.084 283.953 116.21C282.256 109.01 279.685 101.81 276.239 94.7642C275.776 93.8385 275.828 92.9128 276.342 92.6042Z" fill="url(#paint21_linear_1010_10290)"/>
<path d="M253.765 70.9516C254.228 70.6945 254.897 70.9516 255.463 71.6202C260.863 77.9973 265.645 85.3516 269.4 92.9631C269.863 93.8888 269.811 94.8145 269.297 95.1231C269.245 95.1231 269.194 95.1745 269.194 95.1745C268.937 95.2774 268.628 95.1745 268.268 95.0202C267.857 94.7631 267.394 94.3002 267.137 93.7345C263.64 86.6374 259.165 79.7459 254.125 73.8316C253.405 73.0088 253.148 71.8259 253.508 71.2088C253.56 71.1059 253.663 71.003 253.765 70.9516Z" fill="url(#paint22_linear_1010_10290)"/>
<path d="M277.474 170.414C277.834 170.209 278.399 170.363 278.965 170.877C279.737 171.597 280.148 172.78 279.891 173.551C277.834 179.877 274.182 184.609 269.297 187.437C268.731 187.746 268.114 188.054 267.548 188.363C267.291 188.466 266.931 188.414 266.571 188.209C266.159 187.952 265.748 187.54 265.491 187.026C264.977 186.049 265.028 185.072 265.542 184.763C265.542 184.763 265.594 184.763 265.594 184.712C266.159 184.454 266.725 184.146 267.239 183.837C271.765 181.214 275.159 176.791 277.114 170.929C277.217 170.671 277.319 170.517 277.474 170.414Z" fill="url(#paint23_linear_1010_10290)"/>
<path d="M214.576 64.5215C214.576 65.2929 215.09 66.0643 216.119 66.6301C218.125 67.8129 221.416 67.8129 223.473 66.6301C224.502 66.0643 225.016 65.2929 225.016 64.5215V73.9329C225.016 74.7044 224.502 75.4758 223.473 76.0415C221.468 77.2244 218.176 77.2244 216.119 76.0415C215.09 75.4758 214.576 74.7044 214.576 73.9329V64.5215Z" fill="url(#paint24_linear_1010_10290)"/>
<path d="M214.576 64.5211C214.576 63.7497 215.09 62.9783 216.119 62.4125C218.125 61.2297 221.416 61.2297 223.473 62.4125C224.502 62.9783 225.016 63.7497 225.016 64.5211C225.016 65.2925 224.502 66.064 223.473 66.6297C221.468 67.8125 218.176 67.8125 216.119 66.6297C215.09 66.064 214.576 65.2925 214.576 64.5211Z" fill="url(#paint25_linear_1010_10290)"/>
<path d="M205.01 54.75C205.01 56.91 206.45 59.1214 209.33 60.7672C215.09 64.11 224.45 64.11 230.21 60.7672C233.09 59.1214 234.53 56.91 234.53 54.75V62.7729C234.53 64.9329 233.09 67.1443 230.21 68.79C224.45 72.1329 215.09 72.1329 209.33 68.79C206.45 67.1443 205.01 64.9329 205.01 62.7729V54.75Z" fill="url(#paint26_linear_1010_10290)"/>
<path d="M205.01 54.7509C205.01 52.5909 206.45 50.3794 209.33 48.7337C215.09 45.3908 224.45 45.3908 230.21 48.7337C233.09 50.3794 234.53 52.5909 234.53 54.7509C234.53 56.9109 233.09 59.1223 230.21 60.768C224.45 64.1109 215.09 64.1109 209.33 60.768C206.45 59.1223 205.01 56.9109 205.01 54.7509Z" fill="url(#paint27_linear_1010_10290)"/>
<path d="M205.937 65.2938C205.783 65.2938 205.68 65.1909 205.68 65.0366V58.5052C205.68 58.3509 205.783 58.248 205.937 58.248C206.091 58.248 206.194 58.3509 206.194 58.5052V65.0366C206.194 65.1909 206.091 65.2938 205.937 65.2938Z" fill="#FFF1C0"/>
<path d="M207.89 67.2489C207.736 67.2489 207.633 67.146 207.633 66.9917V60.4603C207.633 60.306 207.736 60.2031 207.89 60.2031C208.044 60.2031 208.147 60.306 208.147 60.4603V66.9917C208.147 67.0946 207.993 67.2489 207.89 67.2489Z" fill="#FFF1C0"/>
<path d="M210.256 68.8934C210.102 68.8934 209.999 68.7905 209.999 68.6362V62.1048C209.999 61.9505 210.102 61.8477 210.256 61.8477C210.41 61.8477 210.513 61.9505 210.513 62.1048V68.6362C210.513 68.7905 210.41 68.8934 210.256 68.8934Z" fill="#FFF1C0"/>
<path d="M213.034 70.0242C212.879 70.0242 212.776 69.9214 212.776 69.7671V63.2357C212.776 63.0814 212.879 62.9785 213.034 62.9785C213.188 62.9785 213.291 63.0814 213.291 63.2357V69.7671C213.291 69.9214 213.188 70.0242 213.034 70.0242Z" fill="#FFF1C0"/>
<path d="M216.427 70.8485C216.273 70.8485 216.17 70.7456 216.17 70.5913V64.0599C216.17 63.9056 216.273 63.8027 216.427 63.8027C216.581 63.8027 216.684 63.9056 216.684 64.0599V70.5913C216.684 70.7456 216.581 70.8485 216.427 70.8485Z" fill="#FFF1C0"/>
<path d="M220.851 70.8485C220.697 70.8485 220.594 70.7456 220.594 70.5913V64.0599C220.594 63.9056 220.697 63.8027 220.851 63.8027C221.005 63.8027 221.108 63.9056 221.108 64.0599V70.5913C221.108 70.7456 221.005 70.8485 220.851 70.8485Z" fill="#FFF1C0"/>
<path d="M225.737 70.0242C225.582 70.0242 225.479 69.9214 225.479 69.7671V63.2357C225.479 63.0814 225.582 62.9785 225.737 62.9785C225.891 62.9785 225.994 63.0814 225.994 63.2357V69.7671C225.994 69.9214 225.891 70.0242 225.737 70.0242Z" fill="#FFF1C0"/>
<path d="M229.336 68.534C229.182 68.534 229.079 68.4312 229.079 68.2769V61.7454C229.079 61.5911 229.182 61.4883 229.336 61.4883C229.491 61.4883 229.593 61.5911 229.593 61.7454V68.2769C229.593 68.4312 229.491 68.534 229.336 68.534Z" fill="#FFF1C0"/>
<path d="M232.01 67.2489C231.856 67.2489 231.753 67.146 231.753 66.9917V60.4603C231.753 60.306 231.856 60.2031 232.01 60.2031C232.164 60.2031 232.267 60.306 232.267 60.4603V66.9917C232.267 67.0946 232.164 67.2489 232.01 67.2489Z" fill="#FFF1C0"/>
<path d="M233.811 64.9344C233.657 64.9344 233.554 64.8315 233.554 64.6773V58.1458C233.554 57.9915 233.657 57.8887 233.811 57.8887C233.965 57.8887 234.068 57.9915 234.068 58.1458V64.6773C234.068 64.8315 233.965 64.9344 233.811 64.9344Z" fill="#FFF1C0"/>
<path d="M139.234 30.5268C139.234 29.1896 138.308 27.5953 137.177 26.9267L134.76 25.5382V22.761C134.76 21.4239 133.834 19.8296 132.702 19.161C132.24 18.9039 131.777 18.801 131.417 18.9553C131.365 18.9553 131.314 19.0067 131.211 19.0582L128.537 20.601C128.228 20.8067 128.022 21.1667 127.971 21.681C127.508 21.4753 127.045 21.4753 126.737 21.681L124.062 23.2239C123.702 23.4296 123.445 23.8925 123.445 24.561C123.445 25.0753 123.6 25.641 123.805 26.1553C124.165 26.9782 124.782 27.7496 125.502 28.161L127.92 29.5496V32.3268C127.92 32.841 128.074 33.4068 128.28 33.9211C128.64 34.7439 129.257 35.5153 129.977 35.9268C130.542 36.2353 131.057 36.2868 131.468 36.0811L134.142 34.5382C134.451 34.3325 134.657 33.9725 134.708 33.4582C135.171 33.6639 135.634 33.6639 135.942 33.4582L138.617 31.9153C139.028 31.6068 139.234 31.1439 139.234 30.5268Z" fill="#1599DD"/>
<path d="M135.994 33.3556C136.354 33.1499 136.611 32.687 136.611 32.0185C136.611 30.6813 135.685 29.087 134.554 28.4184L132.137 27.0299V24.2527C132.137 22.9156 131.211 21.3213 130.08 20.6527C129.514 20.3441 129 20.2927 128.588 20.4984C128.228 20.7041 127.971 21.167 127.971 21.8356V24.6127L125.554 23.2242C124.988 22.9156 124.474 22.8641 124.062 23.0699C123.702 23.2756 123.445 23.7384 123.445 24.407C123.445 25.7442 124.371 27.3384 125.502 28.007L127.92 29.3956V32.1727C127.92 33.5099 128.845 35.1042 129.977 35.7727C130.542 36.0813 131.057 36.1327 131.468 35.927C131.828 35.7213 132.085 35.2585 132.085 34.5899V31.8127L134.502 33.2013C135.068 33.5613 135.582 33.6127 135.994 33.3556Z" fill="#F7F6FB"/>
<path d="M137.589 121.711C137.589 120.734 136.92 119.5 136.046 119.037L134.246 118.009V115.9C134.246 114.923 133.578 113.689 132.703 113.226C132.292 112.969 131.88 112.969 131.623 113.123L128.949 114.666C128.846 114.717 128.743 114.82 128.64 114.974C128.486 114.974 128.332 115.026 128.229 115.077L125.555 116.62C125.298 116.774 125.092 117.134 125.092 117.597C125.092 117.957 125.195 118.42 125.349 118.78C125.606 119.397 126.069 119.963 126.635 120.271L128.435 121.3V123.409C128.435 123.769 128.538 124.231 128.692 124.591C128.949 125.209 129.412 125.774 129.978 126.083C130.389 126.34 130.8 126.34 131.058 126.186L133.732 124.643C133.835 124.591 133.938 124.489 134.04 124.334C134.195 124.334 134.349 124.283 134.452 124.231L137.126 122.689C137.435 122.534 137.589 122.174 137.589 121.711Z" fill="#1599DD"/>
<path d="M134.503 124.232C134.76 124.077 134.966 123.717 134.966 123.254C134.966 122.277 134.297 121.043 133.423 120.58L131.623 119.552V117.443C131.623 116.466 130.954 115.232 130.08 114.769C129.669 114.512 129.257 114.512 129 114.666C128.743 114.82 128.537 115.18 128.537 115.643V117.752L126.737 116.723C126.326 116.466 125.914 116.466 125.657 116.62C125.4 116.774 125.194 117.134 125.194 117.597C125.194 118.574 125.863 119.809 126.737 120.272L128.537 121.3V123.409C128.537 124.386 129.206 125.62 130.08 126.083C130.491 126.34 130.903 126.34 131.16 126.186C131.417 126.032 131.623 125.672 131.623 125.209V123.1L133.423 124.129C133.783 124.386 134.194 124.437 134.503 124.232Z" fill="#F7F6FB"/>
<path d="M284.211 78.5613C284.211 77.2242 283.285 75.6299 282.154 74.9613C281.588 74.6527 281.074 74.6013 280.714 74.807L278.554 76.0413C278.194 76.247 277.937 76.7099 277.937 77.3785C277.937 77.8927 278.091 78.4585 278.297 78.9727C278.657 79.7956 279.274 80.567 279.994 80.9785C280.559 81.287 281.074 81.3385 281.434 81.1327L283.594 79.8985C283.954 79.6927 284.211 79.2299 284.211 78.5613Z" fill="#1599DD"/>
<path d="M278.503 76.0921C278.863 75.8864 279.377 75.8864 279.943 76.2464C281.074 76.915 282 78.5093 282 79.8464C282 80.515 281.743 80.9778 281.383 81.1836C281.023 81.3893 280.509 81.3893 279.943 81.0293C278.811 80.3607 277.886 78.7664 277.886 77.4293C277.937 76.7607 278.143 76.2978 278.503 76.0921Z" fill="white"/>
<path d="M291 148.761C291 147.423 290.074 145.829 288.943 145.161C288.377 144.852 287.863 144.801 287.503 145.006L285.343 146.241C284.983 146.446 284.726 146.909 284.726 147.578C284.726 148.092 284.88 148.658 285.086 149.172C285.446 149.995 286.063 150.766 286.783 151.178C287.348 151.486 287.863 151.538 288.223 151.332L290.383 150.098C290.743 149.841 291 149.378 291 148.761Z" fill="#1599DD"/>
<path d="M285.292 146.241C285.652 146.035 286.166 146.035 286.732 146.395C287.863 147.063 288.789 148.658 288.789 149.995C288.789 150.663 288.532 151.126 288.172 151.332C287.812 151.538 287.298 151.538 286.732 151.178C285.601 150.509 284.675 148.915 284.675 147.578C284.726 146.961 284.932 146.498 285.292 146.241Z" fill="white"/>
<path d="M249.806 195.46C249.806 194.123 248.88 192.528 247.748 191.86C247.183 191.551 246.668 191.5 246.308 191.705L244.148 192.94C243.788 193.145 243.531 193.608 243.531 194.277C243.531 194.791 243.686 195.357 243.891 195.871C244.251 196.694 244.868 197.465 245.588 197.877C246.154 198.185 246.668 198.237 247.028 198.031L249.188 196.797C249.6 196.591 249.806 196.128 249.806 195.46Z" fill="#1599DD"/>
<path d="M244.148 192.991C244.508 192.785 245.023 192.785 245.588 193.145C246.72 193.813 247.646 195.408 247.646 196.745C247.646 197.413 247.388 197.876 247.028 198.082C246.668 198.288 246.154 198.288 245.588 197.928C244.457 197.259 243.531 195.665 243.531 194.328C243.531 193.659 243.788 193.196 244.148 192.991Z" fill="white"/>
<defs>
<linearGradient id="paint0_linear_1010_10290" x1="264.536" y1="41.9069" x2="122.58" y2="179.482" gradientUnits="userSpaceOnUse">
<stop offset="0.0353535" stop-color="#27F3B5"/>
<stop offset="0.3169" stop-color="#25E4BC"/>
<stop offset="0.8601" stop-color="#21BBCE"/>
<stop offset="1" stop-color="#20B0D3"/>
</linearGradient>
<linearGradient id="paint1_linear_1010_10290" x1="206.962" y1="65.5044" x2="276.181" y2="178.937" gradientUnits="userSpaceOnUse">
<stop stop-color="#00ABE2"/>
<stop offset="0.4969" stop-color="#73ECF9"/>
<stop offset="0.5159" stop-color="#64D8EC"/>
<stop offset="0.5563" stop-color="#49B3D4"/>
<stop offset="0.5986" stop-color="#3294C1"/>
<stop offset="0.6427" stop-color="#217CB1"/>
<stop offset="0.6894" stop-color="#156BA6"/>
<stop offset="0.7405" stop-color="#0D61A0"/>
<stop offset="0.8041" stop-color="#0B5E9E"/>
<stop offset="0.8744" stop-color="#0E64A2"/>
<stop offset="1" stop-color="#1169A6"/>
</linearGradient>
<linearGradient id="paint2_linear_1010_10290" x1="255.507" y1="88.4548" x2="187.043" y2="154.806" gradientUnits="userSpaceOnUse">
<stop stop-color="#085395"/>
<stop offset="0.998" stop-color="#06306E"/>
</linearGradient>
<linearGradient id="paint3_linear_1010_10290" x1="234.955" y1="97.4058" x2="206.666" y2="124.821" gradientUnits="userSpaceOnUse">
<stop stop-color="#085395"/>
<stop offset="0.998" stop-color="#06306E"/>
</linearGradient>
<linearGradient id="paint4_linear_1010_10290" x1="241.495" y1="139.403" x2="211.473" y2="132.177" gradientUnits="userSpaceOnUse">
<stop stop-color="#085395"/>
<stop offset="0.998" stop-color="#06306E"/>
</linearGradient>
<linearGradient id="paint5_linear_1010_10290" x1="220.711" y1="124.724" x2="216.07" y2="129.223" gradientUnits="userSpaceOnUse">
<stop stop-color="#085395"/>
<stop offset="0.998" stop-color="#06306E"/>
</linearGradient>
<linearGradient id="paint6_linear_1010_10290" x1="193.005" y1="38.1713" x2="172.848" y2="57.7063" gradientUnits="userSpaceOnUse">
<stop offset="0.0353535" stop-color="#27F3B5"/>
<stop offset="0.3169" stop-color="#25E4BC"/>
<stop offset="0.8601" stop-color="#21BBCE"/>
<stop offset="1" stop-color="#20B0D3"/>
</linearGradient>
<linearGradient id="paint7_linear_1010_10290" x1="181.525" y1="44.8952" x2="153.223" y2="72.3242" gradientUnits="userSpaceOnUse">
<stop offset="0.0353535" stop-color="#27F3B5"/>
<stop offset="0.3169" stop-color="#25E4BC"/>
<stop offset="0.8601" stop-color="#21BBCE"/>
<stop offset="1" stop-color="#20B0D3"/>
</linearGradient>
<linearGradient id="paint8_linear_1010_10290" x1="183.357" y1="62.7032" x2="166.883" y2="78.6684" gradientUnits="userSpaceOnUse">
<stop offset="0.0353535" stop-color="#27F3B5"/>
<stop offset="0.3169" stop-color="#25E4BC"/>
<stop offset="0.8601" stop-color="#21BBCE"/>
<stop offset="1" stop-color="#20B0D3"/>
</linearGradient>
<linearGradient id="paint9_linear_1010_10290" x1="155.832" y1="40.395" x2="144.353" y2="51.5193" gradientUnits="userSpaceOnUse">
<stop offset="0.0353535" stop-color="#27F3B5"/>
<stop offset="0.3169" stop-color="#25E4BC"/>
<stop offset="0.8601" stop-color="#21BBCE"/>
<stop offset="1" stop-color="#20B0D3"/>
</linearGradient>
<linearGradient id="paint10_linear_1010_10290" x1="171.191" y1="63.7571" x2="135.639" y2="98.2117" gradientUnits="userSpaceOnUse">
<stop offset="0.0353535" stop-color="#27F3B5"/>
<stop offset="0.3169" stop-color="#25E4BC"/>
<stop offset="0.8601" stop-color="#21BBCE"/>
<stop offset="1" stop-color="#20B0D3"/>
</linearGradient>
<linearGradient id="paint11_linear_1010_10290" x1="181.529" y1="85.8363" x2="165.102" y2="101.756" gradientUnits="userSpaceOnUse">
<stop offset="0.0353535" stop-color="#27F3B5"/>
<stop offset="0.3169" stop-color="#25E4BC"/>
<stop offset="0.8601" stop-color="#21BBCE"/>
<stop offset="1" stop-color="#20B0D3"/>
</linearGradient>
<linearGradient id="paint12_linear_1010_10290" x1="152.067" y1="63.8654" x2="141.522" y2="74.085" gradientUnits="userSpaceOnUse">
<stop offset="0.0353535" stop-color="#27F3B5"/>
<stop offset="0.3169" stop-color="#25E4BC"/>
<stop offset="0.8601" stop-color="#21BBCE"/>
<stop offset="1" stop-color="#20B0D3"/>
</linearGradient>
<linearGradient id="paint13_linear_1010_10290" x1="179.132" y1="92.4047" x2="153.2" y2="117.537" gradientUnits="userSpaceOnUse">
<stop offset="0.0353535" stop-color="#27F3B5"/>
<stop offset="0.3169" stop-color="#25E4BC"/>
<stop offset="0.8601" stop-color="#21BBCE"/>
<stop offset="1" stop-color="#20B0D3"/>
</linearGradient>
<linearGradient id="paint14_linear_1010_10290" x1="192.891" y1="37.5378" x2="166.959" y2="62.6698" gradientUnits="userSpaceOnUse">
<stop offset="0.0353535" stop-color="#27F3B5"/>
<stop offset="0.3169" stop-color="#25E4BC"/>
<stop offset="0.8601" stop-color="#21BBCE"/>
<stop offset="1" stop-color="#20B0D3"/>
</linearGradient>
<linearGradient id="paint15_linear_1010_10290" x1="133.733" y1="52.955" x2="126.693" y2="59.7771" gradientUnits="userSpaceOnUse">
<stop offset="0.0353535" stop-color="#27F3B5"/>
<stop offset="0.3169" stop-color="#25E4BC"/>
<stop offset="0.8601" stop-color="#21BBCE"/>
<stop offset="1" stop-color="#20B0D3"/>
</linearGradient>
<linearGradient id="paint16_linear_1010_10290" x1="187.953" y1="107.673" x2="168.092" y2="126.921" gradientUnits="userSpaceOnUse">
<stop offset="0.0353535" stop-color="#27F3B5"/>
<stop offset="0.3169" stop-color="#25E4BC"/>
<stop offset="0.8601" stop-color="#21BBCE"/>
<stop offset="1" stop-color="#20B0D3"/>
</linearGradient>
<linearGradient id="paint17_linear_1010_10290" x1="149.548" y1="86.9926" x2="139.119" y2="97.0996" gradientUnits="userSpaceOnUse">
<stop offset="0.0353535" stop-color="#27F3B5"/>
<stop offset="0.3169" stop-color="#25E4BC"/>
<stop offset="0.8601" stop-color="#21BBCE"/>
<stop offset="1" stop-color="#20B0D3"/>
</linearGradient>
<linearGradient id="paint18_linear_1010_10290" x1="149.359" y1="109.474" x2="137.528" y2="120.94" gradientUnits="userSpaceOnUse">
<stop offset="0.0353535" stop-color="#27F3B5"/>
<stop offset="0.3169" stop-color="#25E4BC"/>
<stop offset="0.8601" stop-color="#21BBCE"/>
<stop offset="1" stop-color="#20B0D3"/>
</linearGradient>
<linearGradient id="paint19_linear_1010_10290" x1="109.749" y1="72.3776" x2="98.1509" y2="83.6178" gradientUnits="userSpaceOnUse">
<stop offset="0.0353535" stop-color="#27F3B5"/>
<stop offset="0.3169" stop-color="#25E4BC"/>
<stop offset="0.8601" stop-color="#21BBCE"/>
<stop offset="1" stop-color="#20B0D3"/>
</linearGradient>
<linearGradient id="paint20_linear_1010_10290" x1="132.876" y1="98.052" x2="123.341" y2="107.293" gradientUnits="userSpaceOnUse">
<stop offset="0.0353535" stop-color="#27F3B5"/>
<stop offset="0.3169" stop-color="#25E4BC"/>
<stop offset="0.8601" stop-color="#21BBCE"/>
<stop offset="1" stop-color="#20B0D3"/>
</linearGradient>
<linearGradient id="paint21_linear_1010_10290" x1="291.804" y1="95.2891" x2="283.918" y2="102.932" gradientUnits="userSpaceOnUse">
<stop offset="0.0353535" stop-color="#27F3B5"/>
<stop offset="0.3169" stop-color="#25E4BC"/>
<stop offset="0.8601" stop-color="#21BBCE"/>
<stop offset="1" stop-color="#20B0D3"/>
</linearGradient>
<linearGradient id="paint22_linear_1010_10290" x1="263.294" y1="81.3575" x2="258.171" y2="86.3231" gradientUnits="userSpaceOnUse">
<stop offset="0.0353535" stop-color="#27F3B5"/>
<stop offset="0.3169" stop-color="#25E4BC"/>
<stop offset="0.8601" stop-color="#21BBCE"/>
<stop offset="1" stop-color="#20B0D3"/>
</linearGradient>
<linearGradient id="paint23_linear_1010_10290" x1="281.305" y1="171.669" x2="256.672" y2="195.543" gradientUnits="userSpaceOnUse">
<stop offset="0.0353535" stop-color="#27F3B5"/>
<stop offset="0.3169" stop-color="#25E4BC"/>
<stop offset="0.8601" stop-color="#21BBCE"/>
<stop offset="1" stop-color="#20B0D3"/>
</linearGradient>
<linearGradient id="paint24_linear_1010_10290" x1="214.587" y1="70.7076" x2="224.957" y2="70.7076" gradientUnits="userSpaceOnUse">
<stop offset="0.0353535" stop-color="#FF9E6E"/>
<stop offset="0.3036" stop-color="#FFAD73"/>
<stop offset="0.821" stop-color="#FFD680"/>
<stop offset="1" stop-color="#FFE585"/>
</linearGradient>
<linearGradient id="paint25_linear_1010_10290" x1="223.297" y1="68.0889" x2="218.457" y2="63.1793" gradientUnits="userSpaceOnUse">
<stop offset="0.0353535" stop-color="#FF9E6E"/>
<stop offset="0.3036" stop-color="#FFAD73"/>
<stop offset="0.821" stop-color="#FFD680"/>
<stop offset="1" stop-color="#FFE585"/>
</linearGradient>
<linearGradient id="paint26_linear_1010_10290" x1="204.993" y1="63.0062" x2="234.549" y2="63.0062" gradientUnits="userSpaceOnUse">
<stop offset="0.0353535" stop-color="#FF9E6E"/>
<stop offset="0.3036" stop-color="#FFAD73"/>
<stop offset="0.821" stop-color="#FFD680"/>
<stop offset="1" stop-color="#FFE585"/>
</linearGradient>
<linearGradient id="paint27_linear_1010_10290" x1="229.818" y1="64.9261" x2="216.024" y2="50.9334" gradientUnits="userSpaceOnUse">
<stop offset="0.0353535" stop-color="#FF9E6E"/>
<stop offset="0.3036" stop-color="#FFAD73"/>
<stop offset="0.821" stop-color="#FFD680"/>
<stop offset="1" stop-color="#FFE585"/>
</linearGradient>
</defs>
</svg>
