<svg width="328" height="210" viewBox="0 0 328 210" fill="none" xmlns="http://www.w3.org/2000/svg">
<path d="M129.334 98.8215V73.5029L117.573 66.748L111.256 70.3928V95.7113L123.016 102.466L129.334 98.8215Z" fill="#1599DD"/>
<path d="M111.256 70.3926L123.016 77.1474V102.466L111.256 95.7111V70.3926Z" fill="url(#paint0_linear_1010_10284)"/>
<path d="M151.785 111.798V64.4167L140.025 57.6133L133.707 61.258V108.688L145.467 115.443L151.785 111.798Z" fill="#1599DD"/>
<path d="M133.707 61.2578L145.467 68.0613V115.442L133.707 108.688V61.2578Z" fill="url(#paint1_linear_1010_10284)"/>
<path d="M174.237 124.772V79.2859L162.477 72.4824L156.208 76.1271V121.662L167.92 128.417L174.237 124.772Z" fill="#1599DD"/>
<path d="M156.208 76.127L167.92 82.9304V128.416L156.208 121.662V76.127Z" fill="url(#paint2_linear_1010_10284)"/>
<path d="M196.687 137.748V59.071L184.976 52.2676L178.658 55.9123V134.638L190.37 141.393L196.687 137.748Z" fill="#1599DD"/>
<path d="M178.658 55.9121L190.37 62.7156V141.393L178.658 134.638V55.9121Z" fill="url(#paint3_linear_1010_10284)"/>
<path d="M219.139 150.723V75.8369L207.427 69.082L201.109 72.7267V147.565L212.821 154.368L219.139 150.723Z" fill="#1599DD"/>
<path d="M201.109 72.7266L212.821 79.4814V154.368L201.109 147.565V72.7266Z" fill="url(#paint4_linear_1010_10284)"/>
<path d="M241.591 163.65V62.7644L229.879 55.9609L223.562 59.6056V160.54L235.273 167.295L241.591 163.65Z" fill="#1599DD"/>
<path d="M223.562 59.6055L235.273 66.4089V167.294L223.562 160.54V59.6055Z" fill="url(#paint5_linear_1010_10284)"/>
<path d="M264.043 176.624V80.1611L252.331 73.4062L246.014 77.051V173.514L257.725 180.269L264.043 176.624Z" fill="#1599DD"/>
<path d="M246.014 77.0508L257.725 83.8056V180.269L246.014 173.514V77.0508Z" fill="url(#paint6_linear_1010_10284)"/>
<path d="M286.493 189.599V77.6335L274.781 70.8301L268.464 74.4748V186.489L280.176 193.244L286.493 189.599Z" fill="#1599DD"/>
<path d="M268.464 74.4746L280.176 81.2781V193.244L268.464 186.489V74.4746Z" fill="url(#paint7_linear_1010_10284)"/>
<path d="M118.157 86.7716C118.545 87.5977 118.74 88.4724 118.74 89.25C118.74 89.6388 118.691 89.9789 118.594 90.2705C117.476 90.0275 116.213 89.007 115.338 87.4519C114.706 86.3828 114.415 85.2651 114.415 84.2446C114.415 83.8558 114.463 83.5156 114.56 83.2241C114.852 83.2727 115.192 83.4185 115.532 83.6128C116.407 84.0988 117.185 84.9735 117.816 86.0426C117.914 86.2856 118.011 86.5286 118.157 86.7716ZM122.773 85.4109C123.065 85.2165 123.405 84.6334 123.551 84.196L122.287 81.9606C121.85 81.8634 121.17 81.8634 120.829 82.0578L120.635 82.155L118.934 80.3569V80.3083C118.934 80.2597 118.934 80.1625 118.934 80.1139C118.934 79.5794 118.643 78.5588 118.497 78.0243L116.699 76.9552L114.609 78.1701C114.56 78.2673 114.512 78.3645 114.463 78.4617C114.172 77.9271 113.443 77.0524 112.957 76.5664L109.555 78.5103C109.701 78.9962 109.895 79.6766 110.138 80.2597C110.187 80.4055 110.284 80.5027 110.333 80.6485C110.381 80.6971 110.381 80.7457 110.43 80.7943C110.333 80.7943 110.187 80.7943 110.09 80.7943L108 82.0092V84.0988C108.486 84.682 109.361 85.5081 109.798 85.6053H109.847L110.576 87.9865L110.381 88.0837C110.041 88.2781 109.749 88.8612 109.604 89.2986L110.867 91.534C111.305 91.6312 111.985 91.6312 112.325 91.4368L112.519 91.3396L114.172 93.1863V93.2349C114.172 93.2835 114.172 93.3807 114.172 93.4293C114.172 93.9638 114.463 94.9843 114.609 95.5189L116.407 96.588L118.497 95.3731C118.545 95.2759 118.594 95.1787 118.643 95.0815C118.691 95.1301 118.691 95.1787 118.74 95.2273C119.08 95.7619 119.712 96.4908 120.149 96.9282L121.413 96.1992L123.502 94.9843C123.308 94.304 122.968 93.2349 122.627 92.7489C122.725 92.7489 122.87 92.7489 122.968 92.7489L125.057 91.534V89.4444C124.571 88.8612 123.697 88.0351 123.259 87.9379H123.211L122.482 85.5567L122.773 85.4109Z" fill="#105383"/>
<path d="M112.471 79.8713L114.172 80.0657C114.172 80.0657 114.172 80.0657 114.172 80.0171C114.172 80.0171 114.172 80.0171 114.172 79.9685C114.172 79.9199 114.172 79.8228 114.172 79.7256C114.172 79.434 114.269 79.0938 114.366 78.7536V78.705C114.463 78.4621 114.56 78.2677 114.609 78.1219L116.407 79.191C116.602 79.7742 116.844 80.7461 116.844 81.2806C116.844 81.3778 116.844 81.4264 116.844 81.475V81.5236L118.594 83.3703C118.594 83.3703 118.594 83.3703 118.643 83.3217C118.691 83.2731 118.691 83.2731 118.74 83.2245C119.08 83.0301 119.712 83.0787 120.198 83.1273L121.461 85.3627C121.315 85.8001 120.975 86.3832 120.684 86.5776C120.635 86.6262 120.586 86.6262 120.538 86.6262H120.489L121.218 89.056H121.267C121.656 89.2018 122.53 90.0279 123.065 90.5625V92.6521C122.87 92.6521 122.676 92.6035 122.433 92.6035H122.384C121.947 92.5063 121.51 92.3605 121.267 92.1662C121.267 92.1662 121.267 92.1662 121.218 92.1662L120.489 93.7698L120.538 93.8184C120.878 94.3044 121.315 95.4707 121.461 96.151L120.198 96.88C119.76 96.4426 119.08 95.7137 118.788 95.1791C118.74 95.0819 118.691 94.9847 118.643 94.8875C118.643 94.8875 118.643 94.8389 118.594 94.8389L116.844 94.6446V94.6932C116.844 94.7418 116.844 94.839 116.844 94.9361C116.844 95.4707 116.553 96.151 116.407 96.4912L114.609 95.4221C114.415 94.839 114.172 93.867 114.172 93.3325C114.172 93.2353 114.172 93.1867 114.172 93.1381V93.0895L112.422 91.2428C112.422 91.2428 112.422 91.2428 112.374 91.2914C112.131 91.583 111.353 91.583 110.819 91.4858L109.555 89.2504C109.701 88.813 110.041 88.2299 110.381 88.0355C110.43 88.0355 110.478 87.9869 110.527 87.9869H110.576L109.847 85.5571H109.798C109.409 85.4113 108.535 84.5852 108 84.0506V82.0096C108.486 82.0096 109.361 82.204 109.798 82.5441L109.847 82.5927L110.576 80.9891L110.527 80.9405C110.478 80.8919 110.43 80.7947 110.381 80.6975C110.09 80.1629 109.749 79.191 109.604 78.6078L110.867 77.8789C111.402 78.4135 112.228 79.3368 112.422 79.8713C112.374 79.8228 112.422 79.8713 112.471 79.8713ZM114.269 83.2245C113.88 83.1759 113.491 83.2245 113.2 83.4189C112.568 83.759 112.276 84.5366 112.276 85.5085C112.276 86.529 112.617 87.6467 113.2 88.7158C114.463 90.9027 116.504 92.069 117.768 91.34C118.108 91.1456 118.302 90.8541 118.497 90.5139C118.643 90.1737 118.74 89.7364 118.74 89.2504C118.74 88.2299 118.4 87.1122 117.816 86.0431C117.185 84.9739 116.407 84.1478 115.532 83.6132C115.095 83.4189 114.658 83.2731 114.269 83.2245Z" fill="#F3F4FB"/>
<path d="M277.114 97.6571C277.746 99.0664 278.086 100.476 278.086 101.788C278.086 102.565 277.941 103.294 277.698 103.877C277.6 104.072 277.503 104.266 277.406 104.412C275.365 104.558 272.741 102.662 270.991 99.6495C269.971 97.9001 269.436 96.0048 269.436 94.3525C269.436 93.2834 269.679 92.4087 270.117 91.7284C270.311 91.7284 270.505 91.7284 270.748 91.7284C271.38 91.7769 272.06 92.0199 272.741 92.4573C274.199 93.2834 275.511 94.6927 276.531 96.4908C276.726 96.8309 276.92 97.2197 277.114 97.6571ZM283.869 96.102C284.404 95.7618 284.987 94.7413 285.279 94.0124L283.043 90.1247C282.266 89.9789 281.099 89.9789 280.516 90.2705L280.225 90.4649L277.212 87.2575C277.212 87.2089 277.212 87.2089 277.212 87.1603C277.212 87.0631 277.26 86.9659 277.26 86.8201C277.26 85.8482 276.774 84.1474 276.434 83.1268L273.275 81.2802L271.186 82.4951C271.04 82.7381 270.894 83.1268 270.748 83.5156V83.5642C270.651 83.8072 270.603 84.0502 270.505 84.3417L269.485 84.2446C269.485 84.196 269.436 84.196 269.436 84.1474C269.048 83.1754 267.638 81.5718 266.666 80.6484L262.293 83.1754C262.487 84.0502 262.924 85.2651 263.362 86.1884C263.459 86.4314 263.556 86.6258 263.702 86.8201C263.799 87.0145 263.896 87.1603 263.994 87.2575C263.994 87.3061 264.042 87.3061 264.042 87.3547L263.605 88.278C262.924 88.0836 262.195 87.9865 261.661 87.9379L259.571 89.1528V92.8461C260.446 93.8666 261.952 95.3245 262.681 95.5189C262.73 95.5189 262.73 95.5188 262.779 95.5674L264.042 99.7953L263.751 99.9897C263.216 100.33 262.633 101.35 262.341 102.128L264.577 106.016C265.403 106.161 266.569 106.161 267.104 105.87L267.395 105.675L270.408 108.883C270.408 108.931 270.408 108.931 270.408 108.98C270.408 109.077 270.36 109.174 270.36 109.32C270.36 110.292 270.846 111.993 271.186 113.013L274.345 114.86L276.434 113.645C276.677 113.208 276.969 112.527 277.114 111.799L278.135 111.896C278.135 111.944 278.184 112.042 278.232 112.09C278.281 112.236 278.378 112.333 278.427 112.479C279.01 113.451 280.127 114.714 280.905 115.492L282.995 114.277L283.14 114.18L285.23 112.965C284.89 111.701 284.21 109.66 283.578 108.834C283.578 108.786 283.529 108.786 283.529 108.737L283.967 107.814C284.21 107.911 284.501 107.959 284.744 108.008H284.793C285.181 108.105 285.57 108.105 285.91 108.105L288 106.89V103.197C287.125 102.177 285.619 100.719 284.89 100.524C284.841 100.524 284.841 100.524 284.793 100.476L283.529 96.2478L283.869 96.102Z" fill="#105383"/>
<path d="M267.347 85.4592L270.36 85.7507V85.7021V85.6535C270.36 85.5564 270.311 85.4106 270.311 85.2648C270.311 84.7302 270.457 84.0985 270.651 83.5639V83.5153C270.797 83.1265 270.943 82.7378 271.089 82.4948L274.248 84.3414C274.588 85.3134 275.074 87.0628 275.074 88.0347C275.074 88.1805 275.074 88.2777 275.025 88.3749C275.025 88.4235 275.025 88.4235 275.025 88.4721L278.087 91.7281L278.135 91.6795C278.184 91.6309 278.281 91.5337 278.33 91.4851C278.913 91.1935 280.079 91.1935 280.857 91.3393L283.092 95.227C282.801 96.0045 282.266 97.025 281.683 97.3166C281.586 97.3652 281.488 97.4138 281.44 97.4138H281.391L282.655 101.69C282.703 101.69 282.703 101.69 282.752 101.739C283.481 101.982 284.987 103.44 285.862 104.412V108.105C285.57 108.105 285.182 108.056 284.744 108.008H284.696C283.967 107.862 283.189 107.619 282.752 107.23L282.703 107.182C282.703 107.182 282.655 107.182 282.655 107.133L281.391 109.952C281.391 110 281.44 110 281.44 110.049C282.072 110.875 282.801 112.916 283.092 114.179L280.857 115.492C280.079 114.714 278.913 113.402 278.378 112.479C278.281 112.284 278.184 112.138 278.135 111.993C278.135 111.944 278.087 111.944 278.087 111.895L275.025 111.604C275.025 111.652 275.025 111.652 275.025 111.701C275.025 111.798 275.074 111.944 275.074 112.09C275.074 113.062 274.588 114.228 274.248 114.86L271.089 113.013C270.749 112.041 270.263 110.292 270.263 109.32C270.263 109.174 270.263 109.077 270.311 108.98C270.311 108.931 270.311 108.931 270.311 108.882L267.25 105.627L267.201 105.675C266.812 106.161 265.403 106.161 264.431 106.015L262.196 102.128C262.487 101.35 263.07 100.281 263.605 99.9894C263.702 99.9408 263.751 99.9408 263.848 99.8922H263.897L262.633 95.6157C262.585 95.6157 262.585 95.6157 262.536 95.5671C261.807 95.3242 260.301 93.8663 259.426 92.8944V89.2011C260.301 89.2011 261.807 89.4926 262.536 90.1244C262.585 90.1244 262.585 90.173 262.633 90.173L263.897 87.3544C263.897 87.3058 263.848 87.3058 263.848 87.2572C263.751 87.1114 263.654 86.9656 263.556 86.8198C263.022 85.8479 262.439 84.1957 262.196 83.1265L264.431 81.8145C265.355 82.7378 266.764 84.3414 267.201 85.3134C267.201 85.362 267.25 85.362 267.25 85.4106L267.347 85.4592ZM270.7 91.7281C270.02 91.6309 269.437 91.7767 268.902 92.0682C267.882 92.6514 267.347 93.8663 267.347 95.5671C267.347 97.2194 267.93 99.1147 268.902 100.864C270.992 104.509 274.393 106.453 276.483 105.238C277.018 104.946 277.406 104.46 277.698 103.828C277.941 103.245 278.087 102.565 278.087 101.739C278.087 100.087 277.504 98.1913 276.532 96.4419C275.511 94.6924 274.15 93.2345 272.741 92.4084C272.012 92.0682 271.332 91.8252 270.7 91.7281Z" fill="#F3F4FB"/>
<path d="M172.243 42.8885C173.167 43.4231 173.75 44.7838 173.604 45.9015C172.583 53.1909 171.563 60.4317 170.542 67.7211L168.599 68.4501C169.619 61.1607 170.64 53.9198 171.66 46.6304C171.806 45.5127 171.223 44.152 170.299 43.6175C165.586 40.8961 160.823 38.1261 156.109 35.4047L158.053 34.6758C162.767 37.4458 167.529 40.1671 172.243 42.8885Z" fill="url(#paint8_linear_1010_10284)"/>
<path d="M147.12 23.5466C147.411 23.4495 147.703 23.498 148.043 23.6924C149.501 24.5186 151.007 25.3933 152.465 26.268C153.048 26.6082 153.632 27.1914 154.02 27.9203C155.332 30.2043 156.693 32.4883 158.005 34.7237L156.061 35.4527C154.749 33.1687 153.389 30.8847 152.076 28.6492C151.639 27.9203 151.105 27.3371 150.521 26.997C149.063 26.1222 147.557 25.2961 146.099 24.4214C145.759 24.227 145.467 24.1784 145.176 24.2756C145.856 24.0326 146.488 23.7896 147.12 23.5466Z" fill="url(#paint9_linear_1010_10284)"/>
<path d="M170.3 43.6181C171.223 44.1527 171.807 45.4648 171.661 46.6311C170.64 53.9205 169.62 61.1613 168.599 68.4507C168.599 61.6473 168.599 54.8924 168.599 48.089C168.599 47.0199 167.87 45.7564 166.947 45.2218C159.172 40.7024 151.396 36.2315 143.572 31.7121C143.718 30.643 144.35 26.3665 144.496 25.2974C144.593 24.7628 144.836 24.3741 145.225 24.2283C145.516 24.1311 145.808 24.1797 146.148 24.3741C147.606 25.2488 149.112 26.0749 150.57 26.9497C151.153 27.2898 151.736 27.873 152.125 28.6019C153.437 30.886 154.749 33.17 156.11 35.4054C160.824 38.1268 165.586 40.8967 170.3 43.6181Z" fill="url(#paint10_linear_1010_10284)"/>
<path d="M145.71 20L166.606 32.0518V64.6112L145.71 52.5594V20Z" fill="url(#paint11_linear_1010_10284)"/>
<path d="M166.655 49.207C166.655 56.0104 166.655 62.7653 166.655 69.5688L138.761 53.4348C138.761 46.6314 138.761 39.8765 138.761 33.0731C138.761 32.5385 138.955 32.1983 139.247 32.004C139.538 31.8582 139.927 31.8582 140.413 32.1498C148.626 36.8636 156.838 41.626 165.003 46.3398C165.926 46.8744 166.655 48.1379 166.655 49.207Z" fill="url(#paint12_linear_1010_10284)"/>
<path d="M168.599 68.4504L166.655 69.5681C166.655 62.7646 166.655 56.0098 166.655 49.2063C166.655 48.1372 165.926 46.8737 165.003 46.3391C156.79 41.6253 148.578 36.8629 140.413 32.1491C139.976 31.9061 139.539 31.8575 139.247 32.0033C139.879 31.6145 141.191 30.8856 141.191 30.8856C141.482 30.6912 141.92 30.7398 142.357 30.9828C142.795 31.2257 159.171 40.702 166.947 45.1728C167.87 45.7074 168.599 46.9709 168.599 48.04C168.599 54.8435 168.599 61.6469 168.599 68.4504Z" fill="url(#paint13_linear_1010_10284)"/>
<path d="M251.893 150.87C251.844 150.87 251.844 150.87 251.796 150.87C251.407 150.821 251.067 150.578 250.97 150.19L227.887 75.2058L205.727 115.881C205.581 116.172 205.241 116.367 204.901 116.367C204.901 116.367 204.901 116.367 204.852 116.367C204.512 116.367 204.22 116.172 204.026 115.881L184.247 83.5643L162.622 99.358C162.233 99.6496 161.699 99.601 161.359 99.2608L139.442 77.344L120.927 87.5492C120.441 87.7922 119.857 87.6464 119.614 87.1604C119.371 86.6744 119.517 86.0913 120.003 85.8483L139.15 75.303C139.539 75.1086 140.025 75.1572 140.316 75.4487L162.185 97.3656L183.956 81.4261C184.199 81.2803 184.442 81.1831 184.733 81.2803C184.976 81.3289 185.219 81.4747 185.365 81.7176L204.803 113.499L227.303 72.2414C227.498 71.9012 227.887 71.7068 228.275 71.7554C228.664 71.804 229.004 72.047 229.101 72.4358L252.136 147.322L271.866 107.814C272.109 107.328 272.692 107.133 273.178 107.376C273.664 107.619 273.859 108.203 273.616 108.688L252.816 150.384C252.573 150.676 252.233 150.87 251.893 150.87Z" fill="white"/>
<path d="M235.759 143.92C236.682 144.454 237.265 145.815 237.12 146.933C236.099 154.222 235.079 161.463 234.058 168.752L232.114 169.481C233.135 162.192 234.155 154.951 235.176 147.662C235.322 146.544 234.738 145.183 233.815 144.649C229.101 141.927 224.339 139.157 219.625 136.436L221.569 135.707C226.283 138.477 231.045 141.198 235.759 143.92Z" fill="url(#paint14_linear_1010_10284)"/>
<path d="M210.683 124.578C210.975 124.481 211.266 124.529 211.606 124.724C213.064 125.55 214.571 126.425 216.029 127.299C216.612 127.639 217.195 128.223 217.584 128.952C218.896 131.236 220.257 133.52 221.569 135.755L219.625 136.484C218.313 134.2 216.952 131.916 215.64 129.68C215.203 128.952 214.668 128.368 214.085 128.028C212.627 127.153 211.12 126.327 209.663 125.453C209.322 125.258 209.031 125.21 208.739 125.307C209.371 125.064 210.003 124.821 210.683 124.578Z" fill="url(#paint15_linear_1010_10284)"/>
<path d="M233.864 144.649C234.787 145.184 235.37 146.496 235.224 147.662C234.204 154.952 233.183 162.193 232.163 169.482C232.163 162.679 232.163 155.924 232.163 149.12C232.163 148.051 231.434 146.788 230.51 146.253C222.735 141.734 214.96 137.263 207.136 132.743C207.282 131.674 207.913 127.398 208.059 126.329C208.156 125.794 208.399 125.405 208.788 125.26C209.08 125.162 209.371 125.211 209.711 125.405C211.169 126.28 212.676 127.106 214.134 127.981C214.717 128.321 215.3 128.904 215.689 129.633C217.001 131.917 218.313 134.201 219.674 136.437C224.387 139.158 229.101 141.928 233.864 144.649Z" fill="url(#paint16_linear_1010_10284)"/>
<path d="M209.226 121.031L230.171 133.083V165.642L209.226 153.591V121.031Z" fill="url(#paint17_linear_1010_10284)"/>
<path d="M230.171 150.238C230.171 157.042 230.171 163.797 230.171 170.6L202.276 154.466C202.276 147.663 202.276 140.908 202.276 134.104C202.276 133.57 202.471 133.23 202.762 133.035C203.054 132.889 203.443 132.889 203.929 133.181C212.141 137.895 220.354 142.657 228.518 147.371C229.442 147.906 230.171 149.169 230.171 150.238Z" fill="url(#paint18_linear_1010_10284)"/>
<path d="M232.163 169.482L230.219 170.599C230.219 163.796 230.219 157.041 230.219 150.238C230.219 149.168 229.49 147.905 228.566 147.37C220.354 142.657 212.141 137.894 203.977 133.18C203.539 132.937 203.102 132.889 202.811 133.035C203.442 132.646 204.754 131.917 204.754 131.917C205.046 131.722 205.483 131.771 205.921 132.014C206.358 132.257 222.735 141.733 230.51 146.204C231.434 146.739 232.163 148.002 232.163 149.071C232.163 155.875 232.163 162.678 232.163 169.482Z" fill="url(#paint19_linear_1010_10284)"/>
<path d="M221.715 150.043C221.86 149.946 221.812 149.605 221.666 149.362L220.062 147.03C219.916 146.835 219.722 146.69 219.576 146.787L217.487 148.002C217.487 148.002 217.487 148.002 217.438 148.002L214.668 150.529L214.62 150.48L212.773 147.224C212.627 146.981 212.384 146.835 212.238 146.933L208.739 148.974C208.594 149.071 208.594 149.265 208.691 149.508C208.691 149.508 208.691 149.557 208.739 149.557L212.481 156.457C212.627 156.749 212.87 156.895 213.016 156.798L215.105 155.583C215.105 155.583 215.105 155.583 215.154 155.583L221.715 150.043Z" fill="#ED6C5A"/>
<path d="M213.016 156.847C212.87 156.944 212.627 156.798 212.481 156.506L208.739 149.606C208.593 149.363 208.593 149.071 208.739 149.023L210.149 148.196C210.294 148.099 210.537 148.245 210.683 148.488L212.53 151.744C212.676 151.987 212.918 152.133 213.064 152.036C213.064 152.036 213.064 152.036 213.113 152.036L217.438 148.099C217.438 148.099 217.438 148.099 217.487 148.099C217.632 148.002 217.827 148.148 217.972 148.342L219.576 150.675C219.771 150.918 219.771 151.209 219.625 151.355L213.016 156.847Z" fill="#F3F4FB"/>
<defs>
<linearGradient id="paint0_linear_1010_10284" x1="138.994" y1="30.5577" x2="101.507" y2="126.387" gradientUnits="userSpaceOnUse">
<stop offset="0.00505051" stop-color="#20B0D3"/>
<stop offset="0.56" stop-color="#24D4C3"/>
<stop offset="1" stop-color="#27F3B5"/>
</linearGradient>
<linearGradient id="paint1_linear_1010_10284" x1="159.125" y1="38.4342" x2="121.638" y2="134.263" gradientUnits="userSpaceOnUse">
<stop offset="0.00505051" stop-color="#20B0D3"/>
<stop offset="0.56" stop-color="#24D4C3"/>
<stop offset="1" stop-color="#27F3B5"/>
</linearGradient>
<linearGradient id="paint2_linear_1010_10284" x1="183.323" y1="47.8985" x2="145.835" y2="143.727" gradientUnits="userSpaceOnUse">
<stop offset="0.00505051" stop-color="#20B0D3"/>
<stop offset="0.56" stop-color="#24D4C3"/>
<stop offset="1" stop-color="#27F3B5"/>
</linearGradient>
<linearGradient id="paint3_linear_1010_10284" x1="201.569" y1="55.0379" x2="164.082" y2="150.867" gradientUnits="userSpaceOnUse">
<stop offset="0.00505051" stop-color="#20B0D3"/>
<stop offset="0.56" stop-color="#24D4C3"/>
<stop offset="1" stop-color="#27F3B5"/>
</linearGradient>
<linearGradient id="paint4_linear_1010_10284" x1="226.095" y1="64.6325" x2="188.608" y2="160.462" gradientUnits="userSpaceOnUse">
<stop offset="0.00505051" stop-color="#20B0D3"/>
<stop offset="0.56" stop-color="#24D4C3"/>
<stop offset="1" stop-color="#27F3B5"/>
</linearGradient>
<linearGradient id="paint5_linear_1010_10284" x1="245.548" y1="72.2419" x2="208.06" y2="168.071" gradientUnits="userSpaceOnUse">
<stop offset="0.00505051" stop-color="#20B0D3"/>
<stop offset="0.56" stop-color="#24D4C3"/>
<stop offset="1" stop-color="#27F3B5"/>
</linearGradient>
<linearGradient id="paint6_linear_1010_10284" x1="270.179" y1="81.8762" x2="232.691" y2="177.705" gradientUnits="userSpaceOnUse">
<stop offset="0.00505051" stop-color="#20B0D3"/>
<stop offset="0.56" stop-color="#24D4C3"/>
<stop offset="1" stop-color="#27F3B5"/>
</linearGradient>
<linearGradient id="paint7_linear_1010_10284" x1="291.422" y1="90.1862" x2="253.934" y2="186.015" gradientUnits="userSpaceOnUse">
<stop offset="0.00505051" stop-color="#20B0D3"/>
<stop offset="0.56" stop-color="#24D4C3"/>
<stop offset="1" stop-color="#27F3B5"/>
</linearGradient>
<linearGradient id="paint8_linear_1010_10284" x1="166.408" y1="53.7169" x2="165.029" y2="41.7644" gradientUnits="userSpaceOnUse">
<stop stop-color="#FFBB82"/>
<stop offset="0.4594" stop-color="#FFBB82"/>
<stop offset="0.6312" stop-color="#FFDC84"/>
<stop offset="0.6749" stop-color="#FFE585"/>
</linearGradient>
<linearGradient id="paint9_linear_1010_10284" x1="154.958" y1="43.5519" x2="150.821" y2="26.0818" gradientUnits="userSpaceOnUse">
<stop offset="0.0353535" stop-color="#FF9E6E"/>
<stop offset="0.3036" stop-color="#FFAD73"/>
<stop offset="0.821" stop-color="#FFD680"/>
<stop offset="1" stop-color="#FFE585"/>
</linearGradient>
<linearGradient id="paint10_linear_1010_10284" x1="154.116" y1="49.9166" x2="167.484" y2="32.2711" gradientUnits="userSpaceOnUse">
<stop offset="0.0353535" stop-color="#FF9E6E"/>
<stop offset="0.3036" stop-color="#FFAD73"/>
<stop offset="0.821" stop-color="#FFD680"/>
<stop offset="1" stop-color="#FFE585"/>
</linearGradient>
<linearGradient id="paint11_linear_1010_10284" x1="159.722" y1="35.8167" x2="156.232" y2="42.1797" gradientUnits="userSpaceOnUse">
<stop offset="0.3128" stop-color="white"/>
<stop offset="0.5587" stop-color="#E3ECF3"/>
</linearGradient>
<linearGradient id="paint12_linear_1010_10284" x1="157.253" y1="40.9063" x2="147.686" y2="62.3897" gradientUnits="userSpaceOnUse">
<stop offset="0.0353535" stop-color="#FF9E6E"/>
<stop offset="0.3036" stop-color="#FFAD73"/>
<stop offset="0.821" stop-color="#FFD680"/>
<stop offset="1" stop-color="#FFE585"/>
</linearGradient>
<linearGradient id="paint13_linear_1010_10284" x1="155.311" y1="62.5138" x2="153.885" y2="39.3429" gradientUnits="userSpaceOnUse">
<stop stop-color="#FFBB82"/>
<stop offset="0.4594" stop-color="#FFBB82"/>
<stop offset="0.6312" stop-color="#FFDC84"/>
<stop offset="0.6749" stop-color="#FFE585"/>
</linearGradient>
<linearGradient id="paint14_linear_1010_10284" x1="229.941" y1="154.748" x2="228.561" y2="142.796" gradientUnits="userSpaceOnUse">
<stop stop-color="#FFBB82"/>
<stop offset="0.4594" stop-color="#FFBB82"/>
<stop offset="0.6312" stop-color="#FFDC84"/>
<stop offset="0.6749" stop-color="#FFE585"/>
</linearGradient>
<linearGradient id="paint15_linear_1010_10284" x1="218.49" y1="144.583" x2="214.353" y2="127.113" gradientUnits="userSpaceOnUse">
<stop offset="0.0353535" stop-color="#FF9E6E"/>
<stop offset="0.3036" stop-color="#FFAD73"/>
<stop offset="0.821" stop-color="#FFD680"/>
<stop offset="1" stop-color="#FFE585"/>
</linearGradient>
<linearGradient id="paint16_linear_1010_10284" x1="217.648" y1="150.948" x2="231.016" y2="133.302" gradientUnits="userSpaceOnUse">
<stop offset="0.0353535" stop-color="#FF9E6E"/>
<stop offset="0.3036" stop-color="#FFAD73"/>
<stop offset="0.821" stop-color="#FFD680"/>
<stop offset="1" stop-color="#FFE585"/>
</linearGradient>
<linearGradient id="paint17_linear_1010_10284" x1="223.255" y1="136.848" x2="219.765" y2="143.211" gradientUnits="userSpaceOnUse">
<stop offset="0.3128" stop-color="white"/>
<stop offset="0.5587" stop-color="#E3ECF3"/>
</linearGradient>
<linearGradient id="paint18_linear_1010_10284" x1="220.786" y1="141.938" x2="211.218" y2="163.421" gradientUnits="userSpaceOnUse">
<stop offset="0.0353535" stop-color="#FF9E6E"/>
<stop offset="0.3036" stop-color="#FFAD73"/>
<stop offset="0.821" stop-color="#FFD680"/>
<stop offset="1" stop-color="#FFE585"/>
</linearGradient>
<linearGradient id="paint19_linear_1010_10284" x1="218.843" y1="163.545" x2="217.417" y2="140.374" gradientUnits="userSpaceOnUse">
<stop stop-color="#FFBB82"/>
<stop offset="0.4594" stop-color="#FFBB82"/>
<stop offset="0.6312" stop-color="#FFDC84"/>
<stop offset="0.6749" stop-color="#FFE585"/>
</linearGradient>
</defs>
</svg>
