<svg width="328" height="210" viewBox="0 0 328 210" fill="none" xmlns="http://www.w3.org/2000/svg">
<g clip-path="url(#clip0_1010_10292)">
<path d="M258.688 109.579C256.685 108.427 254.733 108.277 253.23 109.128C253.23 109.128 252.93 109.328 252.429 109.579C251.228 110.029 249.525 109.378 248.023 107.876C247.022 106.825 246.171 105.523 245.67 104.071C245.57 103.871 245.57 103.62 245.57 103.42V85.3952L181.581 48.444L179.378 49.6957V47.1923L157.247 34.4246C155.445 33.3731 153.793 31.12 153.142 28.7667C152.591 26.7139 152.841 24.9614 153.843 24.1103L154.694 23.6096C156.196 22.7584 157.047 21.006 157.047 18.6527C157.047 13.3453 152.741 6.53591 147.434 3.48167C144.53 1.82938 141.926 1.57904 140.174 2.63049L133.665 6.3857C132.213 7.23688 131.311 8.93924 131.311 11.3426C131.311 13.1451 131.812 15.1478 132.713 17.1506C133.064 17.9517 133.514 18.8029 134.015 19.604C134.266 20.0046 134.466 20.4051 134.666 20.8057C134.766 21.006 134.866 21.2563 134.916 21.4566L115.389 10.191L108.88 13.9462V69.2729L111.083 70.5246L108.88 71.7763V85.0447C108.48 84.544 108.129 84.0433 107.779 83.4425C107.729 83.3924 107.729 83.3424 107.679 83.2923C106.127 80.3382 104.074 78.0851 101.871 76.8334C99.7677 75.6317 97.8651 75.5316 96.413 76.3827L89.904 80.1379C88.1516 81.1393 87 83.4926 87 86.8472C87 89.5009 87.701 92.3048 88.8526 94.9084C90.4047 98.3131 92.7079 101.267 95.3616 102.769C97.3644 103.921 99.3171 104.071 100.819 103.22L101.62 102.769C102.822 102.319 104.524 102.97 106.026 104.472C106.878 105.323 107.579 106.374 108.029 107.476C108.53 108.627 108.83 109.779 108.83 110.881V127.203L172.819 164.154L175.022 162.903V165.456L198.605 179.075C198.755 179.175 198.905 179.275 199.055 179.476C199.756 180.277 200.357 181.178 200.758 182.129C200.958 182.58 201.158 183.081 201.258 183.531C201.809 185.584 201.559 187.337 200.557 188.188L199.756 188.638C198.254 189.54 197.403 191.242 197.403 193.595C197.403 195.448 197.904 197.451 198.805 199.403C200.507 203.158 203.562 206.763 207.016 208.766C209.92 210.419 212.524 210.669 214.276 209.617L220.785 205.862C222.237 205.011 223.139 203.309 223.139 200.905C223.139 198.402 222.187 195.448 220.435 192.644C220.135 192.193 219.884 191.693 219.684 191.242L239.011 202.407L245.52 198.652V143.326L243.317 142.074L245.52 140.822V127.804C245.77 128.154 246.02 128.555 246.271 128.956C246.271 129.006 246.321 129.056 246.321 129.106V129.156C247.873 132.06 249.926 134.363 252.129 135.615C254.232 136.817 256.134 136.917 257.586 136.065L264.095 132.31C265.848 131.309 267 128.956 267 125.601C267.05 119.392 263.294 112.232 258.688 109.579Z" fill="#1599DD"/>
<path d="M175.072 52.248L239.06 89.1993V107.224C239.06 107.425 239.11 107.625 239.16 107.875C239.661 109.277 240.512 110.629 241.514 111.68C243.116 113.333 244.968 113.934 246.22 113.233C246.27 113.183 246.32 113.183 246.37 113.132C246.471 113.032 246.621 112.982 246.721 112.932C248.223 112.081 250.176 112.231 252.178 113.383C256.785 116.036 260.54 123.196 260.54 129.305C260.54 132.66 259.438 135.013 257.636 136.014C256.184 136.865 254.281 136.765 252.178 135.564C250.025 134.312 247.923 132.009 246.37 129.105V129.055C246.37 129.004 246.32 128.954 246.32 128.904C245.069 126.701 243.216 125.149 241.564 124.899C240.963 124.799 240.462 124.899 240.012 125.149C239.711 125.349 239.411 125.6 239.21 125.95C239.11 126.1 239.11 126.251 239.11 126.451V144.476L215.478 130.807C215.327 130.707 215.127 130.657 214.977 130.657C214.576 130.657 214.176 130.757 213.875 130.957C213.425 131.207 213.124 131.608 212.874 132.159C212.223 133.711 212.674 136.265 214.026 138.417C215.778 141.221 216.729 144.175 216.729 146.679C216.729 149.082 215.828 150.785 214.376 151.636C212.824 152.537 210.621 152.487 208.117 151.285C207.817 151.135 207.466 150.935 207.116 150.785C206.765 150.584 206.465 150.384 206.115 150.184C201.258 146.879 197.503 140.621 197.503 135.614C197.503 133.26 198.354 131.558 199.856 130.657C199.956 130.607 200.056 130.557 200.156 130.507C200.206 130.507 200.206 130.507 200.256 130.456C200.307 130.456 200.307 130.406 200.357 130.406C201.608 129.705 202.009 127.803 201.358 125.55C200.957 124.148 200.206 122.746 199.255 121.594C199.105 121.394 198.955 121.294 198.754 121.194L175.122 107.525V89.4496C175.122 89.4496 175.172 89.4496 175.172 89.3995C175.222 89.3995 175.272 89.3495 175.272 89.3495C175.472 89.2493 175.672 89.2493 175.923 89.2994C176.023 89.2994 176.073 89.3495 176.173 89.3495C176.323 89.3995 176.423 89.4496 176.574 89.4997C177.225 89.8001 177.875 90.5011 178.326 91.3022C178.326 91.3523 178.376 91.3522 178.376 91.4023C180.229 94.8571 182.682 97.6109 185.286 99.3133C185.436 99.4134 185.636 99.5136 185.786 99.6137C188.49 101.166 190.944 101.266 192.796 100.215C194.949 98.9628 196.301 96.1088 196.301 92.0532C196.301 84.5428 191.594 75.6805 185.736 72.3259C183.133 70.8238 180.629 70.6235 178.727 71.725C178.576 71.8252 178.426 71.8753 178.276 71.9754C178.226 71.9754 178.226 72.0255 178.176 72.0255C177.725 72.2758 177.074 72.1757 176.473 71.7751C176.323 71.675 176.223 71.5748 176.073 71.4747C175.973 71.3746 175.873 71.3245 175.823 71.2243C175.522 70.9239 175.222 70.5234 175.021 70.1228V52.248H175.072Z" fill="url(#paint0_linear_1010_10292)"/>
<path d="M156.596 118.741C158.048 117.89 159.951 117.99 162.054 119.191C164.207 120.443 166.31 122.746 167.862 125.65C167.912 125.7 167.912 125.751 167.962 125.801C169.214 128.004 171.066 129.556 172.719 129.806C173.32 129.906 173.82 129.806 174.271 129.556C174.521 129.406 174.722 129.255 174.872 129.005C174.922 128.955 174.922 128.905 174.972 128.855C175.022 128.805 175.022 128.755 175.022 128.705V128.655C175.022 128.605 175.022 128.504 175.022 128.454V110.129L198.404 123.598C198.504 123.748 198.605 123.848 198.655 123.998C198.905 124.399 199.105 124.849 199.256 125.3C199.506 126.151 199.456 126.902 199.105 127.403C199.005 127.553 198.905 127.653 198.755 127.753C198.755 127.753 198.705 127.753 198.705 127.803C198.555 127.853 198.404 127.954 198.254 128.054C196.602 129.005 195.55 130.808 195.3 133.261C195.25 133.662 195.25 134.012 195.25 134.413C195.25 141.122 200.557 149.634 207.066 153.389C210.571 155.392 213.726 155.642 215.879 154.39C217.731 153.339 218.883 151.136 218.883 148.031C218.883 144.777 217.681 141.022 215.428 137.467C214.727 136.365 214.527 135.114 214.827 134.312C214.927 134.062 215.128 133.812 215.328 133.712C215.428 133.662 215.528 133.611 215.678 133.611L239.061 147.08V202.407L215.478 188.788C215.328 188.688 215.178 188.638 215.027 188.638C214.577 188.638 214.126 188.738 213.776 188.938C213.325 189.188 213.025 189.589 212.774 190.14C212.123 191.692 212.574 194.246 213.926 196.398C215.678 199.202 216.63 202.156 216.63 204.66C216.63 207.063 215.728 208.766 214.276 209.617C212.524 210.618 209.92 210.418 207.016 208.766C201.709 205.711 197.403 198.902 197.403 193.595C197.403 191.241 198.254 189.539 199.756 188.638C199.856 188.588 200.007 188.488 200.107 188.437C200.157 188.437 200.157 188.387 200.207 188.387C200.257 188.387 200.257 188.337 200.307 188.337C201.559 187.636 201.909 185.734 201.308 183.481C200.908 181.979 200.107 180.577 199.055 179.425C198.905 179.275 198.755 179.125 198.605 179.024L175.022 165.406V147.08C175.022 146.98 175.022 146.93 175.022 146.83V146.78C175.022 146.73 174.972 146.63 174.972 146.579V146.529C174.972 146.479 174.922 146.429 174.922 146.379C174.922 146.329 174.922 146.329 174.872 146.279C174.371 145.027 173.62 143.926 172.719 143.025C171.117 141.372 169.264 140.771 168.012 141.472C167.962 141.522 167.912 141.522 167.862 141.572C167.762 141.673 167.612 141.723 167.512 141.773C166.009 142.624 164.057 142.474 162.054 141.322C157.448 138.668 153.692 131.509 153.692 125.4C153.742 122.146 154.844 119.792 156.596 118.741Z" fill="url(#paint1_linear_1010_10292)"/>
<path d="M108.881 14.0456L131.012 26.8133C132.213 27.5142 133.315 27.5643 134.116 27.1137C134.566 26.8633 134.867 26.4628 135.117 25.912C135.768 24.3599 135.317 21.8063 133.966 19.6533C132.213 16.8495 131.262 13.8954 131.262 11.3919C131.262 8.98856 132.163 7.2862 133.615 6.43502C135.368 5.43363 137.971 5.63391 140.875 7.2862C146.183 10.3404 150.489 17.1499 150.489 22.4572C150.489 24.8105 149.637 26.5128 148.135 27.4141C148.035 27.4642 147.885 27.5643 147.785 27.6144C147.735 27.6144 147.735 27.6644 147.685 27.6644C147.635 27.6644 147.635 27.7145 147.585 27.7145C146.333 28.4155 145.982 30.3181 146.583 32.5212C147.234 34.8744 148.886 37.1276 150.689 38.179L172.819 50.9467V69.4223C172.819 69.6727 172.87 69.9731 173.02 70.2735C173.52 71.4251 174.221 72.4265 175.073 73.2777C176.675 74.93 178.527 75.5308 179.779 74.8298C179.829 74.7797 179.879 74.7798 179.929 74.7297C180.029 74.6295 180.18 74.5795 180.28 74.5294C181.782 73.6782 183.735 73.8284 185.737 74.98C190.344 77.6337 194.099 84.7936 194.099 90.9021C194.099 94.2567 192.997 96.61 191.195 97.6114C189.743 98.4626 187.84 98.3624 185.737 97.1608C183.584 95.909 181.481 93.6058 179.929 90.6518C179.879 90.6017 179.879 90.5516 179.879 90.5015C178.628 88.2985 176.775 86.6963 175.123 86.496C174.522 86.3959 174.021 86.496 173.571 86.7463C173.37 86.8465 173.22 86.9967 173.07 87.1469C172.92 87.2971 172.87 87.4974 172.87 87.7477V106.223L150.639 93.5057C149.737 92.9549 148.936 91.8534 148.636 90.7018C148.536 90.4014 148.486 90.1511 148.486 89.9007C148.436 89.1497 148.686 88.5488 149.137 88.2985C149.187 88.2985 149.187 88.2484 149.237 88.2484C149.387 88.1984 149.537 88.0982 149.687 87.9981C151.59 86.8965 152.692 84.6434 152.692 81.6393C152.692 74.93 147.384 66.4182 140.875 62.663C137.37 60.6602 134.216 60.4098 132.063 61.6616C130.21 62.7631 129.059 64.9161 129.059 68.0204C129.059 71.2749 130.26 75.0301 132.514 78.585C133.215 79.6866 133.415 80.9383 133.114 81.7394C133.014 82.0398 132.814 82.2401 132.614 82.3402C132.213 82.5405 131.713 82.5405 131.112 82.19L108.881 69.3723V14.0456Z" fill="url(#paint2_linear_1010_10292)"/>
<path d="M89.904 80.2371C91.356 79.3859 93.2587 79.486 95.3616 80.6877C97.5146 81.9394 99.6175 84.2426 101.17 87.1466C101.22 87.1967 101.22 87.2468 101.27 87.2968C102.522 89.4999 104.374 91.052 106.026 91.3024C106.627 91.4025 107.128 91.3024 107.579 91.052C108.38 90.6014 108.88 89.55 108.88 88.1981V71.8755C108.88 71.8755 131.111 84.7433 131.161 84.7433C131.211 84.7934 131.261 84.7934 131.311 84.8434C131.361 84.8434 131.412 84.8935 131.462 84.8935C131.512 84.9436 131.562 84.9436 131.662 84.9436C131.712 84.9436 131.762 84.9936 131.812 84.9936C131.862 84.9936 131.912 85.0437 132.012 85.0437C132.062 85.0437 132.113 85.0938 132.163 85.0938C132.213 85.0938 132.263 85.1439 132.313 85.1439C132.363 85.1439 132.413 85.1439 132.463 85.1939C132.513 85.1939 132.563 85.1939 132.613 85.1939C132.663 85.1939 132.713 85.1939 132.763 85.1939C132.814 85.1939 132.864 85.1939 132.914 85.1939C132.964 85.1939 133.014 85.1939 133.014 85.1939C133.064 85.1939 133.114 85.1939 133.164 85.1939C133.214 85.1939 133.214 85.1939 133.264 85.1939C133.314 85.1939 133.364 85.1939 133.414 85.1439C133.464 85.1439 133.464 85.1439 133.514 85.1439C133.565 85.1439 133.615 85.0938 133.665 85.0938C133.715 85.0938 133.715 85.0938 133.765 85.0437C133.815 85.0437 133.865 84.9936 133.915 84.9936C133.915 84.9936 133.965 84.9936 134.015 84.9436C134.065 84.8935 134.115 84.8935 134.165 84.8434C134.165 84.8434 134.215 84.8434 134.215 84.7934C134.266 84.7433 134.316 84.6932 134.366 84.6432C134.366 84.6432 134.416 84.6432 134.416 84.5931C134.466 84.543 134.516 84.493 134.566 84.3928C134.616 84.2927 134.666 84.2426 134.766 84.1425C134.816 84.0423 134.866 83.9923 134.916 83.8921C134.966 83.792 135.017 83.6918 135.067 83.5917C135.718 82.0395 135.267 79.486 133.915 77.333C132.163 74.5291 131.211 71.575 131.211 69.0716C131.211 66.6682 132.113 64.9659 133.565 64.1147C135.317 63.1133 137.921 63.3136 140.825 64.9659C146.132 68.0201 150.438 74.8296 150.438 80.1369C150.438 82.4902 149.587 84.1925 148.085 85.0938C147.985 85.1439 147.834 85.244 147.734 85.2941C147.684 85.2941 147.684 85.3441 147.634 85.3441C147.584 85.3441 147.584 85.3942 147.534 85.3942C146.282 86.0952 145.932 87.9978 146.533 90.2009C146.583 90.3511 146.633 90.5013 146.683 90.6515V90.7016C146.733 90.8017 146.783 90.9519 146.833 91.052V91.1021C146.883 91.2023 146.933 91.3525 146.983 91.5027C147.784 93.3052 149.036 94.8573 150.488 95.7586C150.538 95.8086 150.588 95.8086 150.638 95.8587L172.769 108.626V126.802C172.719 126.852 172.719 126.852 172.669 126.852C172.619 126.852 172.619 126.902 172.569 126.902C172.519 126.902 172.468 126.952 172.468 126.952C172.418 126.952 172.418 127.002 172.368 127.002C172.318 127.002 172.268 127.002 172.218 127.002C172.168 127.002 172.168 127.002 172.118 127.002C172.018 127.002 171.968 127.002 171.868 127.002C171.016 126.902 170.065 126.101 169.464 124.949C169.464 124.949 169.414 124.899 169.414 124.849C167.411 121.144 164.808 118.24 162.004 116.638C159.3 115.085 156.847 114.985 154.994 116.037C152.841 117.288 151.489 120.142 151.489 124.198C151.489 131.708 156.196 140.571 162.054 143.925C164.658 145.427 167.161 145.628 169.064 144.526C169.214 144.426 169.364 144.376 169.514 144.276C169.564 144.276 169.564 144.226 169.615 144.226C170.215 143.875 171.167 144.176 171.968 144.977C172.068 145.077 172.168 145.177 172.268 145.277C172.368 145.377 172.418 145.477 172.519 145.578L172.569 145.628C172.619 145.728 172.669 145.778 172.719 145.878C172.769 145.928 172.769 145.978 172.769 146.028C172.819 146.078 172.869 146.178 172.869 146.229V164.153L108.88 127.202V110.88C108.88 108.777 107.729 106.223 106.026 104.521C104.424 102.868 102.572 102.268 101.32 102.969C101.27 103.019 101.22 103.019 101.17 103.069C101.07 103.169 100.919 103.219 100.819 103.269C99.3171 104.12 97.3644 103.97 95.3616 102.818C90.7552 100.165 87 93.0048 87 86.8963C87.0501 83.6418 88.1516 81.2885 89.904 80.2371Z" fill="url(#paint3_linear_1010_10292)"/>
<path d="M219.434 181.429C222.538 179.376 219.884 172.466 216.079 170.363C215.829 170.213 215.729 169.963 215.729 169.662C215.829 164.004 210.071 157.846 206.516 159.048C206.366 159.098 206.165 159.198 206.015 159.248L205.915 159.298C205.514 159.498 205.014 159.348 204.863 158.897C204.112 156.644 202.51 154.441 200.658 153.34C199.356 152.589 198.204 152.539 197.403 152.989L195.25 154.241C194.299 154.792 193.798 156.043 193.898 157.696C193.147 157.495 192.446 157.596 191.895 157.896L189.743 159.148C188.941 159.598 188.391 160.6 188.391 162.152C188.391 163.303 188.691 164.555 189.242 165.707C190.093 167.559 191.445 169.262 193.047 170.163C200.057 174.219 207.067 178.224 214.026 182.28C215.328 183.031 216.48 183.081 217.281 182.63L219.434 181.429Z" fill="#1599DD"/>
<path d="M217.281 182.68C216.43 183.181 215.278 183.081 213.976 182.38C206.967 178.324 199.957 174.319 192.997 170.263C190.444 168.761 188.341 165.206 188.341 162.202C188.341 159.098 190.494 158.196 192.847 159.448C193.398 159.748 194.099 159.298 193.949 158.647C193.248 155.042 195.351 152.789 198.455 154.641C200.307 155.743 201.91 157.946 202.661 160.199C202.811 160.65 203.362 160.85 203.762 160.6C207.167 158.497 213.576 165.006 213.476 170.964C213.476 171.264 213.576 171.515 213.826 171.665C217.782 173.718 220.385 180.577 217.281 182.68Z" fill="white"/>
<path d="M142.827 123.248L137.67 126.052L145.13 139.871C146.182 141.924 151.389 139.07 150.287 137.067L142.827 123.248Z" fill="url(#paint4_linear_1010_10292)"/>
<path d="M142.827 123.248L137.67 126.052L145.13 139.871C146.182 141.924 151.389 139.07 150.287 137.067L142.827 123.248Z" fill="url(#paint5_linear_1010_10292)"/>
<path d="M142.827 123.298C143.277 124.149 142.476 125.401 141.074 126.202C139.672 126.953 138.12 126.903 137.67 126.102C137.219 125.251 138.02 123.999 139.422 123.198C140.874 122.397 142.376 122.447 142.827 123.298Z" fill="url(#paint6_linear_1010_10292)"/>
<path d="M139.823 120.193L136.769 121.846L138.621 125.2C139.272 126.402 142.376 124.7 141.675 123.548L139.823 120.193Z" fill="url(#paint7_linear_1010_10292)"/>
<path d="M125.153 98.914C119.946 101.918 123.701 114.285 130.961 118.491C134.817 120.744 136.619 119.142 138.722 117.94C133.515 120.945 124.652 111.481 124.652 103.12C124.652 100.516 125.554 98.6637 127.056 97.8125L125.153 98.914Z" fill="url(#paint8_linear_1010_10292)"/>
<path d="M138.621 122.196C145.431 118.24 140.474 102.018 131.011 96.5603C128.057 94.858 125.353 94.6577 123.4 95.8093L125.353 94.6577C132.213 90.7022 143.779 103.17 143.779 114.085C143.729 119.793 140.875 120.894 138.621 122.196Z" fill="url(#paint9_linear_1010_10292)"/>
<path d="M131.011 96.5096C125.053 93.0549 120.246 95.8587 120.246 102.718C120.246 109.578 125.053 117.939 131.011 121.394C136.969 124.849 141.776 122.045 141.776 115.186C141.776 108.326 136.969 99.9644 131.011 96.5096ZM131.011 118.49C126.455 115.886 122.8 109.478 122.8 104.22C122.8 98.963 126.505 96.8601 131.011 99.4637C135.567 102.067 139.222 108.476 139.222 113.734C139.222 118.991 135.517 121.094 131.011 118.49Z" fill="#22313F"/>
<path d="M123.1 44.5879L161.303 66.6685V71.3249L123.1 49.2443V44.5879Z" fill="#105383"/>
<path d="M127.606 34.2246L155.395 50.2468C152.391 56.4054 153.092 63.0646 158.85 68.8226L131.061 52.8004C125.303 47.0424 124.552 40.3831 127.606 34.2246Z" fill="white"/>
<path d="M123.1 49.2461L125.052 48.1445L161.202 68.9734L161.303 71.3267L123.1 49.2461Z" fill="#1599DD"/>
<path d="M130.861 48.0929C130.761 48.143 130.56 48.0429 130.41 47.8426C127.306 42.1848 127.156 42.0345 127.406 41.8843L128.508 41.2334C129.108 40.8829 130.36 44.7884 130.861 44.2877C134.215 41.2334 134.266 41.1333 134.316 41.1333C134.416 41.0832 134.566 41.1333 134.716 41.3336C135.918 43.0359 136.318 43.4866 136.068 43.6868C131.011 47.9928 130.911 48.0929 130.861 48.0929Z" fill="url(#paint10_linear_1010_10292)"/>
<path d="M136.218 46.6426L151.088 55.2545V57.9583L136.218 49.3463V46.6426Z" fill="#EEEFFC"/>
<path d="M193.146 73.4793L189.842 65.2179L188.29 66.1191C181.53 59.6101 174.02 57.357 169.013 60.261L166.86 61.5128C166.309 61.8132 165.758 62.2137 165.258 62.6644C164.857 63.0148 164.957 63.6657 165.208 64.3166C165.608 65.2179 166.459 66.019 167.11 65.6685L169.263 64.4168C169.313 64.3667 169.363 64.3667 169.414 64.3166C169.514 64.2165 169.664 64.1164 169.764 64.0162C174.12 62.3639 180.078 64.4669 185.486 69.7742L184.534 71.1762L190.943 74.7812L193.146 73.4793Z" fill="#ED6C5A"/>
<path d="M165.258 62.664C170.315 58.0576 179.027 60.2106 186.688 67.9213L187.639 66.4693L190.944 74.7307L184.535 71.1257L185.486 69.7238C178.927 63.3149 171.517 61.5625 167.211 65.5179C166.209 66.4693 164.307 63.5652 165.258 62.664Z" fill="url(#paint11_linear_1010_10292)"/>
<path d="M230.499 126.504C229.999 125.252 229.047 124.851 228.547 125.152L226.394 126.404C226.043 126.604 225.893 127.155 226.243 128.056C228.647 133.964 229.948 142.275 226.744 147.232L225.893 145.58L223.74 146.832L221.587 152.54L227.896 154.893L230.049 153.641L228.747 151.138C235.256 146.181 233.704 134.365 230.499 126.504Z" fill="#ED6C5A"/>
<path d="M228.347 127.756C231.551 135.667 233.103 147.433 226.544 152.39L227.846 154.893L221.537 152.54L223.69 146.832L224.942 149.236C230.349 144.779 229.048 134.866 226.244 128.056C225.392 125.953 227.445 125.603 228.347 127.756Z" fill="url(#paint12_linear_1010_10292)"/>
<path d="M123.099 69.3229L125.252 63.615L118.944 61.2617L116.791 62.5135L118.092 65.0169C111.533 69.9738 113.086 81.7401 116.29 89.6511C116.29 89.7011 116.34 89.7512 116.34 89.8013C116.841 90.9529 117.742 91.3034 118.243 91.053L120.396 89.8013C120.746 89.601 120.896 89.0502 120.546 88.149C118.143 82.2408 116.841 73.9293 120.045 68.9223L120.896 70.5746L123.099 69.3229Z" fill="#ED6C5A"/>
<path d="M118.092 65.0171L116.791 62.5137L123.099 64.8669L120.946 70.5748L119.695 68.1715C114.287 72.6277 115.589 82.5414 118.393 89.3509C119.244 91.4037 117.141 91.7542 116.29 89.6513C113.086 81.7904 111.533 69.974 118.092 65.0171Z" fill="url(#paint13_linear_1010_10292)"/>
<path d="M185.836 158.095C186.838 157.394 185.286 154.64 184.184 155.04C184.134 155.04 184.084 155.091 184.034 155.091L182.632 155.892C177.925 157.995 171.166 155.441 165.358 149.232L166.41 147.981L160.001 143.875L157.848 145.127L160.752 153.438L162.254 152.587C169.314 160.097 177.525 163.002 182.932 159.897L185.085 158.645C185.386 158.395 185.586 158.245 185.836 158.095Z" fill="#ED6C5A"/>
<path d="M157.848 145.076L164.257 149.182L163.205 150.434C169.614 157.243 177.124 159.696 181.781 156.342C182.882 155.541 184.685 158.545 183.633 159.296C178.126 163.201 169.263 160.247 161.803 152.036L160.702 153.338L157.848 145.076Z" fill="url(#paint14_linear_1010_10292)"/>
<path d="M192.998 139.469C194.199 138.768 193.348 135.864 191.646 134.913L189.393 133.611V131.008C189.393 129.105 187.34 126.852 186.088 127.553L183.935 128.805C183.535 129.055 183.435 129.405 183.384 130.106C182.784 129.806 182.333 129.706 181.932 129.956L179.78 131.208C179.079 131.608 179.079 132.81 179.579 133.962C179.93 134.713 180.48 135.414 181.131 135.814L183.384 137.116V139.72C183.384 140.22 183.535 140.721 183.735 141.172C184.386 142.574 185.738 143.725 186.689 143.174C187.14 142.924 187.24 142.473 187.24 141.622C187.791 142.023 188.391 142.173 188.842 141.923C189.243 141.672 189.343 141.322 189.393 140.621C189.994 140.921 190.444 141.021 190.845 140.771L192.998 139.469Z" fill="#1599DD"/>
<path d="M190.845 140.721C192.046 140.02 191.195 137.116 189.493 136.165L187.24 134.863V132.26C187.24 130.357 185.187 128.104 183.935 128.805C183.184 129.205 183.384 130.207 183.384 132.66C181.281 131.458 180.53 130.808 179.779 131.208C178.578 131.909 179.429 134.813 181.131 135.764L183.384 137.066V139.67C183.384 141.572 185.437 143.826 186.689 143.125C187.44 142.724 187.24 141.723 187.24 139.269C189.292 140.471 190.093 141.122 190.845 140.721Z" fill="white"/>
<path d="M217.181 101.819C218.332 104.422 218.683 107.226 217.581 108.828C214.126 109.079 209.32 103.671 209.32 98.464C209.32 97.3124 209.57 96.4112 210.021 95.7603C210.221 95.7603 210.421 95.7603 210.672 95.7603C213.375 96.1108 215.879 98.8145 217.181 101.819ZM224.19 100.317C224.841 99.916 225.442 98.7645 225.642 98.1636L223.339 94.1581C222.738 94.0579 221.687 93.9578 220.986 94.2081C220.886 94.2582 220.786 94.2582 220.736 94.3083L220.435 94.5085L217.331 91.204C217.531 90.2026 216.88 87.8994 216.58 86.9481L213.325 85.0454L211.172 86.2972C210.872 86.8479 210.622 87.4988 210.471 88.1998C209.921 88.1497 209.47 88.0997 209.42 88.0997C208.969 86.9481 207.417 85.1956 206.566 84.3945L202.06 86.9981C202.26 87.7492 202.661 89.0009 203.111 90.0524C203.362 90.5531 203.562 91.0037 203.862 91.3542L203.412 92.3055C202.711 92.1052 202.01 91.955 201.409 91.955L199.256 93.2067V97.012C199.907 97.7631 201.609 99.5155 202.56 99.8159L203.862 104.172L203.562 104.372C202.911 104.773 202.36 105.924 202.11 106.525L204.413 110.531C205.064 110.631 206.366 110.731 207.017 110.381L207.317 110.18L210.421 113.485C210.221 114.486 210.872 116.789 211.172 117.741L214.427 119.643L216.58 118.392C216.88 117.891 217.131 117.19 217.281 116.489L218.332 116.589C218.332 116.639 218.382 116.639 218.382 116.689C218.933 117.891 220.385 119.493 221.236 120.294L223.389 119.043L223.54 118.942L225.692 117.691C225.392 116.539 224.691 114.336 223.89 113.335L224.341 112.383C225.042 112.584 225.793 112.734 226.343 112.734L228.496 111.482V107.677C227.845 106.926 226.143 105.173 225.192 104.873L223.89 100.517L224.19 100.317Z" fill="#105383"/>
<path d="M210.321 89.652C210.121 88.6006 210.572 87.2487 211.073 86.2974L214.327 88.2C214.678 89.1513 215.328 91.4545 215.078 92.4559L218.232 95.8106C218.733 95.1597 220.285 95.2598 221.086 95.41L223.39 99.4156C223.139 100.117 222.388 101.619 221.587 101.719L222.889 106.125C223.84 106.425 225.543 108.178 226.193 108.929V112.734C225.192 112.734 223.69 112.434 222.889 111.733L221.587 114.637C222.338 115.638 223.089 117.841 223.39 118.993L221.086 120.345C220.235 119.493 218.683 117.841 218.232 116.639L215.078 116.339C215.278 117.39 214.778 118.792 214.327 119.694L211.073 117.791C210.722 116.84 210.071 114.537 210.321 113.535L207.167 110.18C206.666 110.831 205.064 110.731 204.313 110.581L202.01 106.575C202.26 105.824 203.011 104.372 203.812 104.272L202.511 99.8662C201.559 99.5658 199.857 97.8134 199.206 97.0623V93.257C200.207 93.257 201.659 93.5574 202.511 94.2584L203.812 91.3544C203.061 90.353 202.31 88.15 202.01 86.9984L204.313 85.6465C205.164 86.4977 206.716 88.2501 207.167 89.3516C207.267 89.3516 210.171 89.652 210.321 89.652ZM210.672 95.8106C208.819 95.6103 207.167 96.812 207.167 99.716C207.167 105.574 213.225 111.633 216.63 109.68C220.836 107.276 216.28 96.4615 210.672 95.8106Z" fill="url(#paint15_linear_1010_10292)"/>
</g>
<defs>
<linearGradient id="paint0_linear_1010_10292" x1="178.306" y1="115.673" x2="289.236" y2="52.7751" gradientUnits="userSpaceOnUse">
<stop offset="0.00505051" stop-color="#20B0D3"/>
<stop offset="0.56" stop-color="#24D4C3"/>
<stop offset="1" stop-color="#27F3B5"/>
</linearGradient>
<linearGradient id="paint1_linear_1010_10292" x1="162.376" y1="180.694" x2="273.161" y2="117.878" gradientUnits="userSpaceOnUse">
<stop offset="0.00505051" stop-color="#20B0D3"/>
<stop offset="0.56" stop-color="#24D4C3"/>
<stop offset="1" stop-color="#27F3B5"/>
</linearGradient>
<linearGradient id="paint2_linear_1010_10292" x1="74.9246" y1="98.4191" x2="185.604" y2="35.6634" gradientUnits="userSpaceOnUse">
<stop offset="0.00505051" stop-color="#20B0D3"/>
<stop offset="0.56" stop-color="#24D4C3"/>
<stop offset="1" stop-color="#27F3B5"/>
</linearGradient>
<linearGradient id="paint3_linear_1010_10292" x1="58.3905" y1="163.628" x2="169.707" y2="100.511" gradientUnits="userSpaceOnUse">
<stop offset="0.00505051" stop-color="#20B0D3"/>
<stop offset="0.56" stop-color="#24D4C3"/>
<stop offset="1" stop-color="#27F3B5"/>
</linearGradient>
<linearGradient id="paint4_linear_1010_10292" x1="141.828" y1="133.704" x2="146.907" y2="130.967" gradientUnits="userSpaceOnUse">
<stop stop-color="#C211A1"/>
<stop offset="0.0524646" stop-color="#C518A5"/>
<stop offset="0.1307" stop-color="#CE2DAF"/>
<stop offset="0.1414" stop-color="#CF30B1"/>
<stop offset="0.2273" stop-color="#FF63CE"/>
<stop offset="0.2824" stop-color="#EB48BF"/>
<stop offset="0.3788" stop-color="#C211A1"/>
<stop offset="0.5404" stop-color="#A919AB"/>
<stop offset="0.6243" stop-color="#AC1BAB"/>
<stop offset="0.6972" stop-color="#B723AB"/>
<stop offset="0.7658" stop-color="#C92FAA"/>
<stop offset="0.8182" stop-color="#DC3DAA"/>
<stop offset="0.9279" stop-color="#CD24A5"/>
<stop offset="1" stop-color="#C211A1"/>
</linearGradient>
<linearGradient id="paint5_linear_1010_10292" x1="147.103" y1="130.864" x2="142.692" y2="133.234" gradientUnits="userSpaceOnUse">
<stop offset="0.0353535" stop-color="#4DF4FF"/>
<stop offset="0.3036" stop-color="#52E5FF"/>
<stop offset="0.821" stop-color="#5DBCFF"/>
<stop offset="1" stop-color="#62ADFF"/>
</linearGradient>
<linearGradient id="paint6_linear_1010_10292" x1="134.01" y1="124.868" x2="145.879" y2="124.495" gradientUnits="userSpaceOnUse">
<stop offset="0.0353535" stop-color="#4DF4FF"/>
<stop offset="0.3036" stop-color="#52E5FF"/>
<stop offset="0.821" stop-color="#5DBCFF"/>
<stop offset="1" stop-color="#62ADFF"/>
</linearGradient>
<linearGradient id="paint7_linear_1010_10292" x1="137.971" y1="123.42" x2="143.769" y2="121.763" gradientUnits="userSpaceOnUse">
<stop stop-color="#22313F"/>
<stop offset="0.1427" stop-color="#374D5E"/>
<stop offset="0.4532" stop-color="#6D92AD"/>
<stop offset="0.5737" stop-color="#83AFCD"/>
</linearGradient>
<linearGradient id="paint8_linear_1010_10292" x1="120.974" y1="99.9102" x2="141.093" y2="121.36" gradientUnits="userSpaceOnUse">
<stop stop-color="#22313F"/>
<stop offset="0.1427" stop-color="#374D5E"/>
<stop offset="0.4532" stop-color="#6D92AD"/>
<stop offset="0.5737" stop-color="#83AFCD"/>
<stop offset="0.684" stop-color="#6E94AE"/>
<stop offset="0.9241" stop-color="#384E5F"/>
<stop offset="1" stop-color="#263745"/>
</linearGradient>
<linearGradient id="paint9_linear_1010_10292" x1="142.455" y1="121.027" x2="129.055" y2="93.5256" gradientUnits="userSpaceOnUse">
<stop stop-color="#22313F"/>
<stop offset="0.1427" stop-color="#374D5E"/>
<stop offset="0.4532" stop-color="#6D92AD"/>
<stop offset="0.5737" stop-color="#83AFCD"/>
<stop offset="0.684" stop-color="#6E94AE"/>
<stop offset="0.9241" stop-color="#384E5F"/>
<stop offset="1" stop-color="#263745"/>
</linearGradient>
<linearGradient id="paint10_linear_1010_10292" x1="132.711" y1="36.7598" x2="131.347" y2="45.6022" gradientUnits="userSpaceOnUse">
<stop offset="0.00505051" stop-color="#20B0D3"/>
<stop offset="0.56" stop-color="#24D4C3"/>
<stop offset="1" stop-color="#27F3B5"/>
</linearGradient>
<linearGradient id="paint11_linear_1010_10292" x1="165.003" y1="67.4803" x2="190.981" y2="67.4803" gradientUnits="userSpaceOnUse">
<stop offset="0.0353535" stop-color="#FF9E6E"/>
<stop offset="0.3036" stop-color="#FFAD73"/>
<stop offset="0.821" stop-color="#FFD680"/>
<stop offset="1" stop-color="#FFE585"/>
</linearGradient>
<linearGradient id="paint12_linear_1010_10292" x1="221.502" y1="140.583" x2="231.095" y2="140.583" gradientUnits="userSpaceOnUse">
<stop offset="0.0353535" stop-color="#FF9E6E"/>
<stop offset="0.3036" stop-color="#FFAD73"/>
<stop offset="0.821" stop-color="#FFD680"/>
<stop offset="1" stop-color="#FFE585"/>
</linearGradient>
<linearGradient id="paint13_linear_1010_10292" x1="113.516" y1="76.8234" x2="123.109" y2="76.8234" gradientUnits="userSpaceOnUse">
<stop offset="0.0353535" stop-color="#FF9E6E"/>
<stop offset="0.3036" stop-color="#FFAD73"/>
<stop offset="0.821" stop-color="#FFD680"/>
<stop offset="1" stop-color="#FFE585"/>
</linearGradient>
<linearGradient id="paint14_linear_1010_10292" x1="157.864" y1="153.072" x2="184.004" y2="153.072" gradientUnits="userSpaceOnUse">
<stop offset="0.0353535" stop-color="#FF9E6E"/>
<stop offset="0.3036" stop-color="#FFAD73"/>
<stop offset="0.821" stop-color="#FFD680"/>
<stop offset="1" stop-color="#FFE585"/>
</linearGradient>
<linearGradient id="paint15_linear_1010_10292" x1="217.749" y1="84.7994" x2="208.5" y2="118.09" gradientUnits="userSpaceOnUse">
<stop offset="0.0353535" stop-color="#4DF4FF"/>
<stop offset="0.3036" stop-color="#52E5FF"/>
<stop offset="0.821" stop-color="#5DBCFF"/>
<stop offset="1" stop-color="#62ADFF"/>
</linearGradient>
<clipPath id="clip0_1010_10292">
<rect width="328" height="210" fill="white"/>
</clipPath>
</defs>
</svg>
