<svg width="200" height="198" viewBox="0 0 200 198" fill="none" xmlns="http://www.w3.org/2000/svg">
<g clip-path="url(#clip0_1876_6149)">
<path d="M93.4052 195.692C97.8466 198.25 103.297 198.25 107.739 195.692L196.523 144.436C198.677 143.203 200 140.892 200 138.425V130.529C200 128.039 198.677 125.751 196.523 124.517L108.255 73.5301C106.348 72.4309 104.24 71.758 102.109 71.5561C98.9458 71.242 95.7156 71.8926 92.8892 73.5301L2.91614 125.482C1.63754 126.222 0.71784 127.388 0.29164 128.757C0.112187 129.317 0.0224609 129.901 0.0224609 130.506V138.402C0.0224609 140.466 1.12161 142.395 2.91614 143.427L93.4052 195.692Z" fill="#7DA9DA"/>
<path d="M196.523 124.495C198.677 125.728 200 128.039 200 130.506C200 132.996 198.677 135.284 196.523 136.518L107.739 187.797C103.297 190.354 97.8466 190.354 93.4051 187.797L2.91611 135.531C1.09915 134.499 0 132.592 0 130.506C0 129.901 0.0897263 129.317 0.269179 128.757C0.695379 127.388 1.63751 126.199 2.89367 125.482L92.8668 73.53C97.6223 70.7934 103.477 70.7934 108.232 73.53L196.523 124.495Z" fill="white"/>
<path d="M161.956 156.505L146.793 165.253L121.826 150.852L137.012 142.081L161.956 156.505Z" fill="#1169A6"/>
<path d="M103.522 84.7688C102.423 84.7688 101.525 83.8715 101.525 82.7724V68.304C101.525 67.2049 102.423 66.3076 103.522 66.3076C104.621 66.3076 105.518 67.2049 105.518 68.304V82.7724C105.496 83.8715 104.621 84.7688 103.522 84.7688Z" fill="url(#paint0_linear_1876_6149)"/>
<path d="M113.391 72.1396C113.414 72.2069 113.414 72.2518 113.414 72.3191C113.436 73.5304 112.472 74.7193 110.543 75.639C106.662 77.4784 100.359 77.4784 96.4781 75.639C94.5265 74.7193 93.5844 73.4855 93.6068 72.2967C93.6068 72.2294 93.6068 72.1845 93.6293 72.1172C93.6293 72.1172 93.6293 72.1172 93.6068 72.1172C94.5041 62.5165 95.5808 52.9158 97.0164 43.3375C97.2632 41.7673 98.0034 40.2195 99.1923 39.0082C101.749 36.4061 105.271 36.4061 107.828 39.0082C109.017 40.2419 109.78 41.7897 110.027 43.3599C111.44 52.9382 112.517 62.5389 113.391 72.1396C113.391 72.1396 113.414 72.1396 113.391 72.1396Z" fill="url(#paint1_linear_1876_6149)"/>
<path d="M128.174 99.0129C127.075 99.0129 126.178 98.1157 126.178 97.0165V82.5482C126.178 81.449 127.075 80.5518 128.174 80.5518C129.273 80.5518 130.171 81.449 130.171 82.5482V97.0165C130.171 98.1157 129.273 99.0129 128.174 99.0129Z" fill="url(#paint2_linear_1876_6149)"/>
<path d="M138.066 86.3838C138.089 86.4511 138.089 86.496 138.089 86.5633C138.111 87.7746 137.147 88.9634 135.218 89.8831C131.337 91.7225 125.034 91.7225 121.153 89.8831C119.201 88.9634 118.259 87.7297 118.282 86.5408C118.282 86.4735 118.282 86.4287 118.304 86.3614C118.304 86.3614 118.304 86.3614 118.282 86.3614C119.179 76.7607 120.256 67.1599 121.691 57.5816C121.938 56.0114 122.678 54.4636 123.867 53.2523C126.424 50.6503 129.946 50.6503 132.503 53.2523C133.692 54.4861 134.455 56.0338 134.702 57.6041C136.115 67.1824 137.192 76.7831 138.066 86.3838Z" fill="url(#paint3_linear_1876_6149)"/>
<path d="M152.849 113.257C151.75 113.257 150.853 112.36 150.853 111.261V96.7923C150.853 95.6932 151.75 94.7959 152.849 94.7959C153.948 94.7959 154.845 95.6932 154.845 96.7923V111.261C154.845 112.36 153.948 113.257 152.849 113.257Z" fill="url(#paint4_linear_1876_6149)"/>
<path d="M162.741 100.628C162.764 100.695 162.764 100.74 162.764 100.807C162.786 102.019 161.821 103.208 159.892 104.127C156.012 105.967 149.708 105.967 145.828 104.127C143.876 103.208 142.934 101.974 142.956 100.785C142.956 100.718 142.956 100.673 142.979 100.605C142.979 100.605 142.979 100.605 142.956 100.605C143.854 91.0048 144.93 81.404 146.366 71.8258C146.613 70.2556 147.353 68.7078 148.542 67.4965C151.099 64.8944 154.621 64.8944 157.178 67.4965C158.367 68.7302 159.13 70.278 159.376 71.8482C160.767 81.4265 161.866 91.0272 162.741 100.628Z" fill="url(#paint5_linear_1876_6149)"/>
<path d="M177.524 127.501C176.425 127.501 175.527 126.604 175.527 125.505V111.036C175.527 109.937 176.425 109.04 177.524 109.04C178.623 109.04 179.52 109.937 179.52 111.036V125.505C179.52 126.604 178.623 127.501 177.524 127.501Z" fill="url(#paint6_linear_1876_6149)"/>
<path d="M187.393 114.872C187.416 114.939 187.416 114.984 187.416 115.052C187.438 116.263 186.474 117.452 184.545 118.371C180.664 120.211 174.361 120.211 170.48 118.371C168.528 117.452 167.586 116.218 167.609 115.029C167.609 114.962 167.609 114.917 167.631 114.85C167.631 114.85 167.631 114.85 167.609 114.85C168.506 105.249 169.583 95.6482 171.018 86.0699C171.265 84.4997 172.005 82.9519 173.194 81.7406C175.751 79.1385 179.273 79.1385 181.83 81.7406C183.019 82.9743 183.782 84.5221 184.029 86.0923C185.442 95.6706 186.519 105.271 187.393 114.872C187.416 114.872 187.416 114.872 187.393 114.872Z" fill="url(#paint7_linear_1876_6149)"/>
<path d="M43.4951 62.3594L102.042 96.1638V163.279L43.4951 129.475V62.3594Z" fill="#7DA9DA"/>
<path d="M102.042 96.1638L160.588 62.3594V129.475L102.042 163.279V96.1638Z" fill="#EEEFFB"/>
<path d="M43.4951 62.3591L102.042 28.5547L160.588 62.3591L102.042 96.1635L43.4951 62.3591Z" fill="#F3F4FB"/>
<path d="M65.0299 140.915L49.0811 131.718V105.832L65.0299 115.051V140.915Z" fill="#83AFCD"/>
<path d="M65.0299 139.367L50.5391 131V106.685L65.0299 115.052V139.367Z" fill="#EEEFFC"/>
<path d="M65.0297 135.936L53.4102 129.229V108.345L65.0297 115.052V135.936Z" fill="#83AFCD"/>
<path d="M65.0295 134.567L54.7109 128.6V109.085L65.0295 115.052V134.567Z" fill="#EEEFFC"/>
<path d="M56.1924 127.299V110.318L64.7164 115.231V132.212L56.1924 127.299Z" fill="url(#paint8_linear_1876_6149)"/>
<path d="M56.506 110.857L64.4019 115.411V131.673L56.506 127.12V110.857V110.857ZM55.8779 109.78V127.479L65.0076 132.75V115.052L55.8779 109.78Z" fill="white"/>
<path d="M60.5211 129.968C60.3416 129.968 60.207 129.834 60.207 129.654V112.876C60.207 112.696 60.3416 112.562 60.5211 112.562C60.7005 112.562 60.8351 112.696 60.8351 112.876V129.654C60.8351 129.834 60.7005 129.968 60.5211 129.968Z" fill="white"/>
<path d="M64.6263 119.583C64.5814 119.583 64.5141 119.56 64.4693 119.538L56.1247 114.715C55.9677 114.625 55.9228 114.446 56.0125 114.289C56.1023 114.132 56.2817 114.087 56.4387 114.177L64.7833 118.999C64.9403 119.089 64.9852 119.269 64.8955 119.426C64.8282 119.538 64.7384 119.583 64.6263 119.583Z" fill="white"/>
<path d="M64.6263 123.979C64.5814 123.979 64.5141 123.957 64.4693 123.934L56.1247 119.111C55.9677 119.022 55.9228 118.842 56.0125 118.685C56.1023 118.528 56.2817 118.483 56.4387 118.573L64.7833 123.396C64.9403 123.486 64.9852 123.665 64.8955 123.822C64.8282 123.912 64.7384 123.979 64.6263 123.979Z" fill="white"/>
<path d="M64.6263 128.376C64.5814 128.376 64.5141 128.353 64.4693 128.331L56.1247 123.508C55.9677 123.418 55.9228 123.239 56.0125 123.082C56.1023 122.925 56.2817 122.88 56.4387 122.97L64.7833 127.792C64.9403 127.882 64.9852 128.062 64.8955 128.219C64.8282 128.308 64.7384 128.376 64.6263 128.376Z" fill="white"/>
<path d="M90.7135 155.742L74.7646 146.545V120.682L90.7135 129.879V155.742Z" fill="#83AFCD"/>
<path d="M90.7135 154.194L76.2227 145.828V121.512L90.7135 129.879V154.194Z" fill="#EEEFFC"/>
<path d="M90.7133 150.763L79.0938 144.056V123.172L90.7133 129.879V150.763Z" fill="#83AFCD"/>
<path d="M90.7131 149.394L80.3945 143.428V123.935L90.7131 129.879V149.394Z" fill="#EEEFFC"/>
<path d="M81.876 142.126V125.146L90.4 130.058V147.039L81.876 142.126Z" fill="url(#paint9_linear_1876_6149)"/>
<path d="M82.1896 125.684L90.0855 130.238V146.501L82.1896 141.947V125.684ZM81.5615 124.607V142.306L90.6912 147.577V129.879L81.5615 124.607Z" fill="white"/>
<path d="M86.2047 144.796C86.0252 144.796 85.8906 144.661 85.8906 144.482V127.703C85.8906 127.523 86.0252 127.389 86.2047 127.389C86.3841 127.389 86.5187 127.523 86.5187 127.703V144.482C86.5187 144.661 86.3841 144.796 86.2047 144.796Z" fill="white"/>
<path d="M90.3098 134.41C90.265 134.41 90.1977 134.387 90.1528 134.365L81.8083 129.542C81.6513 129.452 81.6064 129.273 81.6961 129.116C81.7858 128.959 81.9653 128.914 82.1223 129.004L90.4669 133.826C90.6239 133.916 90.6687 134.096 90.579 134.253C90.5117 134.365 90.422 134.41 90.3098 134.41Z" fill="white"/>
<path d="M90.3098 138.806C90.265 138.806 90.1977 138.784 90.1528 138.761L81.8083 133.939C81.6513 133.849 81.6064 133.669 81.6961 133.512C81.7858 133.355 81.9653 133.31 82.1223 133.4L90.4669 138.223C90.6239 138.313 90.6687 138.492 90.579 138.649C90.5117 138.761 90.422 138.806 90.3098 138.806Z" fill="white"/>
<path d="M90.3098 143.203C90.265 143.203 90.1977 143.18 90.1528 143.158L81.8083 138.335C81.6513 138.245 81.6064 138.066 81.6961 137.909C81.7858 137.752 81.9653 137.707 82.1223 137.797L90.4669 142.62C90.6239 142.709 90.6687 142.889 90.579 143.046C90.5117 143.135 90.422 143.203 90.3098 143.203Z" fill="white"/>
<path d="M65.0299 110.206L49.0811 100.987V75.123L65.0299 84.32V110.206Z" fill="#83AFCD"/>
<path d="M65.0299 108.636L50.5391 100.269V75.9756L65.0299 84.3201V108.636Z" fill="#EEEFFC"/>
<path d="M65.0297 105.204L53.4102 98.4971V77.6133L65.0297 84.3203V105.204Z" fill="#83AFCD"/>
<path d="M65.0295 103.836L54.7109 97.8915V78.376L65.0295 84.3203V103.836Z" fill="#EEEFFC"/>
<path d="M56.1924 96.5676V79.5869L64.7164 84.4994V101.48L56.1924 96.5676Z" fill="url(#paint10_linear_1876_6149)"/>
<path d="M56.506 80.1255L64.4019 84.6792V100.942L56.506 96.3884V80.1255V80.1255ZM55.8779 79.0488V96.7473L65.0076 102.019V84.3203L55.8779 79.0488Z" fill="white"/>
<path d="M60.5211 99.2595C60.3416 99.2595 60.207 99.1249 60.207 98.9454V82.1666C60.207 81.9871 60.3416 81.8525 60.5211 81.8525C60.7005 81.8525 60.8351 81.9871 60.8351 82.1666V98.9454C60.8351 99.1025 60.7005 99.2595 60.5211 99.2595Z" fill="white"/>
<path d="M64.6263 88.8737C64.5814 88.8737 64.5141 88.8512 64.4693 88.8288L56.1247 84.006C55.9677 83.9162 55.9228 83.7368 56.0125 83.5798C56.1023 83.4227 56.2817 83.3779 56.4387 83.4676L64.7833 88.2904C64.9403 88.3802 64.9852 88.5596 64.8955 88.7166C64.8282 88.8064 64.7384 88.8737 64.6263 88.8737Z" fill="white"/>
<path d="M64.6263 93.2476C64.5814 93.2476 64.5141 93.2252 64.4693 93.2028L56.1247 88.38C55.9677 88.2903 55.9228 88.1108 56.0125 87.9538C56.1023 87.7968 56.2817 87.7519 56.4387 87.8416L64.7833 92.6644C64.9403 92.7541 64.9852 92.9336 64.8955 93.0906C64.8282 93.2028 64.7384 93.2476 64.6263 93.2476Z" fill="white"/>
<path d="M64.6263 97.6441C64.5814 97.6441 64.5141 97.6217 64.4693 97.5992L56.1247 92.7765C55.9677 92.6867 55.9228 92.5073 56.0125 92.3503C56.1023 92.1933 56.2817 92.1484 56.4387 92.2381L64.7833 97.0609C64.9403 97.1506 64.9852 97.3301 64.8955 97.4871C64.8282 97.5992 64.7384 97.6441 64.6263 97.6441Z" fill="white"/>
<path d="M90.7135 125.033L74.7646 115.814V89.9502L90.7135 99.1696V125.033Z" fill="#83AFCD"/>
<path d="M90.7135 123.463L76.2227 115.096V90.8027L90.7135 99.1697V123.463Z" fill="#EEEFFC"/>
<path d="M90.7133 120.031L79.0938 113.347V92.4629L90.7133 99.1699V120.031Z" fill="#83AFCD"/>
<path d="M90.7131 118.663L80.3945 112.719V93.2031L90.7131 99.1699V118.663Z" fill="#EEEFFC"/>
<path d="M81.876 111.395V94.4141L90.4 99.349V116.307L81.876 111.395Z" fill="url(#paint11_linear_1876_6149)"/>
<path d="M82.1896 94.9527L90.0855 99.5063V115.769L82.1896 111.216V94.9527ZM81.5615 93.876V111.575L90.6912 116.846V99.1474L81.5615 93.876Z" fill="white"/>
<path d="M86.2047 114.087C86.0252 114.087 85.8906 113.952 85.8906 113.773V96.9937C85.8906 96.8143 86.0252 96.6797 86.2047 96.6797C86.3841 96.6797 86.5187 96.8143 86.5187 96.9937V113.773C86.5187 113.952 86.3841 114.087 86.2047 114.087Z" fill="white"/>
<path d="M90.3098 103.701C90.265 103.701 90.1977 103.678 90.1528 103.656L81.8083 98.8331C81.6513 98.7434 81.6064 98.5639 81.6961 98.4069C81.7858 98.2499 81.9653 98.205 82.1223 98.2948L90.4669 103.118C90.6239 103.207 90.6687 103.387 90.579 103.544C90.5117 103.633 90.422 103.701 90.3098 103.701Z" fill="white"/>
<path d="M90.3098 108.075C90.265 108.075 90.1977 108.052 90.1528 108.03L81.8083 103.207C81.6513 103.117 81.6064 102.938 81.6961 102.781C81.7858 102.624 81.9653 102.579 82.1223 102.669L90.4669 107.492C90.6239 107.581 90.6687 107.761 90.579 107.918C90.5117 108.03 90.422 108.075 90.3098 108.075Z" fill="white"/>
<path d="M90.3098 112.471C90.265 112.471 90.1977 112.449 90.1528 112.426L81.8083 107.604C81.6513 107.514 81.6064 107.334 81.6961 107.177C81.7858 107.02 81.9653 106.976 82.1223 107.065L90.4669 111.888C90.6239 111.978 90.6687 112.157 90.579 112.314C90.5117 112.426 90.422 112.471 90.3098 112.471Z" fill="white"/>
<path d="M139.054 140.915L155.003 131.718V105.832L139.054 115.051V140.915Z" fill="#83AFCD"/>
<path d="M139.054 139.367L153.545 131V106.685L139.054 115.052V139.367Z" fill="#EEEFFC"/>
<path d="M139.054 135.936L150.673 129.229V108.345L139.054 115.052V135.936Z" fill="#83AFCD"/>
<path d="M139.054 134.567L149.372 128.6V109.085L139.054 115.052V134.567Z" fill="#EEEFFC"/>
<path d="M139.368 115.231L147.892 110.318V127.299L139.368 132.212V115.231Z" fill="url(#paint12_linear_1876_6149)"/>
<path d="M147.578 110.857V127.12L139.682 131.673V115.411L147.578 110.857ZM148.206 109.78L139.076 115.052V132.75L148.206 127.479V109.78Z" fill="white"/>
<path d="M143.562 129.968C143.383 129.968 143.248 129.834 143.248 129.654V112.876C143.248 112.696 143.383 112.562 143.562 112.562C143.742 112.562 143.876 112.696 143.876 112.876V129.654C143.876 129.834 143.742 129.968 143.562 129.968Z" fill="white"/>
<path d="M139.457 119.583C139.345 119.583 139.256 119.538 139.188 119.426C139.099 119.269 139.143 119.089 139.3 118.999L147.645 114.177C147.802 114.087 147.981 114.132 148.071 114.289C148.161 114.446 148.116 114.625 147.959 114.715L139.615 119.538C139.57 119.583 139.525 119.583 139.457 119.583Z" fill="white"/>
<path d="M139.457 123.979C139.345 123.979 139.256 123.934 139.188 123.822C139.099 123.665 139.143 123.486 139.3 123.396L147.645 118.573C147.802 118.483 147.981 118.528 148.071 118.685C148.161 118.842 148.116 119.022 147.959 119.111L139.615 123.934C139.57 123.957 139.525 123.979 139.457 123.979Z" fill="white"/>
<path d="M139.457 128.376C139.345 128.376 139.256 128.331 139.188 128.219C139.099 128.062 139.143 127.882 139.3 127.792L147.645 122.97C147.802 122.88 147.981 122.925 148.071 123.082C148.161 123.239 148.116 123.418 147.959 123.508L139.615 128.331C139.57 128.353 139.525 128.376 139.457 128.376Z" fill="white"/>
<path d="M113.369 155.742L129.318 146.545V120.682L113.369 129.879V155.742Z" fill="#83AFCD"/>
<path d="M113.369 154.194L127.86 145.828V121.512L113.369 129.879V154.194Z" fill="#EEEFFC"/>
<path d="M113.369 150.763L124.989 144.056V123.172L113.369 129.879V150.763Z" fill="#83AFCD"/>
<path d="M113.369 149.394L123.688 143.428V123.935L113.369 129.879V149.394Z" fill="#EEEFFC"/>
<path d="M113.684 130.058L122.208 125.146V142.126L113.684 147.039V130.058Z" fill="url(#paint13_linear_1876_6149)"/>
<path d="M121.893 125.684V141.947L113.997 146.501V130.238L121.893 125.684ZM122.521 124.607L113.369 129.879V147.577L122.499 142.306V124.607H122.521Z" fill="white"/>
<path d="M117.878 144.796C117.698 144.796 117.563 144.661 117.563 144.482V127.703C117.563 127.523 117.698 127.389 117.878 127.389C118.057 127.389 118.192 127.523 118.192 127.703V144.482C118.192 144.661 118.057 144.796 117.878 144.796Z" fill="white"/>
<path d="M113.773 134.41C113.661 134.41 113.571 134.365 113.504 134.253C113.414 134.096 113.459 133.916 113.616 133.826L121.96 129.004C122.117 128.914 122.297 128.959 122.387 129.116C122.476 129.273 122.432 129.452 122.275 129.542L113.93 134.365C113.885 134.41 113.84 134.41 113.773 134.41Z" fill="white"/>
<path d="M113.773 138.806C113.661 138.806 113.571 138.761 113.504 138.649C113.414 138.492 113.459 138.313 113.616 138.223L121.96 133.4C122.117 133.31 122.297 133.355 122.387 133.512C122.476 133.669 122.432 133.849 122.275 133.939L113.93 138.761C113.885 138.784 113.84 138.806 113.773 138.806Z" fill="white"/>
<path d="M113.773 143.203C113.661 143.203 113.571 143.158 113.504 143.046C113.414 142.889 113.459 142.709 113.616 142.62L121.96 137.797C122.117 137.707 122.297 137.752 122.387 137.909C122.476 138.066 122.432 138.245 122.275 138.335L113.93 143.158C113.885 143.18 113.84 143.203 113.773 143.203Z" fill="white"/>
<path d="M139.054 110.206L155.003 100.987V75.123L139.054 84.32V110.206Z" fill="#83AFCD"/>
<path d="M139.054 108.636L153.545 100.269V75.9756L139.054 84.3201V108.636Z" fill="#EEEFFC"/>
<path d="M139.054 105.204L150.673 98.4971V77.6133L139.054 84.3203V105.204Z" fill="#83AFCD"/>
<path d="M139.054 103.836L149.372 97.8915V78.376L139.054 84.3203V103.836Z" fill="#EEEFFC"/>
<path d="M139.368 84.4994L147.892 79.5869V96.5676L139.368 101.48V84.4994Z" fill="url(#paint14_linear_1876_6149)"/>
<path d="M147.578 80.1255V96.3884L139.682 100.942V84.6792L147.578 80.1255ZM148.206 79.0488L139.076 84.3203V102.019L148.206 96.7473V79.0488Z" fill="white"/>
<path d="M143.562 99.2595C143.383 99.2595 143.248 99.1249 143.248 98.9454V82.1666C143.248 81.9871 143.383 81.8525 143.562 81.8525C143.742 81.8525 143.876 81.9871 143.876 82.1666V98.9454C143.876 99.1025 143.742 99.2595 143.562 99.2595Z" fill="white"/>
<path d="M139.457 88.8737C139.345 88.8737 139.256 88.8288 139.188 88.7166C139.099 88.5596 139.143 88.3802 139.3 88.2904L147.645 83.4676C147.802 83.3779 147.981 83.4227 148.071 83.5798C148.161 83.7368 148.116 83.9162 147.959 84.006L139.615 88.8288C139.57 88.8512 139.525 88.8737 139.457 88.8737Z" fill="white"/>
<path d="M139.457 93.2476C139.345 93.2476 139.256 93.2028 139.188 93.0906C139.099 92.9336 139.143 92.7541 139.3 92.6644L147.645 87.8416C147.802 87.7519 147.981 87.7968 148.071 87.9538C148.161 88.1108 148.116 88.2903 147.959 88.38L139.615 93.2028C139.57 93.2476 139.525 93.2476 139.457 93.2476Z" fill="white"/>
<path d="M139.457 97.6441C139.345 97.6441 139.256 97.5992 139.188 97.4871C139.099 97.3301 139.143 97.1506 139.3 97.0609L147.645 92.2381C147.802 92.1484 147.981 92.1933 148.071 92.3503C148.161 92.5073 148.116 92.6867 147.959 92.7765L139.615 97.5992C139.57 97.6441 139.525 97.6441 139.457 97.6441Z" fill="white"/>
<path d="M113.369 125.033L129.318 115.814V89.9502L113.369 99.1696V125.033Z" fill="#83AFCD"/>
<path d="M113.369 123.463L127.86 115.096V90.8027L113.369 99.1697V123.463Z" fill="#EEEFFC"/>
<path d="M113.369 120.031L124.989 113.347V92.4629L113.369 99.1699V120.031Z" fill="#83AFCD"/>
<path d="M113.369 118.663L123.688 112.719V93.2031L113.369 99.1699V118.663Z" fill="#EEEFFC"/>
<path d="M113.684 99.349L122.208 94.4141V111.395L113.684 116.307V99.349Z" fill="url(#paint15_linear_1876_6149)"/>
<path d="M121.893 94.9527V111.216L113.997 115.769V99.5063L121.893 94.9527ZM122.521 93.876L113.392 99.1474V116.846L122.521 111.575V93.876Z" fill="white"/>
<path d="M117.878 114.087C117.698 114.087 117.563 113.952 117.563 113.773V96.9937C117.563 96.8143 117.698 96.6797 117.878 96.6797C118.057 96.6797 118.192 96.8143 118.192 96.9937V113.773C118.192 113.952 118.057 114.087 117.878 114.087Z" fill="white"/>
<path d="M113.773 103.701C113.661 103.701 113.571 103.656 113.504 103.544C113.414 103.387 113.459 103.207 113.616 103.118L121.96 98.2948C122.117 98.205 122.297 98.2499 122.387 98.4069C122.476 98.5639 122.432 98.7434 122.275 98.8331L113.93 103.656C113.885 103.678 113.84 103.701 113.773 103.701Z" fill="white"/>
<path d="M113.773 108.075C113.661 108.075 113.571 108.03 113.504 107.918C113.414 107.761 113.459 107.581 113.616 107.492L121.96 102.669C122.117 102.579 122.297 102.624 122.387 102.781C122.476 102.938 122.432 103.117 122.275 103.207L113.93 108.03C113.885 108.075 113.84 108.075 113.773 108.075Z" fill="white"/>
<path d="M113.773 112.471C113.661 112.471 113.571 112.426 113.504 112.314C113.414 112.157 113.459 111.978 113.616 111.888L121.96 107.065C122.117 106.976 122.297 107.02 122.387 107.177C122.476 107.334 122.432 107.514 122.275 107.604L113.93 112.426C113.885 112.471 113.84 112.471 113.773 112.471Z" fill="white"/>
<path d="M115.725 69.4252L112.36 71.3768L77.8154 51.5248L81.3372 49.5732L115.725 69.4252Z" fill="#7DA9DA"/>
<path d="M113.549 26.2895C113.549 24.8988 113.055 23.351 112.27 21.9827C111.485 20.6144 110.386 19.4031 109.174 18.7077L86.3166 5.49547C85.1053 4.80009 84.0062 4.73279 83.2211 5.18143C83.1987 5.18143 81.763 6.07869 81.763 6.07869C81.0004 6.54975 80.5293 7.51431 80.5293 8.88264V52.9831L112.135 71.2425L113.549 70.3676V26.2895Z" fill="#B1D8BD"/>
<path d="M81.8079 6.05643C82.593 5.60779 83.6921 5.67509 84.9034 6.37047L107.739 19.5602C108.95 20.2556 110.049 21.4669 110.834 22.8353C111.619 24.2036 112.113 25.7514 112.113 27.1421V75.3027C112.113 76.6935 111.619 77.6805 110.812 78.1515C110.027 78.6002 108.928 78.5329 107.716 77.8375L84.881 64.6477C83.6697 63.9524 82.5705 62.741 81.7854 61.3727C81.0003 60.0044 80.5068 58.4566 80.5068 57.0659V8.90524C80.5293 7.49205 81.0228 6.52749 81.8079 6.05643Z" fill="url(#paint16_linear_1876_6149)"/>
<path d="M85.8455 11.3277C86.4063 11.0137 87.1465 11.0585 87.9989 11.5296C88.8289 12.0231 89.5916 12.8531 90.1524 13.7952C90.7131 14.7373 91.0496 15.814 91.0496 16.801C91.0496 17.7656 90.7131 18.461 90.1524 18.775C89.5916 19.0891 88.8513 19.0442 87.9989 18.5731C87.169 18.0796 86.4063 17.2497 85.8455 16.3075C85.2847 15.3654 84.9482 14.2887 84.9482 13.3017C84.9482 12.3371 85.2847 11.6418 85.8455 11.3277Z" fill="url(#paint17_linear_1876_6149)"/>
<path d="M85.8455 16.4195C86.4063 16.1055 87.1465 16.1503 87.9989 16.6214C88.8289 17.1149 89.5916 17.9449 90.1524 18.887C90.7131 19.8291 91.0496 20.9058 91.0496 21.8928C91.0496 22.8574 90.7131 23.5528 90.1524 23.8668C89.5916 24.1809 88.8513 24.136 87.9989 23.6649C87.169 23.1714 86.4063 22.3415 85.8455 21.3993C85.2847 20.4572 84.9482 19.3805 84.9482 18.3935C84.9482 17.4289 85.2847 16.7336 85.8455 16.4195Z" fill="url(#paint18_linear_1876_6149)"/>
<path d="M86.3839 49.3493C86.8101 49.1025 87.3933 49.1474 88.0662 49.5063L89.8159 50.5157C90.4664 50.897 91.0721 51.5476 91.4983 52.2878C91.9245 53.0281 92.1936 53.858 92.1936 54.6207V59.1294C92.1936 59.8921 91.9245 60.408 91.4983 60.6548C91.0721 60.9015 90.4888 60.8567 89.8159 60.4978L88.0662 59.4884C87.4157 59.107 86.8101 58.4565 86.3839 57.7163C85.9577 56.976 85.6885 56.146 85.6885 55.3834V50.8746C85.6885 50.1119 85.9577 49.596 86.3839 49.3493Z" fill="url(#paint19_linear_1876_6149)"/>
<path d="M89.8612 53.342C89.8164 53.342 89.7939 53.3195 89.7939 53.2747V50.538C89.7939 50.4931 89.8164 50.4707 89.8612 50.4707C89.9061 50.4707 89.9285 50.4931 89.9285 50.538V53.2747C89.9061 53.3195 89.8837 53.342 89.8612 53.342Z" fill="black"/>
<path d="M92.1488 54.6884H92.1264L88.9411 52.849C88.3803 52.535 87.9316 51.7274 87.9316 51.0769V49.4843C87.9316 49.4394 87.9541 49.417 87.9989 49.417C88.0438 49.417 88.0662 49.4394 88.0662 49.4843V51.0769C88.0662 51.6826 88.4924 52.4228 89.0308 52.7369L92.2161 54.5763C92.2385 54.5987 92.261 54.6211 92.2385 54.666C92.1937 54.666 92.1712 54.6884 92.1488 54.6884Z" fill="black"/>
<path d="M92.1492 59.1742H92.1268L85.644 55.4281C85.6216 55.4057 85.5992 55.3832 85.6216 55.3384C85.644 55.3159 85.6665 55.2935 85.7113 55.3159L92.194 59.062C92.2165 59.0844 92.2389 59.1069 92.2165 59.1517C92.194 59.1742 92.1716 59.1742 92.1492 59.1742Z" fill="black"/>
<path d="M89.8612 60.588C89.8164 60.588 89.7939 60.5656 89.7939 60.5207V57.7841C89.7939 57.7392 89.8164 57.7168 89.8612 57.7168C89.9061 57.7168 89.9285 57.7392 89.9285 57.7841V60.5207C89.9061 60.5656 89.8837 60.588 89.8612 60.588Z" fill="black"/>
<path d="M87.9989 59.5109C87.9541 59.5109 87.9316 59.4884 87.9316 59.4436V56.7069C87.9316 56.6621 87.9541 56.6396 87.9989 56.6396C88.0438 56.6396 88.0662 56.6621 88.0662 56.7069V59.4436C88.0438 59.4884 88.0214 59.5109 87.9989 59.5109Z" fill="black"/>
<path d="M101.077 24.1592C100.875 24.1367 100.606 24.047 100.27 23.8451C99.7536 23.5535 99.4171 23.2395 99.2152 22.9254C99.4171 22.8357 99.776 22.9703 100.247 23.2395C100.741 23.5311 101.099 23.8227 101.301 24.1367C101.234 24.1592 101.167 24.1592 101.077 24.1592ZM101.077 26.7837C100.875 26.7612 100.606 26.6715 100.27 26.4696C99.7536 26.178 99.4171 25.864 99.2152 25.5499C99.4171 25.4602 99.776 25.5948 100.247 25.864C100.741 26.1556 101.099 26.4472 101.301 26.7612C101.234 26.7837 101.167 26.8061 101.077 26.7837ZM101.077 29.4306C100.875 29.4082 100.606 29.3184 100.27 29.1165C99.7536 28.8249 99.4171 28.5109 99.2152 28.1969C99.4171 28.1071 99.776 28.2417 100.247 28.5109C100.741 28.8025 101.099 29.0941 101.301 29.4082C101.234 29.4306 101.167 29.4306 101.077 29.4306ZM101.077 32.0775C100.875 32.0551 100.606 31.9654 100.27 31.7635C99.7536 31.4719 99.4171 31.1578 99.2152 30.8438C99.4171 30.7541 99.776 30.8886 100.247 31.1578C100.741 31.4494 101.099 31.741 101.301 32.0551C101.234 32.0775 101.167 32.0775 101.077 32.0775ZM100.27 32.9748C101.234 33.5131 101.75 33.3785 101.75 32.728V31.9654C101.75 31.5167 101.548 31.0905 101.189 30.6868C101.548 30.7092 101.75 30.5073 101.75 30.1035V29.3409C101.75 28.8922 101.548 28.466 101.189 28.0623C101.548 28.0847 101.75 27.8828 101.75 27.479V26.7164C101.75 26.2677 101.548 25.8415 101.189 25.4378C101.548 25.4602 101.75 25.2583 101.75 24.8545V24.0919C101.75 23.3516 101.212 22.6114 100.225 22.0506C99.8658 21.8487 99.5741 21.7366 99.3498 21.7141C98.9685 21.6693 98.7666 21.8711 98.7666 22.3198V23.0825C98.7666 23.4862 98.9685 23.9349 99.3274 24.3611C98.9685 24.3386 98.7666 24.5405 98.7666 24.9667V25.7294C98.7666 26.1331 98.9685 26.5818 99.3274 27.008C98.9685 26.9855 98.7666 27.1874 98.7666 27.6136V28.3763C98.7666 28.7801 98.9685 29.2287 99.3274 29.6549C98.9685 29.6325 98.7666 29.8344 98.7666 30.2606V31.0232C98.7666 31.6289 99.305 32.414 100.27 32.9748ZM101.077 35.8012C100.875 35.7787 100.606 35.689 100.27 35.4871C99.7536 35.1955 99.4171 34.8815 99.2152 34.5674C99.4171 34.4777 99.776 34.6123 100.247 34.8815C100.741 35.1731 101.099 35.4647 101.301 35.7787C101.234 35.8012 101.167 35.8236 101.077 35.8012ZM101.077 38.4481C100.875 38.4257 100.606 38.3359 100.27 38.134C99.7536 37.8424 99.4171 37.5284 99.2152 37.2143C99.4171 37.1246 99.776 37.2592 100.247 37.5284C100.741 37.82 101.099 38.1116 101.301 38.4257C101.234 38.4481 101.167 38.4481 101.077 38.4481ZM101.077 41.095C100.875 41.0726 100.606 40.9829 100.27 40.781C99.7536 40.4894 99.4171 40.1753 99.2152 39.8613C99.4171 39.7715 99.776 39.9061 100.247 40.1753C100.741 40.4669 101.099 40.7585 101.301 41.0726C101.234 41.095 101.167 41.095 101.077 41.095ZM101.077 43.7195C100.875 43.6971 100.606 43.6073 100.27 43.4055C99.7536 43.1139 99.4171 42.7998 99.2152 42.4858C99.4171 42.396 99.776 42.5306 100.247 42.7998C100.741 43.0914 101.099 43.383 101.301 43.6971C101.234 43.7195 101.167 43.7419 101.077 43.7195ZM100.27 44.6392C101.234 45.1776 101.75 45.043 101.75 44.3925V43.6298C101.75 43.1811 101.548 42.7549 101.189 42.3512C101.548 42.3736 101.75 42.1717 101.75 41.768V41.0053C101.75 40.5567 101.548 40.1305 101.189 39.7267C101.548 39.7491 101.75 39.5472 101.75 39.1435V38.3808C101.75 37.9322 101.548 37.506 101.189 37.1022C101.548 37.1246 101.75 36.9227 101.75 36.519V35.7563C101.75 35.0161 101.212 34.2758 100.225 33.715C99.8658 33.5131 99.5741 33.401 99.3498 33.3785C98.9685 33.3337 98.7666 33.5356 98.7666 33.9842V34.7469C98.7666 35.1506 98.9685 35.5993 99.3274 36.0255C98.9685 36.003 98.7666 36.2049 98.7666 36.6311V37.3938C98.7666 37.7976 98.9685 38.2462 99.3274 38.6724C98.9685 38.65 98.7666 38.8519 98.7666 39.2781V40.0407C98.7666 40.4445 98.9685 40.8931 99.3274 41.3193C98.9685 41.2969 98.7666 41.4988 98.7666 41.925V42.6877C98.7666 43.2709 99.305 44.0784 100.27 44.6392ZM101.077 47.4656C100.875 47.4431 100.606 47.3534 100.27 47.1515C99.7536 46.8599 99.4171 46.5459 99.2152 46.2318C99.4171 46.1421 99.776 46.2767 100.247 46.5459C100.741 46.8375 101.099 47.1291 101.301 47.4431C101.234 47.4656 101.167 47.4656 101.077 47.4656ZM101.077 50.1125C100.875 50.0901 100.606 50.0003 100.27 49.7985C99.7536 49.5069 99.4171 49.1928 99.2152 48.8788C99.4171 48.789 99.776 48.9236 100.247 49.1928C100.741 49.4844 101.099 49.776 101.301 50.0901C101.234 50.1125 101.167 50.1125 101.077 50.1125ZM101.077 52.737C100.875 52.7146 100.606 52.6248 100.27 52.423C99.7536 52.1313 99.4171 51.8173 99.2152 51.5033C99.4171 51.4135 99.776 51.5481 100.247 51.8173C100.741 52.1089 101.099 52.4005 101.301 52.7146C101.234 52.737 101.167 52.7594 101.077 52.737ZM101.301 55.3615C101.234 55.3839 101.167 55.4064 101.077 55.3839C100.875 55.3615 100.606 55.2718 100.27 55.0699C99.7536 54.7783 99.4171 54.4642 99.2152 54.1502C99.4171 54.0605 99.776 54.1951 100.247 54.4642C100.741 54.7334 101.099 55.0475 101.301 55.3615ZM100.27 56.2812C101.234 56.8195 101.75 56.685 101.75 56.0344V55.2718C101.75 54.8231 101.548 54.3969 101.189 53.9932C101.548 54.0156 101.75 53.8137 101.75 53.4099V52.6473C101.75 52.1986 101.548 51.7724 101.189 51.3687C101.548 51.3911 101.75 51.1892 101.75 50.7855V50.0228C101.75 49.5741 101.548 49.1479 101.189 48.7442C101.548 48.7666 101.75 48.5647 101.75 48.161V47.3983C101.75 46.658 101.212 45.9178 100.225 45.357C99.8658 45.1551 99.5741 45.043 99.3498 45.0205C98.9685 44.9757 98.7666 45.1776 98.7666 45.6262V46.3889C98.7666 46.7926 98.9685 47.2413 99.3274 47.6675C98.9685 47.645 98.7666 47.8469 98.7666 48.2731V49.0358C98.7666 49.4396 98.9685 49.8882 99.3274 50.3144C98.9685 50.292 98.7666 50.4938 98.7666 50.92V51.6827C98.7666 52.0865 98.9685 52.5351 99.3274 52.9613C98.9685 52.9389 98.7666 53.1408 98.7666 53.567V54.3296C98.7666 54.9353 99.305 55.7204 100.27 56.2812ZM101.077 59.1076C100.875 59.0851 100.606 58.9954 100.27 58.7935C99.7536 58.5019 99.4171 58.1879 99.2152 57.8738C99.4171 57.7841 99.776 57.9187 100.247 58.1879C100.741 58.4795 101.099 58.7711 101.301 59.0851C101.234 59.1076 101.167 59.13 101.077 59.1076ZM101.077 61.7545C100.875 61.7321 100.606 61.6423 100.27 61.4405C99.7536 61.1488 99.4171 60.8348 99.2152 60.5208C99.4171 60.431 99.776 60.5656 100.247 60.8348C100.741 61.1264 101.099 61.418 101.301 61.7321C101.234 61.7545 101.167 61.7769 101.077 61.7545ZM101.077 64.4014C100.875 64.379 100.606 64.2893 100.27 64.0874C99.7536 63.7958 99.4171 63.4817 99.2152 63.1677C99.4171 63.078 99.776 63.2125 100.247 63.4817C100.741 63.7733 101.099 64.0649 101.301 64.379C101.234 64.4014 101.167 64.4014 101.077 64.4014ZM101.055 65.6352C101.503 65.7249 101.75 65.5006 101.75 65.0744V64.3117C101.75 63.8631 101.548 63.4369 101.189 63.0331C101.548 63.0555 101.75 62.8536 101.75 62.4499V61.6872C101.75 61.2386 101.548 60.8124 101.189 60.4086C101.548 60.431 101.75 60.2292 101.75 59.8254V58.9954C101.75 58.2552 101.212 57.5149 100.225 56.9541C99.8658 56.7523 99.5741 56.6401 99.3498 56.6177C98.9685 56.5728 98.7666 56.7747 98.7666 57.2233V57.986C98.7666 58.3898 98.9685 58.8384 99.3274 59.2646C98.9685 59.2422 98.7666 59.444 98.7666 59.8702V60.6329C98.7666 61.0367 98.9685 61.4853 99.3274 61.9115C98.9685 61.8891 98.7666 62.091 98.7666 62.5172V63.2798C98.7666 63.7509 99.0134 64.2668 99.4844 64.7155L101.055 65.6352Z" fill="#7CA8DA"/>
<path d="M100.225 64.8947C101.212 65.4555 101.75 66.1958 101.75 66.936C101.75 67.5865 101.212 67.7211 100.27 67.1828C99.305 66.622 98.7666 65.8369 98.7666 65.1415C98.7666 64.4461 99.305 64.3564 100.225 64.8947ZM100.27 66.7341C101.032 67.1603 101.458 67.1379 101.458 66.7341C101.458 66.2631 100.987 65.7696 100.247 65.3434C99.5293 64.9396 99.0582 64.8723 99.0582 65.3434C99.0582 65.7471 99.4844 66.2631 100.27 66.7341Z" fill="white"/>
<path d="M100.225 62.2473C101.212 62.8081 101.75 63.5483 101.75 64.2886C101.75 64.9391 101.212 65.0737 100.27 64.5353C99.305 63.9745 98.7666 63.1894 98.7666 62.494C98.7666 61.7987 99.305 61.7089 100.225 62.2473ZM100.27 64.0867C101.032 64.5129 101.458 64.4905 101.458 64.0867C101.458 63.6156 100.987 63.1221 100.247 62.6959C99.5293 62.2922 99.0582 62.2249 99.0582 62.6959C99.0582 63.0997 99.4844 63.6381 100.27 64.0867Z" fill="white"/>
<path d="M100.225 59.6008C101.212 60.1616 101.75 60.9018 101.75 61.6421C101.75 62.2926 101.212 62.4272 100.27 61.8888C99.305 61.328 98.7666 60.5429 98.7666 59.8475C98.7666 59.1522 99.305 59.0624 100.225 59.6008ZM100.27 61.4402C101.032 61.8664 101.458 61.8439 101.458 61.4402C101.458 60.9691 100.987 60.4756 100.247 60.0494C99.5293 59.6457 99.0582 59.5784 99.0582 60.0494C99.0582 60.4532 99.4844 60.9915 100.27 61.4402Z" fill="white"/>
<path d="M100.225 56.9537C101.212 57.5145 101.75 58.2548 101.75 58.995C101.75 59.6455 101.212 59.7801 100.27 59.2418C99.305 58.681 98.7666 57.8959 98.7666 57.2005C98.7666 56.5051 99.305 56.4378 100.225 56.9537ZM100.27 58.7931C101.032 59.2193 101.458 59.1969 101.458 58.7931C101.458 58.3221 100.987 57.8286 100.247 57.4024C99.5293 56.9986 99.0582 56.9313 99.0582 57.4024C99.0582 57.8061 99.4844 58.3445 100.27 58.7931Z" fill="white"/>
<path d="M100.225 53.2307C101.212 53.7915 101.75 54.5317 101.75 55.272C101.75 55.9225 101.212 56.0571 100.27 55.5187C99.305 54.9579 98.7666 54.1728 98.7666 53.4774C98.7666 52.7821 99.305 52.6923 100.225 53.2307ZM100.27 55.0701C101.032 55.4963 101.458 55.4738 101.458 55.0701C101.458 54.599 100.987 54.1055 100.247 53.6793C99.5293 53.2755 99.0582 53.2083 99.0582 53.6793C99.0582 54.0831 99.4844 54.6214 100.27 55.0701Z" fill="white"/>
<path d="M100.225 50.5832C101.212 51.144 101.75 51.8843 101.75 52.6245C101.75 53.275 101.212 53.4096 100.27 52.8713C99.305 52.3105 98.7666 51.5254 98.7666 50.83C98.7666 50.1346 99.305 50.0449 100.225 50.5832ZM100.27 52.4226C101.032 52.8488 101.458 52.8264 101.458 52.4226C101.458 51.9516 100.987 51.4581 100.247 51.0319C99.5293 50.6281 99.0582 50.5608 99.0582 51.0319C99.0582 51.4356 99.4844 51.974 100.27 52.4226Z" fill="white"/>
<path d="M100.225 47.9368C101.212 48.4976 101.75 49.2379 101.75 49.9781C101.75 50.6286 101.212 50.7632 100.27 50.2249C99.305 49.6641 98.7666 48.879 98.7666 48.1836C98.7666 47.5106 99.305 47.4209 100.225 47.9368ZM100.27 49.7987C101.032 50.2249 101.458 50.2024 101.458 49.7987C101.458 49.3276 100.987 48.8341 100.247 48.4079C99.5293 48.0041 99.0582 47.9368 99.0582 48.4079C99.0582 48.8117 99.4844 49.3276 100.27 49.7987Z" fill="white"/>
<path d="M100.225 45.3117C101.212 45.8725 101.75 46.6128 101.75 47.353C101.75 48.0035 101.212 48.1381 100.27 47.5998C99.305 47.039 98.7666 46.2539 98.7666 45.5585C98.7666 44.8631 99.305 44.7734 100.225 45.3117ZM100.27 47.1511C101.032 47.5773 101.458 47.5549 101.458 47.1511C101.458 46.6801 100.987 46.1866 100.247 45.7604C99.5293 45.3566 99.0582 45.2893 99.0582 45.7604C99.0582 46.1641 99.4844 46.6801 100.27 47.1511Z" fill="white"/>
<path d="M100.225 41.5656C101.212 42.1264 101.75 42.8667 101.75 43.6069C101.75 44.2574 101.212 44.392 100.27 43.8537C99.305 43.2929 98.7666 42.5078 98.7666 41.8124C98.7666 41.117 99.305 41.0273 100.225 41.5656ZM100.27 43.405C101.032 43.8312 101.458 43.8088 101.458 43.405C101.458 42.934 100.987 42.4405 100.247 42.0143C99.5293 41.6105 99.0582 41.5432 99.0582 42.0143C99.0582 42.418 99.4844 42.9564 100.27 43.405Z" fill="white"/>
<path d="M100.225 38.9193C101.212 39.48 101.75 40.2203 101.75 40.9605C101.75 41.611 101.212 41.7456 100.27 41.2073C99.305 40.6465 98.7666 39.8614 98.7666 39.166C98.7666 38.4931 99.305 38.4033 100.225 38.9193ZM100.27 40.7811C101.032 41.2073 101.458 41.1848 101.458 40.7811C101.458 40.31 100.987 39.8165 100.247 39.3903C99.5293 38.9866 99.0582 38.9193 99.0582 39.3903C99.0582 39.7941 99.4844 40.31 100.27 40.7811Z" fill="white"/>
<path d="M100.225 36.2942C101.212 36.855 101.75 37.5952 101.75 38.3354C101.75 38.9859 101.212 39.1205 100.27 38.5822C99.305 38.0214 98.7666 37.2363 98.7666 36.5409C98.7666 35.8455 99.305 35.7558 100.225 36.2942ZM100.27 38.1336C101.032 38.5598 101.458 38.5373 101.458 38.1336C101.458 37.6625 100.987 37.169 100.247 36.7428C99.5293 36.339 99.0582 36.2717 99.0582 36.7428C99.0582 37.1466 99.4844 37.6849 100.27 38.1336Z" fill="white"/>
<path d="M100.225 33.6477C101.212 34.2085 101.75 34.9487 101.75 35.689C101.75 36.3395 101.212 36.4741 100.27 35.9357C99.305 35.3749 98.7666 34.5898 98.7666 33.8944C98.7666 33.199 99.305 33.1093 100.225 33.6477ZM100.27 35.4871C101.032 35.9133 101.458 35.8908 101.458 35.4871C101.458 35.016 100.987 34.5225 100.247 34.0963C99.5293 33.6925 99.0582 33.6252 99.0582 34.0963C99.0582 34.5001 99.4844 35.0384 100.27 35.4871Z" fill="white"/>
<path d="M100.225 29.924C101.212 30.4848 101.75 31.2251 101.75 31.9653C101.75 32.6158 101.212 32.7504 100.27 32.2121C99.305 31.6513 98.7666 30.8662 98.7666 30.1708C98.7666 29.4754 99.305 29.3857 100.225 29.924ZM100.27 31.7634C101.032 32.1896 101.458 32.1672 101.458 31.7634C101.458 31.2924 100.987 30.7989 100.247 30.3727C99.5293 29.9689 99.0582 29.9016 99.0582 30.3727C99.0582 30.7764 99.4844 31.2924 100.27 31.7634Z" fill="white"/>
<path d="M100.225 27.2766C101.212 27.8374 101.75 28.5776 101.75 29.3179C101.75 29.9684 101.212 30.103 100.27 29.5646C99.305 29.0038 98.7666 28.2187 98.7666 27.5233C98.7666 26.828 99.305 26.7382 100.225 27.2766ZM100.27 29.116C101.032 29.5422 101.458 29.5197 101.458 29.116C101.458 28.6449 100.987 28.1514 100.247 27.7252C99.5293 27.3214 99.0582 27.2542 99.0582 27.7252C99.0582 28.129 99.4844 28.6673 100.27 29.116Z" fill="white"/>
<path d="M100.225 24.6301C101.212 25.1909 101.75 25.9311 101.75 26.6714C101.75 27.3219 101.212 27.4565 100.27 26.9181C99.305 26.3573 98.7666 25.5722 98.7666 24.8768C98.7666 24.1815 99.305 24.0917 100.225 24.6301ZM100.27 26.4695C101.032 26.8957 101.458 26.8733 101.458 26.4695C101.458 25.9984 100.987 25.5049 100.247 25.0787C99.5293 24.675 99.0582 24.6077 99.0582 25.0787C99.0582 25.4825 99.4844 26.0209 100.27 26.4695Z" fill="white"/>
<path d="M100.225 21.983C101.212 22.5438 101.75 23.2841 101.75 24.0243C101.75 24.6748 101.212 24.8094 100.27 24.2711C99.305 23.7103 98.7666 22.9252 98.7666 22.2298C98.7666 21.5344 99.305 21.4671 100.225 21.983ZM100.27 23.8449C101.032 24.2711 101.458 24.2486 101.458 23.8449C101.458 23.3738 100.987 22.8803 100.247 22.4541C99.5293 22.0503 99.0582 21.983 99.0582 22.4541C99.0582 22.8579 99.4844 23.3738 100.27 23.8449Z" fill="white"/>
<path d="M107.29 45.6482C107.111 45.6258 106.909 45.5585 106.662 45.4239C106.034 45.065 105.608 44.5042 105.473 43.9434C105.496 43.8761 105.518 43.8313 105.541 43.7864V43.0686C105.81 43.4948 106.214 43.8761 106.662 44.1453C107.111 44.4145 107.47 44.4818 107.739 44.3921V45.065C107.761 45.1547 107.806 45.2445 107.829 45.3342C107.761 45.5585 107.56 45.6707 107.29 45.6482ZM107.358 48.7214C107.156 48.6989 106.931 48.6092 106.685 48.4746C106.169 48.183 105.698 47.7119 105.518 47.2409C105.72 46.9717 106.191 47.0614 106.662 47.3306C107.178 47.6222 107.627 48.0933 107.829 48.5643C107.717 48.6765 107.56 48.7438 107.358 48.7214ZM107.784 51.3234L106.662 50.6729C106.685 50.6505 106.707 50.628 106.73 50.6056C106.842 50.5159 106.999 50.5159 107.223 50.6505C107.402 50.7626 107.56 50.8972 107.672 51.0767C107.717 51.144 107.761 51.2337 107.784 51.3234ZM105.159 50.9645L108.165 52.6917C108.188 52.5796 108.21 52.3777 108.21 52.1085V51.3459C108.21 50.9421 108.12 50.471 107.874 50.0897C107.829 50.0448 107.806 49.9775 107.761 49.9327C108.053 49.8654 108.232 49.6186 108.232 49.1924V48.4297C108.232 47.9363 108.008 47.3755 107.582 46.882C108.008 46.8595 108.232 46.5455 108.232 45.9847V45.222C108.232 44.8631 108.165 44.5267 108.098 44.3472L107.918 44.3023C108.12 44.1677 108.232 43.8986 108.232 43.5172V42.7546C108.232 42.3957 108.165 42.0592 108.098 41.8797L107.784 41.79V42.5527C107.806 42.6424 107.851 42.7321 107.874 42.8218C107.784 43.0686 107.604 43.1808 107.335 43.1583C107.156 43.1359 106.954 43.0686 106.707 42.934C106.079 42.5751 105.653 42.0143 105.518 41.4535C105.541 41.3862 105.563 41.3414 105.586 41.2965V40.5338L105.271 40.2646C105.227 40.3319 105.137 40.5338 105.137 40.8927V41.6554C105.137 42.0816 105.271 42.5527 105.518 42.9564L105.271 42.7321C105.227 42.7994 105.137 43.0013 105.137 43.3602V44.1229C105.137 44.7061 105.384 45.3118 105.81 45.8277C105.406 45.8053 105.137 46.0744 105.137 46.5904V47.353C105.137 48.0708 105.653 48.9232 106.438 49.484C106.326 49.6186 106.281 49.8429 106.281 50.0897V50.4486L105.496 50V49.484V48.7214L105.159 48.5419V50.9645V50.9645ZM104.531 53.9255C104.823 54.0825 105.002 54.0152 105.002 53.6339V52.8712C105.002 52.4899 104.823 52.2207 104.531 52.0188V53.0955V53.1628V53.9255ZM107.784 58.5015L106.662 57.851C106.752 57.7164 106.931 57.6716 107.201 57.8286C107.492 58.008 107.672 58.2548 107.784 58.5015ZM106.55 62.2252C106.483 62.0233 106.393 61.8663 106.281 61.7093L106.73 61.9784C106.64 62.0233 106.595 62.113 106.55 62.2252ZM106.326 62.9654L105.518 62.4944C105.586 62.4046 105.72 62.3822 105.922 62.4944C106.101 62.6065 106.236 62.7635 106.326 62.9654ZM107.806 63.8178L106.819 63.2346C106.909 63.1 107.066 63.0551 107.313 63.1897C107.56 63.3692 107.717 63.5935 107.806 63.8178ZM106.909 65.8591L106.707 65.6796L106.909 65.7245V65.8591ZM105.473 67.4293L108.143 68.9771V68.192V68.1247V66.9582L107.201 66.1058V65.8142L108.143 66.0385V65.1188C108.165 65.0067 108.165 64.8272 108.165 64.6029V63.8403C108.165 63.3468 108.075 62.9654 107.874 62.6514L108.12 62.8084V61.642L106.707 60.8344V60.1615L108.12 60.969V59.8474C108.143 59.7353 108.143 59.5558 108.143 59.3315V58.5688C108.143 58.2548 108.098 57.9183 107.941 57.6043L108.098 57.694V56.9313V56.6173V55.4284L106.976 54.0825L108.098 54.733V53.589L105.092 51.8618V52.2431V53.0058L106.258 54.3966L105.092 53.7236V54.0825V55.9443L106.348 56.6846C106.236 56.8192 106.191 57.0435 106.191 57.3127V57.6716L105.092 57.0435V57.4248V59.2642L106.348 59.982V60.655L105.092 59.9372V60.3185V61.0812L105.384 61.2606C105.339 61.2606 105.316 61.283 105.271 61.3055C105.114 61.3952 105.047 61.6195 105.047 62.0009V62.7635C105.047 63.0327 105.07 63.3243 105.114 63.5038L107.111 64.6478L105.092 64.1767V64.6478V65.4105L107.133 67.2723L105.092 66.1058V68.035L105.429 68.2144V67.4293H105.473Z" fill="#7CA8DA"/>
<path d="M105.159 68.2588L105.473 68.4382V69.6495L108.165 71.1973V71.5787L105.159 69.8514V68.2588Z" fill="white"/>
<path d="M105.159 66.0605L108.165 67.7878V68.1691L105.496 66.6213V67.6083L106.415 68.1242C107.066 68.5056 107.784 68.9542 108.075 69.5374C108.143 69.6944 108.21 69.8963 108.21 70.0758L107.896 69.9861C107.873 69.8515 107.806 69.6944 107.739 69.5823C107.492 69.201 106.909 68.842 106.438 68.5729L105.182 67.8326V66.0605H105.159Z" fill="white"/>
<path d="M107.223 66.1058L108.165 66.9582V67.362L105.159 64.6029V64.1318L108.165 64.8496V65.2534L107.223 65.0291V66.1058ZM106.909 64.9394L106.034 64.7375C105.832 64.6926 105.653 64.6253 105.496 64.5805C105.675 64.7375 105.855 64.8721 106.034 65.0515L106.909 65.8366V64.9394Z" fill="white"/>
<path d="M105.204 62.6964C105.159 62.517 105.137 62.2254 105.137 61.9562C105.137 61.5749 105.204 61.3505 105.361 61.2608C105.473 61.1711 105.653 61.1711 105.899 61.3281C106.191 61.4851 106.438 61.844 106.55 62.2254C106.617 61.9786 106.864 61.7768 107.313 62.0459C107.582 62.203 107.761 62.4048 107.918 62.6516C108.12 62.9656 108.21 63.3694 108.21 63.8405C108.21 64.1096 108.187 64.3115 108.165 64.4237L105.204 62.6964ZM106.438 63.0329V62.674C106.438 62.2702 106.213 61.9113 105.944 61.7319C105.585 61.53 105.451 61.7095 105.451 62.1132C105.451 62.2927 105.473 62.4048 105.473 62.4721L106.438 63.0329ZM107.873 63.8629C107.896 63.7956 107.896 63.6834 107.896 63.5488C107.896 63.1451 107.739 62.6964 107.313 62.4497C106.909 62.2029 106.729 62.4721 106.729 62.8983V63.2124L107.873 63.8629Z" fill="white"/>
<path d="M105.159 59.8921L106.415 60.6099V59.1743L105.159 58.4341V58.0527L108.165 59.78V60.1837L106.752 59.3538V60.8118L108.165 61.6194V62.0007L105.159 60.2735V59.8921Z" fill="white"/>
<path d="M105.159 54.7559L108.165 56.4831V56.8644L105.159 55.1372V54.7559ZM105.159 56.999L106.281 57.6495C106.258 57.5598 106.258 57.3803 106.258 57.2906C106.258 56.6625 106.527 56.2812 107.2 56.685C107.47 56.842 107.671 57.0439 107.828 57.2906C108.098 57.6944 108.187 58.1655 108.187 58.5692C108.187 58.8384 108.165 59.0403 108.143 59.1524L105.137 57.4252V56.999H105.159ZM107.873 58.5468C107.896 58.4795 107.896 58.3898 107.896 58.2552C107.896 57.829 107.671 57.3355 107.223 57.0663C106.752 56.7971 106.572 57.0887 106.572 57.4925C106.572 57.6271 106.595 57.7617 106.595 57.8065L107.873 58.5468Z" fill="white"/>
<path d="M104.531 52.8483C104.666 52.9156 104.8 52.938 104.8 52.7361C104.8 52.5342 104.666 52.3996 104.531 52.3099V52.0183C104.823 52.2202 105.002 52.4894 105.002 52.8707C105.002 53.2296 104.823 53.2969 104.531 53.1623V52.8483ZM105.159 53.7007L106.415 54.4409C106.887 54.7101 107.29 54.9568 107.694 55.2036C107.38 54.8671 107.066 54.5082 106.707 54.082L105.159 52.2202V51.8164L108.165 53.5436V53.9026L106.887 53.1623C106.393 52.8931 106.034 52.6688 105.675 52.4221C106.012 52.7585 106.348 53.1623 106.685 53.5661L108.188 55.3606V55.7644L105.182 54.0371V53.7007H105.159Z" fill="white"/>
<path d="M105.159 48.5195L105.496 48.699V50L106.303 50.4711C106.281 50.3589 106.281 50.1795 106.281 50.0897C106.281 49.7981 106.348 49.5514 106.483 49.4392C106.64 49.3046 106.864 49.2822 107.223 49.4841C107.514 49.6411 107.716 49.8654 107.873 50.1122C108.12 50.4935 108.21 50.9646 108.21 51.3683C108.21 51.6375 108.187 51.8394 108.165 51.9516L105.159 50.2243V48.5195ZM107.873 51.3683C107.896 51.301 107.896 51.1889 107.896 51.0543C107.896 50.8076 107.829 50.5159 107.672 50.2916C107.559 50.1346 107.425 49.9776 107.223 49.8654C106.999 49.7308 106.842 49.7308 106.729 49.8206C106.617 49.9103 106.572 50.0897 106.572 50.2916C106.572 50.3814 106.572 50.5159 106.595 50.6057L107.873 51.3683Z" fill="white"/>
<path d="M106.64 46.1189C107.672 46.7246 108.233 47.6667 108.233 48.4294C108.233 49.2145 107.627 49.4164 106.707 48.9004C105.743 48.3396 105.137 47.3975 105.137 46.59C105.115 45.76 105.743 45.603 106.64 46.1189ZM106.685 48.4742C107.336 48.8556 107.896 48.8331 107.896 48.2275C107.896 47.6218 107.336 46.9489 106.64 46.5451C106.035 46.2086 105.429 46.1414 105.429 46.7919C105.429 47.42 106.012 48.0929 106.685 48.4742Z" fill="white"/>
<path d="M108.075 44.3475C108.143 44.527 108.21 44.8634 108.21 45.2223C108.21 46.0747 107.671 46.3888 106.684 45.828C105.742 45.2896 105.114 44.2802 105.114 43.3605C105.114 42.9792 105.204 42.7997 105.249 42.7324L105.563 43.0016C105.496 43.1138 105.428 43.2932 105.428 43.54C105.428 44.2353 105.877 44.9756 106.662 45.4242C107.402 45.8504 107.873 45.6934 107.873 44.9756C107.873 44.7513 107.828 44.4821 107.739 44.2802L108.075 44.3475Z" fill="white"/>
<path d="M108.075 41.8573C108.143 42.0367 108.21 42.3732 108.21 42.7321C108.21 43.5845 107.671 43.8985 106.684 43.3378C105.742 42.7994 105.114 41.79 105.114 40.8703C105.114 40.4889 105.204 40.3095 105.249 40.2422L105.563 40.5114C105.496 40.6235 105.428 40.803 105.428 41.0497C105.428 41.7451 105.877 42.4854 106.662 42.934C107.402 43.3602 107.873 43.2032 107.873 42.4854C107.873 42.261 107.828 41.9919 107.739 41.79L108.075 41.8573Z" fill="white"/>
<path d="M114.379 129.318V155.989L152.759 133.826V107.155L114.379 129.318Z" fill="url(#paint20_linear_1876_6149)"/>
<path d="M114.379 129.318V155.989L152.759 133.826V107.155L114.379 129.318Z" fill="url(#paint21_linear_1876_6149)"/>
<path d="M114.379 156.168C114.356 156.168 114.311 156.168 114.289 156.146C114.222 156.123 114.199 156.056 114.199 155.989V129.318C114.199 129.25 114.244 129.183 114.289 129.161L152.669 106.998C152.737 106.976 152.804 106.976 152.849 106.998C152.916 107.021 152.939 107.088 152.939 107.155V133.804C152.939 133.871 152.894 133.939 152.849 133.961L114.468 156.123C114.446 156.146 114.424 156.168 114.379 156.168ZM114.581 129.43V155.652L152.602 133.714V107.492L114.581 129.43Z" fill="white"/>
<path d="M128.016 148.227C127.904 148.227 127.837 148.138 127.837 148.048V122.094C127.837 121.982 127.927 121.915 128.016 121.915C128.106 121.915 128.196 122.005 128.196 122.094V148.048C128.196 148.16 128.106 148.227 128.016 148.227Z" fill="white"/>
<path d="M163.751 113.01L123.127 136.473V138.223L163.751 114.759V113.01Z" fill="#5CD9FC"/>
<path d="M123.127 136.474L111.597 129.812V131.561L123.127 138.223V136.474Z" fill="#5CD9FC"/>
<path d="M163.75 113.01L152.22 106.348L111.597 129.811L123.127 136.473L163.75 113.01Z" fill="white"/>
<path d="M118.73 156.818L124.922 160.385V161.731L118.73 158.142V156.818Z" fill="#7DAAD6"/>
<path d="M124.922 160.385L131.135 156.818V158.142L124.922 161.731V160.385Z" fill="#C6E2F3"/>
<path d="M118.73 156.819L124.922 153.229L131.135 156.819L124.922 160.385L118.73 156.819Z" fill="white"/>
<path d="M121.849 135.509C121.849 135.957 122.14 136.406 122.746 136.743C123.935 137.438 125.864 137.438 127.053 136.743C127.636 136.406 127.95 135.957 127.95 135.509V156.841C127.95 157.29 127.658 157.738 127.053 158.075C125.864 158.77 123.935 158.77 122.746 158.075C122.14 157.738 121.849 157.29 121.849 156.841V135.509Z" fill="url(#paint22_linear_1876_6149)"/>
<path d="M121.849 135.509C121.849 135.061 122.14 134.612 122.746 134.275C123.935 133.58 125.864 133.58 127.053 134.275C127.658 134.612 127.95 135.061 127.95 135.509C127.95 135.958 127.658 136.406 127.053 136.743C125.864 137.438 123.935 137.438 122.746 136.743C122.14 136.406 121.849 135.958 121.849 135.509Z" fill="url(#paint23_linear_1876_6149)"/>
<path d="M118.73 135.509L124.922 139.075V140.421L118.73 136.832V135.509Z" fill="#7DAAD6"/>
<path d="M124.922 139.075L131.135 135.509V136.832L124.922 140.421V139.075Z" fill="#C6E2F3"/>
<path d="M118.73 135.509L124.922 131.92L131.135 135.509L124.922 139.076L118.73 135.509Z" fill="white"/>
<path d="M110.61 161.508L116.824 165.074V166.398L110.61 162.831V161.508Z" fill="url(#paint24_linear_1876_6149)"/>
<path d="M116.824 165.074L123.015 161.508V162.831L116.824 166.398V165.074Z" fill="url(#paint25_linear_1876_6149)"/>
<path d="M110.61 161.508L116.824 157.919L123.015 161.508L116.824 165.075L110.61 161.508Z" fill="url(#paint26_linear_1876_6149)"/>
<path d="M113.729 140.175C113.729 140.623 114.02 141.072 114.626 141.409C115.815 142.104 117.744 142.104 118.933 141.409C119.516 141.072 119.83 140.623 119.83 140.175V161.507C119.83 161.956 119.538 162.404 118.933 162.741C117.744 163.436 115.815 163.436 114.626 162.741C114.02 162.404 113.729 161.956 113.729 161.507V140.175V140.175Z" fill="url(#paint27_linear_1876_6149)"/>
<path d="M113.729 140.175C113.729 139.727 114.02 139.278 114.626 138.941C115.815 138.246 117.744 138.246 118.933 138.941C119.538 139.278 119.83 139.727 119.83 140.175C119.83 140.624 119.538 141.072 118.933 141.409C117.744 142.104 115.815 142.104 114.626 141.409C114.02 141.072 113.729 140.624 113.729 140.175Z" fill="url(#paint28_linear_1876_6149)"/>
<path d="M110.61 140.175L116.824 143.764V145.087L110.61 141.521V140.175Z" fill="url(#paint29_linear_1876_6149)"/>
<path d="M116.824 143.764L123.015 140.175V141.521L116.824 145.087V143.764Z" fill="url(#paint30_linear_1876_6149)"/>
<path d="M110.61 140.175L116.824 136.608L123.015 140.175L116.824 143.764L110.61 140.175Z" fill="url(#paint31_linear_1876_6149)"/>
<path d="M110.61 161.508L116.824 165.074V166.398L110.61 162.831V161.508Z" fill="#7DAAD6"/>
<path d="M116.824 165.074L123.015 161.508V162.831L116.824 166.398V165.074Z" fill="#C6E2F3"/>
<path d="M110.61 161.508L116.824 157.919L123.015 161.508L116.824 165.075L110.61 161.508Z" fill="white"/>
<path d="M113.729 140.175C113.729 140.623 114.02 141.072 114.626 141.409C115.815 142.104 117.744 142.104 118.933 141.409C119.516 141.072 119.83 140.623 119.83 140.175V161.507C119.83 161.956 119.538 162.404 118.933 162.741C117.744 163.436 115.815 163.436 114.626 162.741C114.02 162.404 113.729 161.956 113.729 161.507V140.175V140.175Z" fill="url(#paint32_linear_1876_6149)"/>
<path d="M113.729 140.175C113.729 139.727 114.02 139.278 114.626 138.941C115.815 138.246 117.744 138.246 118.933 138.941C119.538 139.278 119.83 139.727 119.83 140.175C119.83 140.624 119.538 141.072 118.933 141.409C117.744 142.104 115.815 142.104 114.626 141.409C114.02 141.072 113.729 140.624 113.729 140.175Z" fill="url(#paint33_linear_1876_6149)"/>
<path d="M110.61 140.175L116.824 143.764V145.087L110.61 141.521V140.175Z" fill="#7DAAD6"/>
<path d="M116.824 143.764L123.015 140.175V141.521L116.824 145.087V143.764Z" fill="#C6E2F3"/>
<path d="M110.61 140.175L116.824 136.608L123.015 140.175L116.824 143.764L110.61 140.175Z" fill="white"/>
<path d="M150.897 138.245L157.089 141.812V143.158L150.897 139.569V138.245Z" fill="#7DAAD6"/>
<path d="M157.089 141.812L163.302 138.245V139.569L157.089 143.158V141.812Z" fill="#C6E2F3"/>
<path d="M150.897 138.245L157.089 134.656L163.302 138.245L157.089 141.812L150.897 138.245Z" fill="white"/>
<path d="M154.016 116.936C154.016 117.384 154.307 117.833 154.913 118.169C156.102 118.865 158.031 118.865 159.22 118.169C159.803 117.833 160.117 117.384 160.117 116.936V138.268C160.117 138.717 159.825 139.165 159.22 139.502C158.031 140.197 156.102 140.197 154.913 139.502C154.307 139.165 154.016 138.717 154.016 138.268V116.936Z" fill="url(#paint34_linear_1876_6149)"/>
<path d="M154.016 116.936C154.016 116.487 154.307 116.039 154.913 115.702C156.102 115.007 158.031 115.007 159.22 115.702C159.825 116.039 160.117 116.487 160.117 116.936C160.117 117.385 159.825 117.833 159.22 118.17C158.031 118.865 156.102 118.865 154.913 118.17C154.307 117.833 154.016 117.385 154.016 116.936Z" fill="url(#paint35_linear_1876_6149)"/>
<path d="M150.897 116.936L157.089 120.502V121.848L150.897 118.259V116.936Z" fill="#7DAAD6"/>
<path d="M157.089 120.502L163.302 116.936V118.259L157.089 121.848V120.502Z" fill="#C6E2F3"/>
<path d="M150.897 116.936L157.089 113.347L163.302 116.936L157.089 120.502L150.897 116.936Z" fill="white"/>
<path d="M142.777 142.934L148.991 146.5V147.846L142.777 144.257V142.934Z" fill="#7DAAD6"/>
<path d="M148.991 146.5L155.182 142.934V144.257L148.991 147.846V146.5Z" fill="#C6E2F3"/>
<path d="M142.777 142.934L148.991 139.345L155.182 142.934L148.991 146.5L142.777 142.934Z" fill="white"/>
<path d="M145.896 121.602C145.896 122.05 146.187 122.499 146.793 122.835C147.982 123.531 149.911 123.531 151.1 122.835C151.683 122.499 151.997 122.05 151.997 121.602V142.934C151.997 143.383 151.705 143.831 151.1 144.168C149.911 144.863 147.982 144.863 146.793 144.168C146.187 143.831 145.896 143.383 145.896 142.934V121.602Z" fill="url(#paint36_linear_1876_6149)"/>
<path d="M145.896 121.602C145.896 121.153 146.187 120.705 146.793 120.368C147.982 119.673 149.911 119.673 151.1 120.368C151.705 120.705 151.997 121.153 151.997 121.602C151.997 122.051 151.705 122.499 151.1 122.836C149.911 123.531 147.982 123.531 146.793 122.836C146.187 122.499 145.896 122.051 145.896 121.602Z" fill="url(#paint37_linear_1876_6149)"/>
<path d="M142.777 121.602L148.991 125.191V126.514L142.777 122.947V121.602Z" fill="#7DAAD6"/>
<path d="M148.991 125.191L155.182 121.602V122.947L148.991 126.514V125.191Z" fill="#C6E2F3"/>
<path d="M142.777 121.602L148.991 118.035L155.182 121.602L148.991 125.191L142.777 121.602Z" fill="white"/>
<path d="M163.661 112.247L116.824 139.3L108.098 134.275L154.957 107.223L163.661 112.247Z" fill="url(#paint38_linear_1876_6149)"/>
<path d="M116.824 139.3V142.979L108.098 137.932V134.275L116.824 139.3Z" fill="url(#paint39_linear_1876_6149)"/>
<path d="M163.66 112.247V115.926L116.823 142.978V139.3L163.66 112.247Z" fill="url(#paint40_linear_1876_6149)"/>
<path d="M163.66 107.133L139.703 110.722L131 105.697L154.957 102.108L163.66 107.133Z" fill="url(#paint41_linear_1876_6149)"/>
<path d="M139.704 110.722L116.779 134.208L108.075 129.183L131 105.697L139.704 110.722Z" fill="url(#paint42_linear_1876_6149)"/>
<path d="M116.779 134.208V137.999L108.075 132.975V129.184L116.779 134.208Z" fill="url(#paint43_linear_1876_6149)"/>
<path d="M163.66 107.133V110.924L116.778 137.999V134.208L139.703 110.722L163.66 107.133Z" fill="url(#paint44_linear_1876_6149)"/>
<path d="M122.857 131.336L139.726 114.086L157.335 111.439L122.857 131.336Z" fill="#EEEFFB"/>
<path d="M154.15 47.9358L109.018 74.0013L105.451 71.9376L150.606 45.8721L154.15 47.9358Z" fill="#1599DD"/>
<path d="M109.018 74.0012V89.322L105.451 87.2583V71.9375L109.018 74.0012Z" fill="#1599DD"/>
<path d="M154.15 47.9355V63.2563L109.018 89.3218V74.0011L154.15 47.9355Z" fill="url(#paint45_linear_1876_6149)"/>
<path d="M144.235 56.2356L141.835 57.6263V68.0121L142.62 68.4608L145.02 67.07V64.4231L145.626 63.1221L146.725 65.1858L147.51 65.6344L150.134 64.109L147.241 59.6003L149.91 53.8578L149.125 53.4092L146.5 54.9345L145.02 58.389V56.6842L144.235 56.2356ZM129.026 69.4029C129.094 69.6945 129.363 70.8834 129.363 70.8834L128.712 71.2647C128.802 70.6815 128.914 70.031 129.026 69.4029ZM135.98 60.9911L133.58 62.3818V72.7676L134.365 73.2163L136.631 71.9152V68.9094C136.631 68.3038 136.586 67.6981 136.518 67.0924L137.819 70.345L138.605 70.7937L141.005 69.4029V59.0171L140.22 58.5684L137.954 59.8695V62.8753C137.954 63.4585 137.999 64.0866 138.066 64.6698L136.788 61.4621L135.98 60.9911ZM120.188 77.0296L121.13 76.4913C121.332 76.3791 121.512 76.2894 121.669 76.2221C121.669 76.267 121.669 76.3118 121.669 76.3567C121.669 77.1194 121.287 77.7699 120.345 78.3082L120.188 78.398V77.0296ZM130.036 64.4231L127.164 66.083L124.45 78.0391L125.235 78.4877L127.68 77.0745L128.129 74.607L129.991 73.5303L130.26 74.6743L131.045 75.123L133.557 73.6649L130.843 64.8493L130.036 64.4231ZM120.188 73.1265L120.973 72.6779C121.086 72.6106 121.198 72.5433 121.287 72.4985C121.287 73.1265 120.951 73.7546 120.188 74.2033V73.1265ZM120.233 70.0983L117.025 71.9601V82.3235L117.81 82.7721L121.287 80.7533C122.274 80.1925 123.149 79.4298 123.777 78.555C124.383 77.7026 124.764 76.7156 124.764 75.6613C124.764 74.9435 124.585 74.4949 124.248 74.293L123.463 73.8444C123.418 73.8219 123.396 73.7995 123.351 73.7771C123.418 73.6873 123.486 73.5976 123.553 73.5079C124.114 72.7228 124.383 71.8255 124.383 71.1526C124.383 70.4123 124.181 69.9861 123.845 69.7842L123.059 69.3356C122.476 69.0216 121.444 69.4029 120.233 70.0983Z" fill="#1599DD"/>
<path d="M117.811 72.3856L121.018 70.5238C122.903 69.4471 124.383 69.1106 124.383 71.1519C124.383 72.0491 123.912 73.3502 122.858 74.2699V74.3372C124.136 73.8885 124.764 74.2923 124.764 75.6606C124.764 77.7916 123.217 79.631 121.287 80.7302L117.811 82.749V72.3856ZM120.973 74.6512C121.759 74.2026 122.073 73.5745 122.073 72.924C122.073 72.2735 121.736 72.2286 120.973 72.6772L120.188 73.1259V75.0998L120.973 74.6512ZM121.13 78.7562C122.073 78.2178 122.454 77.5673 122.454 76.8046C122.454 76.042 122.073 75.9522 121.13 76.4906L120.188 77.029V79.2945L121.13 78.7562Z" fill="white"/>
<path d="M127.95 66.5535L130.821 64.8936L133.535 73.7092L131.023 75.1672C131.023 75.1672 129.565 68.7294 129.363 67.7872L129.318 67.8097C129.116 68.9761 127.68 77.0963 127.68 77.0963L125.235 78.5095L127.95 66.5535ZM127.187 73.0362L131.561 70.5015V72.6325L127.187 75.1672V73.0362Z" fill="white"/>
<path d="M134.365 62.83L136.765 61.4392L139.009 67.1144L139.053 67.092C138.941 66.0377 138.717 64.6021 138.717 63.3235V60.3176L140.983 59.0166V69.4024L138.582 70.7932L136.339 65.118L136.294 65.1404C136.407 66.262 136.631 67.6303 136.631 68.9089V71.9148L134.365 73.2158V62.83Z" fill="white"/>
<path d="M142.598 58.0746L144.998 56.6838V60.5645L145.043 60.5421L147.263 55.4052L149.888 53.8799L144.998 64.4452V67.0697L142.598 68.4604V58.0746V58.0746ZM145.671 62.2469L147.062 59.3083L150.135 64.1087L147.51 65.634L145.671 62.2469Z" fill="white"/>
<path d="M20.5921 132.638C19.493 132.638 18.5957 131.741 18.5957 130.642V116.196C18.5957 115.096 19.493 114.199 20.5921 114.199C21.6913 114.199 22.5885 115.096 22.5885 116.196V130.664C22.5885 131.763 21.6913 132.638 20.5921 132.638Z" fill="url(#paint46_linear_1876_6149)"/>
<path d="M30.4618 120.009C30.4843 120.076 30.4842 120.121 30.4842 120.188C30.5067 121.4 29.5421 122.588 27.613 123.508C23.7323 125.347 17.4291 125.347 13.5484 123.508C11.5968 122.588 10.6547 121.355 10.6771 120.166C10.6771 120.099 10.6771 120.054 10.6996 119.986C10.6996 119.986 10.6996 119.986 10.6771 119.986C11.5744 110.386 12.6511 100.785 14.0868 91.2066C14.3335 89.6364 15.0737 88.0886 16.2626 86.8773C18.8198 84.2753 22.3416 84.2753 24.8988 86.8773C26.0877 88.1111 26.8503 89.6589 27.0971 91.2291C28.5103 100.807 29.587 110.408 30.4618 120.009C30.4843 120.009 30.4843 120.009 30.4618 120.009Z" fill="url(#paint47_linear_1876_6149)"/>
<path d="M45.2669 146.882C44.1678 146.882 43.2705 145.985 43.2705 144.886V130.417C43.2705 129.318 44.1678 128.421 45.2669 128.421C46.3661 128.421 47.2633 129.318 47.2633 130.417V144.908C47.2633 146.007 46.3661 146.882 45.2669 146.882Z" fill="url(#paint48_linear_1876_6149)"/>
<path d="M55.1366 134.253C55.159 134.32 55.159 134.365 55.159 134.432C55.1815 135.644 54.2169 136.833 52.2878 137.752C48.4071 139.592 42.1039 139.592 38.2232 137.752C36.2716 136.833 35.3295 135.599 35.352 134.41C35.352 134.343 35.352 134.298 35.3744 134.231C35.3744 134.231 35.3744 134.231 35.352 134.231C36.2492 124.63 37.3259 115.029 38.7616 105.451C39.0083 103.881 39.7485 102.333 40.9374 101.121C43.4946 98.5194 47.0164 98.5194 49.5736 101.121C50.7624 102.355 51.5251 103.903 51.7719 105.473C53.1851 115.052 54.2618 124.652 55.1366 134.253C55.1366 134.253 55.159 134.253 55.1366 134.253Z" fill="url(#paint49_linear_1876_6149)"/>
<path d="M69.9193 161.126C68.8201 161.126 67.9229 160.229 67.9229 159.13V144.661C67.9229 143.562 68.8201 142.665 69.9193 142.665C71.0184 142.665 71.9157 143.562 71.9157 144.661V159.13C71.9157 160.251 71.0408 161.126 69.9193 161.126Z" fill="url(#paint50_linear_1876_6149)"/>
<path d="M79.8114 148.497C79.8338 148.564 79.8338 148.609 79.8338 148.676C79.8563 149.888 78.8917 151.077 76.9626 151.996C73.0819 153.836 66.7787 153.836 62.898 151.996C60.9465 151.077 60.0043 149.843 60.0268 148.654C60.0268 148.587 60.0268 148.542 60.0492 148.475C60.0492 148.475 60.0492 148.475 60.0268 148.475C60.924 138.874 62.0007 129.273 63.4364 119.695C63.6831 118.125 64.4233 116.577 65.6122 115.366C68.1694 112.764 71.6912 112.764 74.2484 115.366C75.4373 116.599 76.1999 118.147 76.4467 119.717C77.8599 129.296 78.9366 138.896 79.8114 148.497Z" fill="url(#paint51_linear_1876_6149)"/>
<path d="M94.5941 175.37C93.4949 175.37 92.5977 174.473 92.5977 173.374V158.906C92.5977 157.806 93.4949 156.909 94.5941 156.909C95.6932 156.909 96.5905 157.806 96.5905 158.906V173.374C96.5905 174.473 95.6932 175.37 94.5941 175.37Z" fill="url(#paint52_linear_1876_6149)"/>
<path d="M104.486 162.741C104.509 162.808 104.509 162.853 104.509 162.921C104.531 164.132 103.566 165.321 101.637 166.24C97.7567 168.08 91.4535 168.08 87.5728 166.24C85.6213 165.321 84.6791 164.087 84.7016 162.898C84.7016 162.831 84.7016 162.786 84.724 162.719C84.724 162.719 84.724 162.719 84.7016 162.719C85.5988 153.118 86.6755 143.517 88.1112 133.939C88.3579 132.369 89.0981 130.821 90.287 129.61C92.8442 127.008 96.366 127.008 98.9232 129.61C100.112 130.843 100.875 132.391 101.121 133.961C102.535 143.54 103.611 153.14 104.486 162.741Z" fill="url(#paint53_linear_1876_6149)"/>
</g>
<defs>
<linearGradient id="paint0_linear_1876_6149" x1="101.52" y1="75.5449" x2="105.507" y2="75.5449" gradientUnits="userSpaceOnUse">
<stop offset="0.0353535" stop-color="#FF9E6E"/>
<stop offset="0.3036" stop-color="#FFAD73"/>
<stop offset="0.821" stop-color="#FFD680"/>
<stop offset="1" stop-color="#FFE585"/>
</linearGradient>
<linearGradient id="paint1_linear_1876_6149" x1="80.3254" y1="62.3479" x2="113.293" y2="55.0622" gradientUnits="userSpaceOnUse">
<stop offset="0.00505051" stop-color="#20B0D3"/>
<stop offset="0.56" stop-color="#24D4C3"/>
<stop offset="1" stop-color="#27F3B5"/>
</linearGradient>
<linearGradient id="paint2_linear_1876_6149" x1="126.189" y1="89.7877" x2="130.176" y2="89.7877" gradientUnits="userSpaceOnUse">
<stop offset="0.0353535" stop-color="#FF9E6E"/>
<stop offset="0.3036" stop-color="#FFAD73"/>
<stop offset="0.821" stop-color="#FFD680"/>
<stop offset="1" stop-color="#FFE585"/>
</linearGradient>
<linearGradient id="paint3_linear_1876_6149" x1="104.995" y1="76.5908" x2="137.963" y2="69.3051" gradientUnits="userSpaceOnUse">
<stop offset="0.00505051" stop-color="#20B0D3"/>
<stop offset="0.56" stop-color="#24D4C3"/>
<stop offset="1" stop-color="#27F3B5"/>
</linearGradient>
<linearGradient id="paint4_linear_1876_6149" x1="150.859" y1="104.031" x2="154.845" y2="104.031" gradientUnits="userSpaceOnUse">
<stop offset="0.0353535" stop-color="#FF9E6E"/>
<stop offset="0.3036" stop-color="#FFAD73"/>
<stop offset="0.821" stop-color="#FFD680"/>
<stop offset="1" stop-color="#FFE585"/>
</linearGradient>
<linearGradient id="paint5_linear_1876_6149" x1="129.664" y1="90.8336" x2="162.632" y2="83.5479" gradientUnits="userSpaceOnUse">
<stop offset="0.00505051" stop-color="#20B0D3"/>
<stop offset="0.56" stop-color="#24D4C3"/>
<stop offset="1" stop-color="#27F3B5"/>
</linearGradient>
<linearGradient id="paint6_linear_1876_6149" x1="175.528" y1="118.273" x2="179.514" y2="118.273" gradientUnits="userSpaceOnUse">
<stop offset="0.0353535" stop-color="#FF9E6E"/>
<stop offset="0.3036" stop-color="#FFAD73"/>
<stop offset="0.821" stop-color="#FFD680"/>
<stop offset="1" stop-color="#FFE585"/>
</linearGradient>
<linearGradient id="paint7_linear_1876_6149" x1="154.333" y1="105.077" x2="187.301" y2="97.7908" gradientUnits="userSpaceOnUse">
<stop offset="0.00505051" stop-color="#20B0D3"/>
<stop offset="0.56" stop-color="#24D4C3"/>
<stop offset="1" stop-color="#27F3B5"/>
</linearGradient>
<linearGradient id="paint8_linear_1876_6149" x1="60.4596" y1="113.547" x2="53.8385" y2="125.015" gradientUnits="userSpaceOnUse">
<stop offset="0.0353535" stop-color="#4DF4FF"/>
<stop offset="0.3036" stop-color="#52E5FF"/>
<stop offset="0.821" stop-color="#5DBCFF"/>
<stop offset="1" stop-color="#62ADFF"/>
</linearGradient>
<linearGradient id="paint9_linear_1876_6149" x1="86.1436" y1="128.377" x2="79.5228" y2="139.844" gradientUnits="userSpaceOnUse">
<stop offset="0.0353535" stop-color="#4DF4FF"/>
<stop offset="0.3036" stop-color="#52E5FF"/>
<stop offset="0.821" stop-color="#5DBCFF"/>
<stop offset="1" stop-color="#62ADFF"/>
</linearGradient>
<linearGradient id="paint10_linear_1876_6149" x1="60.4596" y1="82.8264" x2="53.8385" y2="94.2943" gradientUnits="userSpaceOnUse">
<stop offset="0.0353535" stop-color="#4DF4FF"/>
<stop offset="0.3036" stop-color="#52E5FF"/>
<stop offset="0.821" stop-color="#5DBCFF"/>
<stop offset="1" stop-color="#62ADFF"/>
</linearGradient>
<linearGradient id="paint11_linear_1876_6149" x1="86.1436" y1="97.6549" x2="79.5228" y2="109.122" gradientUnits="userSpaceOnUse">
<stop offset="0.0353535" stop-color="#4DF4FF"/>
<stop offset="0.3036" stop-color="#52E5FF"/>
<stop offset="0.821" stop-color="#5DBCFF"/>
<stop offset="1" stop-color="#62ADFF"/>
</linearGradient>
<linearGradient id="paint12_linear_1876_6149" x1="143.627" y1="113.588" x2="150.248" y2="125.056" gradientUnits="userSpaceOnUse">
<stop offset="0.0353535" stop-color="#4DF4FF"/>
<stop offset="0.3036" stop-color="#52E5FF"/>
<stop offset="0.821" stop-color="#5DBCFF"/>
<stop offset="1" stop-color="#62ADFF"/>
</linearGradient>
<linearGradient id="paint13_linear_1876_6149" x1="117.943" y1="128.417" x2="124.564" y2="139.885" gradientUnits="userSpaceOnUse">
<stop offset="0.0353535" stop-color="#4DF4FF"/>
<stop offset="0.3036" stop-color="#52E5FF"/>
<stop offset="0.821" stop-color="#5DBCFF"/>
<stop offset="1" stop-color="#62ADFF"/>
</linearGradient>
<linearGradient id="paint14_linear_1876_6149" x1="143.627" y1="82.8672" x2="150.248" y2="94.3351" gradientUnits="userSpaceOnUse">
<stop offset="0.0353535" stop-color="#4DF4FF"/>
<stop offset="0.3036" stop-color="#52E5FF"/>
<stop offset="0.821" stop-color="#5DBCFF"/>
<stop offset="1" stop-color="#62ADFF"/>
</linearGradient>
<linearGradient id="paint15_linear_1876_6149" x1="117.943" y1="97.6956" x2="124.564" y2="109.163" gradientUnits="userSpaceOnUse">
<stop offset="0.0353535" stop-color="#4DF4FF"/>
<stop offset="0.3036" stop-color="#52E5FF"/>
<stop offset="0.821" stop-color="#5DBCFF"/>
<stop offset="1" stop-color="#62ADFF"/>
</linearGradient>
<linearGradient id="paint16_linear_1876_6149" x1="120.75" y1="19.3789" x2="78.9003" y2="58.3331" gradientUnits="userSpaceOnUse">
<stop offset="0.00505051" stop-color="#20B0D3"/>
<stop offset="0.56" stop-color="#24D4C3"/>
<stop offset="1" stop-color="#27F3B5"/>
</linearGradient>
<linearGradient id="paint17_linear_1876_6149" x1="89.1609" y1="14.1494" x2="82.3646" y2="19.4213" gradientUnits="userSpaceOnUse">
<stop offset="0.0353535" stop-color="#FF9E6E"/>
<stop offset="0.3036" stop-color="#FFAD73"/>
<stop offset="0.821" stop-color="#FFD680"/>
<stop offset="1" stop-color="#FFE585"/>
</linearGradient>
<linearGradient id="paint18_linear_1876_6149" x1="88.6068" y1="19.6694" x2="81.8105" y2="24.9413" gradientUnits="userSpaceOnUse">
<stop offset="0.0353535" stop-color="#FF9E6E"/>
<stop offset="0.3036" stop-color="#FFAD73"/>
<stop offset="0.821" stop-color="#FFD680"/>
<stop offset="1" stop-color="#FFE585"/>
</linearGradient>
<linearGradient id="paint19_linear_1876_6149" x1="87.53" y1="56.0754" x2="78.6413" y2="62.9703" gradientUnits="userSpaceOnUse">
<stop offset="0.0353535" stop-color="#FF9E6E"/>
<stop offset="0.3036" stop-color="#FFAD73"/>
<stop offset="0.821" stop-color="#FFD680"/>
<stop offset="1" stop-color="#FFE585"/>
</linearGradient>
<linearGradient id="paint20_linear_1876_6149" x1="152.748" y1="131.62" x2="114.365" y2="131.62" gradientUnits="userSpaceOnUse">
<stop offset="0.0353535" stop-color="#4DF4FF"/>
<stop offset="0.3036" stop-color="#52E5FF"/>
<stop offset="0.821" stop-color="#5DBCFF"/>
<stop offset="1" stop-color="#62ADFF"/>
</linearGradient>
<linearGradient id="paint21_linear_1876_6149" x1="146.433" y1="151.249" x2="132.513" y2="130.029" gradientUnits="userSpaceOnUse">
<stop offset="0.0353535" stop-color="#4DF4FF"/>
<stop offset="0.3036" stop-color="#52E5FF"/>
<stop offset="0.821" stop-color="#5DBCFF"/>
<stop offset="1" stop-color="#62ADFF"/>
</linearGradient>
<linearGradient id="paint22_linear_1876_6149" x1="108.884" y1="146.435" x2="128.579" y2="147.12" gradientUnits="userSpaceOnUse">
<stop stop-color="#4DB1E5"/>
<stop offset="0.2113" stop-color="#6CBEE9"/>
<stop offset="0.6704" stop-color="#BBDEF3"/>
<stop offset="1" stop-color="#F7F6FB"/>
</linearGradient>
<linearGradient id="paint23_linear_1876_6149" x1="121.843" y1="135.499" x2="127.933" y2="135.499" gradientUnits="userSpaceOnUse">
<stop offset="0.0353535" stop-color="#4DF4FF"/>
<stop offset="0.3036" stop-color="#52E5FF"/>
<stop offset="0.821" stop-color="#5DBCFF"/>
<stop offset="1" stop-color="#62ADFF"/>
</linearGradient>
<linearGradient id="paint24_linear_1876_6149" x1="103.133" y1="144.188" x2="125.471" y2="185.907" gradientUnits="userSpaceOnUse">
<stop offset="0.0353535" stop-color="#27F3B5"/>
<stop offset="0.3169" stop-color="#25E4BC"/>
<stop offset="0.8601" stop-color="#21BBCE"/>
<stop offset="1" stop-color="#20B0D3"/>
</linearGradient>
<linearGradient id="paint25_linear_1876_6149" x1="107.953" y1="141.607" x2="130.291" y2="183.327" gradientUnits="userSpaceOnUse">
<stop offset="0.0353535" stop-color="#27F3B5"/>
<stop offset="0.3169" stop-color="#25E4BC"/>
<stop offset="0.8601" stop-color="#21BBCE"/>
<stop offset="1" stop-color="#20B0D3"/>
</linearGradient>
<linearGradient id="paint26_linear_1876_6149" x1="106.565" y1="142.351" x2="128.903" y2="184.07" gradientUnits="userSpaceOnUse">
<stop offset="0.0353535" stop-color="#27F3B5"/>
<stop offset="0.3169" stop-color="#25E4BC"/>
<stop offset="0.8601" stop-color="#21BBCE"/>
<stop offset="1" stop-color="#20B0D3"/>
</linearGradient>
<linearGradient id="paint27_linear_1876_6149" x1="110.911" y1="140.023" x2="133.249" y2="181.742" gradientUnits="userSpaceOnUse">
<stop offset="0.0353535" stop-color="#27F3B5"/>
<stop offset="0.3169" stop-color="#25E4BC"/>
<stop offset="0.8601" stop-color="#21BBCE"/>
<stop offset="1" stop-color="#20B0D3"/>
</linearGradient>
<linearGradient id="paint28_linear_1876_6149" x1="115.404" y1="137.617" x2="137.742" y2="179.337" gradientUnits="userSpaceOnUse">
<stop offset="0.0353535" stop-color="#27F3B5"/>
<stop offset="0.3169" stop-color="#25E4BC"/>
<stop offset="0.8601" stop-color="#21BBCE"/>
<stop offset="1" stop-color="#20B0D3"/>
</linearGradient>
<linearGradient id="paint29_linear_1876_6149" x1="112.002" y1="139.439" x2="134.34" y2="181.158" gradientUnits="userSpaceOnUse">
<stop offset="0.0353535" stop-color="#27F3B5"/>
<stop offset="0.3169" stop-color="#25E4BC"/>
<stop offset="0.8601" stop-color="#21BBCE"/>
<stop offset="1" stop-color="#20B0D3"/>
</linearGradient>
<linearGradient id="paint30_linear_1876_6149" x1="116.822" y1="136.858" x2="139.16" y2="178.577" gradientUnits="userSpaceOnUse">
<stop offset="0.0353535" stop-color="#27F3B5"/>
<stop offset="0.3169" stop-color="#25E4BC"/>
<stop offset="0.8601" stop-color="#21BBCE"/>
<stop offset="1" stop-color="#20B0D3"/>
</linearGradient>
<linearGradient id="paint31_linear_1876_6149" x1="115.434" y1="137.601" x2="137.773" y2="179.321" gradientUnits="userSpaceOnUse">
<stop offset="0.0353535" stop-color="#27F3B5"/>
<stop offset="0.3169" stop-color="#25E4BC"/>
<stop offset="0.8601" stop-color="#21BBCE"/>
<stop offset="1" stop-color="#20B0D3"/>
</linearGradient>
<linearGradient id="paint32_linear_1876_6149" x1="100.774" y1="151.118" x2="120.469" y2="151.803" gradientUnits="userSpaceOnUse">
<stop stop-color="#4DB1E5"/>
<stop offset="0.2113" stop-color="#6CBEE9"/>
<stop offset="0.6704" stop-color="#BBDEF3"/>
<stop offset="1" stop-color="#F7F6FB"/>
</linearGradient>
<linearGradient id="paint33_linear_1876_6149" x1="113.733" y1="140.182" x2="119.822" y2="140.182" gradientUnits="userSpaceOnUse">
<stop offset="0.0353535" stop-color="#4DF4FF"/>
<stop offset="0.3036" stop-color="#52E5FF"/>
<stop offset="0.821" stop-color="#5DBCFF"/>
<stop offset="1" stop-color="#62ADFF"/>
</linearGradient>
<linearGradient id="paint34_linear_1876_6149" x1="141.052" y1="127.863" x2="160.747" y2="128.548" gradientUnits="userSpaceOnUse">
<stop stop-color="#4DB1E5"/>
<stop offset="0.2113" stop-color="#6CBEE9"/>
<stop offset="0.6704" stop-color="#BBDEF3"/>
<stop offset="1" stop-color="#F7F6FB"/>
</linearGradient>
<linearGradient id="paint35_linear_1876_6149" x1="154.011" y1="116.928" x2="160.1" y2="116.928" gradientUnits="userSpaceOnUse">
<stop offset="0.0353535" stop-color="#4DF4FF"/>
<stop offset="0.3036" stop-color="#52E5FF"/>
<stop offset="0.821" stop-color="#5DBCFF"/>
<stop offset="1" stop-color="#62ADFF"/>
</linearGradient>
<linearGradient id="paint36_linear_1876_6149" x1="132.941" y1="132.546" x2="152.636" y2="133.231" gradientUnits="userSpaceOnUse">
<stop stop-color="#4DB1E5"/>
<stop offset="0.2113" stop-color="#6CBEE9"/>
<stop offset="0.6704" stop-color="#BBDEF3"/>
<stop offset="1" stop-color="#F7F6FB"/>
</linearGradient>
<linearGradient id="paint37_linear_1876_6149" x1="145.9" y1="121.611" x2="151.99" y2="121.611" gradientUnits="userSpaceOnUse">
<stop offset="0.0353535" stop-color="#4DF4FF"/>
<stop offset="0.3036" stop-color="#52E5FF"/>
<stop offset="0.821" stop-color="#5DBCFF"/>
<stop offset="1" stop-color="#62ADFF"/>
</linearGradient>
<linearGradient id="paint38_linear_1876_6149" x1="133.965" y1="119.672" x2="140.864" y2="132.557" gradientUnits="userSpaceOnUse">
<stop offset="0.0353535" stop-color="#27F3B5"/>
<stop offset="0.3169" stop-color="#25E4BC"/>
<stop offset="0.8601" stop-color="#21BBCE"/>
<stop offset="1" stop-color="#20B0D3"/>
</linearGradient>
<linearGradient id="paint39_linear_1876_6149" x1="110.259" y1="134.506" x2="118.166" y2="149.274" gradientUnits="userSpaceOnUse">
<stop offset="0.0353535" stop-color="#27F3B5"/>
<stop offset="0.3169" stop-color="#25E4BC"/>
<stop offset="0.8601" stop-color="#21BBCE"/>
<stop offset="1" stop-color="#20B0D3"/>
</linearGradient>
<linearGradient id="paint40_linear_1876_6149" x1="139.313" y1="125.875" x2="142.646" y2="132.1" gradientUnits="userSpaceOnUse">
<stop offset="0.0353535" stop-color="#27F3B5"/>
<stop offset="0.3169" stop-color="#25E4BC"/>
<stop offset="0.8601" stop-color="#21BBCE"/>
<stop offset="1" stop-color="#20B0D3"/>
</linearGradient>
<linearGradient id="paint41_linear_1876_6149" x1="144.209" y1="100.587" x2="155.415" y2="121.515" gradientUnits="userSpaceOnUse">
<stop offset="0.0353535" stop-color="#27F3B5"/>
<stop offset="0.3169" stop-color="#25E4BC"/>
<stop offset="0.8601" stop-color="#21BBCE"/>
<stop offset="1" stop-color="#20B0D3"/>
</linearGradient>
<linearGradient id="paint42_linear_1876_6149" x1="120.441" y1="113.518" x2="132.809" y2="136.618" gradientUnits="userSpaceOnUse">
<stop offset="0.0353535" stop-color="#27F3B5"/>
<stop offset="0.3169" stop-color="#25E4BC"/>
<stop offset="0.8601" stop-color="#21BBCE"/>
<stop offset="1" stop-color="#20B0D3"/>
</linearGradient>
<linearGradient id="paint43_linear_1876_6149" x1="110.199" y1="129.438" x2="118.183" y2="144.349" gradientUnits="userSpaceOnUse">
<stop offset="0.0353535" stop-color="#27F3B5"/>
<stop offset="0.3169" stop-color="#25E4BC"/>
<stop offset="0.8601" stop-color="#21BBCE"/>
<stop offset="1" stop-color="#20B0D3"/>
</linearGradient>
<linearGradient id="paint44_linear_1876_6149" x1="135.826" y1="114.359" x2="144.706" y2="130.944" gradientUnits="userSpaceOnUse">
<stop offset="0.0353535" stop-color="#27F3B5"/>
<stop offset="0.3169" stop-color="#25E4BC"/>
<stop offset="0.8601" stop-color="#21BBCE"/>
<stop offset="1" stop-color="#20B0D3"/>
</linearGradient>
<linearGradient id="paint45_linear_1876_6149" x1="128.745" y1="63.3238" x2="138.934" y2="82.3526" gradientUnits="userSpaceOnUse">
<stop offset="0.0353535" stop-color="#27F3B5"/>
<stop offset="0.3169" stop-color="#25E4BC"/>
<stop offset="0.8601" stop-color="#21BBCE"/>
<stop offset="1" stop-color="#20B0D3"/>
</linearGradient>
<linearGradient id="paint46_linear_1876_6149" x1="18.5984" y1="123.42" x2="22.5849" y2="123.42" gradientUnits="userSpaceOnUse">
<stop offset="0.0353535" stop-color="#FF9E6E"/>
<stop offset="0.3036" stop-color="#FFAD73"/>
<stop offset="0.821" stop-color="#FFD680"/>
<stop offset="1" stop-color="#FFE585"/>
</linearGradient>
<linearGradient id="paint47_linear_1876_6149" x1="-2.59632" y1="110.223" x2="30.3718" y2="102.937" gradientUnits="userSpaceOnUse">
<stop offset="0.00505051" stop-color="#20B0D3"/>
<stop offset="0.56" stop-color="#24D4C3"/>
<stop offset="1" stop-color="#27F3B5"/>
</linearGradient>
<linearGradient id="paint48_linear_1876_6149" x1="43.2677" y1="137.663" x2="47.2542" y2="137.663" gradientUnits="userSpaceOnUse">
<stop offset="0.0353535" stop-color="#FF9E6E"/>
<stop offset="0.3036" stop-color="#FFAD73"/>
<stop offset="0.821" stop-color="#FFD680"/>
<stop offset="1" stop-color="#FFE585"/>
</linearGradient>
<linearGradient id="paint49_linear_1876_6149" x1="22.073" y1="124.466" x2="55.0411" y2="117.18" gradientUnits="userSpaceOnUse">
<stop offset="0.00505051" stop-color="#20B0D3"/>
<stop offset="0.56" stop-color="#24D4C3"/>
<stop offset="1" stop-color="#27F3B5"/>
</linearGradient>
<linearGradient id="paint50_linear_1876_6149" x1="67.9369" y1="151.906" x2="71.9234" y2="151.906" gradientUnits="userSpaceOnUse">
<stop offset="0.0353535" stop-color="#FF9E6E"/>
<stop offset="0.3036" stop-color="#FFAD73"/>
<stop offset="0.821" stop-color="#FFD680"/>
<stop offset="1" stop-color="#FFE585"/>
</linearGradient>
<linearGradient id="paint51_linear_1876_6149" x1="46.7423" y1="138.709" x2="79.7103" y2="131.423" gradientUnits="userSpaceOnUse">
<stop offset="0.00505051" stop-color="#20B0D3"/>
<stop offset="0.56" stop-color="#24D4C3"/>
<stop offset="1" stop-color="#27F3B5"/>
</linearGradient>
<linearGradient id="paint52_linear_1876_6149" x1="92.6062" y1="166.148" x2="96.5928" y2="166.148" gradientUnits="userSpaceOnUse">
<stop offset="0.0353535" stop-color="#FF9E6E"/>
<stop offset="0.3036" stop-color="#FFAD73"/>
<stop offset="0.821" stop-color="#FFD680"/>
<stop offset="1" stop-color="#FFE585"/>
</linearGradient>
<linearGradient id="paint53_linear_1876_6149" x1="71.4116" y1="152.951" x2="104.38" y2="145.666" gradientUnits="userSpaceOnUse">
<stop offset="0.00505051" stop-color="#20B0D3"/>
<stop offset="0.56" stop-color="#24D4C3"/>
<stop offset="1" stop-color="#27F3B5"/>
</linearGradient>
<clipPath id="clip0_1876_6149">
<rect width="200" height="197.6" fill="white"/>
</clipPath>
</defs>
</svg>
