<svg width="200" height="171" viewBox="0 0 200 171" fill="none" xmlns="http://www.w3.org/2000/svg">
<path d="M91.5572 168.118C95.9108 170.624 101.254 170.624 105.607 168.118L192.635 117.876C194.745 116.667 196.043 114.402 196.043 111.983V104.243C196.043 101.803 194.745 99.5601 192.635 98.3508L106.113 48.3948C104.244 47.3174 102.177 46.6577 100.088 46.4598C96.9882 46.152 93.822 46.7897 91.0515 48.3948L2.85887 99.3182C1.60557 100.044 0.704079 101.187 0.286313 102.528C0.110412 103.078 0.0224609 103.65 0.0224609 104.243V111.983C0.0224609 114.006 1.09986 115.897 2.85887 116.908L91.5572 168.118Z" fill="#7DA9DA"/>
<path d="M192.634 98.3287C194.745 99.538 196.042 101.803 196.042 104.221C196.042 106.662 194.745 108.905 192.634 110.114L105.607 160.378C101.253 162.885 95.9103 162.885 91.5567 160.378L2.8584 109.169C1.0774 108.157 0 106.266 0 104.243C0 103.65 0.0879508 103.078 0.263852 102.528C0.681618 101.187 1.6051 100.022 2.83641 99.3182L91.029 48.3947C95.6904 45.7122 101.429 45.7122 106.091 48.3947L192.634 98.3287Z" fill="white"/>
<path d="M195.251 101.077L119.613 144.745C108.312 151.275 89.8861 151.275 78.5844 144.745L1.56152 100.286C1.93531 99.8901 2.35308 99.5603 2.83681 99.2964L11.6099 94.2393L88.8307 138.808C94.4815 142.062 103.694 142.062 109.345 138.808L186.06 94.5251L192.635 98.307C193.756 98.9886 194.657 99.9341 195.251 101.077Z" fill="#1169A6"/>
<path d="M160.465 99.67C159.608 99.67 158.904 98.9664 158.904 98.1089V86.7633C158.904 85.9058 159.608 85.2021 160.465 85.2021C161.323 85.2021 162.027 85.9058 162.027 86.7633V98.1089C162.027 98.9664 161.323 99.67 160.465 99.67Z" fill="url(#paint0_linear_1876_6439)"/>
<path d="M168.205 89.7756C168.227 89.8196 168.227 89.8636 168.227 89.9075C168.249 90.853 167.502 91.7985 165.985 92.5241C162.95 93.9753 158.003 93.9753 154.969 92.5241C153.452 91.7985 152.704 90.853 152.704 89.8856C152.704 89.8416 152.704 89.7976 152.726 89.7536C152.726 89.7536 152.726 89.7536 152.704 89.7536C153.408 82.2338 154.265 74.7141 155.365 67.1943C155.54 65.963 156.134 64.7536 157.08 63.8082C159.081 61.7853 161.851 61.7853 163.852 63.8082C164.775 64.7756 165.391 65.9849 165.567 67.2163C166.688 74.7141 167.524 82.2558 168.205 89.7756C168.227 89.7756 168.227 89.7756 168.205 89.7756Z" fill="url(#paint1_linear_1876_6439)"/>
<path d="M36.3453 93.756C35.4878 93.756 34.7842 93.0524 34.7842 92.1949V80.8492C34.7842 79.9917 35.4878 79.2881 36.3453 79.2881C37.2028 79.2881 37.9064 79.9917 37.9064 80.8492V92.1949C37.9064 93.0524 37.2028 93.756 36.3453 93.756Z" fill="url(#paint2_linear_1876_6439)"/>
<path d="M44.0853 83.8391C44.1073 83.883 44.1073 83.927 44.1073 83.971C44.1293 84.9165 43.3817 85.8619 41.8645 86.5875C38.8302 88.0387 33.883 88.0387 30.8487 86.5875C29.3316 85.8619 28.584 84.9165 28.584 83.949C28.584 83.905 28.584 83.8611 28.606 83.8171C28.606 83.8171 28.606 83.8171 28.584 83.8171C29.2876 76.2973 30.1451 68.7775 31.2445 61.2577C31.4204 60.0264 32.0141 58.8171 32.9595 57.8716C34.9604 55.8488 37.7309 55.8488 39.7317 57.8716C40.6552 58.8391 41.2709 60.0484 41.4468 61.2797C42.5462 68.7995 43.4037 76.3193 44.0853 83.8391Z" fill="url(#paint3_linear_1876_6439)"/>
<path d="M39.9512 40.0615L97.339 73.197V138.984L39.9512 105.849V40.0615Z" fill="#7DA9DA"/>
<path d="M97.3389 73.197L154.727 40.0615V105.849L97.3389 138.984V73.197Z" fill="#EEEFFB"/>
<path d="M39.9512 40.0612L97.3391 6.92578L154.727 40.0612L97.3391 73.1967L39.9512 40.0612Z" fill="#F3F4FB"/>
<path d="M51.5824 67.7877L44.6562 63.808V52.5723L51.5824 56.574V67.7877Z" fill="#1169A6"/>
<path d="M51.5824 67.1064L45.2939 63.4784V52.9463L51.5824 56.5743V67.1064Z" fill="#7DA9DA"/>
<path d="M51.5821 65.6332L46.5469 62.7308V53.6719L51.5821 56.5742V65.6332Z" fill="#146AA1"/>
<path d="M51.5822 65.0393L47.0967 62.4448V53.9795L51.5822 56.574V65.0393Z" fill="#7DA9DA"/>
<path d="M47.7568 61.8727V54.5068L51.4508 56.6396V64.0055L47.7568 61.8727Z" fill="url(#paint4_linear_1876_6439)"/>
<path d="M47.8889 54.7489L51.3189 56.7277V63.7858L47.8889 61.8069V54.7489ZM47.625 54.2871V61.9608L51.5828 64.2475V56.5738L47.625 54.2871Z" fill="white"/>
<path d="M49.6251 63.0388C49.5591 63.0388 49.4932 62.9729 49.4932 62.9069V55.629C49.4932 55.563 49.5591 55.4971 49.6251 55.4971C49.6911 55.4971 49.757 55.563 49.757 55.629V62.9069C49.757 62.9729 49.6911 63.0388 49.6251 63.0388Z" fill="white"/>
<path d="M51.4068 58.5313C51.3848 58.5313 51.3628 58.5313 51.3408 58.5093L47.7348 56.4205C47.6689 56.3765 47.6469 56.3106 47.6908 56.2446C47.7348 56.1786 47.8008 56.1566 47.8667 56.2006L51.4727 58.2894C51.5387 58.3334 51.5607 58.3994 51.5167 58.4653C51.4947 58.5093 51.4507 58.5313 51.4068 58.5313Z" fill="white"/>
<path d="M51.4068 60.4434C51.3848 60.4434 51.3628 60.4434 51.3408 60.4214L47.7348 58.3326C47.6689 58.2886 47.6469 58.2227 47.6908 58.1567C47.7348 58.0907 47.8008 58.0687 47.8667 58.1127L51.4727 60.2015C51.5387 60.2455 51.5607 60.3115 51.5167 60.3774C51.4947 60.4214 51.4507 60.4434 51.4068 60.4434Z" fill="white"/>
<path d="M51.4063 62.3565C51.3843 62.3565 51.3623 62.3565 51.3403 62.3345L47.7124 60.2457C47.6464 60.2017 47.6244 60.1357 47.6684 60.0698C47.7124 60.0038 47.7783 59.9818 47.8443 60.0258L51.4503 62.1146C51.5162 62.1586 51.5382 62.2246 51.4942 62.2905C51.4942 62.3125 51.4503 62.3565 51.4063 62.3565Z" fill="white"/>
<path d="M92.6331 91.4909L85.707 87.4891V76.2754L92.6331 80.2772V91.4909Z" fill="#1169A6"/>
<path d="M92.6332 90.8095L86.3447 87.1815V76.6494L92.6332 80.2774V90.8095Z" fill="#7DA9DA"/>
<path d="M92.6328 89.3363L87.5977 86.412V77.375L92.6328 80.2774V89.3363Z" fill="#146AA1"/>
<path d="M92.6329 88.7424L88.1475 86.1479V77.6826L92.6329 80.2772V88.7424Z" fill="#7DA9DA"/>
<path d="M88.8076 85.5758V78.21L92.5016 80.3428V87.7086L88.8076 85.5758Z" fill="url(#paint5_linear_1876_6439)"/>
<path d="M88.9396 78.452L92.3697 80.4309V87.4889L88.9396 85.51V78.452ZM88.6758 77.9902V85.6639L92.6336 87.9506V80.2769L88.6758 77.9902Z" fill="white"/>
<path d="M90.6759 86.742C90.6099 86.742 90.5439 86.676 90.5439 86.6101V79.3321C90.5439 79.2662 90.6099 79.2002 90.6759 79.2002C90.7418 79.2002 90.8078 79.2662 90.8078 79.3321V86.6101C90.8078 86.676 90.7418 86.742 90.6759 86.742Z" fill="white"/>
<path d="M92.4576 82.2345C92.4356 82.2345 92.4136 82.2344 92.3916 82.2125L88.7856 80.1236C88.7196 80.0796 88.6977 80.0137 88.7416 79.9477C88.7856 79.8818 88.8516 79.8598 88.9175 79.9037L92.5235 81.9926C92.5895 82.0366 92.6115 82.1025 92.5675 82.1685C92.5455 82.2125 92.5015 82.2345 92.4576 82.2345Z" fill="white"/>
<path d="M92.4576 84.1465C92.4356 84.1465 92.4136 84.1465 92.3916 84.1245L88.7856 82.0357C88.7196 81.9917 88.6977 81.9258 88.7416 81.8598C88.7856 81.7939 88.8516 81.7719 88.9175 81.8158L92.5235 83.9047C92.5895 83.9486 92.6115 84.0146 92.5675 84.0806C92.5455 84.1245 92.5015 84.1465 92.4576 84.1465Z" fill="white"/>
<path d="M92.4576 86.0381C92.4356 86.0381 92.4136 86.0381 92.3916 86.0161L88.7856 83.9273C88.7196 83.8834 88.6977 83.8174 88.7416 83.7514C88.7856 83.6855 88.8516 83.6635 88.9175 83.7074L92.5235 85.7963C92.5895 85.8402 92.6115 85.9062 92.5675 85.9722C92.5455 86.0161 92.5015 86.0381 92.4576 86.0381Z" fill="white"/>
<path d="M143.095 67.7877L150.021 63.808V52.5723L143.095 56.574V67.7877Z" fill="#1169A6"/>
<path d="M143.095 67.1064L149.383 63.4784V52.9463L143.095 56.5743V67.1064Z" fill="#EEEFFB"/>
<path d="M143.095 65.6332L148.13 62.7308V53.6719L143.095 56.5742V65.6332Z" fill="#146AA1"/>
<path d="M143.095 65.0393L147.58 62.4448V53.9795L143.095 56.574V65.0393Z" fill="#EEEFFB"/>
<path d="M143.227 56.6396L146.92 54.5068V61.8727L143.227 64.0055V56.6396Z" fill="url(#paint6_linear_1876_6439)"/>
<path d="M146.789 54.7489V61.8069L143.359 63.7858V56.7277L146.789 54.7489ZM147.053 54.2871L143.095 56.5738V64.2475L147.053 61.9608V54.2871Z" fill="white"/>
<path d="M145.052 63.0388C144.986 63.0388 144.92 62.9729 144.92 62.9069V55.629C144.92 55.563 144.986 55.4971 145.052 55.4971C145.118 55.4971 145.184 55.563 145.184 55.629V62.9069C145.184 62.9729 145.118 63.0388 145.052 63.0388Z" fill="white"/>
<path d="M143.271 58.5313C143.227 58.5313 143.183 58.5093 143.161 58.4653C143.117 58.3994 143.139 58.3114 143.205 58.2894L146.811 56.2006C146.877 56.1566 146.964 56.1786 146.986 56.2446C147.03 56.3106 147.008 56.3985 146.942 56.4205L143.336 58.5093C143.314 58.5313 143.293 58.5313 143.271 58.5313Z" fill="white"/>
<path d="M143.271 60.4434C143.227 60.4434 143.183 60.4214 143.161 60.3774C143.117 60.3115 143.139 60.2235 143.205 60.2015L146.811 58.1127C146.877 58.0687 146.964 58.0907 146.986 58.1567C147.03 58.2227 147.008 58.3106 146.942 58.3326L143.336 60.4214C143.314 60.4434 143.293 60.4434 143.271 60.4434Z" fill="white"/>
<path d="M143.271 62.3565C143.227 62.3565 143.183 62.3345 143.161 62.2905C143.117 62.2246 143.139 62.1366 143.205 62.1146L146.811 60.0258C146.877 59.9818 146.964 60.0038 146.986 60.0698C147.03 60.1357 147.008 60.2237 146.942 60.2457L143.336 62.3345C143.314 62.3345 143.293 62.3565 143.271 62.3565Z" fill="white"/>
<path d="M132.827 73.7243L139.753 69.7225V58.5088L132.827 62.4886V73.7243Z" fill="#1169A6"/>
<path d="M132.827 73.0424L139.116 69.4144V58.8604L132.827 62.4883V73.0424Z" fill="#EEEFFB"/>
<path d="M132.827 71.5472L137.862 68.6449V59.5859L132.827 62.4883V71.5472Z" fill="#146AA1"/>
<path d="M132.827 70.9538L137.313 68.3813V59.916L132.827 62.4886V70.9538Z" fill="#EEEFFB"/>
<path d="M132.96 62.5771L136.654 60.4443V67.8102L132.96 69.943V62.5771Z" fill="url(#paint7_linear_1876_6439)"/>
<path d="M136.522 60.6859V67.7219L133.091 69.7008V62.6428L136.522 60.6859ZM136.807 60.2021L132.85 62.4889V70.1626L136.807 67.8759V60.2021Z" fill="white"/>
<path d="M134.784 68.9754C134.718 68.9754 134.652 68.9094 134.652 68.8434V61.5655C134.652 61.4996 134.718 61.4336 134.784 61.4336C134.85 61.4336 134.916 61.4996 134.916 61.5655V68.8434C134.916 68.9094 134.872 68.9754 134.784 68.9754Z" fill="white"/>
<path d="M133.003 64.4678C132.959 64.4678 132.915 64.4458 132.893 64.4019C132.849 64.3359 132.871 64.248 132.937 64.226L136.543 62.1371C136.609 62.0932 136.697 62.1151 136.719 62.1811C136.763 62.2471 136.741 62.335 136.675 62.357L133.069 64.4458C133.047 64.4678 133.025 64.4678 133.003 64.4678Z" fill="white"/>
<path d="M133.003 66.3585C132.959 66.3585 132.915 66.3365 132.893 66.2925C132.849 66.2266 132.871 66.1386 132.937 66.1166L136.543 64.0278C136.609 63.9838 136.697 64.0058 136.719 64.0717C136.763 64.1377 136.741 64.2257 136.675 64.2476L133.069 66.3365C133.047 66.3585 133.025 66.3585 133.003 66.3585Z" fill="white"/>
<path d="M133.003 68.2716C132.959 68.2716 132.915 68.2496 132.893 68.2056C132.849 68.1396 132.871 68.0517 132.937 68.0297L136.543 65.9408C136.609 65.8969 136.697 65.9189 136.719 65.9848C136.763 66.0508 136.741 66.1387 136.675 66.1607L133.069 68.2496C133.047 68.2716 133.025 68.2716 133.003 68.2716Z" fill="white"/>
<path d="M112.312 85.5758L119.217 81.5741V70.3604L112.312 74.3401V85.5758Z" fill="#1169A6"/>
<path d="M112.312 84.894L118.601 81.266V70.7119L112.312 74.3399V84.894Z" fill="#EEEFFB"/>
<path d="M112.312 83.3988L117.348 80.4964V71.4375L112.312 74.3399V83.3988Z" fill="#146AA1"/>
<path d="M112.312 82.8054L116.776 80.2328V71.7676L112.312 74.3401V82.8054Z" fill="#EEEFFB"/>
<path d="M112.444 74.4287L116.138 72.2959V79.6618L112.444 81.7946V74.4287Z" fill="url(#paint8_linear_1876_6439)"/>
<path d="M116.006 72.5154V79.5735L112.576 81.5524V74.4943L116.006 72.5154ZM116.27 72.0537L112.312 74.3404V82.0141L116.27 79.7274V72.0537Z" fill="white"/>
<path d="M114.27 80.8269C114.204 80.8269 114.138 80.761 114.138 80.695V73.4171C114.138 73.3511 114.204 73.2852 114.27 73.2852C114.336 73.2852 114.402 73.3511 114.402 73.4171V80.695C114.402 80.761 114.336 80.8269 114.27 80.8269Z" fill="white"/>
<path d="M112.488 76.3194C112.444 76.3194 112.4 76.2974 112.378 76.2534C112.334 76.1874 112.356 76.0995 112.422 76.0775L116.028 73.9887C116.094 73.9447 116.182 73.9667 116.204 74.0327C116.248 74.0986 116.226 74.1866 116.16 74.2086L112.554 76.2974C112.532 76.3194 112.51 76.3194 112.488 76.3194Z" fill="white"/>
<path d="M112.488 78.21C112.444 78.21 112.4 78.188 112.378 78.144C112.334 78.0781 112.356 77.9901 112.422 77.9681L116.028 75.8793C116.094 75.8353 116.182 75.8573 116.204 75.9233C116.248 75.9893 116.226 76.0772 116.16 76.0992L112.554 78.188C112.532 78.21 112.51 78.21 112.488 78.21Z" fill="white"/>
<path d="M112.488 80.1231C112.444 80.1231 112.4 80.1011 112.378 80.0572C112.334 79.9912 112.356 79.9032 112.422 79.8812L116.028 77.7924C116.094 77.7484 116.182 77.7704 116.204 77.8364C116.248 77.9024 116.226 77.9903 116.16 78.0123L112.554 80.1011C112.532 80.1231 112.51 80.1231 112.488 80.1231Z" fill="white"/>
<path d="M102.044 91.4909L108.97 87.4891V76.2754L102.044 80.2772V91.4909Z" fill="#1169A6"/>
<path d="M102.044 90.8095L108.332 87.1815V76.6494L102.044 80.2774V90.8095Z" fill="#EEEFFB"/>
<path d="M102.044 89.3363L107.079 86.412V77.375L102.044 80.2774V89.3363Z" fill="#146AA1"/>
<path d="M102.044 88.7424L106.529 86.1479V77.6826L102.044 80.2772V88.7424Z" fill="#EEEFFB"/>
<path d="M102.176 80.3428L105.87 78.21V85.5758L102.176 87.7086V80.3428Z" fill="url(#paint9_linear_1876_6439)"/>
<path d="M105.738 78.452V85.51L102.308 87.4889V80.4309L105.738 78.452ZM106.002 77.9902L102.044 80.2769V87.9506L106.002 85.6639V77.9902Z" fill="white"/>
<path d="M104.001 86.742C103.935 86.742 103.869 86.676 103.869 86.6101V79.3321C103.869 79.2662 103.935 79.2002 104.001 79.2002C104.067 79.2002 104.133 79.2662 104.133 79.3321V86.6101C104.133 86.676 104.067 86.742 104.001 86.742Z" fill="white"/>
<path d="M102.22 82.2345C102.176 82.2345 102.132 82.2125 102.11 82.1685C102.066 82.1025 102.088 82.0146 102.154 81.9926L105.76 79.9037C105.826 79.8598 105.914 79.8818 105.936 79.9477C105.98 80.0137 105.958 80.1016 105.892 80.1236L102.286 82.2125C102.264 82.2344 102.242 82.2345 102.22 82.2345Z" fill="white"/>
<path d="M102.22 84.1465C102.176 84.1465 102.132 84.1245 102.11 84.0806C102.066 84.0146 102.088 83.9267 102.154 83.9047L105.76 81.8158C105.826 81.7719 105.914 81.7939 105.936 81.8598C105.98 81.9258 105.958 82.0137 105.892 82.0357L102.286 84.1245C102.264 84.1465 102.242 84.1465 102.22 84.1465Z" fill="white"/>
<path d="M102.22 86.0381C102.176 86.0381 102.132 86.0161 102.11 85.9722C102.066 85.9062 102.088 85.8183 102.154 85.7963L105.76 83.7074C105.826 83.6635 105.914 83.6855 105.936 83.7514C105.98 83.8174 105.958 83.9053 105.892 83.9273L102.286 86.0161C102.264 86.0381 102.242 86.0381 102.22 86.0381Z" fill="white"/>
<path d="M143.095 85.2897L150.021 81.2879V70.0742L143.095 74.054V85.2897Z" fill="#1169A6"/>
<path d="M143.095 84.6078L149.383 80.9799V70.4258L143.095 74.0538V84.6078Z" fill="#EEEFFB"/>
<path d="M143.095 83.1127L148.13 80.2103V71.1514L143.095 74.0537V83.1127Z" fill="#146AA1"/>
<path d="M143.095 82.5193L147.58 79.9467V71.4814L143.095 74.054V82.5193Z" fill="#EEEFFB"/>
<path d="M143.227 74.1426L146.92 72.0098V79.3756L143.227 81.5084V74.1426Z" fill="url(#paint10_linear_1876_6439)"/>
<path d="M146.789 72.2293V79.2874L143.359 81.2663V74.2082L146.789 72.2293ZM147.053 71.7676L143.095 74.0543V81.728L147.053 79.4413V71.7676Z" fill="white"/>
<path d="M145.052 80.5408C144.986 80.5408 144.92 80.4748 144.92 80.4089V73.131C144.92 73.065 144.986 72.999 145.052 72.999C145.118 72.999 145.184 73.065 145.184 73.131V80.4089C145.184 80.4748 145.118 80.5408 145.052 80.5408Z" fill="white"/>
<path d="M143.271 76.0332C143.227 76.0332 143.183 76.0113 143.161 75.9673C143.117 75.9013 143.139 75.8134 143.205 75.7914L146.811 73.7026C146.877 73.6586 146.964 73.6806 146.986 73.7465C147.03 73.8125 147.008 73.9005 146.942 73.9224L143.336 76.0113C143.314 76.0333 143.293 76.0332 143.271 76.0332Z" fill="white"/>
<path d="M143.271 77.9239C143.227 77.9239 143.183 77.9019 143.161 77.8579C143.117 77.792 143.139 77.704 143.205 77.682L146.811 75.5932C146.877 75.5492 146.964 75.5712 146.986 75.6372C147.03 75.7031 147.008 75.7911 146.942 75.8131L143.336 77.9019C143.314 77.9239 143.293 77.9239 143.271 77.9239Z" fill="white"/>
<path d="M143.271 79.837C143.227 79.837 143.183 79.815 143.161 79.771C143.117 79.7051 143.139 79.6171 143.205 79.5951L146.811 77.5063C146.877 77.4623 146.964 77.4843 146.986 77.5503C147.03 77.6162 147.008 77.7042 146.942 77.7262L143.336 79.815C143.314 79.837 143.293 79.837 143.271 79.837Z" fill="white"/>
<path d="M132.827 91.2047L139.753 87.203V75.9893L132.827 79.991V91.2047Z" fill="#1169A6"/>
<path d="M132.827 90.5234L139.116 86.8954V76.3633L132.827 79.9913V90.5234Z" fill="#EEEFFB"/>
<path d="M132.827 89.0502L137.862 86.1258V77.0889L132.827 79.9912V89.0502Z" fill="#146AA1"/>
<path d="M132.827 88.4563L137.313 85.8617V77.3965L132.827 79.991V88.4563Z" fill="#EEEFFB"/>
<path d="M132.96 80.0566L136.654 77.9238V85.2897L132.96 87.4225V80.0566Z" fill="url(#paint11_linear_1876_6439)"/>
<path d="M136.522 78.1658V85.2239L133.091 87.2028V80.1447L136.522 78.1658ZM136.807 77.7041L132.85 79.9908V87.6645L136.807 85.3778V77.7041Z" fill="white"/>
<path d="M134.784 86.4558C134.718 86.4558 134.652 86.3899 134.652 86.3239V79.046C134.652 78.98 134.718 78.9141 134.784 78.9141C134.85 78.9141 134.916 78.98 134.916 79.046V86.3239C134.916 86.3899 134.872 86.4558 134.784 86.4558Z" fill="white"/>
<path d="M133.003 81.9483C132.959 81.9483 132.915 81.9263 132.893 81.8823C132.849 81.8164 132.871 81.7284 132.937 81.7064L136.543 79.6176C136.609 79.5736 136.697 79.5956 136.719 79.6616C136.763 79.7275 136.741 79.8155 136.675 79.8375L133.069 81.9263C133.047 81.9483 133.025 81.9483 133.003 81.9483Z" fill="white"/>
<path d="M133.003 83.8604C132.959 83.8604 132.915 83.8384 132.893 83.7944C132.849 83.7285 132.871 83.6405 132.937 83.6185L136.543 81.5297C136.609 81.4857 136.697 81.5077 136.719 81.5737C136.763 81.6397 136.741 81.7276 136.675 81.7496L133.069 83.8384C133.047 83.8604 133.025 83.8604 133.003 83.8604Z" fill="white"/>
<path d="M133.003 85.752C132.959 85.752 132.915 85.73 132.893 85.686C132.849 85.6201 132.871 85.5321 132.937 85.5101L136.543 83.4213C136.609 83.3773 136.697 83.3993 136.719 83.4653C136.763 83.5313 136.741 83.6192 136.675 83.6412L133.069 85.73C133.047 85.752 133.025 85.752 133.003 85.752Z" fill="white"/>
<path d="M122.58 97.1413L129.484 93.1395V81.9258L122.58 85.9056V97.1413Z" fill="#1169A6"/>
<path d="M122.58 96.4594L128.847 92.8314V82.2773L122.58 85.9053V96.4594Z" fill="#EEEFFB"/>
<path d="M122.58 94.9642L127.615 92.0619V83.0029L122.58 85.9053V94.9642Z" fill="#146AA1"/>
<path d="M122.58 94.3708L127.044 91.7983V83.333L122.58 85.9056V94.3708Z" fill="#EEEFFB"/>
<path d="M122.712 85.9941L126.406 83.8613V91.2272L122.712 93.36V85.9941Z" fill="url(#paint12_linear_1876_6439)"/>
<path d="M126.274 84.0809V91.1389L122.844 93.1178V86.0598L126.274 84.0809ZM126.538 83.6191L122.58 85.9059V93.5796L126.538 91.2928V83.6191Z" fill="white"/>
<path d="M124.515 92.3924C124.449 92.3924 124.383 92.3264 124.383 92.2604V84.9825C124.383 84.9166 124.449 84.8506 124.515 84.8506C124.581 84.8506 124.647 84.9166 124.647 84.9825V92.2604C124.669 92.3264 124.603 92.3924 124.515 92.3924Z" fill="white"/>
<path d="M122.756 87.8848C122.712 87.8848 122.668 87.8629 122.646 87.8189C122.602 87.7529 122.624 87.665 122.69 87.643L126.296 85.5541C126.362 85.5102 126.45 85.5321 126.472 85.5981C126.516 85.6641 126.494 85.752 126.428 85.774L122.822 87.8629C122.8 87.8848 122.778 87.8848 122.756 87.8848Z" fill="white"/>
<path d="M122.756 89.7754C122.712 89.7754 122.668 89.7534 122.646 89.7095C122.602 89.6435 122.624 89.5555 122.69 89.5336L126.296 87.4448C126.362 87.4008 126.45 87.4228 126.472 87.4887C126.516 87.5547 126.494 87.6426 126.428 87.6646L122.822 89.7534C122.8 89.7754 122.778 89.7754 122.756 89.7754Z" fill="white"/>
<path d="M122.756 91.6885C122.712 91.6885 122.668 91.6666 122.646 91.6226C122.602 91.5566 122.624 91.4687 122.69 91.4467L126.296 89.3578C126.362 89.3139 126.45 89.3359 126.472 89.4018C126.516 89.4678 126.494 89.5557 126.428 89.5777L122.822 91.6666C122.8 91.6885 122.778 91.6885 122.756 91.6885Z" fill="white"/>
<path d="M112.312 103.055L119.217 99.0535V87.8398L112.312 91.8416V103.055Z" fill="#1169A6"/>
<path d="M112.312 102.374L118.601 98.746V88.2139L112.312 91.8418V102.374Z" fill="#EEEFFB"/>
<path d="M112.312 100.9L117.348 97.9759V88.917L112.312 91.8414V100.9Z" fill="#146AA1"/>
<path d="M112.312 100.307L116.776 97.7123V89.2471L112.312 91.8416V100.307Z" fill="#EEEFFB"/>
<path d="M112.444 91.9072L116.138 89.7744V97.1403L112.444 99.2731V91.9072Z" fill="url(#paint13_linear_1876_6439)"/>
<path d="M116.006 90.0164V97.0745L112.576 99.0534V91.9953L116.006 90.0164ZM116.27 89.5547L112.312 91.8414V99.5151L116.27 97.2284V89.5547Z" fill="white"/>
<path d="M114.27 98.3064C114.204 98.3064 114.138 98.2405 114.138 98.1745V90.8966C114.138 90.8306 114.204 90.7646 114.27 90.7646C114.336 90.7646 114.402 90.8306 114.402 90.8966V98.1745C114.402 98.2405 114.336 98.3064 114.27 98.3064Z" fill="white"/>
<path d="M112.488 93.7989C112.444 93.7989 112.4 93.7769 112.378 93.7329C112.334 93.6669 112.356 93.579 112.422 93.557L116.028 91.4682C116.094 91.4242 116.182 91.4462 116.204 91.5122C116.248 91.5781 116.226 91.6661 116.16 91.6881L112.554 93.7769C112.532 93.7989 112.51 93.7989 112.488 93.7989Z" fill="white"/>
<path d="M112.488 95.711C112.444 95.711 112.4 95.689 112.378 95.645C112.334 95.5791 112.356 95.4911 112.422 95.4691L116.028 93.3803C116.094 93.3363 116.182 93.3583 116.204 93.4243C116.248 93.4902 116.226 93.5782 116.16 93.6002L112.554 95.689C112.532 95.711 112.51 95.711 112.488 95.711Z" fill="white"/>
<path d="M112.488 97.6026C112.444 97.6026 112.4 97.5806 112.378 97.5367C112.334 97.4707 112.356 97.3827 112.422 97.3607L116.028 95.2719C116.094 95.2279 116.182 95.2499 116.204 95.3159C116.248 95.3818 116.226 95.4698 116.16 95.4918L112.554 97.5806C112.532 97.6026 112.51 97.6026 112.488 97.6026Z" fill="white"/>
<path d="M102.044 108.993L108.97 104.991V93.7773L102.044 97.7571V108.993Z" fill="#1169A6"/>
<path d="M102.044 108.311L108.332 104.683V94.1289L102.044 97.7569V108.311Z" fill="#EEEFFB"/>
<path d="M102.044 106.816L107.079 103.913V94.8545L102.044 97.7569V106.816Z" fill="#146AA1"/>
<path d="M102.044 106.222L106.529 103.65V95.1846L102.044 97.7571V106.222Z" fill="#EEEFFB"/>
<path d="M102.176 97.8457L105.87 95.7129V103.079L102.176 105.212V97.8457Z" fill="url(#paint14_linear_1876_6439)"/>
<path d="M105.738 95.9324V102.99L102.308 104.969V97.9113L105.738 95.9324ZM106.002 95.4707L102.044 97.7574V105.431L106.002 103.144V95.4707Z" fill="white"/>
<path d="M104.001 104.244C103.935 104.244 103.869 104.178 103.869 104.112V96.8341C103.869 96.7681 103.935 96.7021 104.001 96.7021C104.067 96.7021 104.133 96.7681 104.133 96.8341V104.112C104.133 104.178 104.067 104.244 104.001 104.244Z" fill="white"/>
<path d="M102.22 99.7364C102.176 99.7364 102.132 99.7144 102.11 99.6704C102.066 99.6045 102.088 99.5165 102.154 99.4945L105.76 97.4057C105.826 97.3617 105.914 97.3837 105.936 97.4497C105.98 97.5156 105.958 97.6036 105.892 97.6256L102.286 99.7144C102.264 99.7144 102.242 99.7364 102.22 99.7364Z" fill="white"/>
<path d="M102.22 101.627C102.176 101.627 102.132 101.605 102.11 101.561C102.066 101.495 102.088 101.407 102.154 101.385L105.76 99.2963C105.826 99.2523 105.914 99.2743 105.936 99.3403C105.98 99.4063 105.958 99.4942 105.892 99.5162L102.286 101.605C102.264 101.627 102.242 101.627 102.22 101.627Z" fill="white"/>
<path d="M102.22 103.54C102.176 103.54 102.132 103.518 102.11 103.474C102.066 103.408 102.088 103.32 102.154 103.298L105.76 101.209C105.826 101.165 105.914 101.187 105.936 101.253C105.98 101.319 105.958 101.407 105.892 101.429L102.286 103.518C102.264 103.54 102.242 103.54 102.22 103.54Z" fill="white"/>
<path d="M143.096 102.77L150.022 98.7684V87.5547L143.096 91.5564V102.77Z" fill="#1169A6"/>
<path d="M143.096 102.089L149.384 98.4608V87.9287L143.096 91.5567V102.089Z" fill="#EEEFFB"/>
<path d="M143.096 100.615L148.131 97.6907V88.6318L143.096 91.5562V100.615Z" fill="#146AA1"/>
<path d="M143.096 100.022L147.581 97.4271V88.9619L143.096 91.5564V100.022Z" fill="#EEEFFB"/>
<path d="M143.228 91.6221L146.921 89.4893V96.8552L143.228 98.988V91.6221Z" fill="url(#paint15_linear_1876_6439)"/>
<path d="M146.79 89.7313V96.7893L143.36 98.7682V91.7102L146.79 89.7313ZM147.053 89.2695L143.096 91.5562V99.23L147.053 96.9432V89.2695Z" fill="white"/>
<path d="M145.053 98.0212C144.987 98.0212 144.921 97.9553 144.921 97.8893V90.6114C144.921 90.5455 144.987 90.4795 145.053 90.4795C145.119 90.4795 145.185 90.5455 145.185 90.6114V97.8893C145.185 97.9553 145.119 98.0212 145.053 98.0212Z" fill="white"/>
<path d="M143.271 93.5137C143.228 93.5137 143.184 93.4918 143.162 93.4478C143.118 93.3818 143.14 93.2939 143.206 93.2719L146.812 91.183C146.878 91.1391 146.965 91.161 146.987 91.227C147.031 91.293 147.009 91.3809 146.943 91.4029L143.337 93.4918C143.315 93.5138 143.293 93.5137 143.271 93.5137Z" fill="white"/>
<path d="M143.271 95.4259C143.228 95.4259 143.184 95.4039 143.162 95.3599C143.118 95.2939 143.14 95.206 143.206 95.184L146.812 93.0951C146.878 93.0512 146.965 93.0732 146.987 93.1391C147.031 93.2051 147.009 93.293 146.943 93.315L143.337 95.4039C143.315 95.4259 143.293 95.4259 143.271 95.4259Z" fill="white"/>
<path d="M143.271 97.3175C143.228 97.3175 143.184 97.2955 143.162 97.2515C143.118 97.1855 143.14 97.0976 143.206 97.0756L146.812 94.9867C146.878 94.9428 146.965 94.9648 146.987 95.0307C147.031 95.0967 147.009 95.1846 146.943 95.2066L143.337 97.2955C143.315 97.3175 143.293 97.3175 143.271 97.3175Z" fill="white"/>
<path d="M102.044 126.473L108.97 122.472V111.258L102.044 115.26V126.473Z" fill="#1169A6"/>
<path d="M102.044 125.792L108.332 122.164V111.632L102.044 115.26V125.792Z" fill="#EEEFFB"/>
<path d="M102.044 124.318L107.079 121.394V112.335L102.044 115.259V124.318Z" fill="#146AA1"/>
<path d="M102.044 123.725L106.529 121.13V112.665L102.044 115.26V123.725Z" fill="#EEEFFB"/>
<path d="M102.176 115.325L105.87 113.192V120.558L102.176 122.691V115.325Z" fill="url(#paint16_linear_1876_6439)"/>
<path d="M105.738 113.434V120.492L102.308 122.471V115.413L105.738 113.434ZM106.002 112.973L102.044 115.259V122.933L106.002 120.646V112.973Z" fill="white"/>
<path d="M104.001 121.724C103.935 121.724 103.869 121.658 103.869 121.592V114.315C103.869 114.249 103.935 114.183 104.001 114.183C104.067 114.183 104.133 114.249 104.133 114.315V121.592C104.133 121.658 104.067 121.724 104.001 121.724Z" fill="white"/>
<path d="M102.22 117.217C102.176 117.217 102.132 117.195 102.11 117.151C102.066 117.085 102.088 116.997 102.154 116.975L105.76 114.886C105.826 114.842 105.914 114.864 105.936 114.93C105.98 114.996 105.958 115.084 105.892 115.106L102.286 117.195C102.264 117.217 102.242 117.217 102.22 117.217Z" fill="white"/>
<path d="M102.22 119.129C102.176 119.129 102.132 119.107 102.11 119.063C102.066 118.997 102.088 118.909 102.154 118.887L105.76 116.798C105.826 116.754 105.914 116.776 105.936 116.842C105.98 116.908 105.958 116.996 105.892 117.018L102.286 119.107C102.264 119.107 102.242 119.129 102.22 119.129Z" fill="white"/>
<path d="M102.22 121.021C102.176 121.021 102.132 120.999 102.11 120.955C102.066 120.889 102.088 120.801 102.154 120.779L105.76 118.69C105.826 118.646 105.914 118.668 105.936 118.734C105.98 118.8 105.958 118.888 105.892 118.91L102.286 120.999C102.264 121.021 102.242 121.021 102.22 121.021Z" fill="white"/>
<path d="M51.5824 85.2897L44.6562 81.2879V70.0742L51.5824 74.054V85.2897Z" fill="#1169A6"/>
<path d="M51.5824 84.6078L45.2939 80.9799V70.4258L51.5824 74.0538V84.6078Z" fill="#7DA9DA"/>
<path d="M51.5821 83.1127L46.5469 80.2103V71.1514L51.5821 74.0537V83.1127Z" fill="#146AA1"/>
<path d="M51.5822 82.5193L47.0967 79.9467V71.4814L51.5822 74.054V82.5193Z" fill="#7DA9DA"/>
<path d="M47.7568 79.3756V72.0098L51.4508 74.1426V81.5084L47.7568 79.3756Z" fill="url(#paint17_linear_1876_6439)"/>
<path d="M47.8889 72.2293L51.3189 74.2082V81.2663L47.8889 79.2874V72.2293ZM47.625 71.7676V79.4413L51.5828 81.728V74.0543L47.625 71.7676Z" fill="white"/>
<path d="M49.6251 80.5408C49.5591 80.5408 49.4932 80.4748 49.4932 80.4089V73.131C49.4932 73.065 49.5591 72.999 49.6251 72.999C49.6911 72.999 49.757 73.065 49.757 73.131V80.4089C49.757 80.4748 49.6911 80.5408 49.6251 80.5408Z" fill="white"/>
<path d="M51.4068 76.0332C51.3848 76.0332 51.3628 76.0333 51.3408 76.0113L47.7348 73.9224C47.6689 73.8785 47.6469 73.8125 47.6908 73.7465C47.7348 73.6806 47.8008 73.6586 47.8667 73.7026L51.4727 75.7914C51.5387 75.8354 51.5607 75.9013 51.5167 75.9673C51.4947 76.0113 51.4507 76.0332 51.4068 76.0332Z" fill="white"/>
<path d="M51.4068 77.9239C51.3848 77.9239 51.3628 77.9239 51.3408 77.9019L47.7348 75.8131C47.6689 75.7691 47.6469 75.7031 47.6908 75.6372C47.7348 75.5712 47.8008 75.5492 47.8667 75.5932L51.4727 77.682C51.5387 77.726 51.5607 77.792 51.5167 77.8579C51.4947 77.9019 51.4507 77.9239 51.4068 77.9239Z" fill="white"/>
<path d="M51.4068 79.837C51.3848 79.837 51.3628 79.837 51.3408 79.815L47.7348 77.7262C47.6689 77.6822 47.6469 77.6162 47.6908 77.5503C47.7348 77.4843 47.8008 77.4623 47.8667 77.5063L51.4727 79.5951C51.5387 79.6391 51.5607 79.7051 51.5167 79.771C51.4947 79.815 51.4507 79.837 51.4068 79.837Z" fill="white"/>
<path d="M61.8289 91.2047L54.9248 87.203V75.9893L61.8289 79.991V91.2047Z" fill="#1169A6"/>
<path d="M61.829 90.5234L55.5625 86.8954V76.3633L61.829 79.9913V90.5234Z" fill="#7DA9DA"/>
<path d="M61.8291 89.0502L56.7939 86.1258V77.0889L61.8291 79.9912V89.0502Z" fill="#146AA1"/>
<path d="M61.8287 88.4563L57.3652 85.8617V77.3965L61.8287 79.991V88.4563Z" fill="#7DA9DA"/>
<path d="M58.0029 85.2897V77.9238L61.6969 80.0566V87.4225L58.0029 85.2897Z" fill="url(#paint18_linear_1876_6439)"/>
<path d="M58.1569 78.1658L61.587 80.1447V87.2028L58.1569 85.2239V78.1658ZM57.8711 77.7041V85.3778L61.8289 87.6645V79.9908L57.8711 77.7041Z" fill="white"/>
<path d="M59.8936 86.4558C59.8277 86.4558 59.7617 86.3899 59.7617 86.3239V79.046C59.7617 78.98 59.8277 78.9141 59.8936 78.9141C59.9596 78.9141 60.0256 78.98 60.0256 79.046V86.3239C60.0256 86.3899 59.9596 86.4558 59.8936 86.4558Z" fill="white"/>
<path d="M61.6753 81.9483C61.6533 81.9483 61.6314 81.9483 61.6094 81.9263L58.0034 79.8375C57.9374 79.7935 57.9154 79.7275 57.9594 79.6616C58.0034 79.5956 58.0693 79.5736 58.1353 79.6176L61.7413 81.7064C61.8073 81.7504 61.8292 81.8164 61.7853 81.8823C61.7633 81.9263 61.7193 81.9483 61.6753 81.9483Z" fill="white"/>
<path d="M61.6753 83.8604C61.6533 83.8604 61.6314 83.8604 61.6094 83.8384L58.0034 81.7496C57.9374 81.7056 57.9154 81.6397 57.9594 81.5737C58.0034 81.5077 58.0693 81.4857 58.1353 81.5297L61.7413 83.6185C61.8073 83.6625 61.8292 83.7285 61.7853 83.7944C61.7633 83.8384 61.7193 83.8604 61.6753 83.8604Z" fill="white"/>
<path d="M61.6753 85.752C61.6533 85.752 61.6314 85.752 61.6094 85.73L58.0034 83.6412C57.9374 83.5972 57.9154 83.5313 57.9594 83.4653C58.0034 83.3993 58.0693 83.3773 58.1353 83.4213L61.7413 85.5101C61.8073 85.5541 61.8292 85.6201 61.7853 85.686C61.7633 85.73 61.7193 85.752 61.6753 85.752Z" fill="white"/>
<path d="M72.0965 97.1413L65.1924 93.1395V81.9258L72.0965 85.9056V97.1413Z" fill="#1169A6"/>
<path d="M72.0961 96.4594L65.8076 92.8314V82.2773L72.0961 85.9053V96.4594Z" fill="#7DA9DA"/>
<path d="M72.0967 94.9642L67.0615 92.0619V83.0029L72.0967 85.9053V94.9642Z" fill="#146AA1"/>
<path d="M72.0963 94.3708L67.6328 91.7983V83.333L72.0963 85.9056V94.3708Z" fill="#7DA9DA"/>
<path d="M68.2705 91.2272V83.8613L71.9644 85.9941V93.36L68.2705 91.2272Z" fill="url(#paint19_linear_1876_6439)"/>
<path d="M68.4025 84.0809L71.8326 86.0598V93.1178L68.4025 91.1389V84.0809ZM68.1387 83.6191V91.2928L72.0965 93.5796V85.9059L68.1387 83.6191Z" fill="white"/>
<path d="M70.1397 92.3924C70.0738 92.3924 70.0078 92.3264 70.0078 92.2604V84.9825C70.0078 84.9166 70.0738 84.8506 70.1397 84.8506C70.2057 84.8506 70.2717 84.9166 70.2717 84.9825V92.2604C70.2937 92.3264 70.2277 92.3924 70.1397 92.3924Z" fill="white"/>
<path d="M71.9204 87.8848C71.8985 87.8848 71.8765 87.8848 71.8545 87.8629L68.2485 85.774C68.1825 85.73 68.1605 85.6641 68.2045 85.5981C68.2485 85.5321 68.3145 85.5102 68.3804 85.5541L71.9864 87.643C72.0524 87.687 72.0744 87.7529 72.0304 87.8189C72.0084 87.8629 71.9644 87.8848 71.9204 87.8848Z" fill="white"/>
<path d="M71.9204 89.7754C71.8985 89.7754 71.8765 89.7754 71.8545 89.7534L68.2485 87.6646C68.1825 87.6207 68.1605 87.5547 68.2045 87.4887C68.2485 87.4228 68.3145 87.4008 68.3804 87.4448L71.9864 89.5336C72.0524 89.5775 72.0744 89.6435 72.0304 89.7095C72.0084 89.7534 71.9644 89.7754 71.9204 89.7754Z" fill="white"/>
<path d="M71.9204 91.6885C71.8985 91.6885 71.8765 91.6885 71.8545 91.6666L68.2485 89.5777C68.1825 89.5337 68.1605 89.4678 68.2045 89.4018C68.2485 89.3359 68.3145 89.3139 68.3804 89.3578L71.9864 91.4467C72.0524 91.4907 72.0744 91.5566 72.0304 91.6226C72.0084 91.6666 71.9644 91.6885 71.9204 91.6885Z" fill="white"/>
<path d="M82.3656 103.055L75.4395 99.0535V87.8398L82.3656 91.8416V103.055Z" fill="#1169A6"/>
<path d="M82.3656 102.374L76.0771 98.746V88.2139L82.3656 91.8418V102.374Z" fill="#7DA9DA"/>
<path d="M82.3652 100.9L77.3301 97.9759V88.917L82.3652 91.8414V100.9Z" fill="#146AA1"/>
<path d="M82.3654 100.307L77.8799 97.7123V89.2471L82.3654 91.8416V100.307Z" fill="#7DA9DA"/>
<path d="M78.54 97.1403V89.7744L82.234 91.9072V99.2731L78.54 97.1403Z" fill="url(#paint20_linear_1876_6439)"/>
<path d="M78.6721 90.0164L82.1021 91.9953V99.0534L78.6721 97.0745V90.0164ZM78.4082 89.5547V97.2284L82.366 99.5151V91.8414L78.4082 89.5547Z" fill="white"/>
<path d="M80.4083 98.3064C80.3423 98.3064 80.2764 98.2405 80.2764 98.1745V90.8966C80.2764 90.8306 80.3423 90.7646 80.4083 90.7646C80.4743 90.7646 80.5402 90.8306 80.5402 90.8966V98.1745C80.5402 98.2405 80.4743 98.3064 80.4083 98.3064Z" fill="white"/>
<path d="M82.19 93.7989C82.168 93.7989 82.146 93.7989 82.124 93.7769L78.518 91.6881C78.4521 91.6441 78.4301 91.5781 78.474 91.5122C78.518 91.4462 78.584 91.4242 78.65 91.4682L82.2559 93.557C82.3219 93.601 82.3439 93.6669 82.2999 93.7329C82.2779 93.7769 82.2339 93.7989 82.19 93.7989Z" fill="white"/>
<path d="M82.19 95.711C82.168 95.711 82.146 95.711 82.124 95.689L78.518 93.6002C78.4521 93.5562 78.4301 93.4902 78.474 93.4243C78.518 93.3583 78.584 93.3363 78.65 93.3803L82.2559 95.4691C82.3219 95.5131 82.3439 95.5791 82.2999 95.645C82.2779 95.689 82.2339 95.711 82.19 95.711Z" fill="white"/>
<path d="M82.19 97.6026C82.168 97.6026 82.146 97.6026 82.124 97.5806L78.518 95.4918C78.4521 95.4478 78.4301 95.3818 78.474 95.3159C78.518 95.2499 78.584 95.2279 78.65 95.2719L82.2559 97.3607C82.3219 97.4047 82.3439 97.4707 82.2999 97.5367C82.2779 97.5806 82.2339 97.6026 82.19 97.6026Z" fill="white"/>
<path d="M92.6331 108.993L85.707 104.991V93.7773L92.6331 97.7571V108.993Z" fill="#1169A6"/>
<path d="M92.6332 108.311L86.3447 104.683V94.1289L92.6332 97.7569V108.311Z" fill="#7DA9DA"/>
<path d="M92.6328 106.816L87.5977 103.913V94.8545L92.6328 97.7569V106.816Z" fill="#146AA1"/>
<path d="M92.6329 106.222L88.1475 103.65V95.1846L92.6329 97.7571V106.222Z" fill="#7DA9DA"/>
<path d="M88.8076 103.079V95.7129L92.5016 97.8457V105.212L88.8076 103.079Z" fill="url(#paint21_linear_1876_6439)"/>
<path d="M88.9396 95.9324L92.3697 97.9113V104.969L88.9396 102.99V95.9324ZM88.6758 95.4707V103.144L92.6336 105.431V97.7574L88.6758 95.4707Z" fill="white"/>
<path d="M90.6759 104.244C90.6099 104.244 90.5439 104.178 90.5439 104.112V96.8341C90.5439 96.7681 90.6099 96.7021 90.6759 96.7021C90.7418 96.7021 90.8078 96.7681 90.8078 96.8341V104.112C90.8078 104.178 90.7418 104.244 90.6759 104.244Z" fill="white"/>
<path d="M92.4576 99.7364C92.4356 99.7364 92.4136 99.7364 92.3916 99.7144L88.7856 97.6256C88.7196 97.5816 88.6977 97.5156 88.7416 97.4497C88.7856 97.3837 88.8516 97.3617 88.9175 97.4057L92.5235 99.4945C92.5895 99.5385 92.6115 99.6045 92.5675 99.6704C92.5455 99.7144 92.5015 99.7364 92.4576 99.7364Z" fill="white"/>
<path d="M92.4576 101.627C92.4356 101.627 92.4136 101.627 92.3916 101.605L88.7856 99.5162C88.7196 99.4722 88.6977 99.4063 88.7416 99.3403C88.7856 99.2743 88.8516 99.2523 88.9175 99.2963L92.5235 101.385C92.5895 101.429 92.6115 101.495 92.5675 101.561C92.5455 101.605 92.5015 101.627 92.4576 101.627Z" fill="white"/>
<path d="M92.4576 103.54C92.4356 103.54 92.4136 103.54 92.3916 103.518L88.7856 101.429C88.7196 101.385 88.6977 101.319 88.7416 101.253C88.7856 101.187 88.8516 101.165 88.9175 101.209L92.5235 103.298C92.5895 103.342 92.6115 103.408 92.5675 103.474C92.5455 103.518 92.5015 103.54 92.4576 103.54Z" fill="white"/>
<path d="M51.5824 102.77L44.6562 98.7684V87.5547L51.5824 91.5564V102.77Z" fill="#1169A6"/>
<path d="M51.5824 102.089L45.2939 98.4608V87.9287L51.5824 91.5567V102.089Z" fill="#7DA9DA"/>
<path d="M51.5821 100.615L46.5469 97.6907V88.6318L51.5821 91.5562V100.615Z" fill="#146AA1"/>
<path d="M51.5822 100.022L47.0967 97.4271V88.9619L51.5822 91.5564V100.022Z" fill="#7DA9DA"/>
<path d="M47.7568 96.8552V89.4893L51.4508 91.6221V98.988L47.7568 96.8552Z" fill="url(#paint22_linear_1876_6439)"/>
<path d="M47.8889 89.7313L51.3189 91.7102V98.7682L47.8889 96.7893V89.7313ZM47.625 89.2695V96.9432L51.5828 99.23V91.5562L47.625 89.2695Z" fill="white"/>
<path d="M49.6251 98.0212C49.5591 98.0212 49.4932 97.9553 49.4932 97.8893V90.6114C49.4932 90.5455 49.5591 90.4795 49.6251 90.4795C49.6911 90.4795 49.757 90.5455 49.757 90.6114V97.8893C49.757 97.9553 49.6911 98.0212 49.6251 98.0212Z" fill="white"/>
<path d="M51.4068 93.5137C51.3848 93.5137 51.3628 93.5138 51.3408 93.4918L47.7348 91.4029C47.6689 91.3589 47.6469 91.293 47.6908 91.227C47.7348 91.161 47.8008 91.1391 47.8667 91.183L51.4727 93.2719C51.5387 93.3159 51.5607 93.3818 51.5167 93.4478C51.4947 93.4918 51.4507 93.5137 51.4068 93.5137Z" fill="white"/>
<path d="M51.4068 95.4259C51.3848 95.4259 51.3628 95.4259 51.3408 95.4039L47.7348 93.315C47.6689 93.271 47.6469 93.2051 47.6908 93.1391C47.7348 93.0732 47.8008 93.0512 47.8667 93.0951L51.4727 95.184C51.5387 95.228 51.5607 95.2939 51.5167 95.3599C51.4947 95.4039 51.4507 95.4259 51.4068 95.4259Z" fill="white"/>
<path d="M51.4068 97.3175C51.3848 97.3175 51.3628 97.3175 51.3408 97.2955L47.7348 95.2066C47.6689 95.1626 47.6469 95.0967 47.6908 95.0307C47.7348 94.9648 47.8008 94.9428 47.8667 94.9867L51.4727 97.0756C51.5387 97.1196 51.5607 97.1855 51.5167 97.2515C51.4947 97.2955 51.4507 97.3175 51.4068 97.3175Z" fill="white"/>
<path d="M61.8289 108.707L54.9248 104.705V93.4912L61.8289 97.471V108.707Z" fill="#1169A6"/>
<path d="M61.829 108.025L55.5625 104.397V93.8428L61.829 97.4707V108.025Z" fill="#7DA9DA"/>
<path d="M61.8291 106.53L56.7939 103.627V94.5684L61.8291 97.4707V106.53Z" fill="#146AA1"/>
<path d="M61.8287 105.936L57.3652 103.364V94.8984L61.8287 97.471V105.936Z" fill="#7DA9DA"/>
<path d="M58.0029 102.793V95.4268L61.6969 97.5596V104.925L58.0029 102.793Z" fill="url(#paint23_linear_1876_6439)"/>
<path d="M58.1569 95.6463L61.587 97.6252V104.683L58.1569 102.704V95.6463ZM57.8711 95.1846V102.858L61.8289 105.145V97.4713L57.8711 95.1846Z" fill="white"/>
<path d="M59.8936 103.957C59.8277 103.957 59.7617 103.891 59.7617 103.825V96.5255C59.7617 96.4595 59.8277 96.3936 59.8936 96.3936C59.9596 96.3936 60.0256 96.4595 60.0256 96.5255V103.803C60.0256 103.891 59.9596 103.957 59.8936 103.957Z" fill="white"/>
<path d="M61.6753 99.4503C61.6533 99.4503 61.6314 99.4503 61.6094 99.4283L58.0034 97.3394C57.9374 97.2955 57.9154 97.2295 57.9594 97.1635C58.0034 97.0976 58.0693 97.0756 58.1353 97.1196L61.7413 99.2084C61.8073 99.2524 61.8292 99.3183 61.7853 99.3843C61.7633 99.4283 61.7193 99.4503 61.6753 99.4503Z" fill="white"/>
<path d="M61.6753 101.341C61.6533 101.341 61.6314 101.341 61.6094 101.319L58.0034 99.2301C57.9374 99.1861 57.9154 99.1201 57.9594 99.0542C58.0034 98.9882 58.0693 98.9662 58.1353 99.0102L61.7413 101.099C61.8073 101.143 61.8292 101.209 61.7853 101.275C61.7633 101.319 61.7193 101.341 61.6753 101.341Z" fill="white"/>
<path d="M61.6753 103.254C61.6533 103.254 61.6314 103.254 61.6094 103.232L58.0034 101.143C57.9374 101.099 57.9154 101.033 57.9594 100.967C58.0034 100.901 58.0693 100.879 58.1353 100.923L61.7413 103.012C61.8073 103.056 61.8292 103.122 61.7853 103.188C61.7633 103.232 61.7193 103.254 61.6753 103.254Z" fill="white"/>
<path d="M72.0965 114.622L65.1924 110.62V99.4062L72.0965 103.408V114.622Z" fill="#1169A6"/>
<path d="M72.0961 113.94L65.8076 110.312V99.7803L72.0961 103.408V113.94Z" fill="#7DA9DA"/>
<path d="M72.0967 112.467L67.0615 109.542V100.483L72.0967 103.408V112.467Z" fill="#146AA1"/>
<path d="M72.0963 111.873L67.6328 109.279V100.813L72.0963 103.408V111.873Z" fill="#7DA9DA"/>
<path d="M68.2705 108.707V101.341L71.9644 103.474V110.84L68.2705 108.707Z" fill="url(#paint24_linear_1876_6439)"/>
<path d="M68.4025 101.583L71.8326 103.562V110.62L68.4025 108.641V101.583ZM68.1387 101.121V108.795L72.0965 111.082V103.408L68.1387 101.121Z" fill="white"/>
<path d="M70.1397 109.873C70.0738 109.873 70.0078 109.807 70.0078 109.741V102.463C70.0078 102.397 70.0738 102.331 70.1397 102.331C70.2057 102.331 70.2717 102.397 70.2717 102.463V109.741C70.2937 109.807 70.2277 109.873 70.1397 109.873Z" fill="white"/>
<path d="M71.9204 105.365C71.8985 105.365 71.8765 105.365 71.8545 105.343L68.2485 103.254C68.1825 103.211 68.1605 103.145 68.2045 103.079C68.2485 103.013 68.3145 102.991 68.3804 103.035L71.9864 105.123C72.0524 105.167 72.0744 105.233 72.0304 105.299C72.0084 105.343 71.9644 105.365 71.9204 105.365Z" fill="white"/>
<path d="M71.9204 107.277C71.8985 107.277 71.8765 107.277 71.8545 107.255L68.2485 105.167C68.1825 105.123 68.1605 105.057 68.2045 104.991C68.2485 104.925 68.3145 104.903 68.3804 104.947L71.9864 107.036C72.0524 107.08 72.0744 107.145 72.0304 107.211C72.0084 107.255 71.9644 107.277 71.9204 107.277Z" fill="white"/>
<path d="M71.9204 109.169C71.8985 109.169 71.8765 109.169 71.8545 109.147L68.2485 107.058C68.1825 107.014 68.1605 106.948 68.2045 106.882C68.2485 106.816 68.3145 106.794 68.3804 106.838L71.9864 108.927C72.0524 108.971 72.0744 109.037 72.0304 109.103C72.0084 109.147 71.9644 109.169 71.9204 109.169Z" fill="white"/>
<path d="M82.3656 120.558L75.4395 116.557V105.343L82.3656 109.323V120.558Z" fill="#1169A6"/>
<path d="M82.3656 119.876L76.0771 116.248V105.694L82.3656 109.322V119.876Z" fill="#7DA9DA"/>
<path d="M82.3652 118.381L77.3301 115.479V106.42L82.3652 109.322V118.381Z" fill="#146AA1"/>
<path d="M82.3654 117.788L77.8799 115.215V106.75L82.3654 109.323V117.788Z" fill="#7DA9DA"/>
<path d="M78.54 114.644V107.278L82.234 109.411V116.777L78.54 114.644Z" fill="url(#paint25_linear_1876_6439)"/>
<path d="M78.6721 107.498L82.1021 109.477V116.535L78.6721 114.556V107.498ZM78.4082 107.036V114.71L82.366 116.997V109.323L78.4082 107.036Z" fill="white"/>
<path d="M80.4083 115.809C80.3423 115.809 80.2764 115.743 80.2764 115.677V108.4C80.2764 108.334 80.3423 108.268 80.4083 108.268C80.4743 108.268 80.5402 108.334 80.5402 108.4V115.655C80.5402 115.743 80.4743 115.809 80.4083 115.809Z" fill="white"/>
<path d="M82.19 111.302C82.168 111.302 82.146 111.302 82.124 111.28L78.518 109.191C78.4521 109.147 78.4301 109.081 78.474 109.015C78.518 108.949 78.584 108.927 78.65 108.971L82.2559 111.06C82.3219 111.104 82.3439 111.17 82.2999 111.236C82.2779 111.28 82.2339 111.302 82.19 111.302Z" fill="white"/>
<path d="M82.19 113.192C82.168 113.192 82.146 113.192 82.124 113.17L78.518 111.082C78.4521 111.038 78.4301 110.972 78.474 110.906C78.518 110.84 78.584 110.818 78.65 110.862L82.2559 112.951C82.3219 112.995 82.3439 113.06 82.2999 113.126C82.2779 113.17 82.2339 113.192 82.19 113.192Z" fill="white"/>
<path d="M82.19 115.106C82.168 115.106 82.146 115.106 82.124 115.084L78.518 112.995C78.4521 112.951 78.4301 112.885 78.474 112.819C78.518 112.753 78.584 112.731 78.65 112.775L82.2559 114.864C82.3219 114.908 82.3439 114.974 82.2999 115.04C82.2779 115.084 82.2339 115.106 82.19 115.106Z" fill="white"/>
<path d="M92.6331 126.473L85.707 122.472V111.258L92.6331 115.26V126.473Z" fill="#1169A6"/>
<path d="M92.6332 125.792L86.3447 122.164V111.632L92.6332 115.26V125.792Z" fill="#7DA9DA"/>
<path d="M92.6328 124.318L87.5977 121.394V112.335L92.6328 115.259V124.318Z" fill="#146AA1"/>
<path d="M92.6329 123.725L88.1475 121.13V112.665L92.6329 115.26V123.725Z" fill="#7DA9DA"/>
<path d="M88.8076 120.558V113.192L92.5016 115.325V122.691L88.8076 120.558Z" fill="url(#paint26_linear_1876_6439)"/>
<path d="M88.9396 113.434L92.3697 115.413V122.471L88.9396 120.492V113.434ZM88.6758 112.973V120.646L92.6336 122.933V115.259L88.6758 112.973Z" fill="white"/>
<path d="M90.6759 121.724C90.6099 121.724 90.5439 121.658 90.5439 121.592V114.315C90.5439 114.249 90.6099 114.183 90.6759 114.183C90.7418 114.183 90.8078 114.249 90.8078 114.315V121.592C90.8078 121.658 90.7418 121.724 90.6759 121.724Z" fill="white"/>
<path d="M92.4576 117.217C92.4356 117.217 92.4136 117.217 92.3916 117.195L88.7856 115.106C88.7196 115.062 88.6977 114.996 88.7416 114.93C88.7856 114.864 88.8516 114.842 88.9175 114.886L92.5235 116.975C92.5895 117.019 92.6115 117.085 92.5675 117.151C92.5455 117.195 92.5015 117.217 92.4576 117.217Z" fill="white"/>
<path d="M92.4576 119.129C92.4356 119.129 92.4136 119.129 92.3916 119.107L88.7856 117.018C88.7196 116.974 88.6977 116.908 88.7416 116.842C88.7856 116.776 88.8516 116.754 88.9175 116.798L92.5235 118.887C92.5895 118.931 92.6115 118.997 92.5675 119.063C92.5455 119.107 92.5015 119.129 92.4576 119.129Z" fill="white"/>
<path d="M92.4576 121.021C92.4356 121.021 92.4136 121.021 92.3916 120.999L88.7856 118.91C88.7196 118.866 88.6977 118.8 88.7416 118.734C88.7856 118.668 88.8516 118.646 88.9175 118.69L92.5235 120.779C92.5895 120.823 92.6115 120.889 92.5675 120.955C92.5455 120.999 92.5015 121.021 92.4576 121.021Z" fill="white"/>
<path d="M113.127 106.793V129.55L145.889 110.641V87.8838L113.127 106.793Z" fill="url(#paint27_linear_1876_6439)"/>
<path d="M113.127 106.793V129.55L145.889 110.641V87.8838L113.127 106.793Z" fill="url(#paint28_linear_1876_6439)"/>
<path d="M113.127 130.079C113.039 130.079 112.951 130.057 112.863 130.013C112.71 129.925 112.6 129.749 112.6 129.551V106.794C112.6 106.618 112.71 106.442 112.863 106.332L145.625 87.4224C145.779 87.3345 145.977 87.3345 146.153 87.4224C146.307 87.5104 146.417 87.6863 146.417 87.8842V110.641C146.417 110.817 146.307 110.993 146.153 111.103L113.391 130.013C113.303 130.057 113.215 130.079 113.127 130.079ZM113.655 107.101V128.649L145.383 110.334V88.7856L113.655 107.101Z" fill="white"/>
<path d="M135.181 117.15C134.895 117.15 134.653 116.908 134.653 116.622V94.6127C134.653 94.3268 134.895 94.085 135.181 94.085C135.467 94.085 135.709 94.3268 135.709 94.6127V116.644C135.709 116.93 135.467 117.15 135.181 117.15Z" fill="white"/>
<path d="M124.758 123.307C124.472 123.307 124.23 123.065 124.23 122.779V100.616C124.23 100.33 124.472 100.088 124.758 100.088C125.044 100.088 125.286 100.33 125.286 100.616V122.779C125.286 123.065 125.044 123.307 124.758 123.307Z" fill="white"/>
<path d="M155.278 92.875L120.581 112.906V114.379L155.278 94.3702V92.875Z" fill="#5CD9FC"/>
<path d="M120.581 112.906L110.73 107.211V108.706L120.581 114.379V112.906Z" fill="#5CD9FC"/>
<path d="M155.278 92.8755L145.427 87.1807L110.73 107.211L120.581 112.906L155.278 92.8755Z" fill="white"/>
<path d="M105.453 125.505L105.321 125.043C121.856 120.536 134.873 115.193 147.538 107.739C159.279 100.813 170.977 91.9519 186.676 78.0557L187.006 78.4075C171.284 92.3257 159.565 101.209 147.802 108.135C135.093 115.633 122.032 120.976 105.453 125.505Z" fill="#105383"/>
<path d="M107.498 130.673L107.366 130.211C123.901 125.703 136.918 120.36 149.583 112.907C161.302 106.002 172.999 97.1194 188.699 83.2451L189.028 83.5969C173.329 97.4932 161.61 106.398 149.846 113.324C137.138 120.8 124.077 126.165 107.498 130.673Z" fill="#105383"/>
<path d="M105.541 129.726L105.409 129.265C121.944 124.757 134.961 119.414 147.626 111.96C159.345 105.056 171.042 96.1731 186.742 82.2988L187.071 82.6506C171.35 96.5469 159.631 105.452 147.867 112.378C135.181 119.854 122.12 125.219 105.541 129.726Z" fill="#105383"/>
<path d="M192.217 108.839V67.6117L190.04 66.3584V107.585L192.217 108.839Z" fill="url(#paint29_linear_1876_6439)"/>
<path d="M192.217 67.6121L194.372 66.3588L192.217 65.1055L190.04 66.3588L192.217 67.6121Z" fill="url(#paint30_linear_1876_6439)"/>
<path d="M192.217 108.839L194.372 107.585V66.3584L192.217 67.6117V108.839Z" fill="url(#paint31_linear_1876_6439)"/>
<path d="M186.852 78.2324V76.3634L185.225 75.418V77.3089L186.852 78.2324Z" fill="url(#paint32_linear_1876_6439)"/>
<path d="M186.852 76.3633L200 68.7775L198.373 67.832L185.225 75.4178L186.852 76.3633Z" fill="url(#paint33_linear_1876_6439)"/>
<path d="M186.852 78.232L200 70.6463V68.7773L186.852 76.3631V78.232Z" fill="url(#paint34_linear_1876_6439)"/>
<path d="M186.852 85.2241V83.3332L185.225 82.3877V84.2786L186.852 85.2241Z" fill="url(#paint35_linear_1876_6439)"/>
<path d="M186.852 83.333L200 75.7472L198.373 74.8018L185.225 82.3875L186.852 83.333Z" fill="url(#paint36_linear_1876_6439)"/>
<path d="M186.852 85.2238L200 77.638V75.7471L186.852 83.3328V85.2238Z" fill="url(#paint37_linear_1876_6439)"/>
<path d="M100.11 162.005V120.778L97.9336 119.524V160.751L100.11 162.005Z" fill="url(#paint38_linear_1876_6439)"/>
<path d="M100.11 120.778L102.287 119.525L100.11 118.271L97.9336 119.525L100.11 120.778Z" fill="url(#paint39_linear_1876_6439)"/>
<path d="M100.11 162.005L102.287 160.751V119.524L100.11 120.778V162.005Z" fill="url(#paint40_linear_1876_6439)"/>
<path d="M94.7452 131.42V129.529L93.1182 128.584V130.475L94.7452 131.42Z" fill="url(#paint41_linear_1876_6439)"/>
<path d="M94.7453 129.529L107.894 121.944L106.267 120.998L93.1182 128.584L94.7453 129.529Z" fill="url(#paint42_linear_1876_6439)"/>
<path d="M94.7451 131.42L107.894 123.812V121.943L94.7451 129.529V131.42Z" fill="url(#paint43_linear_1876_6439)"/>
<path d="M94.7452 138.39V136.521L93.1182 135.575V137.444L94.7452 138.39Z" fill="url(#paint44_linear_1876_6439)"/>
<path d="M94.7453 136.521L107.894 128.913L106.267 127.968L93.1182 135.576L94.7453 136.521Z" fill="url(#paint45_linear_1876_6439)"/>
<path d="M94.7451 138.39L107.894 130.804V128.913L94.7451 136.521V138.39Z" fill="url(#paint46_linear_1876_6439)"/>
<path d="M147.47 36.7848L96.3711 7.27734V13.0601L147.47 42.5676V36.7848Z" fill="#7DA9DA"/>
<path d="M96.3714 7.27734L45.25 36.7848V42.5676L96.3714 13.0601V7.27734Z" fill="#EEEFFB"/>
<path d="M34.7842 36.7852L96.3717 72.3392V78.122L34.7842 42.5679V36.7852Z" fill="#7DA9DA"/>
<path d="M96.3721 72.3392L157.938 36.7852V42.5679L96.3721 78.122V72.3392Z" fill="#EEEFFB"/>
<path d="M96.3717 1.25293L34.7842 36.785L96.3717 72.3391L157.959 36.785L96.3717 1.25293ZM45.2503 36.785L96.3717 7.27755L147.471 36.785L96.3717 66.2925L45.2503 36.785Z" fill="white"/>
<path d="M129.156 30.1887V21.6354H121.24V25.0435L113.699 20.69C112.533 20.0303 110.774 19.9424 109.785 20.5361L71.4822 42.6557V38.9617H63.5666V47.6469C63.4567 48.1526 63.7865 48.7023 64.5121 49.1201L79.0239 57.4974C80.1893 58.157 81.9483 58.2449 82.9377 57.6513L128.496 31.354C129.024 31.0242 129.244 30.6064 129.156 30.1887Z" fill="url(#paint47_linear_1876_6439)"/>
<path d="M129.156 21.6354H121.24V25.0435L113.699 20.69C112.533 20.0303 110.774 19.9424 109.785 20.5361L81.1787 37.0488V58.0251C81.8383 58.0251 82.476 57.9151 82.9377 57.6293L128.496 31.332C129.024 31.0242 129.222 30.6064 129.156 30.1887V21.6354V21.6354Z" fill="url(#paint48_linear_1876_6439)"/>
<path d="M82.9373 48.8344L128.496 22.5371C129.507 21.9654 129.375 20.954 128.21 20.2724L113.698 11.8951C112.533 11.2354 110.774 11.1475 109.784 11.7411L64.2258 38.0384C63.2144 38.6101 63.3463 39.6215 64.5116 40.3032L79.0235 48.6805C80.1669 49.3401 81.9259 49.428 82.9373 48.8344Z" fill="url(#paint49_linear_1876_6439)"/>
<path d="M75.6596 42.2377C78.8698 44.0847 84.1029 44.0847 87.3351 42.2157C90.5672 40.3468 90.5892 37.3345 87.379 35.4655C84.1688 33.6185 78.9358 33.6185 75.7036 35.4875C72.4714 37.3564 72.4494 40.3688 75.6596 42.2377Z" fill="url(#paint50_linear_1876_6439)"/>
<path d="M73.7031 40.4124C74.0989 41.072 74.7365 41.7096 75.66 42.2373C78.8702 44.0843 84.1033 44.0843 87.3355 42.2154C88.303 41.6657 88.9626 41.006 89.3584 40.3024C89.0285 39.4889 88.3249 38.7193 87.2036 38.0817C84.0593 36.3007 78.9362 36.3666 75.8139 38.2136C74.7365 38.8512 74.0549 39.5988 73.7031 40.4124Z" fill="url(#paint51_linear_1876_6439)"/>
<path d="M85.5323 38.5658C85.0046 38.258 84.1471 38.258 83.6194 38.5658C83.0917 38.8737 83.0917 39.3574 83.6194 39.6652C84.1471 39.973 85.0046 39.973 85.5323 39.6652C86.06 39.3794 86.06 38.8737 85.5323 38.5658Z" fill="#085395"/>
<path d="M81.2662 40.2153C81.2442 40.2153 81.2442 40.2153 81.2222 40.2153C81.1562 40.2153 81.1123 40.2373 81.0463 40.2373C80.8044 40.2812 80.5845 40.3912 80.4526 40.5231C80.1228 40.8529 80.3207 41.2487 80.8924 41.4466C81.1342 41.5345 81.3981 41.5565 81.662 41.5345C81.7499 41.5345 81.8159 41.5126 81.9038 41.4906C82.1457 41.4466 82.3656 41.3367 82.4975 41.2047C82.8273 40.8749 82.6294 40.4791 82.0577 40.2812C81.8159 40.2153 81.552 40.1933 81.2662 40.2153C81.2882 40.2153 81.2882 40.2153 81.2662 40.2153Z" fill="#7DA9DA"/>
<path d="M79.4195 42.1059C78.8917 41.798 78.0342 41.798 77.5065 42.1059C77.1327 42.3258 77.0228 42.6336 77.1767 42.9194C77.7264 43.1173 78.3201 43.2712 78.9357 43.3812C79.1116 43.3372 79.2655 43.2932 79.3975 43.2053C79.9252 42.8974 79.9472 42.4137 79.4195 42.1059Z" fill="#085395"/>
<path d="M81.8824 41.5121L81.2887 40.2148C81.2667 40.2148 81.2667 40.2148 81.2447 40.2148C81.1788 40.2148 81.1348 40.2368 81.0908 40.2368L81.6845 41.5341C81.7505 41.5341 81.8164 41.5121 81.8824 41.5121Z" fill="#1169A6"/>
<path opacity="0.4" d="M75.2203 41.9522C75.1763 41.9302 75.1543 41.9082 75.1104 41.8643C75.1323 41.9082 75.1763 41.9302 75.2203 41.9522Z" fill="url(#paint52_linear_1876_6439)"/>
<path d="M90.809 33.4867C94.0192 35.3337 99.2523 35.3337 102.484 33.4647C105.717 31.5958 105.739 28.5835 102.528 26.7145C99.3182 24.8676 94.0852 24.8676 90.853 26.7365C87.6208 28.6055 87.5988 31.6398 90.809 33.4867Z" fill="url(#paint53_linear_1876_6439)"/>
<path d="M88.8525 31.6614C89.2483 32.321 89.886 32.9587 90.8094 33.4864C94.0197 35.3333 99.2527 35.3333 102.485 33.4644C103.452 32.9147 104.112 32.2551 104.508 31.5515C104.178 30.7379 103.474 29.9683 102.353 29.3307C99.2088 27.5497 94.0856 27.6157 90.9634 29.4626C89.886 30.1003 89.2043 30.8698 88.8525 31.6614Z" fill="url(#paint54_linear_1876_6439)"/>
<path d="M100.703 29.8149C100.176 29.507 99.318 29.507 98.7903 29.8149C98.2626 30.1227 98.2626 30.6064 98.7903 30.9142C99.318 31.2221 100.176 31.2221 100.703 30.9142C101.209 30.6284 101.209 30.1227 100.703 29.8149Z" fill="#085395"/>
<path d="M96.4381 31.4643C96.4161 31.4643 96.4161 31.4643 96.3941 31.4643C96.3281 31.4643 96.2841 31.4863 96.2182 31.4863C95.9763 31.5303 95.7564 31.6402 95.6245 31.7721C95.2947 32.1019 95.4926 32.4977 96.0643 32.6956C96.3061 32.7836 96.57 32.8056 96.8338 32.7836C96.9218 32.7836 96.9877 32.7616 97.0757 32.7396C97.3176 32.6956 97.5374 32.5857 97.6694 32.4537C97.9992 32.1239 97.8013 31.7282 97.2296 31.5303C96.9658 31.4643 96.7019 31.4423 96.4381 31.4643Z" fill="#7DA9DA"/>
<path d="M94.5689 33.3549C94.0412 33.0471 93.1837 33.0471 92.6559 33.3549C92.2822 33.5748 92.1722 33.8826 92.3261 34.1684C92.8758 34.3663 93.4695 34.5202 94.0852 34.6302C94.2611 34.5862 94.415 34.5422 94.5469 34.4543C95.0966 34.1684 95.0966 33.6627 94.5689 33.3549Z" fill="#085395"/>
<path d="M97.0318 32.7611L96.4381 31.4639C96.4161 31.4639 96.4161 31.4639 96.3941 31.4639C96.3282 31.4639 96.2842 31.4859 96.2402 31.4859L96.8339 32.7831C96.8999 32.7831 96.9658 32.7611 97.0318 32.7611Z" fill="#1169A6"/>
<path opacity="0.4" d="M90.3697 33.2012C90.3257 33.1792 90.3037 33.1573 90.2598 33.1133C90.2818 33.1573 90.3257 33.1792 90.3697 33.2012Z" fill="url(#paint55_linear_1876_6439)"/>
<path d="M105.958 24.7358C109.169 26.5827 114.402 26.5827 117.634 24.7138C120.866 22.8448 120.888 19.8325 117.678 17.9635C114.468 16.1166 109.235 16.1166 106.002 17.9855C102.77 19.8765 102.748 22.8888 105.958 24.7358Z" fill="url(#paint56_linear_1876_6439)"/>
<path d="M104.002 22.9104C104.398 23.57 105.035 24.2077 105.959 24.7354C109.169 26.5824 114.402 26.5824 117.634 24.7134C118.602 24.1637 119.261 23.5041 119.657 22.8005C119.327 21.9869 118.624 21.2174 117.502 20.5797C114.358 18.7987 109.235 18.8647 106.113 20.7116C105.035 21.3493 104.354 22.1189 104.002 22.9104Z" fill="url(#paint57_linear_1876_6439)"/>
<path d="M115.853 21.0854C115.325 20.7775 114.467 20.7775 113.94 21.0854C113.412 21.3932 113.412 21.8769 113.94 22.1847C114.467 22.4926 115.325 22.4926 115.853 22.1847C116.358 21.8769 116.38 21.3712 115.853 21.0854Z" fill="#085395"/>
<path d="M111.587 22.7123C111.565 22.7123 111.565 22.7123 111.543 22.7123C111.478 22.7123 111.434 22.7343 111.368 22.7343C111.126 22.7783 110.906 22.8882 110.774 23.0202C110.444 23.35 110.642 23.7458 111.214 23.9437C111.456 24.0316 111.719 24.0536 111.983 24.0316C112.071 24.0316 112.137 24.0096 112.225 23.9876C112.467 23.9437 112.687 23.8337 112.819 23.7018C113.149 23.372 112.951 22.9762 112.379 22.7783C112.115 22.7123 111.851 22.6904 111.587 22.7123Z" fill="#7DA9DA"/>
<path d="M109.718 24.6254C109.191 24.3176 108.333 24.3176 107.805 24.6254C107.432 24.8453 107.322 25.1531 107.476 25.4389C108.025 25.6368 108.619 25.7907 109.235 25.9007C109.41 25.8567 109.564 25.8127 109.696 25.7248C110.246 25.417 110.246 24.9112 109.718 24.6254Z" fill="#085395"/>
<path d="M112.181 24.0102L111.588 22.7129C111.566 22.7129 111.566 22.7129 111.544 22.7129C111.478 22.7129 111.434 22.7349 111.39 22.7349L111.983 24.0322C112.049 24.0322 112.115 24.0322 112.181 24.0102Z" fill="#1169A6"/>
<path opacity="0.4" d="M105.519 24.4503C105.475 24.4283 105.453 24.4063 105.409 24.3623C105.453 24.4063 105.475 24.4283 105.519 24.4503Z" fill="url(#paint58_linear_1876_6439)"/>
<path d="M65.4129 67.2598L39.9512 83.8825V105.848L50.5492 111.697L70.536 75.9229L65.4129 67.2598Z" fill="url(#paint59_linear_1876_6439)"/>
<path d="M45.5586 90.6328C45.5586 92.6557 48.417 94.3047 51.913 94.3047C55.4091 94.3047 58.2675 92.6557 58.2675 90.6328V93.2274C58.2675 95.2502 55.4091 96.8993 51.913 96.8993C48.417 96.8993 45.5586 95.2502 45.5586 93.2274V90.6328Z" fill="url(#paint60_linear_1876_6439)"/>
<path d="M51.913 94.3048C55.4225 94.3048 58.2675 92.6609 58.2675 90.6329C58.2675 88.6049 55.4225 86.9609 51.913 86.9609C48.4036 86.9609 45.5586 88.6049 45.5586 90.6329C45.5586 92.6609 48.4036 94.3048 51.913 94.3048Z" fill="url(#paint61_linear_1876_6439)"/>
<path d="M70.3389 76.0771C70.3169 76.0991 70.2949 76.0991 70.2949 76.1211C70.2949 76.0991 70.3169 76.0771 70.3389 76.0771Z" fill="#EEEFFB"/>
<path d="M50.5721 70.5145C50.6161 71.5919 49.9345 72.0976 49.033 71.6139C48.1315 71.1522 47.3619 69.8989 47.296 68.8215C47.252 67.7441 47.9336 67.2384 48.8351 67.7221C49.7366 68.1838 50.5062 69.4371 50.5721 70.5145Z" fill="#ED6C5A"/>
<path d="M45.9327 62.8185C46.5264 62.4667 47.252 63.3022 47.5598 63.5661C48.2414 64.2037 49.3848 64.9293 50.4622 65.0613C51.3197 65.1712 51.9574 66.0507 52.1552 66.8862C52.2212 67.1721 52.3092 68.4913 53.3426 70.4263C53.6944 71.0859 54.9697 72.5811 54.1121 73.4606C53.9143 73.6365 53.7823 73.5705 53.4525 73.8344C52.3971 74.6919 52.4191 75.9452 52.2872 76.253C52.0673 76.8027 51.5616 76.7807 51.0559 76.4509C50.6821 76.1871 49.6047 74.8898 47.9776 74.45C47.5378 74.3181 47.3619 74.406 46.9881 74.2082C46.5924 73.9883 46.2625 73.6145 46.0647 73.2187C45.5809 72.3172 45.9327 72.0753 45.1851 70.2284C44.3936 68.2495 43.7559 67.9856 43.602 66.9742C43.5141 66.4905 43.624 66.0287 44.0858 65.8528C44.0858 65.8528 44.0858 65.8528 44.1078 65.8528C44.2177 65.8088 44.2177 65.8088 44.2397 65.8088H44.2617C44.6574 65.6329 45.2071 65.0393 45.471 64.2477C45.6469 63.5881 45.5369 63.0824 45.9327 62.8185ZM49.011 71.6356C49.9125 72.0973 50.6161 71.6136 50.5501 70.5362C50.5062 69.4588 49.7146 68.2055 48.8131 67.7438C47.9116 67.282 47.208 67.7658 47.274 68.8432C47.3399 69.9206 48.1095 71.1519 49.011 71.6356Z" fill="url(#paint62_linear_1876_6439)"/>
<path d="M62.6436 65.4349C62.4457 62.3127 59.8732 59.4762 57.9383 59.3223C57.3886 59.2564 58.2241 59.1024 46.0869 62.7524C46.9664 62.5545 47.3402 63.7638 49.1872 64.6653C50.4405 65.281 50.7043 64.7973 51.4739 65.6108C52.2655 66.4463 52.1335 67.2159 52.4194 68.1834C53.057 70.3162 53.8706 71.1737 54.1564 71.7674C54.4202 72.317 54.5302 72.9987 54.1124 73.4384C53.9145 73.6143 53.7826 73.5484 53.4528 73.8122C53.013 74.164 52.7052 74.6477 52.5293 75.1974C52.3094 75.8351 52.4414 76.1649 52.1555 76.4727C58.7738 70.3601 60.0711 69.1728 61.8521 67.7436C62.5117 67.2599 62.6876 66.2924 62.6436 65.4349Z" fill="url(#paint63_linear_1876_6439)"/>
<path d="M71.8999 71.8558C71.8999 71.8778 71.8999 71.8778 71.8999 71.8558C71.8339 71.9218 71.768 71.9657 71.702 72.0097C71.68 72.0317 71.658 72.0317 71.658 72.0537C71.658 72.0537 71.6361 72.0537 71.6361 72.0757C71.6361 72.0757 71.6361 72.0757 71.6141 72.0757C71.5481 72.1197 71.4821 72.1636 71.4162 72.2076L60.3124 78.606C58.2456 79.7934 56.9703 82.0141 56.9703 84.3888V88.7863C56.9703 89.2261 56.9263 90.4574 56.9263 90.6553C56.9263 91.6887 55.9808 92.5902 54.5736 93.0959C53.804 93.3817 52.9026 93.5356 51.9351 93.5356C50.9676 93.5356 50.0661 93.3817 49.2966 93.0959C47.8894 92.5902 46.9219 91.6887 46.9219 90.6553C46.9219 90.4574 46.8779 89.2261 46.8779 88.7863V84.3888C46.8779 78.4081 50.0881 72.8453 55.2772 69.8549L66.381 63.4565C66.5129 63.3686 66.6668 63.3026 66.7988 63.2366C66.8427 63.2147 66.8647 63.1927 66.9087 63.1927C68.2939 62.665 70.3828 63.9402 71.68 66.227C72.9553 68.4697 73.0213 70.9103 71.8999 71.8558Z" fill="url(#paint64_linear_1876_6439)"/>
<path d="M71.8329 82.8055C71.8768 83.8829 71.1952 84.3887 70.2937 83.9049C69.3922 83.4432 68.6227 82.1899 68.5567 81.1125C68.5127 80.0351 69.1943 79.5294 70.0958 80.0131C70.9973 80.4748 71.7669 81.7281 71.8329 82.8055Z" fill="#20B0D3"/>
<path d="M67.2159 75.0871C67.8096 74.7353 68.5352 75.5708 68.843 75.8347C69.5246 76.4723 70.668 77.1979 71.7454 77.3298C72.6029 77.4398 73.2406 78.3193 73.4384 79.1548C73.5044 79.4406 73.5924 80.7599 74.6258 82.6948C74.9776 83.3544 76.2529 84.8496 75.3953 85.7291C75.1975 85.905 75.0655 85.839 74.7357 86.1029C73.6803 86.9604 73.7023 88.2137 73.5704 88.5215C73.3505 89.0712 72.8448 89.0492 72.3391 88.7194C71.9653 88.4556 70.8879 87.1583 69.2608 86.7185C68.821 86.5866 68.6451 86.6746 68.2713 86.4767C67.8756 86.2568 67.5457 85.883 67.3479 85.4872C66.8641 84.5857 67.2159 84.3439 66.4683 82.4969C65.6768 80.518 65.0392 80.2542 64.8852 79.2427C64.7973 78.759 64.9072 78.2973 65.369 78.1214C65.369 78.1214 65.369 78.1214 65.391 78.1214C65.5009 78.0774 65.5009 78.0774 65.5229 78.0774H65.5449C65.9406 77.9015 66.4903 77.3078 66.7542 76.5163C66.9081 75.8566 66.7982 75.3509 67.2159 75.0871ZM70.2722 83.9041C71.1737 84.3659 71.8773 83.8821 71.8114 82.8047C71.7674 81.7273 70.9758 80.4741 70.0743 80.0123C69.1728 79.5506 68.4692 80.0343 68.5352 81.1117C68.6012 82.1891 69.3707 83.4424 70.2722 83.9041Z" fill="url(#paint65_linear_1876_6439)"/>
<path d="M83.9044 77.7259C83.7065 74.6037 81.1339 71.7673 79.199 71.6133C78.6493 71.5474 79.4849 71.3935 67.3477 75.0434C68.2272 74.8455 68.601 76.0549 70.4479 76.9563C71.7012 77.572 71.9651 77.0883 72.7346 77.9018C73.5262 78.7373 73.3943 79.5069 73.6801 80.4744C74.3178 82.6072 75.1313 83.4647 75.4171 84.0584C75.681 84.6081 75.7909 85.2897 75.3732 85.7294C75.1753 85.9053 75.0433 85.8394 74.7135 86.1032C74.2738 86.455 73.966 86.9388 73.7901 87.4884C73.5702 88.1261 73.7021 88.4559 73.4163 88.7637C80.0346 82.6512 81.3318 81.4638 83.1128 80.0346C83.7725 79.5289 83.9484 78.5614 83.9044 77.7259Z" fill="url(#paint66_linear_1876_6439)"/>
<path d="M131.442 62.4882L126.517 66.2481L124.252 64.9288L129.177 61.1689L131.442 62.4882Z" fill="url(#paint67_linear_1876_6439)"/>
<path d="M127.418 69.2831L125.967 79.8592L123.702 78.5619L125.153 67.9639L127.418 69.2831Z" fill="url(#paint68_linear_1876_6439)"/>
<path d="M127.044 55.5844L122.867 57.981L120.624 56.6838L124.78 54.2871L127.044 55.5844Z" fill="url(#paint69_linear_1876_6439)"/>
<path d="M122.867 57.9809L123.746 72.097L121.482 70.7997L120.624 56.6836L122.867 57.9809Z" fill="url(#paint70_linear_1876_6439)"/>
<path d="M127.045 55.584L126.517 66.248L131.442 62.4881L126.011 79.8364L125.967 79.8584L127.419 69.2823L123.747 72.0967L122.867 57.9806L127.045 55.584Z" fill="url(#paint71_linear_1876_6439)"/>
<defs>
<linearGradient id="paint0_linear_1876_6439" x1="158.909" y1="92.441" x2="162.033" y2="92.441" gradientUnits="userSpaceOnUse">
<stop offset="0.0353535" stop-color="#FF9E6E"/>
<stop offset="0.3036" stop-color="#FFAD73"/>
<stop offset="0.821" stop-color="#FFD680"/>
<stop offset="1" stop-color="#FFE585"/>
</linearGradient>
<linearGradient id="paint1_linear_1876_6439" x1="142.302" y1="82.1006" x2="168.135" y2="76.3918" gradientUnits="userSpaceOnUse">
<stop offset="0.00505051" stop-color="#20B0D3"/>
<stop offset="0.56" stop-color="#24D4C3"/>
<stop offset="1" stop-color="#27F3B5"/>
</linearGradient>
<linearGradient id="paint2_linear_1876_6439" x1="34.7832" y1="86.5153" x2="37.9069" y2="86.5153" gradientUnits="userSpaceOnUse">
<stop offset="0.0353535" stop-color="#FF9E6E"/>
<stop offset="0.3036" stop-color="#FFAD73"/>
<stop offset="0.821" stop-color="#FFD680"/>
<stop offset="1" stop-color="#FFE585"/>
</linearGradient>
<linearGradient id="paint3_linear_1876_6439" x1="18.1763" y1="76.1744" x2="44.0088" y2="70.4655" gradientUnits="userSpaceOnUse">
<stop offset="0.00505051" stop-color="#20B0D3"/>
<stop offset="0.56" stop-color="#24D4C3"/>
<stop offset="1" stop-color="#27F3B5"/>
</linearGradient>
<linearGradient id="paint4_linear_1876_6439" x1="49.6658" y1="55.7968" x2="46.794" y2="60.7705" gradientUnits="userSpaceOnUse">
<stop offset="0.0353535" stop-color="#4DF4FF"/>
<stop offset="0.3036" stop-color="#52E5FF"/>
<stop offset="0.821" stop-color="#5DBCFF"/>
<stop offset="1" stop-color="#62ADFF"/>
</linearGradient>
<linearGradient id="paint5_linear_1876_6439" x1="90.716" y1="79.498" x2="87.8443" y2="84.4716" gradientUnits="userSpaceOnUse">
<stop offset="0.0353535" stop-color="#4DF4FF"/>
<stop offset="0.3036" stop-color="#52E5FF"/>
<stop offset="0.821" stop-color="#5DBCFF"/>
<stop offset="1" stop-color="#62ADFF"/>
</linearGradient>
<linearGradient id="paint6_linear_1876_6439" x1="145.07" y1="55.7968" x2="147.942" y2="60.7705" gradientUnits="userSpaceOnUse">
<stop offset="0.0353535" stop-color="#4DF4FF"/>
<stop offset="0.3036" stop-color="#52E5FF"/>
<stop offset="0.821" stop-color="#5DBCFF"/>
<stop offset="1" stop-color="#62ADFF"/>
</linearGradient>
<linearGradient id="paint7_linear_1876_6439" x1="134.809" y1="61.7227" x2="137.681" y2="66.6965" gradientUnits="userSpaceOnUse">
<stop offset="0.0353535" stop-color="#4DF4FF"/>
<stop offset="0.3036" stop-color="#52E5FF"/>
<stop offset="0.821" stop-color="#5DBCFF"/>
<stop offset="1" stop-color="#62ADFF"/>
</linearGradient>
<linearGradient id="paint8_linear_1876_6439" x1="114.283" y1="73.5735" x2="117.155" y2="78.5473" gradientUnits="userSpaceOnUse">
<stop offset="0.0353535" stop-color="#4DF4FF"/>
<stop offset="0.3036" stop-color="#52E5FF"/>
<stop offset="0.821" stop-color="#5DBCFF"/>
<stop offset="1" stop-color="#62ADFF"/>
</linearGradient>
<linearGradient id="paint9_linear_1876_6439" x1="104.02" y1="79.4979" x2="106.892" y2="84.4717" gradientUnits="userSpaceOnUse">
<stop offset="0.0353535" stop-color="#4DF4FF"/>
<stop offset="0.3036" stop-color="#52E5FF"/>
<stop offset="0.821" stop-color="#5DBCFF"/>
<stop offset="1" stop-color="#62ADFF"/>
</linearGradient>
<linearGradient id="paint10_linear_1876_6439" x1="145.07" y1="73.2877" x2="147.942" y2="78.2612" gradientUnits="userSpaceOnUse">
<stop offset="0.0353535" stop-color="#4DF4FF"/>
<stop offset="0.3036" stop-color="#52E5FF"/>
<stop offset="0.821" stop-color="#5DBCFF"/>
<stop offset="1" stop-color="#62ADFF"/>
</linearGradient>
<linearGradient id="paint11_linear_1876_6439" x1="134.809" y1="79.2123" x2="137.681" y2="84.1861" gradientUnits="userSpaceOnUse">
<stop offset="0.0353535" stop-color="#4DF4FF"/>
<stop offset="0.3036" stop-color="#52E5FF"/>
<stop offset="0.821" stop-color="#5DBCFF"/>
<stop offset="1" stop-color="#62ADFF"/>
</linearGradient>
<linearGradient id="paint12_linear_1876_6439" x1="124.545" y1="85.1382" x2="127.416" y2="90.1119" gradientUnits="userSpaceOnUse">
<stop offset="0.0353535" stop-color="#4DF4FF"/>
<stop offset="0.3036" stop-color="#52E5FF"/>
<stop offset="0.821" stop-color="#5DBCFF"/>
<stop offset="1" stop-color="#62ADFF"/>
</linearGradient>
<linearGradient id="paint13_linear_1876_6439" x1="114.283" y1="91.0617" x2="117.154" y2="96.0355" gradientUnits="userSpaceOnUse">
<stop offset="0.0353535" stop-color="#4DF4FF"/>
<stop offset="0.3036" stop-color="#52E5FF"/>
<stop offset="0.821" stop-color="#5DBCFF"/>
<stop offset="1" stop-color="#62ADFF"/>
</linearGradient>
<linearGradient id="paint14_linear_1876_6439" x1="104.02" y1="96.9886" x2="106.892" y2="101.962" gradientUnits="userSpaceOnUse">
<stop offset="0.0353535" stop-color="#4DF4FF"/>
<stop offset="0.3036" stop-color="#52E5FF"/>
<stop offset="0.821" stop-color="#5DBCFF"/>
<stop offset="1" stop-color="#62ADFF"/>
</linearGradient>
<linearGradient id="paint15_linear_1876_6439" x1="145.071" y1="90.777" x2="147.943" y2="95.7507" gradientUnits="userSpaceOnUse">
<stop offset="0.0353535" stop-color="#4DF4FF"/>
<stop offset="0.3036" stop-color="#52E5FF"/>
<stop offset="0.821" stop-color="#5DBCFF"/>
<stop offset="1" stop-color="#62ADFF"/>
</linearGradient>
<linearGradient id="paint16_linear_1876_6439" x1="104.02" y1="114.478" x2="106.892" y2="119.451" gradientUnits="userSpaceOnUse">
<stop offset="0.0353535" stop-color="#4DF4FF"/>
<stop offset="0.3036" stop-color="#52E5FF"/>
<stop offset="0.821" stop-color="#5DBCFF"/>
<stop offset="1" stop-color="#62ADFF"/>
</linearGradient>
<linearGradient id="paint17_linear_1876_6439" x1="49.6658" y1="73.2876" x2="46.7941" y2="78.2612" gradientUnits="userSpaceOnUse">
<stop offset="0.0353535" stop-color="#4DF4FF"/>
<stop offset="0.3036" stop-color="#52E5FF"/>
<stop offset="0.821" stop-color="#5DBCFF"/>
<stop offset="1" stop-color="#62ADFF"/>
</linearGradient>
<linearGradient id="paint18_linear_1876_6439" x1="59.9281" y1="79.2121" x2="57.0564" y2="84.1858" gradientUnits="userSpaceOnUse">
<stop offset="0.0353535" stop-color="#4DF4FF"/>
<stop offset="0.3036" stop-color="#52E5FF"/>
<stop offset="0.821" stop-color="#5DBCFF"/>
<stop offset="1" stop-color="#62ADFF"/>
</linearGradient>
<linearGradient id="paint19_linear_1876_6439" x1="70.1902" y1="85.138" x2="67.3185" y2="90.1116" gradientUnits="userSpaceOnUse">
<stop offset="0.0353535" stop-color="#4DF4FF"/>
<stop offset="0.3036" stop-color="#52E5FF"/>
<stop offset="0.821" stop-color="#5DBCFF"/>
<stop offset="1" stop-color="#62ADFF"/>
</linearGradient>
<linearGradient id="paint20_linear_1876_6439" x1="80.4541" y1="91.0615" x2="77.5824" y2="96.0352" gradientUnits="userSpaceOnUse">
<stop offset="0.0353535" stop-color="#4DF4FF"/>
<stop offset="0.3036" stop-color="#52E5FF"/>
<stop offset="0.821" stop-color="#5DBCFF"/>
<stop offset="1" stop-color="#62ADFF"/>
</linearGradient>
<linearGradient id="paint21_linear_1876_6439" x1="90.716" y1="96.9888" x2="87.8443" y2="101.962" gradientUnits="userSpaceOnUse">
<stop offset="0.0353535" stop-color="#4DF4FF"/>
<stop offset="0.3036" stop-color="#52E5FF"/>
<stop offset="0.821" stop-color="#5DBCFF"/>
<stop offset="1" stop-color="#62ADFF"/>
</linearGradient>
<linearGradient id="paint22_linear_1876_6439" x1="49.6658" y1="90.777" x2="46.794" y2="95.7508" gradientUnits="userSpaceOnUse">
<stop offset="0.0353535" stop-color="#4DF4FF"/>
<stop offset="0.3036" stop-color="#52E5FF"/>
<stop offset="0.821" stop-color="#5DBCFF"/>
<stop offset="1" stop-color="#62ADFF"/>
</linearGradient>
<linearGradient id="paint23_linear_1876_6439" x1="59.9281" y1="96.7029" x2="57.0565" y2="101.677" gradientUnits="userSpaceOnUse">
<stop offset="0.0353535" stop-color="#4DF4FF"/>
<stop offset="0.3036" stop-color="#52E5FF"/>
<stop offset="0.821" stop-color="#5DBCFF"/>
<stop offset="1" stop-color="#62ADFF"/>
</linearGradient>
<linearGradient id="paint24_linear_1876_6439" x1="70.1902" y1="102.627" x2="67.3184" y2="107.601" gradientUnits="userSpaceOnUse">
<stop offset="0.0353535" stop-color="#4DF4FF"/>
<stop offset="0.3036" stop-color="#52E5FF"/>
<stop offset="0.821" stop-color="#5DBCFF"/>
<stop offset="1" stop-color="#62ADFF"/>
</linearGradient>
<linearGradient id="paint25_linear_1876_6439" x1="80.4541" y1="108.553" x2="77.5824" y2="113.527" gradientUnits="userSpaceOnUse">
<stop offset="0.0353535" stop-color="#4DF4FF"/>
<stop offset="0.3036" stop-color="#52E5FF"/>
<stop offset="0.821" stop-color="#5DBCFF"/>
<stop offset="1" stop-color="#62ADFF"/>
</linearGradient>
<linearGradient id="paint26_linear_1876_6439" x1="90.716" y1="114.478" x2="87.8442" y2="119.451" gradientUnits="userSpaceOnUse">
<stop offset="0.0353535" stop-color="#4DF4FF"/>
<stop offset="0.3036" stop-color="#52E5FF"/>
<stop offset="0.821" stop-color="#5DBCFF"/>
<stop offset="1" stop-color="#62ADFF"/>
</linearGradient>
<linearGradient id="paint27_linear_1876_6439" x1="145.882" y1="108.741" x2="113.117" y2="108.741" gradientUnits="userSpaceOnUse">
<stop offset="0.0353535" stop-color="#4DF4FF"/>
<stop offset="0.3036" stop-color="#52E5FF"/>
<stop offset="0.821" stop-color="#5DBCFF"/>
<stop offset="1" stop-color="#62ADFF"/>
</linearGradient>
<linearGradient id="paint28_linear_1876_6439" x1="140.491" y1="125.498" x2="128.608" y2="107.383" gradientUnits="userSpaceOnUse">
<stop offset="0.0353535" stop-color="#4DF4FF"/>
<stop offset="0.3036" stop-color="#52E5FF"/>
<stop offset="0.821" stop-color="#5DBCFF"/>
<stop offset="1" stop-color="#62ADFF"/>
</linearGradient>
<linearGradient id="paint29_linear_1876_6439" x1="198.315" y1="72.904" x2="182.727" y2="104.731" gradientUnits="userSpaceOnUse">
<stop offset="0.0353535" stop-color="#4DF4FF"/>
<stop offset="0.3036" stop-color="#52E5FF"/>
<stop offset="0.821" stop-color="#5DBCFF"/>
<stop offset="1" stop-color="#62ADFF"/>
</linearGradient>
<linearGradient id="paint30_linear_1876_6439" x1="192.474" y1="65.985" x2="190.789" y2="68.2752" gradientUnits="userSpaceOnUse">
<stop offset="0.0353535" stop-color="#4DF4FF"/>
<stop offset="0.3036" stop-color="#52E5FF"/>
<stop offset="0.821" stop-color="#5DBCFF"/>
<stop offset="1" stop-color="#62ADFF"/>
</linearGradient>
<linearGradient id="paint31_linear_1876_6439" x1="226.451" y1="111.679" x2="184.905" y2="81.5036" gradientUnits="userSpaceOnUse">
<stop offset="0.0353535" stop-color="#4DF4FF"/>
<stop offset="0.3036" stop-color="#52E5FF"/>
<stop offset="0.821" stop-color="#5DBCFF"/>
<stop offset="1" stop-color="#62ADFF"/>
</linearGradient>
<linearGradient id="paint32_linear_1876_6439" x1="186.381" y1="76.1123" x2="185.619" y2="77.6675" gradientUnits="userSpaceOnUse">
<stop offset="0.0353535" stop-color="#4DF4FF"/>
<stop offset="0.3036" stop-color="#52E5FF"/>
<stop offset="0.821" stop-color="#5DBCFF"/>
<stop offset="1" stop-color="#62ADFF"/>
</linearGradient>
<linearGradient id="paint33_linear_1876_6439" x1="194.074" y1="70.0959" x2="184.837" y2="82.6484" gradientUnits="userSpaceOnUse">
<stop offset="0.0353535" stop-color="#4DF4FF"/>
<stop offset="0.3036" stop-color="#52E5FF"/>
<stop offset="0.821" stop-color="#5DBCFF"/>
<stop offset="1" stop-color="#62ADFF"/>
</linearGradient>
<linearGradient id="paint34_linear_1876_6439" x1="202.983" y1="80.4504" x2="191" y2="71.747" gradientUnits="userSpaceOnUse">
<stop offset="0.0353535" stop-color="#4DF4FF"/>
<stop offset="0.3036" stop-color="#52E5FF"/>
<stop offset="0.821" stop-color="#5DBCFF"/>
<stop offset="1" stop-color="#62ADFF"/>
</linearGradient>
<linearGradient id="paint35_linear_1876_6439" x1="186.381" y1="83.0913" x2="185.619" y2="84.6466" gradientUnits="userSpaceOnUse">
<stop offset="0.0353535" stop-color="#4DF4FF"/>
<stop offset="0.3036" stop-color="#52E5FF"/>
<stop offset="0.821" stop-color="#5DBCFF"/>
<stop offset="1" stop-color="#62ADFF"/>
</linearGradient>
<linearGradient id="paint36_linear_1876_6439" x1="194.074" y1="77.075" x2="184.837" y2="89.6274" gradientUnits="userSpaceOnUse">
<stop offset="0.0353535" stop-color="#4DF4FF"/>
<stop offset="0.3036" stop-color="#52E5FF"/>
<stop offset="0.821" stop-color="#5DBCFF"/>
<stop offset="1" stop-color="#62ADFF"/>
</linearGradient>
<linearGradient id="paint37_linear_1876_6439" x1="202.983" y1="87.4295" x2="191" y2="78.7261" gradientUnits="userSpaceOnUse">
<stop offset="0.0353535" stop-color="#4DF4FF"/>
<stop offset="0.3036" stop-color="#52E5FF"/>
<stop offset="0.821" stop-color="#5DBCFF"/>
<stop offset="1" stop-color="#62ADFF"/>
</linearGradient>
<linearGradient id="paint38_linear_1876_6439" x1="106.219" y1="126.075" x2="90.6307" y2="157.902" gradientUnits="userSpaceOnUse">
<stop offset="0.0353535" stop-color="#4DF4FF"/>
<stop offset="0.3036" stop-color="#52E5FF"/>
<stop offset="0.821" stop-color="#5DBCFF"/>
<stop offset="1" stop-color="#62ADFF"/>
</linearGradient>
<linearGradient id="paint39_linear_1876_6439" x1="100.378" y1="119.156" x2="98.693" y2="121.447" gradientUnits="userSpaceOnUse">
<stop offset="0.0353535" stop-color="#4DF4FF"/>
<stop offset="0.3036" stop-color="#52E5FF"/>
<stop offset="0.821" stop-color="#5DBCFF"/>
<stop offset="1" stop-color="#62ADFF"/>
</linearGradient>
<linearGradient id="paint40_linear_1876_6439" x1="134.355" y1="164.85" x2="92.8096" y2="134.675" gradientUnits="userSpaceOnUse">
<stop offset="0.0353535" stop-color="#4DF4FF"/>
<stop offset="0.3036" stop-color="#52E5FF"/>
<stop offset="0.821" stop-color="#5DBCFF"/>
<stop offset="1" stop-color="#62ADFF"/>
</linearGradient>
<linearGradient id="paint41_linear_1876_6439" x1="94.2848" y1="129.284" x2="93.5229" y2="130.839" gradientUnits="userSpaceOnUse">
<stop offset="0.0353535" stop-color="#4DF4FF"/>
<stop offset="0.3036" stop-color="#52E5FF"/>
<stop offset="0.821" stop-color="#5DBCFF"/>
<stop offset="1" stop-color="#62ADFF"/>
</linearGradient>
<linearGradient id="paint42_linear_1876_6439" x1="101.978" y1="123.267" x2="92.741" y2="135.82" gradientUnits="userSpaceOnUse">
<stop offset="0.0353535" stop-color="#4DF4FF"/>
<stop offset="0.3036" stop-color="#52E5FF"/>
<stop offset="0.821" stop-color="#5DBCFF"/>
<stop offset="1" stop-color="#62ADFF"/>
</linearGradient>
<linearGradient id="paint43_linear_1876_6439" x1="110.887" y1="133.622" x2="98.9042" y2="124.918" gradientUnits="userSpaceOnUse">
<stop offset="0.0353535" stop-color="#4DF4FF"/>
<stop offset="0.3036" stop-color="#52E5FF"/>
<stop offset="0.821" stop-color="#5DBCFF"/>
<stop offset="1" stop-color="#62ADFF"/>
</linearGradient>
<linearGradient id="paint44_linear_1876_6439" x1="94.2848" y1="136.262" x2="93.5229" y2="137.818" gradientUnits="userSpaceOnUse">
<stop offset="0.0353535" stop-color="#4DF4FF"/>
<stop offset="0.3036" stop-color="#52E5FF"/>
<stop offset="0.821" stop-color="#5DBCFF"/>
<stop offset="1" stop-color="#62ADFF"/>
</linearGradient>
<linearGradient id="paint45_linear_1876_6439" x1="101.978" y1="130.246" x2="92.7411" y2="142.799" gradientUnits="userSpaceOnUse">
<stop offset="0.0353535" stop-color="#4DF4FF"/>
<stop offset="0.3036" stop-color="#52E5FF"/>
<stop offset="0.821" stop-color="#5DBCFF"/>
<stop offset="1" stop-color="#62ADFF"/>
</linearGradient>
<linearGradient id="paint46_linear_1876_6439" x1="110.887" y1="140.601" x2="98.9042" y2="131.898" gradientUnits="userSpaceOnUse">
<stop offset="0.0353535" stop-color="#4DF4FF"/>
<stop offset="0.3036" stop-color="#52E5FF"/>
<stop offset="0.821" stop-color="#5DBCFF"/>
<stop offset="1" stop-color="#62ADFF"/>
</linearGradient>
<linearGradient id="paint47_linear_1876_6439" x1="73.5441" y1="70.4724" x2="85.8423" y2="51.249" gradientUnits="userSpaceOnUse">
<stop offset="0.0353535" stop-color="#4DF4FF"/>
<stop offset="0.3036" stop-color="#52E5FF"/>
<stop offset="0.821" stop-color="#5DBCFF"/>
<stop offset="1" stop-color="#62ADFF"/>
</linearGradient>
<linearGradient id="paint48_linear_1876_6439" x1="112.412" y1="55.8731" x2="100.711" y2="29.9633" gradientUnits="userSpaceOnUse">
<stop offset="0.0353535" stop-color="#4DF4FF"/>
<stop offset="0.3036" stop-color="#52E5FF"/>
<stop offset="0.821" stop-color="#5DBCFF"/>
<stop offset="1" stop-color="#62ADFF"/>
</linearGradient>
<linearGradient id="paint49_linear_1876_6439" x1="101.395" y1="36.3651" x2="61.754" y2="-11.5143" gradientUnits="userSpaceOnUse">
<stop offset="0.0353535" stop-color="#4DF4FF"/>
<stop offset="0.3036" stop-color="#52E5FF"/>
<stop offset="0.821" stop-color="#5DBCFF"/>
<stop offset="1" stop-color="#62ADFF"/>
</linearGradient>
<linearGradient id="paint50_linear_1876_6439" x1="73.1408" y1="38.0831" x2="87.4659" y2="39.4008" gradientUnits="userSpaceOnUse">
<stop offset="0.0353535" stop-color="#4DF4FF"/>
<stop offset="0.3036" stop-color="#52E5FF"/>
<stop offset="0.821" stop-color="#5DBCFF"/>
<stop offset="1" stop-color="#62ADFF"/>
</linearGradient>
<linearGradient id="paint51_linear_1876_6439" x1="63.3029" y1="30.621" x2="87.5752" y2="43.3959" gradientUnits="userSpaceOnUse">
<stop offset="0.0353535" stop-color="#4DF4FF"/>
<stop offset="0.3036" stop-color="#52E5FF"/>
<stop offset="0.821" stop-color="#5DBCFF"/>
<stop offset="1" stop-color="#62ADFF"/>
</linearGradient>
<linearGradient id="paint52_linear_1876_6439" x1="75.1024" y1="41.9111" x2="75.216" y2="41.9111" gradientUnits="userSpaceOnUse">
<stop offset="0.0353535" stop-color="#4DF4FF"/>
<stop offset="0.3036" stop-color="#52E5FF"/>
<stop offset="0.821" stop-color="#5DBCFF"/>
<stop offset="1" stop-color="#62ADFF"/>
</linearGradient>
<linearGradient id="paint53_linear_1876_6439" x1="88.2925" y1="29.3353" x2="102.618" y2="30.6531" gradientUnits="userSpaceOnUse">
<stop offset="0.0353535" stop-color="#4DF4FF"/>
<stop offset="0.3036" stop-color="#52E5FF"/>
<stop offset="0.821" stop-color="#5DBCFF"/>
<stop offset="1" stop-color="#62ADFF"/>
</linearGradient>
<linearGradient id="paint54_linear_1876_6439" x1="78.4546" y1="21.8733" x2="102.727" y2="34.6481" gradientUnits="userSpaceOnUse">
<stop offset="0.0353535" stop-color="#4DF4FF"/>
<stop offset="0.3036" stop-color="#52E5FF"/>
<stop offset="0.821" stop-color="#5DBCFF"/>
<stop offset="1" stop-color="#62ADFF"/>
</linearGradient>
<linearGradient id="paint55_linear_1876_6439" x1="90.2541" y1="33.1633" x2="90.3676" y2="33.1633" gradientUnits="userSpaceOnUse">
<stop offset="0.0353535" stop-color="#4DF4FF"/>
<stop offset="0.3036" stop-color="#52E5FF"/>
<stop offset="0.821" stop-color="#5DBCFF"/>
<stop offset="1" stop-color="#62ADFF"/>
</linearGradient>
<linearGradient id="paint56_linear_1876_6439" x1="103.444" y1="20.5876" x2="117.769" y2="21.9053" gradientUnits="userSpaceOnUse">
<stop offset="0.0353535" stop-color="#4DF4FF"/>
<stop offset="0.3036" stop-color="#52E5FF"/>
<stop offset="0.821" stop-color="#5DBCFF"/>
<stop offset="1" stop-color="#62ADFF"/>
</linearGradient>
<linearGradient id="paint57_linear_1876_6439" x1="93.6062" y1="13.1255" x2="117.878" y2="25.9004" gradientUnits="userSpaceOnUse">
<stop offset="0.0353535" stop-color="#4DF4FF"/>
<stop offset="0.3036" stop-color="#52E5FF"/>
<stop offset="0.821" stop-color="#5DBCFF"/>
<stop offset="1" stop-color="#62ADFF"/>
</linearGradient>
<linearGradient id="paint58_linear_1876_6439" x1="105.406" y1="24.4156" x2="105.519" y2="24.4156" gradientUnits="userSpaceOnUse">
<stop offset="0.0353535" stop-color="#4DF4FF"/>
<stop offset="0.3036" stop-color="#52E5FF"/>
<stop offset="0.821" stop-color="#5DBCFF"/>
<stop offset="1" stop-color="#62ADFF"/>
</linearGradient>
<linearGradient id="paint59_linear_1876_6439" x1="64.7092" y1="78.335" x2="34.3716" y2="108.673" gradientUnits="userSpaceOnUse">
<stop stop-color="#4DB1E5" stop-opacity="0.2"/>
<stop offset="0.2113" stop-color="#6CBEE9" stop-opacity="0.369"/>
<stop offset="0.6704" stop-color="#BBDEF3" stop-opacity="0.7363"/>
<stop offset="1" stop-color="#F7F6FB"/>
</linearGradient>
<linearGradient id="paint60_linear_1876_6439" x1="56.5932" y1="93.7626" x2="47.461" y2="93.7679" gradientUnits="userSpaceOnUse">
<stop offset="0.0353535" stop-color="#27F3B5"/>
<stop offset="0.3169" stop-color="#25E4BC"/>
<stop offset="0.8601" stop-color="#21BBCE"/>
<stop offset="1" stop-color="#20B0D3"/>
</linearGradient>
<linearGradient id="paint61_linear_1876_6439" x1="58.2846" y1="99.9411" x2="49.1402" y2="86.5695" gradientUnits="userSpaceOnUse">
<stop offset="0.0353535" stop-color="#27F3B5"/>
<stop offset="0.3169" stop-color="#25E4BC"/>
<stop offset="0.8601" stop-color="#21BBCE"/>
<stop offset="1" stop-color="#20B0D3"/>
</linearGradient>
<linearGradient id="paint62_linear_1876_6439" x1="55.8513" y1="63.8233" x2="41.5094" y2="76.0816" gradientUnits="userSpaceOnUse">
<stop offset="0.1347" stop-color="#83AFCD"/>
<stop offset="0.3936" stop-color="#A2C2D9"/>
<stop offset="0.9576" stop-color="#F1F2F9"/>
<stop offset="1" stop-color="#F7F6FB"/>
</linearGradient>
<linearGradient id="paint63_linear_1876_6439" x1="51.7344" y1="58.4383" x2="59.2847" y2="74.4344" gradientUnits="userSpaceOnUse">
<stop stop-color="#83AFCD"/>
<stop offset="0.1403" stop-color="#B4CDE0"/>
<stop offset="0.2672" stop-color="#D8E3EF"/>
<stop offset="0.3695" stop-color="#EFF1F8"/>
<stop offset="0.4347" stop-color="#F7F6FB"/>
<stop offset="0.5293" stop-color="#F2F3F9"/>
<stop offset="0.6379" stop-color="#E4EBF4"/>
<stop offset="0.7534" stop-color="#CDDDEA"/>
<stop offset="0.8737" stop-color="#ADC9DE"/>
<stop offset="0.9967" stop-color="#84B0CD"/>
<stop offset="1" stop-color="#83AFCD"/>
</linearGradient>
<linearGradient id="paint64_linear_1876_6439" x1="63.2599" y1="79.8402" x2="48.4173" y2="74.1089" gradientUnits="userSpaceOnUse">
<stop offset="0.0353535" stop-color="#27F3B5"/>
<stop offset="0.3169" stop-color="#25E4BC"/>
<stop offset="0.8601" stop-color="#21BBCE"/>
<stop offset="1" stop-color="#20B0D3"/>
</linearGradient>
<linearGradient id="paint65_linear_1876_6439" x1="77.1173" y1="76.1011" x2="62.7754" y2="88.3595" gradientUnits="userSpaceOnUse">
<stop offset="0.1347" stop-color="#83AFCD"/>
<stop offset="0.3936" stop-color="#A2C2D9"/>
<stop offset="0.9576" stop-color="#F1F2F9"/>
<stop offset="1" stop-color="#F7F6FB"/>
</linearGradient>
<linearGradient id="paint66_linear_1876_6439" x1="72.9999" y1="70.7166" x2="80.5503" y2="86.7128" gradientUnits="userSpaceOnUse">
<stop stop-color="#83AFCD"/>
<stop offset="0.1403" stop-color="#B4CDE0"/>
<stop offset="0.2672" stop-color="#D8E3EF"/>
<stop offset="0.3695" stop-color="#EFF1F8"/>
<stop offset="0.4347" stop-color="#F7F6FB"/>
<stop offset="0.5293" stop-color="#F2F3F9"/>
<stop offset="0.6379" stop-color="#E4EBF4"/>
<stop offset="0.7534" stop-color="#CDDDEA"/>
<stop offset="0.8737" stop-color="#ADC9DE"/>
<stop offset="0.9967" stop-color="#84B0CD"/>
<stop offset="1" stop-color="#83AFCD"/>
</linearGradient>
<linearGradient id="paint67_linear_1876_6439" x1="123.615" y1="62.2074" x2="130.689" y2="64.716" gradientUnits="userSpaceOnUse">
<stop offset="0.0353535" stop-color="#FF9E6E"/>
<stop offset="0.3036" stop-color="#FFAD73"/>
<stop offset="0.821" stop-color="#FFD680"/>
<stop offset="1" stop-color="#FFE585"/>
</linearGradient>
<linearGradient id="paint68_linear_1876_6439" x1="127.661" y1="71.8182" x2="122.193" y2="77.2868" gradientUnits="userSpaceOnUse">
<stop offset="0.0353535" stop-color="#FF9E6E"/>
<stop offset="0.3036" stop-color="#FFAD73"/>
<stop offset="0.821" stop-color="#FFD680"/>
<stop offset="1" stop-color="#FFE585"/>
</linearGradient>
<linearGradient id="paint69_linear_1876_6439" x1="118.997" y1="52.8458" x2="124.516" y2="56.6086" gradientUnits="userSpaceOnUse">
<stop offset="0.0353535" stop-color="#FF9E6E"/>
<stop offset="0.3036" stop-color="#FFAD73"/>
<stop offset="0.821" stop-color="#FFD680"/>
<stop offset="1" stop-color="#FFE585"/>
</linearGradient>
<linearGradient id="paint70_linear_1876_6439" x1="123.451" y1="64.2279" x2="120.39" y2="64.6293" gradientUnits="userSpaceOnUse">
<stop offset="0.0353535" stop-color="#FF9E6E"/>
<stop offset="0.3036" stop-color="#FFAD73"/>
<stop offset="0.821" stop-color="#FFD680"/>
<stop offset="1" stop-color="#FFE585"/>
</linearGradient>
<linearGradient id="paint71_linear_1876_6439" x1="126.905" y1="80.7307" x2="127.213" y2="56.1341" gradientUnits="userSpaceOnUse">
<stop offset="0.0353535" stop-color="#FF9E6E"/>
<stop offset="0.3036" stop-color="#FFAD73"/>
<stop offset="0.821" stop-color="#FFD680"/>
<stop offset="1" stop-color="#FFE585"/>
</linearGradient>
</defs>
</svg>
