<svg width="200" height="164" viewBox="0 0 200 164" fill="none" xmlns="http://www.w3.org/2000/svg">
<g clip-path="url(#clip0_1876_6850)">
<path d="M93.4051 162.068C97.8466 164.626 103.297 164.626 107.739 162.068L196.523 110.812C198.677 109.579 200 107.268 200 104.801V96.9047C200 94.4148 198.677 92.1268 196.523 90.8931L108.255 39.9285C106.348 38.8294 104.24 38.1564 102.109 37.9545C98.9457 37.6405 95.7156 38.291 92.8892 39.9285L2.91611 91.88C1.63751 92.6203 0.717811 93.7867 0.291611 95.1551C0.0897263 95.7158 0 96.2991 0 96.9047V104.801C0 106.864 1.09915 108.793 2.89367 109.825L93.4051 162.068Z" fill="#7DA9DA"/>
<path d="M196.523 90.893C198.677 92.1268 200 94.4372 200 96.9047C200 99.3946 198.677 101.683 196.523 102.916L107.739 154.173C103.297 156.73 97.8466 156.73 93.4051 154.173L2.91611 101.929C1.09915 100.897 0 98.9684 0 96.9047C0 96.299 0.0897263 95.7158 0.269179 95.155C0.695379 93.7867 1.63751 92.5978 2.89367 91.88L92.8892 39.9285C97.6447 37.1918 103.499 37.1918 108.255 39.9285L196.523 90.893Z" fill="white"/>
<path d="M77.7477 106.057L43.876 125.617L27.4785 116.151L61.3727 96.5908L77.7477 106.057Z" fill="#1169A6"/>
<path d="M55.6074 44.7061L106.348 74.0017V119.986L55.6074 90.6908V44.7061Z" fill="url(#paint0_linear_1876_6850)"/>
<path d="M106.348 74.0017L157.088 44.7061V90.6908L106.348 119.986V74.0017Z" fill="url(#paint1_linear_1876_6850)"/>
<path d="M55.6084 44.7058L106.349 15.4102L157.089 44.7058L106.349 74.0015L55.6084 44.7058Z" fill="url(#paint2_linear_1876_6850)"/>
<path d="M148.901 32.3917L106.349 7.8291V17.3177L148.901 41.8802V32.3917Z" fill="url(#paint3_linear_1876_6850)"/>
<path d="M106.349 7.8291L63.7959 32.3917V41.8802L106.349 17.3177V7.8291Z" fill="url(#paint4_linear_1876_6850)"/>
<path d="M50.2695 32.3916L106.348 64.7604V74.2489L50.2695 41.8802V32.3916Z" fill="url(#paint5_linear_1876_6850)"/>
<path d="M106.349 64.7604L162.428 32.3916V41.8802L106.349 74.2489V64.7604Z" fill="url(#paint6_linear_1876_6850)"/>
<path d="M106.348 0L50.2695 32.3912L106.348 64.7824L162.427 32.3912L106.348 0ZM63.7958 32.3912L106.348 7.82862L148.901 32.3912L106.348 56.9538L63.7958 32.3912Z" fill="url(#paint7_linear_1876_6850)"/>
<path d="M150.897 49.6631V76.0202L148.475 74.607V51.0763L150.897 49.6631Z" fill="url(#paint8_linear_1876_6850)"/>
<path d="M150.897 76.0206L116.128 96.0744V93.2705L148.474 74.6074L150.897 76.0206Z" fill="url(#paint9_linear_1876_6850)"/>
<path d="M148.474 51.0771V74.6079L116.128 93.271V69.7402L148.474 51.0771Z" fill="url(#paint10_linear_1876_6850)"/>
<path d="M79.9914 94.2351V95.1099L63.751 85.7335V55.249L67.3625 57.3352V86.9448L79.9914 94.2351Z" fill="url(#paint11_linear_1876_6850)"/>
<path d="M79.9913 64.6252V94.2349L67.3623 86.9447V57.335L79.9913 64.6252Z" fill="url(#paint12_linear_1876_6850)"/>
<path d="M114.647 95.1321L124.114 100.583L158.053 81.0002V79.1384L148.609 73.6875L114.647 93.2703V95.1321Z" fill="url(#paint13_linear_1876_6850)"/>
<path d="M158.053 79.1384L124.114 98.7436L114.647 93.2703L148.609 73.6875L158.053 79.1384Z" fill="url(#paint14_linear_1876_6850)"/>
<path d="M89.255 77.8823C88.8512 78.1066 88.6045 78.5328 88.6045 79.0039V98.6539C88.6045 98.8334 88.6942 98.9904 88.8512 99.0801L90.8477 100.224C91.0047 100.314 91.1841 100.314 91.3411 100.224L98.923 95.85C99.08 95.7603 99.1922 95.6481 99.3044 95.5135C99.439 95.3116 99.5287 95.0649 99.5287 94.8181V75.2802C99.5287 75.0783 99.4165 74.8765 99.2371 74.7867L97.2407 73.6427C97.0612 73.5306 96.8369 73.5306 96.6574 73.6427L89.255 77.8823Z" fill="url(#paint15_linear_1876_6850)"/>
<path d="M91.3418 100.225C91.1848 100.314 91.0053 100.314 90.8483 100.225C90.6913 100.135 90.6016 99.9779 90.6016 99.7985V80.1484C90.6016 79.6773 90.8483 79.2735 91.2521 79.0268L98.6545 74.7648C98.834 74.6526 99.0583 74.6526 99.2377 74.7648C99.4172 74.8769 99.5293 75.0564 99.5293 75.2583V94.7962C99.5293 95.2224 99.305 95.6262 98.9237 95.8281L91.3418 100.225Z" fill="url(#paint16_linear_1876_6850)"/>
<path d="M189.345 88.3356L84.3424 148.968L73.5977 142.755L178.6 82.1445L189.345 88.3356Z" fill="#1169A6"/>
<path d="M124.047 144.751L113.302 150.942L6.90918 89.5241L17.6539 83.3105L124.047 144.751Z" fill="#1169A6"/>
<path d="M79.9912 94.347L75.4825 96.9266L59.1074 87.4829L63.6162 84.8809L79.9912 94.347Z" fill="url(#paint17_linear_1876_6850)"/>
<path d="M75.4825 96.9271V100.404L59.1074 90.9603V87.4834L75.4825 96.9271Z" fill="url(#paint18_linear_1876_6850)"/>
<path d="M75.4824 100.404L70.9737 103.006L54.5986 93.562L59.1074 90.96L75.4824 100.404Z" fill="url(#paint19_linear_1876_6850)"/>
<path d="M70.9737 103.005V106.482L54.5986 97.016V93.5615L70.9737 103.005Z" fill="url(#paint20_linear_1876_6850)"/>
<path d="M70.9733 106.483L67.6534 108.412L51.2783 98.9682L54.5982 97.0166L70.9733 106.483Z" fill="url(#paint21_linear_1876_6850)"/>
<path d="M67.6534 108.411V111.888L51.2783 102.422V98.9678L67.6534 108.411Z" fill="url(#paint22_linear_1876_6850)"/>
<path d="M79.9907 94.3467V104.8L67.6533 111.888V108.411L70.9732 106.482V103.005L75.4819 100.403V96.9263L79.9907 94.3467Z" fill="url(#paint23_linear_1876_6850)"/>
<path d="M113.729 122.769L124.922 129.229V142.172L113.729 135.712V122.769Z" fill="#27A7B5"/>
<path d="M119.157 134.545C118.753 134.411 118.327 134.276 117.923 134.366C117.766 134.411 117.587 134.478 117.452 134.59C117.452 134.702 117.452 134.77 117.452 134.859C117.497 135.106 117.677 135.218 117.968 135.353C117.273 135.734 117.049 136.071 117.093 136.34C117.183 136.789 118.058 137.013 118.91 136.856H118.933C118.417 136.721 118.148 136.587 118.103 136.407C118.058 136.228 118.327 136.003 118.843 135.734C118.641 135.443 118.394 135.196 118.35 134.994C118.305 134.837 118.417 134.702 118.798 134.613C118.955 134.568 119.045 134.568 119.157 134.545Z" fill="#27F3B5"/>
<path d="M118.327 133.559C118.641 133.357 118.956 132.931 118.799 132.684C118.731 132.594 118.597 132.504 118.372 132.482C118.619 132.078 119.09 131.271 118.866 130.912C118.754 130.732 118.484 130.665 117.924 130.799C117.879 130.53 117.812 130.306 117.699 130.127C117.453 129.745 117.049 129.633 116.533 129.97C116.466 130.014 116.398 130.059 116.331 130.127C116.578 130.104 116.78 130.104 117.004 130.239C117.094 130.598 116.982 130.822 116.959 131.158C117.363 131.293 117.834 131.158 118.148 131.472C118.126 131.809 117.946 131.988 117.834 132.28C117.991 132.459 118.238 132.661 118.395 132.886C118.484 133.088 118.529 133.312 118.327 133.559Z" fill="#27F3B5"/>
<path d="M124.922 142.171V129.228L178.062 98.542V111.485L124.922 142.171Z" fill="#27F3B5"/>
<path d="M173.688 101.458C173.351 101.705 173.015 102.019 172.88 102.4C172.813 102.557 172.791 102.737 172.813 102.916C172.903 102.983 172.97 103.028 173.037 103.051C173.262 103.14 173.464 103.051 173.733 102.871C173.688 103.656 173.845 104.038 174.092 104.127C174.518 104.284 175.191 103.679 175.482 102.871V102.849C175.101 103.208 174.832 103.365 174.653 103.297C174.473 103.23 174.428 102.894 174.495 102.31C174.159 102.333 173.8 102.4 173.621 102.333C173.464 102.266 173.419 102.109 173.553 101.75C173.576 101.637 173.621 101.548 173.688 101.458Z" fill="#97F9DB"/>
<path d="M133.985 130.193C133.962 129.924 133.895 129.61 133.76 129.341C133.446 128.668 132.818 128.152 131.988 128.444C132.751 128.758 133.514 129.161 133.873 129.947C133.917 130.036 133.94 130.104 133.985 130.193Z" fill="#97F9DB"/>
<path d="M131.023 134.343C130.888 134.747 130.754 135.173 130.844 135.577C130.888 135.734 130.956 135.913 131.068 136.048C131.18 136.048 131.247 136.048 131.337 136.048C131.584 136.003 131.696 135.823 131.83 135.532C132.212 136.227 132.548 136.451 132.817 136.407C133.266 136.317 133.49 135.442 133.311 134.59V134.567C133.176 135.083 133.042 135.352 132.862 135.397C132.683 135.442 132.459 135.173 132.189 134.657C131.92 134.859 131.651 135.105 131.449 135.15C131.292 135.195 131.158 135.083 131.068 134.702C131.045 134.567 131.045 134.477 131.023 134.343Z" fill="#97F9DB"/>
<path d="M157.403 113.885C157.179 113.705 156.909 113.548 156.64 113.459C155.922 113.234 155.115 113.324 154.778 114.132C155.541 113.795 156.349 113.526 157.156 113.795C157.223 113.818 157.313 113.863 157.403 113.885Z" fill="#97F9DB"/>
<path d="M152.692 118.439C152.648 118.17 152.535 117.878 152.378 117.632C151.975 117.003 151.302 116.555 150.517 116.959C151.324 117.183 152.109 117.497 152.58 118.215C152.603 118.282 152.648 118.349 152.692 118.439Z" fill="#97F9DB"/>
<path d="M163.998 115.321C164.088 115.546 164.2 115.725 164.335 115.86C164.671 116.196 165.142 116.263 165.703 116.151C165.613 115.972 165.501 115.837 165.389 115.703C165.052 115.344 164.559 115.187 163.998 115.321Z" fill="#97F9DB"/>
<path d="M128.22 129.475C127.793 129.475 127.345 129.519 127.008 129.744C126.874 129.834 126.739 129.968 126.649 130.125C126.672 130.215 126.717 130.305 126.762 130.372C126.896 130.574 127.098 130.619 127.435 130.641C126.919 131.247 126.829 131.65 126.986 131.875C127.233 132.256 128.13 132.166 128.87 131.695C128.87 131.695 128.893 131.695 128.893 131.673C128.354 131.74 128.063 131.695 127.95 131.561C127.838 131.404 127.995 131.09 128.399 130.663C128.107 130.484 127.793 130.327 127.681 130.148C127.592 130.013 127.636 129.856 127.973 129.632C128.04 129.564 128.13 129.519 128.22 129.475Z" fill="#97F9DB"/>
<path d="M146.546 120.457C146.456 120.053 146.322 119.627 146.03 119.336C145.918 119.223 145.761 119.111 145.582 119.066C145.492 119.111 145.425 119.156 145.357 119.223C145.178 119.403 145.178 119.605 145.245 119.919C144.55 119.537 144.146 119.537 143.944 119.739C143.63 120.053 143.899 120.906 144.527 121.534C144.527 121.534 144.527 121.534 144.55 121.556C144.37 121.04 144.348 120.749 144.46 120.614C144.595 120.48 144.931 120.569 145.425 120.861C145.559 120.547 145.626 120.188 145.761 120.053C145.873 119.941 146.053 119.941 146.322 120.233C146.412 120.3 146.479 120.367 146.546 120.457Z" fill="#97F9DB"/>
<path d="M176.851 108.524C176.649 108.39 176.447 108.3 176.268 108.277C175.797 108.21 175.393 108.434 174.989 108.861C175.169 108.95 175.326 108.995 175.505 109.04C176.021 109.13 176.492 108.95 176.851 108.524Z" fill="#97F9DB"/>
<path d="M138.134 133.086C138.268 132.885 138.358 132.683 138.403 132.503C138.493 132.032 138.268 131.628 137.865 131.202C137.775 131.382 137.708 131.539 137.685 131.718C137.573 132.212 137.708 132.705 138.134 133.086Z" fill="#97F9DB"/>
<path d="M167.318 107.11C167.094 107.2 166.982 107.357 166.869 107.581C167.049 108.008 167.43 108.142 167.834 108.142C168.126 108.142 168.417 108.075 168.686 108.008C168.35 108.322 168.126 108.636 168.126 108.927C168.126 109.174 168.305 109.398 168.798 109.578C168.529 109.735 168.215 109.825 167.946 109.825C167.52 109.825 167.183 109.623 167.183 109.196C167.183 109.062 167.228 108.882 167.296 108.703C166.982 108.591 166.645 108.546 166.331 108.389C166.286 108.277 166.286 108.165 166.286 108.075C166.286 107.559 166.78 107.267 167.318 107.11Z" fill="#97F9DB"/>
<path d="M146.681 125.572C146.905 125.684 147.107 125.729 147.286 125.752C147.757 125.774 148.139 125.505 148.498 125.012C148.318 124.944 148.139 124.899 147.959 124.899C147.466 124.899 146.995 125.101 146.681 125.572Z" fill="#97F9DB"/>
<path d="M138.268 125.998C138.605 125.751 138.964 125.482 139.121 125.101C139.188 124.944 139.21 124.764 139.21 124.585C139.143 124.517 139.053 124.473 138.986 124.45C138.762 124.36 138.56 124.428 138.291 124.607C138.38 123.822 138.223 123.441 137.977 123.329C137.55 123.149 136.877 123.732 136.519 124.54V124.562C136.922 124.203 137.192 124.069 137.349 124.136C137.528 124.203 137.55 124.54 137.461 125.123C137.797 125.123 138.156 125.056 138.336 125.145C138.493 125.213 138.537 125.37 138.38 125.729C138.38 125.796 138.336 125.886 138.268 125.998Z" fill="#97F9DB"/>
<path d="M126.425 137.214C126.515 137.394 126.627 137.618 126.739 137.82C126.986 138.224 127.434 138.583 127.771 138.381C128.152 138.157 128.04 137.237 127.905 136.9C127.838 137.237 127.703 137.439 127.524 137.551C127.232 137.708 126.829 137.573 126.425 137.214Z" fill="#97F9DB"/>
<path d="M160.611 119.763C160.409 119.561 160.162 119.381 159.893 119.247C159.22 118.933 158.412 118.933 157.964 119.673C158.771 119.426 159.601 119.247 160.364 119.628C160.454 119.673 160.543 119.718 160.611 119.763Z" fill="#97F9DB"/>
<path d="M142.934 126.491C142.732 126.626 142.575 126.783 142.485 126.94C142.239 127.344 142.284 127.815 142.53 128.353C142.687 128.218 142.799 128.084 142.889 127.949C143.158 127.501 143.203 126.985 142.934 126.491Z" fill="#97F9DB"/>
<path d="M153.366 125.079C153.567 124.944 153.657 124.765 153.702 124.541C153.433 124.159 153.029 124.114 152.625 124.182C152.356 124.249 152.065 124.361 151.818 124.496C152.065 124.114 152.244 123.755 152.177 123.486C152.132 123.24 151.885 123.06 151.392 122.993C151.616 122.768 151.908 122.634 152.177 122.567C152.58 122.477 152.962 122.611 153.052 123.015C153.074 123.15 153.074 123.329 153.029 123.531C153.366 123.576 153.702 123.554 154.039 123.621C154.106 123.733 154.128 123.823 154.151 123.913C154.285 124.406 153.882 124.787 153.366 125.079Z" fill="#97F9DB"/>
<path d="M171.311 111.731C171.131 111.911 171.019 112.068 170.952 112.247C170.772 112.696 170.907 113.145 171.243 113.616C171.356 113.459 171.468 113.302 171.535 113.145C171.715 112.696 171.647 112.18 171.311 111.731Z" fill="#97F9DB"/>
<path d="M161.508 113.235C161.867 113.1 162.226 112.741 162.114 112.45C162.069 112.338 161.957 112.248 161.732 112.181C162.046 111.822 162.652 111.126 162.473 110.723C162.383 110.521 162.136 110.408 161.575 110.453C161.575 110.184 161.553 109.937 161.463 109.758C161.284 109.332 160.902 109.152 160.342 109.399C160.274 109.421 160.184 109.466 160.117 109.511C160.364 109.534 160.566 109.579 160.768 109.736C160.79 110.094 160.633 110.319 160.566 110.633C160.947 110.835 161.418 110.79 161.665 111.149C161.598 111.485 161.373 111.62 161.216 111.911C161.351 112.113 161.553 112.36 161.665 112.607C161.732 112.809 161.732 113.033 161.508 113.235Z" fill="#97F9DB"/>
<path d="M178.062 98.5423L124.922 129.229L113.729 122.768L166.869 92.082L178.062 98.5423Z" fill="#97F9DB"/>
<path d="M139.48 113.033C139.099 113.078 138.65 113.325 138.673 113.616C138.695 113.729 138.785 113.863 138.987 113.975C138.583 114.245 137.82 114.76 137.865 115.187C137.888 115.389 138.112 115.568 138.673 115.68C138.583 115.949 138.561 116.174 138.583 116.398C138.628 116.847 138.964 117.116 139.57 117.048C139.66 117.048 139.727 117.026 139.817 117.004C139.592 116.914 139.391 116.824 139.256 116.622C139.346 116.263 139.548 116.106 139.705 115.815C139.391 115.523 138.919 115.433 138.785 115.03C138.942 114.738 139.189 114.648 139.413 114.424C139.346 114.2 139.211 113.908 139.166 113.639C139.144 113.392 139.211 113.168 139.48 113.033Z" fill="#27F3B5"/>
<path d="M144.954 107.739C144.617 107.986 144.281 108.3 144.146 108.681C144.079 108.838 144.056 109.018 144.079 109.197C144.168 109.265 144.236 109.309 144.303 109.332C144.527 109.422 144.729 109.332 144.998 109.152C144.954 109.938 145.111 110.319 145.38 110.409C145.806 110.566 146.456 109.96 146.771 109.13V109.108C146.389 109.489 146.12 109.624 145.963 109.579C145.784 109.511 145.739 109.175 145.784 108.592C145.447 108.614 145.088 108.681 144.909 108.614C144.752 108.547 144.684 108.39 144.819 108.031C144.864 107.919 144.886 107.829 144.954 107.739Z" fill="#27F3B5"/>
<path d="M165.164 99.485C165.276 99.2607 165.321 99.0588 165.321 98.8569C165.321 98.3858 165.03 98.0045 164.536 97.6904C164.469 97.8699 164.446 98.0493 164.446 98.2288C164.446 98.7447 164.693 99.1934 165.164 99.485Z" fill="#27F3B5"/>
<path d="M152.714 110.296C152.871 110.117 152.984 109.915 153.028 109.736C153.163 109.287 152.983 108.838 152.602 108.39C152.49 108.547 152.423 108.704 152.355 108.883C152.221 109.377 152.333 109.87 152.714 110.296Z" fill="#27F3B5"/>
<path d="M132.638 121.041C132.683 120.66 132.571 120.166 132.28 120.122C132.167 120.099 132.01 120.166 131.853 120.323C131.696 119.875 131.405 119 130.979 118.933C130.777 118.91 130.53 119.067 130.283 119.561C130.059 119.404 129.835 119.314 129.633 119.292C129.184 119.224 128.848 119.471 128.758 120.077C128.735 120.166 128.735 120.234 128.735 120.346C128.892 120.144 129.027 119.987 129.274 119.897C129.588 120.077 129.7 120.301 129.947 120.548C130.306 120.323 130.507 119.897 130.956 119.852C131.203 120.077 131.225 120.346 131.382 120.615C131.629 120.615 131.943 120.548 132.19 120.593C132.392 120.615 132.571 120.727 132.638 121.041Z" fill="#27F3B5"/>
<path d="M170.391 96.8154C170.368 97.1968 170.548 97.6903 170.839 97.6903C170.951 97.6903 171.086 97.623 171.243 97.4435C171.445 97.8697 171.826 98.7221 172.252 98.7445C172.454 98.7445 172.679 98.5651 172.88 98.0492C173.127 98.1838 173.352 98.251 173.553 98.251C174.002 98.2735 174.339 98.0043 174.361 97.3762C174.361 97.2865 174.361 97.1968 174.361 97.107C174.226 97.3314 174.114 97.4884 173.89 97.6005C173.553 97.4659 173.419 97.2416 173.15 97.0397C172.813 97.2865 172.656 97.7576 172.208 97.8248C171.938 97.623 171.893 97.3762 171.714 97.107C171.467 97.1295 171.176 97.2192 170.906 97.2192C170.682 97.1968 170.48 97.107 170.391 96.8154Z" fill="#27F3B5"/>
<path d="M161.934 99.3955C161.665 99.4404 161.373 99.5301 161.104 99.6647C160.454 100.024 159.96 100.674 160.319 101.482C160.588 100.697 160.947 99.9114 161.687 99.5077C161.755 99.4628 161.844 99.4179 161.934 99.3955Z" fill="#27F3B5"/>
<path d="M123.038 120.974C122.858 120.884 122.634 120.772 122.41 120.682C121.961 120.525 121.4 120.525 121.266 120.884C121.109 121.31 121.782 121.961 122.096 122.14C121.939 121.826 121.916 121.579 121.983 121.4C122.096 121.086 122.499 120.951 123.038 120.974Z" fill="#27F3B5"/>
<path d="M158.726 104.061C158.591 103.904 158.457 103.702 158.3 103.523C157.963 103.164 157.47 102.917 157.178 103.186C156.842 103.478 157.156 104.375 157.335 104.667C157.335 104.33 157.425 104.106 157.582 103.971C157.829 103.725 158.255 103.792 158.726 104.061Z" fill="#27F3B5"/>
<path d="M83.5351 121.579L72.3193 128.039V140.982L83.5351 134.522V121.579Z" fill="#27F3B5"/>
<path d="M81.9642 125.684C81.8744 125.459 81.7398 125.325 81.538 125.213C81.0893 125.347 80.9323 125.728 80.9099 126.132C80.8874 126.424 80.9323 126.715 80.9772 126.985C80.6856 126.626 80.394 126.379 80.1023 126.357C79.8556 126.334 79.6088 126.514 79.407 126.985C79.2499 126.715 79.2051 126.401 79.2051 126.11C79.2275 125.684 79.4743 125.347 79.9005 125.392C80.035 125.392 80.1921 125.459 80.3939 125.549C80.5285 125.235 80.5958 124.921 80.7753 124.607C80.8874 124.584 80.9996 124.562 81.0893 124.584C81.6053 124.629 81.852 125.123 81.9642 125.684Z" fill="#97F9DB"/>
<path d="M76.7605 130.17C76.5137 130.103 76.3119 130.081 76.1324 130.103C75.6613 130.17 75.3473 130.507 75.0781 131.045C75.2576 131.068 75.4595 131.09 75.6165 131.068C76.1324 131 76.5362 130.709 76.7605 130.17Z" fill="#97F9DB"/>
<path d="M81.2695 132.548C81.0227 132.593 80.8208 132.66 80.6638 132.772C80.26 133.041 80.1254 133.49 80.1479 134.073C80.3273 134.028 80.5068 133.939 80.6414 133.849C81.0676 133.58 81.3143 133.109 81.2695 132.548Z" fill="#97F9DB"/>
<path d="M76.0426 135.733C75.7734 135.846 75.5267 136.003 75.3024 136.204C74.764 136.72 74.45 137.461 74.9883 138.156C75.0556 137.326 75.2127 136.474 75.8183 135.89C75.908 135.846 75.9753 135.801 76.0426 135.733Z" fill="#97F9DB"/>
<path d="M72.3195 140.982V128.039L47.8018 113.885V126.828L72.3195 140.982Z" fill="#27A7B5"/>
<path d="M50.8525 119.022C51.1217 118.977 51.4133 118.842 51.6601 118.685C52.2882 118.281 52.7368 117.586 52.3106 116.823C52.0863 117.631 51.7947 118.438 51.0769 118.887C51.0096 118.932 50.9198 118.977 50.8525 119.022Z" fill="#27F3B5"/>
<path d="M65.5451 128.308C65.5226 128.061 65.4778 127.859 65.388 127.68C65.1637 127.254 64.7375 127.074 64.1543 127.029C64.1992 127.209 64.244 127.388 64.3337 127.545C64.5581 127.994 64.9843 128.263 65.5451 128.308Z" fill="#27F3B5"/>
<path d="M67.2281 135.172C67.3627 134.97 67.3851 134.768 67.3627 134.544C66.9813 134.275 66.6 134.365 66.2411 134.589C65.9943 134.746 65.7924 134.948 65.5906 135.172C65.7027 134.723 65.7251 134.342 65.5681 134.095C65.4335 133.894 65.1419 133.804 64.6484 133.894C64.783 133.602 64.9849 133.378 65.2317 133.221C65.5906 132.996 65.9943 132.974 66.2186 133.333C66.2859 133.445 66.3532 133.602 66.3757 133.826C66.7121 133.736 67.0037 133.624 67.3627 133.579C67.4524 133.647 67.5197 133.736 67.587 133.826C67.8561 134.23 67.6094 134.723 67.2281 135.172Z" fill="#27F3B5"/>
<path d="M51.9072 127.388C52.0642 127.568 52.2437 127.702 52.4007 127.792C52.8269 127.994 53.298 127.882 53.7915 127.568C53.6569 127.433 53.4999 127.343 53.3429 127.254C52.8942 127.029 52.3783 127.052 51.9072 127.388Z" fill="#27F3B5"/>
<path d="M56.7969 124.741C56.8193 125.168 56.8642 125.616 57.0885 125.953C57.1782 126.087 57.3128 126.222 57.4698 126.312C57.5596 126.289 57.6493 126.244 57.7166 126.199C57.9185 126.065 57.9633 125.84 57.9633 125.526C58.569 126.02 58.9727 126.11 59.1971 125.953C59.5784 125.706 59.4662 124.809 58.9727 124.091C58.9727 124.091 58.9727 124.068 58.9503 124.068C59.0176 124.607 58.9952 124.898 58.8382 125.01C58.6811 125.123 58.3671 124.966 57.9409 124.562C57.7614 124.853 57.6044 125.168 57.4474 125.28C57.3128 125.369 57.1558 125.325 56.9315 125.01C56.909 124.921 56.8642 124.831 56.7969 124.741Z" fill="#27F3B5"/>
<path d="M47.8018 113.885L72.3195 128.039L83.5353 121.579L59.0176 107.425L47.8018 113.885Z" fill="#97F9DB"/>
<path d="M77.9047 123.845C77.9271 123.598 77.8822 123.396 77.8374 123.217C77.6803 122.768 77.2766 122.521 76.6934 122.387C76.6934 122.589 76.7382 122.768 76.8055 122.925C76.9625 123.396 77.3214 123.733 77.9047 123.845Z" fill="#27F3B5"/>
<path d="M64.0644 116.33C63.9074 115.994 63.526 115.635 63.2569 115.747C63.1447 115.792 63.055 115.927 62.9877 116.151C62.6063 115.859 61.8885 115.276 61.5072 115.456C61.3278 115.545 61.2156 115.814 61.2605 116.375C60.9913 116.375 60.7445 116.42 60.5651 116.51C60.1613 116.689 59.9819 117.093 60.251 117.654C60.2959 117.721 60.3183 117.811 60.3856 117.878C60.4081 117.631 60.4305 117.429 60.5875 117.228C60.9464 117.205 61.1707 117.34 61.5072 117.407C61.6867 117.026 61.6194 116.555 61.9783 116.285C62.3147 116.353 62.4718 116.555 62.7409 116.712C62.9428 116.577 63.1671 116.353 63.4139 116.241C63.6382 116.106 63.8625 116.106 64.0644 116.33Z" fill="#27F3B5"/>
<path d="M52.9162 115.635C53.1405 115.68 53.3424 115.635 53.5443 115.5C53.6564 115.052 53.4097 114.715 53.0732 114.468C52.8489 114.311 52.5573 114.177 52.3105 114.087C52.7592 114.02 53.1405 113.885 53.2975 113.661C53.4321 113.459 53.4097 113.167 53.1181 112.741C53.4321 112.764 53.7237 112.853 53.9481 113.033C54.2845 113.28 54.464 113.638 54.2172 113.997C54.1275 114.11 54.0154 114.222 53.8359 114.334C54.0378 114.603 54.2621 114.85 54.4416 115.141C54.3967 115.254 54.3518 115.343 54.307 115.433C54.0154 115.859 53.4546 115.814 52.9162 115.635Z" fill="#27F3B5"/>
<path d="M69.0441 118.977C68.7973 118.977 68.6179 119.067 68.4609 119.246C68.4609 119.717 68.7525 119.986 69.1338 120.143C69.403 120.255 69.6946 120.3 69.9638 120.345C69.5376 120.525 69.2011 120.704 69.0889 120.973C68.9992 121.198 69.0889 121.489 69.4478 121.826C69.1338 121.87 68.8198 121.848 68.573 121.736C68.1917 121.579 67.9449 121.242 68.102 120.861C68.1468 120.726 68.259 120.592 68.416 120.457C68.1692 120.233 67.8776 120.053 67.6533 119.807C67.6533 119.695 67.6982 119.582 67.7206 119.493C67.9225 118.977 68.4833 118.91 69.0441 118.977Z" fill="#27F3B5"/>
<path d="M37.1689 94.8184L25.9756 101.279V114.222L37.1689 107.761V94.8184Z" fill="#27F3B5"/>
<path d="M35.6204 98.9229C35.5307 98.6986 35.3961 98.564 35.1942 98.4518C34.7456 98.5864 34.5886 98.9677 34.5661 99.3715C34.5437 99.6631 34.5886 99.9547 34.6334 100.224C34.3418 99.865 34.0502 99.6183 33.7586 99.5958C33.5118 99.5734 33.2651 99.7528 33.0632 100.224C32.9062 99.9547 32.8613 99.6407 32.8613 99.3491C32.8838 98.9229 33.1305 98.5864 33.5567 98.6313C33.6913 98.6313 33.8483 98.6986 34.0502 98.7883C34.1848 98.4743 34.2521 98.1602 34.4315 97.8462C34.5437 97.8237 34.6559 97.8013 34.7456 97.8237C35.2391 97.8686 35.4858 98.3621 35.6204 98.9229Z" fill="#97F9DB"/>
<path d="M30.3943 103.41C30.1475 103.342 29.9456 103.32 29.7662 103.342C29.2951 103.41 28.9811 103.746 28.7119 104.284C28.8914 104.307 29.0932 104.329 29.2503 104.307C29.7662 104.24 30.17 103.948 30.3943 103.41Z" fill="#97F9DB"/>
<path d="M34.9257 105.787C34.679 105.832 34.4771 105.899 34.32 106.011C33.9163 106.281 33.7817 106.729 33.8041 107.312C33.9836 107.268 34.163 107.178 34.2976 107.088C34.7238 106.797 34.9481 106.348 34.9257 105.787Z" fill="#97F9DB"/>
<path d="M29.6989 108.973C29.4297 109.085 29.183 109.242 28.9586 109.444C28.4203 109.96 28.1062 110.7 28.6446 111.395C28.7119 110.565 28.8689 109.713 29.4746 109.13C29.5643 109.085 29.6316 109.04 29.6989 108.973Z" fill="#97F9DB"/>
<path d="M25.9757 114.222V101.279L4.41895 88.8291V101.772L25.9757 114.222Z" fill="#27A7B5"/>
<path d="M7.47002 91.0049C7.20084 91.2741 6.97652 91.7451 7.17841 91.947C7.26813 92.0367 7.40272 92.0816 7.64947 92.0592C7.49245 92.5078 7.20084 93.3827 7.49245 93.6967C7.62704 93.8537 7.91865 93.8537 8.43458 93.6294C8.5243 93.8986 8.65889 94.1005 8.79348 94.2575C9.10752 94.594 9.53372 94.6164 9.98236 94.1902C10.0496 94.1229 10.0945 94.078 10.1618 93.9883C9.91506 94.0556 9.71318 94.1005 9.46643 94.0107C9.30941 93.6743 9.3767 93.4275 9.33184 93.091C8.90564 93.0462 8.47944 93.2705 8.12053 93.0237C8.07567 92.6873 8.21026 92.4854 8.25512 92.1489C8.05324 92.0143 7.78406 91.8573 7.60461 91.6778C7.40272 91.476 7.313 91.2741 7.47002 91.0049Z" fill="#27F3B5"/>
<path d="M13.459 103.342C13.5038 103.611 13.5936 103.903 13.7282 104.172C14.0871 104.822 14.7376 105.316 15.5451 104.957C14.76 104.688 13.9749 104.329 13.5711 103.566C13.5487 103.499 13.5038 103.432 13.459 103.342Z" fill="#27F3B5"/>
<path d="M20.5479 108.815C20.9741 108.793 21.4227 108.725 21.7367 108.501C21.8713 108.411 21.9835 108.277 22.0732 108.097C22.0508 108.008 22.0059 107.918 21.961 107.851C21.8265 107.649 21.6021 107.604 21.2881 107.626C21.7592 106.998 21.8489 106.594 21.6919 106.37C21.4227 106.011 20.5479 106.123 19.83 106.639C19.83 106.639 19.8076 106.639 19.8076 106.662C20.346 106.572 20.6376 106.594 20.7497 106.729C20.8619 106.886 20.7273 107.2 20.3235 107.649C20.6152 107.828 20.9516 107.963 21.0638 108.12C21.1535 108.254 21.1086 108.411 20.7946 108.636C20.7273 108.703 20.66 108.748 20.5479 108.815Z" fill="#27F3B5"/>
<path d="M7.76172 100.18C7.94117 100.359 8.12062 100.471 8.30008 100.538C8.74871 100.695 9.19734 100.561 9.6684 100.202C9.51138 100.09 9.35436 100 9.19734 99.9327C8.70385 99.7533 8.21035 99.8206 7.76172 100.18Z" fill="#27F3B5"/>
<path d="M20.8843 99.5742C20.6599 99.4172 20.3683 99.2826 20.0767 99.2153C19.3589 99.0358 18.5514 99.1704 18.2598 100C19 99.619 19.7851 99.2826 20.6151 99.4845C20.7272 99.5293 20.817 99.5517 20.8843 99.5742Z" fill="#27F3B5"/>
<path d="M4.41895 88.8294L25.9757 101.279L37.1691 94.8187L15.6123 82.3691L4.41895 88.8294Z" fill="#97F9DB"/>
<path d="M23.307 94.5713C23.3294 94.3246 23.2846 94.1227 23.2397 93.9432C23.0827 93.4946 22.6789 93.2479 22.0957 93.1133C22.0957 93.3152 22.1406 93.4946 22.2079 93.6516C22.3873 94.1227 22.7462 94.4592 23.307 94.5713Z" fill="#27F3B5"/>
<path d="M19.5156 89.3001C19.3586 88.9636 18.9772 88.6047 18.708 88.7168C18.5959 88.7617 18.5062 88.8963 18.4389 89.1206C18.0575 88.829 17.3397 88.2458 16.9584 88.4252C16.7789 88.515 16.6668 88.7841 16.7116 89.3449C16.4425 89.3449 16.1957 89.3898 16.0163 89.4795C15.6125 89.659 15.433 90.0627 15.7022 90.6235C15.7471 90.6908 15.7695 90.7805 15.8368 90.8478C15.8592 90.6011 15.8817 90.3992 16.0387 90.1973C16.3976 90.1749 16.6219 90.3095 16.9584 90.3768C17.1378 89.9954 17.0705 89.5244 17.4294 89.2552C17.7659 89.3225 17.9229 89.5244 18.1921 89.6814C18.394 89.5468 18.6183 89.3225 18.8651 89.2103C19.0894 89.0758 19.3137 89.0533 19.5156 89.3001Z" fill="#27F3B5"/>
<path d="M9.66815 89.3898C9.89247 89.4346 10.0944 89.3898 10.2962 89.2552C10.4084 88.8066 10.1616 88.4701 9.82517 88.2233C9.60086 88.0663 9.30925 87.9317 9.0625 87.842C9.51113 87.7747 9.89247 87.6401 10.0495 87.4158C10.1841 87.2139 10.1616 86.9223 9.87004 86.4961C10.1841 86.5185 10.4757 86.6082 10.7 86.7877C11.0365 87.0345 11.2159 87.3934 10.9692 87.7523C10.8795 87.8644 10.7673 87.9766 10.5878 88.0887C10.7897 88.3579 11.014 88.6047 11.1935 88.8963C11.1486 89.0084 11.1038 89.0982 11.0589 89.1879C10.7897 89.6141 10.2289 89.5692 9.66815 89.3898Z" fill="#27F3B5"/>
<path d="M30.2599 95.7824C30.0132 95.7824 29.8337 95.8721 29.6767 96.0515C29.6767 96.5226 29.9683 96.7918 30.3496 96.9488C30.6188 97.061 30.9104 97.1058 31.1796 97.1507C30.7534 97.3301 30.4169 97.5096 30.3048 97.7788C30.215 98.0031 30.3048 98.2947 30.6637 98.6312C30.3496 98.676 30.0356 98.6536 29.7888 98.5415C29.4075 98.3844 29.1608 98.048 29.3178 97.6666C29.3626 97.532 29.4748 97.3974 29.6318 97.2629C29.3851 97.0385 29.0935 96.8591 28.8691 96.6123C28.8691 96.5002 28.914 96.388 28.9364 96.2983C29.1383 95.8048 29.6991 95.7151 30.2599 95.7824Z" fill="#27F3B5"/>
<path d="M116.128 69.7625L121.579 75.5947L158.053 54.5314L152.624 48.6992L116.128 69.7625Z" fill="#105383"/>
<path d="M129.676 70.9287L133.737 68.5734L128.308 62.7412L124.248 65.0741L129.676 70.9287Z" fill="#105383"/>
<path d="M125.617 73.2617L129.677 70.9289L124.249 65.0742L120.188 67.4071L125.617 73.2617Z" fill="#105383"/>
<path d="M133.737 68.5733L137.797 66.2404L132.346 60.3857L128.309 62.7411L133.737 68.5733Z" fill="#105383"/>
<path d="M141.835 63.9082L145.895 61.5529L140.466 55.7207L136.406 58.0536L141.835 63.9082Z" fill="#105383"/>
<path d="M149.955 59.2198L153.992 56.8869L148.564 51.0322L144.504 53.3651L149.955 59.2198Z" fill="#105383"/>
<path d="M125.617 73.2617V78.7575C125.617 80.0585 124.72 81.6287 123.598 82.2792C122.476 82.9297 121.579 82.3914 121.579 81.1128V75.5946L125.617 73.2617Z" fill="#105383"/>
<path d="M129.676 70.9287V76.4245C129.676 77.7255 128.779 79.2957 127.658 79.9462C126.536 80.5967 125.639 80.0584 125.639 78.7798V73.284L129.676 70.9287Z" fill="#105383"/>
<path d="M133.737 68.5732V74.069C133.737 75.37 132.84 76.9402 131.718 77.5907C130.596 78.2413 129.699 77.7029 129.699 76.4243V70.9286L133.737 68.5732Z" fill="#105383"/>
<path d="M137.796 66.2412V71.737C137.796 73.038 136.899 74.6082 135.778 75.2587C134.656 75.9092 133.759 75.3709 133.759 74.0923V68.5965L137.796 66.2412Z" fill="#105383"/>
<path d="M141.835 63.9082V69.4039C141.835 70.705 140.937 72.2752 139.816 72.9257C138.694 73.5762 137.797 73.0379 137.797 71.7593V66.2635L141.835 63.9082Z" fill="#105383"/>
<path d="M145.895 61.5527V67.0709C145.895 68.3719 144.998 69.9422 143.876 70.5927C142.755 71.2432 141.857 70.7048 141.857 69.4262V63.9305L145.895 61.5527Z" fill="#105383"/>
<path d="M149.955 59.2197V64.7155C149.955 66.0165 149.057 67.5867 147.936 68.2372C146.814 68.8877 145.917 68.3494 145.917 67.0708V61.575L149.955 59.2197Z" fill="#105383"/>
<path d="M153.993 56.8867V62.3825C153.993 63.6835 153.096 65.2537 151.974 65.9042C150.852 66.5547 149.955 66.0164 149.955 64.7378V59.2196L153.993 56.8867Z" fill="#105383"/>
<path d="M158.052 54.5312V60.027C158.052 61.328 157.155 62.8982 156.033 63.5488C154.912 64.1993 154.015 63.6609 154.015 62.3823V56.8866L158.052 54.5312Z" fill="#105383"/>
<path d="M116.128 69.7625L121.579 75.5947L158.053 54.5314L152.624 48.6992L116.128 69.7625Z" fill="#27F3B5"/>
<path d="M129.676 70.9287L133.737 68.5734L128.308 62.7412L124.248 65.0741L129.676 70.9287Z" fill="#27F3B5"/>
<path d="M125.617 73.2617L129.677 70.9289L124.249 65.0742L120.188 67.4071L125.617 73.2617Z" fill="#7DA9DA"/>
<path d="M133.737 68.5733L137.797 66.2404L132.346 60.3857L128.309 62.7411L133.737 68.5733Z" fill="#7DA9DA"/>
<path d="M141.835 63.9082L145.895 61.5529L140.466 55.7207L136.406 58.0536L141.835 63.9082Z" fill="#7DA9DA"/>
<path d="M149.955 59.2198L153.992 56.8869L148.564 51.0322L144.504 53.3651L149.955 59.2198Z" fill="#7DA9DA"/>
<path d="M125.617 73.2617V78.7575C125.617 80.0585 124.72 81.6287 123.598 82.2792C122.476 82.9297 121.579 82.3914 121.579 81.1128V75.5946L125.617 73.2617Z" fill="#1169A6"/>
<path d="M129.676 70.9287V76.4245C129.676 77.7255 128.779 79.2957 127.658 79.9462C126.536 80.5967 125.639 80.0584 125.639 78.7798V73.284L129.676 70.9287Z" fill="#1169A6"/>
<path d="M133.737 68.5732V74.069C133.737 75.37 132.84 76.9402 131.718 77.5907C130.596 78.2413 129.699 77.7029 129.699 76.4243V70.9286L133.737 68.5732Z" fill="#1169A6"/>
<path d="M137.796 66.2412V71.737C137.796 73.038 136.899 74.6082 135.778 75.2587C134.656 75.9092 133.759 75.3709 133.759 74.0923V68.5965L137.796 66.2412Z" fill="#1169A6"/>
<path d="M141.835 63.9082V69.4039C141.835 70.705 140.937 72.2752 139.816 72.9257C138.694 73.5762 137.797 73.0379 137.797 71.7593V66.2635L141.835 63.9082Z" fill="#1169A6"/>
<path d="M145.895 61.5527V67.0709C145.895 68.3719 144.998 69.9422 143.876 70.5927C142.755 71.2432 141.857 70.7048 141.857 69.4262V63.9305L145.895 61.5527Z" fill="#1169A6"/>
<path d="M149.955 59.2197V64.7155C149.955 66.0165 149.057 67.5867 147.936 68.2372C146.814 68.8877 145.917 68.3494 145.917 67.0708V61.575L149.955 59.2197Z" fill="#1169A6"/>
<path d="M153.993 56.8867V62.3825C153.993 63.6835 153.096 65.2537 151.974 65.9042C150.852 66.5547 149.955 66.0164 149.955 64.7378V59.2196L153.993 56.8867Z" fill="#1169A6"/>
<path d="M158.052 54.5312V60.027C158.052 61.328 157.155 62.8982 156.033 63.5488C154.912 64.1993 154.015 63.6609 154.015 62.3823V56.8866L158.052 54.5312Z" fill="#1169A6"/>
<path d="M116.128 69.7402V77.4118L121.579 80.5747V75.5949L116.128 69.7402Z" fill="#105383"/>
<path d="M96.4329 87.5281L93.2252 89.39V90.3545L94.5487 91.1172C94.2795 91.992 94.1449 92.822 94.1 93.809L95.603 94.6838L96.5899 94.1006C96.6797 92.1266 96.8367 91.0948 97.9358 89.0984V88.403L96.4329 87.5281ZM92.2158 82.2567C91.5653 82.6381 91.1391 83.154 90.6904 83.9167L92.3279 84.8588C91.969 85.5542 91.4082 86.429 90.7353 87.4608V88.1114L92.2382 88.9862L95.4459 87.1244V86.1598L94.5935 85.6663C94.7281 85.3971 94.8627 85.128 94.9524 84.8812L96.1189 85.5542L97.1507 84.9485L98.1601 85.5317L99.0798 84.9934V83.8269L99.6182 83.5129V82.6381L99.0798 82.324V80.0584L97.5769 79.1836L96.3881 79.879L94.9973 83.0194C94.9524 82.9745 94.9076 82.9521 94.8627 82.9072L93.3598 82.0324C93.0906 81.9427 92.6868 81.9875 92.2158 82.2567Z" fill="#7DA9DA"/>
<path d="M92.2607 88.358C93.4944 86.4738 94.3019 85.1503 94.3019 84.4325C94.3019 83.9614 94.0552 83.8493 93.6065 84.096C93.2701 84.2979 92.9785 84.7017 92.7541 85.083L92.1934 84.7914C92.642 84.0063 93.0682 83.5128 93.7187 83.1315C94.616 82.6155 95.2216 82.8847 95.2216 83.8268C95.2216 84.6568 94.4814 85.9803 93.6514 87.2813C93.8982 87.1019 94.2122 86.9 94.4365 86.7878L95.4459 86.2046V87.1692L92.2382 89.031V88.358H92.2607Z" fill="white"/>
<path d="M98.1829 82.7056C98.1829 82.3916 98.2053 81.9205 98.2277 81.6065L98.2053 81.6289C98.0707 81.9878 97.8912 82.3691 97.7342 82.728L97.0837 84.1637L99.6409 82.6832V83.558L96.1191 85.5993V84.8142L97.9137 80.8214L99.1025 80.126V85.061L98.1829 85.5993V82.7056V82.7056Z" fill="white"/>
<path d="M96.8819 89.9735L94.7285 91.2072V90.2427L97.9362 88.3809V89.0762C96.8595 91.0727 96.6801 92.1045 96.5903 94.0785L95.6034 94.6617C95.7155 93.0018 95.9847 91.7905 96.8819 89.9735Z" fill="white"/>
<path d="M34.5898 89.8833C32.9074 89.8833 31.5615 88.5374 31.5615 86.855V64.8945C31.5615 63.2121 32.9074 61.8662 34.5898 61.8662C36.2722 61.8662 37.6181 63.2121 37.6181 64.8945V86.855C37.6181 88.5374 36.2722 89.8833 34.5898 89.8833Z" fill="url(#paint24_linear_1876_6850)"/>
<path d="M49.5967 70.7047C49.6191 70.7944 49.6191 70.8842 49.6191 70.9739C49.6415 72.8133 48.2059 74.6302 45.2674 76.021C39.3679 78.8249 29.812 78.8249 23.9125 76.021C20.9515 74.6078 19.5159 72.7684 19.5383 70.929C19.5383 70.8393 19.5383 70.7496 19.5608 70.6598H19.5383C20.9067 56.0793 22.5442 41.4988 24.6976 26.9631C25.0565 24.5854 26.2005 22.23 27.9951 20.3907C31.8757 16.4427 37.2369 16.4427 41.0951 20.3907C42.9121 22.2525 44.0561 24.6078 44.4374 27.008C46.5908 41.5436 48.2283 56.1242 49.5742 70.7047C49.6191 70.7047 49.5967 70.7047 49.5967 70.7047Z" fill="url(#paint25_linear_1876_6850)"/>
<path d="M184.948 102.467C183.266 102.467 181.92 101.121 181.92 99.439V77.4785C181.92 75.7961 183.266 74.4502 184.948 74.4502C186.631 74.4502 187.976 75.7961 187.976 77.4785V99.439C187.976 101.121 186.631 102.467 184.948 102.467Z" fill="url(#paint26_linear_1876_6850)"/>
<path d="M199.955 83.2887C199.978 83.3784 199.978 83.4682 199.978 83.5579C200 85.3973 198.564 87.2142 195.626 88.605C189.726 91.4089 180.17 91.4089 174.271 88.605C171.31 87.1918 169.874 85.3524 169.897 83.513C169.897 83.4233 169.897 83.3336 169.919 83.2438H169.897C171.265 68.6633 172.903 54.0828 175.056 39.5471C175.415 37.1694 176.559 34.814 178.353 32.9746C182.234 29.0267 187.595 29.0267 191.454 32.9746C193.27 34.8365 194.415 37.1918 194.796 39.592C196.949 54.1276 198.587 68.7082 199.933 83.2887C199.978 83.2887 199.978 83.2887 199.955 83.2887Z" fill="url(#paint27_linear_1876_6850)"/>
</g>
<defs>
<linearGradient id="paint0_linear_1876_6850" x1="102.937" y1="89.3235" x2="31.9613" y2="66.7572" gradientUnits="userSpaceOnUse">
<stop stop-color="#4DB1E5"/>
<stop offset="0.2113" stop-color="#6CBEE9"/>
<stop offset="0.6704" stop-color="#BBDEF3"/>
<stop offset="1" stop-color="#F7F6FB"/>
</linearGradient>
<linearGradient id="paint1_linear_1876_6850" x1="152.025" y1="97.4823" x2="110.347" y2="66.3984" gradientUnits="userSpaceOnUse">
<stop stop-color="#4DB1E5"/>
<stop offset="0.2113" stop-color="#6CBEE9"/>
<stop offset="0.6704" stop-color="#BBDEF3"/>
<stop offset="1" stop-color="#F7F6FB"/>
</linearGradient>
<linearGradient id="paint2_linear_1876_6850" x1="72.3013" y1="25.4901" x2="199.061" y2="97.0114" gradientUnits="userSpaceOnUse">
<stop offset="0.0353535" stop-color="#27F3B5"/>
<stop offset="0.3065" stop-color="#25E5BB"/>
<stop offset="0.8213" stop-color="#22BFCC"/>
<stop offset="1" stop-color="#20B0D3"/>
</linearGradient>
<linearGradient id="paint3_linear_1876_6850" x1="95.0454" y1="24.7179" x2="136.13" y2="24.881" gradientUnits="userSpaceOnUse">
<stop offset="0.0353535" stop-color="#27F3B5"/>
<stop offset="0.3169" stop-color="#25E4BC"/>
<stop offset="0.8601" stop-color="#21BBCE"/>
<stop offset="1" stop-color="#20B0D3"/>
</linearGradient>
<linearGradient id="paint4_linear_1876_6850" x1="34.2571" y1="-0.347007" x2="128.773" y2="46.5081" gradientUnits="userSpaceOnUse">
<stop offset="0.0353535" stop-color="#27F3B5"/>
<stop offset="0.3169" stop-color="#25E4BC"/>
<stop offset="0.8601" stop-color="#21BBCE"/>
<stop offset="1" stop-color="#20B0D3"/>
</linearGradient>
<linearGradient id="paint5_linear_1876_6850" x1="-6.84694" y1="48.7312" x2="87.2705" y2="53.8017" gradientUnits="userSpaceOnUse">
<stop offset="0.0353535" stop-color="#27F3B5"/>
<stop offset="0.3169" stop-color="#25E4BC"/>
<stop offset="0.8601" stop-color="#21BBCE"/>
<stop offset="1" stop-color="#20B0D3"/>
</linearGradient>
<linearGradient id="paint6_linear_1876_6850" x1="172.37" y1="37.0949" x2="94.1523" y2="70.5112" gradientUnits="userSpaceOnUse">
<stop offset="0.0353535" stop-color="#27F3B5"/>
<stop offset="0.3169" stop-color="#25E4BC"/>
<stop offset="0.8601" stop-color="#21BBCE"/>
<stop offset="1" stop-color="#20B0D3"/>
</linearGradient>
<linearGradient id="paint7_linear_1876_6850" x1="128.369" y1="39.3149" x2="-17.8927" y2="-6.75062" gradientUnits="userSpaceOnUse">
<stop offset="0.0353535" stop-color="#27F3B5"/>
<stop offset="0.3169" stop-color="#25E4BC"/>
<stop offset="0.8601" stop-color="#21BBCE"/>
<stop offset="1" stop-color="#20B0D3"/>
</linearGradient>
<linearGradient id="paint8_linear_1876_6850" x1="149.955" y1="61.2108" x2="147.736" y2="80.0857" gradientUnits="userSpaceOnUse">
<stop offset="0.1347" stop-color="#83AFCD"/>
<stop offset="0.3936" stop-color="#A2C2D9"/>
<stop offset="0.9576" stop-color="#F1F2F9"/>
<stop offset="1" stop-color="#F7F6FB"/>
</linearGradient>
<linearGradient id="paint9_linear_1876_6850" x1="134.894" y1="88.2967" x2="131.545" y2="82.8394" gradientUnits="userSpaceOnUse">
<stop offset="0.1347" stop-color="#83AFCD"/>
<stop offset="0.3936" stop-color="#A2C2D9"/>
<stop offset="0.9576" stop-color="#F1F2F9"/>
<stop offset="1" stop-color="#F7F6FB"/>
</linearGradient>
<linearGradient id="paint10_linear_1876_6850" x1="140.734" y1="90.598" x2="133.403" y2="74.5824" gradientUnits="userSpaceOnUse">
<stop offset="0.0353535" stop-color="#FF9E6E"/>
<stop offset="0.3036" stop-color="#FFAD73"/>
<stop offset="0.821" stop-color="#FFD680"/>
<stop offset="1" stop-color="#FFE585"/>
</linearGradient>
<linearGradient id="paint11_linear_1876_6850" x1="65.0986" y1="93.727" x2="75.3431" y2="65.6495" gradientUnits="userSpaceOnUse">
<stop offset="0.1347" stop-color="#83AFCD"/>
<stop offset="0.3936" stop-color="#A2C2D9"/>
<stop offset="0.9576" stop-color="#F1F2F9"/>
<stop offset="1" stop-color="#F7F6FB"/>
</linearGradient>
<linearGradient id="paint12_linear_1876_6850" x1="67.5481" y1="85.5024" x2="80.3337" y2="65.2168" gradientUnits="userSpaceOnUse">
<stop offset="0.0353535" stop-color="#FF9E6E"/>
<stop offset="0.3036" stop-color="#FFAD73"/>
<stop offset="0.821" stop-color="#FFD680"/>
<stop offset="1" stop-color="#FFE585"/>
</linearGradient>
<linearGradient id="paint13_linear_1876_6850" x1="114.658" y1="87.138" x2="158.057" y2="87.138" gradientUnits="userSpaceOnUse">
<stop stop-color="#20B0D3"/>
<stop offset="0.183" stop-color="#20B0D3"/>
<stop offset="0.1912" stop-color="#21BBCE"/>
<stop offset="0.2229" stop-color="#25E4BC"/>
<stop offset="0.2393" stop-color="#27F3B5"/>
<stop offset="0.9646" stop-color="#27F3B5"/>
</linearGradient>
<linearGradient id="paint14_linear_1876_6850" x1="133.672" y1="81.9894" x2="140.46" y2="92.6608" gradientUnits="userSpaceOnUse">
<stop offset="0.0353535" stop-color="#27F3B5"/>
<stop offset="0.3169" stop-color="#25E4BC"/>
<stop offset="0.8601" stop-color="#21BBCE"/>
<stop offset="1" stop-color="#20B0D3"/>
</linearGradient>
<linearGradient id="paint15_linear_1876_6850" x1="88.3602" y1="96.5178" x2="100.3" y2="76.4011" gradientUnits="userSpaceOnUse">
<stop offset="0.0353535" stop-color="#105383"/>
<stop offset="0.5974" stop-color="#105383"/>
<stop offset="0.6223" stop-color="#115F92"/>
<stop offset="0.6703" stop-color="#137EBB"/>
<stop offset="0.7065" stop-color="#1599DD"/>
<stop offset="1" stop-color="#1599DD"/>
</linearGradient>
<linearGradient id="paint16_linear_1876_6850" x1="101.479" y1="98.4545" x2="90.1749" y2="79.1663" gradientUnits="userSpaceOnUse">
<stop offset="0.0353535" stop-color="#27F3B5"/>
<stop offset="0.3169" stop-color="#25E4BC"/>
<stop offset="0.8601" stop-color="#21BBCE"/>
<stop offset="1" stop-color="#20B0D3"/>
</linearGradient>
<linearGradient id="paint17_linear_1876_6850" x1="63.5071" y1="105.5" x2="69.9898" y2="89.8412" gradientUnits="userSpaceOnUse">
<stop offset="0.1347" stop-color="#83AFCD"/>
<stop offset="0.3936" stop-color="#A2C2D9"/>
<stop offset="0.9576" stop-color="#F1F2F9"/>
<stop offset="1" stop-color="#F7F6FB"/>
</linearGradient>
<linearGradient id="paint18_linear_1876_6850" x1="69.051" y1="90.4355" x2="64.6676" y2="99.1961" gradientUnits="userSpaceOnUse">
<stop offset="0.1347" stop-color="#83AFCD"/>
<stop offset="0.3936" stop-color="#A2C2D9"/>
<stop offset="0.9576" stop-color="#F1F2F9"/>
<stop offset="1" stop-color="#F7F6FB"/>
</linearGradient>
<linearGradient id="paint19_linear_1876_6850" x1="59.0031" y1="111.567" x2="65.4858" y2="95.9089" gradientUnits="userSpaceOnUse">
<stop offset="0.1347" stop-color="#83AFCD"/>
<stop offset="0.3936" stop-color="#A2C2D9"/>
<stop offset="0.9576" stop-color="#F1F2F9"/>
<stop offset="1" stop-color="#F7F6FB"/>
</linearGradient>
<linearGradient id="paint20_linear_1876_6850" x1="64.547" y1="96.5022" x2="60.1636" y2="105.263" gradientUnits="userSpaceOnUse">
<stop offset="0.1347" stop-color="#83AFCD"/>
<stop offset="0.3936" stop-color="#A2C2D9"/>
<stop offset="0.9576" stop-color="#F1F2F9"/>
<stop offset="1" stop-color="#F7F6FB"/>
</linearGradient>
<linearGradient id="paint21_linear_1876_6850" x1="56.0518" y1="114.977" x2="61.4986" y2="101.82" gradientUnits="userSpaceOnUse">
<stop offset="0.1347" stop-color="#83AFCD"/>
<stop offset="0.3936" stop-color="#A2C2D9"/>
<stop offset="0.9576" stop-color="#F1F2F9"/>
<stop offset="1" stop-color="#F7F6FB"/>
</linearGradient>
<linearGradient id="paint22_linear_1876_6850" x1="61.2186" y1="101.916" x2="56.8353" y2="110.677" gradientUnits="userSpaceOnUse">
<stop offset="0.1347" stop-color="#83AFCD"/>
<stop offset="0.3936" stop-color="#A2C2D9"/>
<stop offset="0.9576" stop-color="#F1F2F9"/>
<stop offset="1" stop-color="#F7F6FB"/>
</linearGradient>
<linearGradient id="paint23_linear_1876_6850" x1="72.6682" y1="96.8958" x2="75.7404" y2="113.51" gradientUnits="userSpaceOnUse">
<stop offset="0.1347" stop-color="#83AFCD"/>
<stop offset="0.3936" stop-color="#A2C2D9"/>
<stop offset="0.9576" stop-color="#F1F2F9"/>
<stop offset="1" stop-color="#F7F6FB"/>
</linearGradient>
<linearGradient id="paint24_linear_1876_6850" x1="31.5676" y1="75.8706" x2="37.6209" y2="75.8706" gradientUnits="userSpaceOnUse">
<stop offset="0.0353535" stop-color="#FF9E6E"/>
<stop offset="0.3036" stop-color="#FFAD73"/>
<stop offset="0.821" stop-color="#FFD680"/>
<stop offset="1" stop-color="#FFE585"/>
</linearGradient>
<linearGradient id="paint25_linear_1876_6850" x1="-0.614842" y1="55.8326" x2="49.4452" y2="44.7696" gradientUnits="userSpaceOnUse">
<stop offset="0.00505051" stop-color="#20B0D3"/>
<stop offset="0.56" stop-color="#24D4C3"/>
<stop offset="1" stop-color="#27F3B5"/>
</linearGradient>
<linearGradient id="paint26_linear_1876_6850" x1="181.932" y1="88.4575" x2="187.985" y2="88.4575" gradientUnits="userSpaceOnUse">
<stop offset="0.0353535" stop-color="#FF9E6E"/>
<stop offset="0.3036" stop-color="#FFAD73"/>
<stop offset="0.821" stop-color="#FFD680"/>
<stop offset="1" stop-color="#FFE585"/>
</linearGradient>
<linearGradient id="paint27_linear_1876_6850" x1="149.749" y1="68.4195" x2="199.81" y2="57.3565" gradientUnits="userSpaceOnUse">
<stop offset="0.00505051" stop-color="#20B0D3"/>
<stop offset="0.56" stop-color="#24D4C3"/>
<stop offset="1" stop-color="#27F3B5"/>
</linearGradient>
<clipPath id="clip0_1876_6850">
<rect width="200" height="163.997" fill="white"/>
</clipPath>
</defs>
</svg>
