<svg width="488" height="336" viewBox="0 0 488 336" fill="none" xmlns="http://www.w3.org/2000/svg">
<path id="Vector" d="M483 0H5C2.23858 0 0 2.23858 0 5V280C0 282.761 2.23858 285 5 285H483C485.761 285 488 282.761 488 280V5C488 2.23858 485.761 0 483 0Z" fill="url(#paint0_linear_1628_4893)"/>
<path id="Vector_2" d="M131 51H29C26.2386 51 24 53.2386 24 56V70C24 72.7614 26.2386 75 29 75H131C133.761 75 136 72.7614 136 70V56C136 53.2386 133.761 51 131 51Z" fill="#0C1D33"/>
<path id="Vector_3" d="M131 94H29C26.2386 94 24 96.2386 24 99V113C24 115.761 26.2386 118 29 118H131C133.761 118 136 115.761 136 113V99C136 96.2386 133.761 94 131 94Z" fill="#0C1D33"/>
<path id="Vector_4" d="M283 134H29C26.2386 134 24 136.239 24 139V185C24 187.761 26.2386 190 29 190H283C285.761 190 288 187.761 288 185V139C288 136.239 285.761 134 283 134Z" fill="#0C1D33"/>
<path id="Vector_5" d="M283 51H181C178.239 51 176 53.2386 176 56V70C176 72.7614 178.239 75 181 75H283C285.761 75 288 72.7614 288 70V56C288 53.2386 285.761 51 283 51Z" fill="#0C1D33"/>
<path id="Vector_6" d="M283 94H181C178.239 94 176 96.2386 176 99V113C176 115.761 178.239 118 181 118H283C285.761 118 288 115.761 288 113V99C288 96.2386 285.761 94 283 94Z" fill="#0C1D33"/>
<path id="Vector_7" d="M435 51H333C330.239 51 328 53.2386 328 56V70C328 72.7614 330.239 75 333 75H435C437.761 75 440 72.7614 440 70V56C440 53.2386 437.761 51 435 51Z" fill="#0C1D33"/>
<path id="Vector_8" d="M435 94H333C330.239 94 328 96.2386 328 99V113C328 115.761 330.239 118 333 118H435C437.761 118 440 115.761 440 113V99C440 96.2386 437.761 94 435 94Z" fill="#0C1D33"/>
<path id="Vector_9" d="M470.002 270.598L363.275 332.176L212.555 245.218L319.282 183.633L470.002 270.598Z" fill="url(#paint1_linear_1628_4893)"/>
<path id="Vector_10" d="M469.925 270.508L363.071 332.173L212.142 245.063L318.995 183.398L469.925 270.508Z" fill="url(#paint2_linear_1628_4893)"/>
<path id="Vector_11" d="M358.135 335.024C360.777 333.494 362.724 330.227 362.724 325.638V93.2997C362.724 83.9839 356.536 72.7215 348.472 68.0636L266.507 20.72C262.475 18.3563 258.79 18.1477 256.148 19.6772L266.02 13.9765C268.662 12.447 272.347 12.6556 276.379 15.0193L358.344 62.3629C366.408 67.0208 372.596 78.3527 372.596 87.599V319.937C372.596 324.526 370.649 327.793 368.007 329.323L358.135 335.024Z" fill="url(#paint3_linear_1628_4893)"/>
<path id="Vector_12" d="M358.135 335.022C355.493 336.551 351.809 336.343 347.776 333.979L265.811 286.636C257.747 281.978 251.56 270.646 251.56 261.4V29.061C251.56 24.4726 253.506 21.2051 256.148 19.6757C258.79 18.1462 262.474 18.3548 266.507 20.7185L348.472 68.0622C356.536 72.7201 362.723 84.0519 362.723 93.2982V325.637C362.723 330.225 360.707 333.493 358.135 335.022Z" fill="url(#paint4_linear_1628_4893)"/>
<path id="Vector_13" d="M348.472 74.1819C353.617 77.1713 357.44 84.3319 357.371 90.2412V322.58C357.371 328.489 352.852 330.853 347.707 327.863L265.742 280.52C260.598 277.53 256.774 270.37 256.844 264.53V32.1913C256.844 26.2821 261.363 23.9184 266.507 26.9078L276.727 32.817C278.048 33.5818 279.16 35.4588 279.16 37.0578V39.5605C279.16 43.0366 281.593 47.3469 284.652 49.0849L330.258 75.4333C333.317 77.1713 335.819 75.7809 335.819 72.3048V69.8021C335.819 68.2726 336.932 67.6469 338.253 68.4117L348.472 74.1819Z" fill="url(#paint5_linear_1628_4893)"/>
<path id="Vector_14" d="M306.551 283.717C304.813 284.759 302.38 284.62 299.668 283.021C294.315 279.962 289.936 272.385 289.936 266.197C289.936 263.138 291.048 260.914 292.786 259.94L294.732 258.828C292.994 259.871 291.882 262.026 291.882 265.085C291.882 271.272 296.262 278.781 301.615 281.909C304.326 283.438 306.69 283.578 308.498 282.604L306.551 283.717Z" fill="url(#paint6_linear_1628_4893)"/>
<path id="Vector_15" d="M311.001 291.572C314.06 289.834 315.728 286.149 315.728 281.144C315.728 280.171 315.659 279.128 315.52 278.085L317.466 276.973C317.605 278.015 317.675 279.058 317.675 280.032C317.675 284.968 316.006 288.652 312.948 290.46L311.001 291.572Z" fill="url(#paint7_linear_1628_4893)"/>
<path id="Vector_16" d="M303.701 264.042L306.412 258.897L308.359 257.785L305.648 262.93L303.701 264.042Z" fill="url(#paint8_linear_1628_4893)"/>
<path id="Vector_17" d="M306.412 258.898C304.327 256.534 302.033 254.657 299.669 253.336C295.359 250.833 291.326 250.486 288.337 252.224L290.284 251.111C293.342 249.373 297.375 249.79 301.615 252.224C303.979 253.545 306.204 255.491 308.359 257.785L306.412 258.898Z" fill="url(#paint9_linear_1628_4893)"/>
<path id="Vector_18" d="M318.787 279.267L310.792 265.78L312.739 264.668L320.733 278.155L318.787 279.267Z" fill="url(#paint10_linear_1628_4893)"/>
<path id="Vector_19" d="M311.001 291.573C307.942 293.311 303.909 292.893 299.669 290.46C295.358 287.957 291.326 283.717 288.337 278.433C285.278 273.15 283.609 267.518 283.609 262.582C283.609 257.646 285.278 253.962 288.337 252.154C291.396 250.416 295.428 250.833 299.669 253.267C302.032 254.588 304.257 256.534 306.412 258.828L303.77 263.973C302.519 262.582 301.129 261.401 299.738 260.636C297.027 259.106 294.663 258.967 292.856 259.941C291.118 260.983 290.005 263.139 290.005 266.197C290.005 272.385 294.385 279.893 299.738 283.022C302.45 284.551 304.813 284.69 306.621 283.717C308.359 282.674 309.471 280.519 309.471 277.46C309.471 276.904 309.402 276.348 309.332 275.722L306.273 274.54L310.931 265.78L318.856 279.267L315.589 278.086C315.728 279.128 315.798 280.171 315.798 281.144C315.728 286.08 314.059 289.835 311.001 291.573Z" fill="url(#paint11_linear_1628_4893)"/>
<path id="Vector_20" d="M314.477 170.049C327.755 162.402 333.525 143.075 333.386 120.898L341.451 116.24C341.59 138.417 335.819 157.744 322.541 165.391L314.477 170.049Z" fill="url(#paint12_linear_1628_4893)"/>
<path id="Vector_21" d="M333.386 120.828C319.204 112.138 311.696 99.5548 300.155 86.902L308.22 82.2441C319.76 94.9664 327.199 107.48 341.451 116.17L333.386 120.828Z" fill="url(#paint13_linear_1628_4893)"/>
<path id="Vector_22" d="M300.155 86.9034C288.406 85.5825 280.62 88.989 266.438 80.5075L274.502 75.8496C288.684 84.2616 296.47 80.8551 308.22 82.2455L300.155 86.9034Z" fill="url(#paint14_linear_1628_4893)"/>
<path id="Vector_23" d="M298.556 173.457C274.363 145.51 265.186 109.22 266.438 80.5078C280.62 88.9198 288.406 85.5133 300.155 86.9037C311.696 99.626 319.135 112.14 333.386 120.83C333.595 150.446 323.236 174.987 298.556 173.457Z" fill="url(#paint15_linear_1628_4893)"/>
<path id="Vector_24" d="M274.085 93.2988C282.08 96.5663 288.267 96.5663 294.316 96.4968C296.193 96.4968 298.07 96.4968 300.016 96.5663C301.893 98.791 303.77 101.016 305.578 103.24C311.487 110.401 317.466 117.77 325.461 124.166C325.183 128.198 324.696 131.952 324.001 135.498C322.75 141.477 320.942 146.621 318.439 150.793C315.936 155.103 312.739 158.37 309.054 160.525C309.054 160.525 309.054 160.525 308.984 160.525C305.925 162.263 302.519 163.237 298.765 163.445C295.08 158.787 291.743 153.712 288.893 148.359C285.347 141.824 282.358 134.872 280.064 127.573C277.839 120.551 276.171 113.321 275.197 106.021C274.502 101.85 274.154 97.5396 274.085 93.2988Z" fill="url(#paint16_linear_1628_4893)"/>
<path id="Vector_25" d="M260.32 169.564L353.895 223.582V232.411L260.32 178.394V169.564Z" fill="url(#paint17_linear_1628_4893)"/>
<path id="Vector_26" d="M353.895 223.582V232.411L260.32 178.393L267.968 174.014L353.895 223.582Z" fill="url(#paint18_linear_1628_4893)"/>
<g class="card">
<path id="Vector_27" d="M121 263C121 265.433 122.599 267.866 125.797 269.743L186.419 304.782C189.617 306.659 193.858 307.562 198.029 307.562C202.27 307.562 206.511 306.659 209.709 304.782L320.455 240.822C323.653 238.945 325.252 236.512 325.252 234.148V236.512C325.252 238.945 323.653 241.379 320.455 243.186L209.709 307.145C206.511 309.022 202.27 309.926 198.029 309.926C193.858 309.926 189.617 309.022 186.419 307.145L125.797 272.107C122.599 270.23 121 267.797 121 265.363V263Z" fill="url(#paint19_linear_1628_4893)"/>
<path id="Vector_28" d="M121 263C121 260.567 122.599 258.133 125.797 256.326L236.544 192.367C239.742 190.49 243.982 189.586 248.223 189.586C252.394 189.586 256.635 190.49 259.833 192.367L320.455 227.405C323.653 229.282 325.252 231.716 325.252 234.149C325.252 236.582 323.653 239.015 320.455 240.823L209.709 304.782C206.511 306.659 202.27 307.563 198.029 307.563C193.858 307.563 189.617 306.659 186.419 304.782L125.797 269.743C122.599 267.936 121 265.503 121 263Z" fill="url(#paint20_linear_1628_4893)"/>
<path id="Vector_29" d="M263.587 206.27C263.587 207.939 262.475 209.677 260.25 210.928C258.025 212.249 255.105 212.875 252.186 212.875C249.266 212.875 246.346 212.249 244.121 210.928C241.897 209.607 240.784 207.939 240.784 206.27C240.784 204.602 241.897 202.864 244.121 201.613C246.346 200.292 249.266 199.666 252.186 199.666C255.105 199.666 258.025 200.292 260.25 201.613C262.475 202.933 263.587 204.602 263.587 206.27Z" fill="url(#paint21_linear_1628_4893)"/>
<path id="Vector_30" d="M251.907 213.015C251.907 214.683 250.795 216.421 248.57 217.673C246.346 218.993 243.426 219.619 240.506 219.619C237.586 219.619 234.666 218.993 232.441 217.673C230.217 216.352 229.104 214.683 229.104 213.015C229.104 211.346 230.217 209.608 232.441 208.357C234.666 207.036 237.586 206.41 240.506 206.41C243.426 206.41 246.346 207.036 248.57 208.357C250.795 209.678 251.907 211.346 251.907 213.015Z" fill="url(#paint22_linear_1628_4893)"/>
<path id="Vector_31" d="M180.44 258.341C180.44 259.662 179.537 260.983 177.868 261.956L167.51 267.935C165.772 268.908 163.477 269.464 161.183 269.464C158.889 269.464 156.664 268.978 154.926 267.935L150.338 265.293C148.6 264.32 147.766 262.999 147.766 261.678C147.766 260.357 148.669 259.036 150.338 258.063L160.696 252.084C162.435 251.111 164.729 250.555 167.023 250.555C169.317 250.555 171.542 251.041 173.28 252.084L177.868 254.726C179.537 255.699 180.44 257.02 180.44 258.341Z" fill="url(#paint23_linear_1628_4893)"/>
<path id="Vector_32" d="M177.799 262.305C177.729 262.305 177.66 262.305 177.66 262.236L169.178 257.369C168.344 256.883 167.927 256.257 167.927 255.562C167.927 254.866 168.344 254.241 169.178 253.754L172.863 251.669C173.002 251.599 173.21 251.599 173.349 251.808C173.419 251.947 173.419 252.155 173.21 252.294L169.526 254.38C168.97 254.727 168.622 255.145 168.622 255.562C168.622 255.979 168.97 256.465 169.526 256.744L178.007 261.61C178.146 261.68 178.216 261.888 178.146 262.097C178.077 262.305 177.938 262.305 177.799 262.305Z" fill="#FC8C76"/>
<path id="Vector_33" d="M171.681 258.827C171.542 258.827 171.472 258.758 171.403 258.688C171.333 258.549 171.333 258.341 171.542 258.202L177.799 254.587C177.938 254.517 178.146 254.517 178.285 254.726C178.355 254.865 178.355 255.073 178.146 255.212L171.89 258.827C171.82 258.758 171.751 258.827 171.681 258.827Z" fill="#FC8C76"/>
<path id="Vector_34" d="M167.44 268.284C167.371 268.284 167.301 268.284 167.301 268.214L150.06 258.342C149.921 258.273 149.851 258.064 149.921 257.856C149.99 257.717 150.199 257.647 150.407 257.717L167.579 267.658C167.718 267.728 167.788 267.936 167.718 268.145C167.718 268.284 167.579 268.284 167.44 268.284Z" fill="#FC8C76"/>
<path id="Vector_35" d="M150.129 265.573C149.99 265.573 149.921 265.504 149.851 265.434C149.782 265.295 149.782 265.087 149.99 264.948L156.247 261.333C156.386 261.263 156.595 261.263 156.734 261.472C156.803 261.611 156.803 261.819 156.595 261.958L150.338 265.573C150.199 265.504 150.199 265.573 150.129 265.573Z" fill="#FC8C76"/>
<path id="Vector_36" d="M155.065 268.423C154.926 268.423 154.856 268.353 154.787 268.284C154.717 268.145 154.717 267.936 154.926 267.797L161.183 264.182C161.322 264.113 161.53 264.113 161.669 264.321C161.739 264.46 161.739 264.669 161.53 264.808L155.273 268.423C155.204 268.423 155.134 268.423 155.065 268.423Z" fill="#FC8C76"/>
<path id="Vector_37" d="M284.026 228.448C283.122 228.378 282.01 227.961 280.898 227.266C279.924 226.71 279.299 226.223 279.021 225.736C279.09 225.667 279.16 225.597 279.229 225.597C280.272 224.972 282.01 225.389 283.957 226.501C284.86 227.057 285.556 227.544 285.834 227.961C285.764 228.03 285.695 228.1 285.556 228.17C285.208 228.448 284.652 228.517 284.026 228.448ZM273.737 231.368C272.555 230.672 271.86 229.977 271.582 229.421C271.651 229.351 271.651 229.282 271.721 229.212L273.737 231.368ZM277.978 231.924C277.074 231.854 275.962 231.437 274.849 230.742C273.876 230.186 273.25 229.699 272.972 229.212C273.042 229.143 273.111 229.073 273.181 229.073C274.224 228.448 275.962 228.865 277.908 229.977C278.812 230.533 279.507 231.02 279.785 231.437C279.716 231.507 279.646 231.576 279.507 231.646C279.09 231.924 278.604 231.993 277.978 231.924ZM267.689 234.913C266.507 234.218 265.812 233.523 265.534 232.966C265.603 232.897 265.603 232.827 265.673 232.758L267.689 234.913ZM271.86 235.469C270.956 235.4 269.844 234.983 268.732 234.287C267.758 233.731 267.133 233.245 266.855 232.758C266.924 232.688 266.994 232.619 267.063 232.619C268.106 231.993 269.844 232.41 271.79 233.523C272.694 234.079 273.389 234.565 273.668 234.983C273.598 235.052 273.529 235.122 273.389 235.191C273.042 235.469 272.486 235.539 271.86 235.469ZM265.812 238.945C264.908 238.876 263.796 238.459 262.683 237.763C261.71 237.207 261.084 236.721 260.806 236.234C260.876 236.164 260.945 236.095 261.015 236.095C262.058 235.469 263.796 235.886 265.742 236.999C266.646 237.555 267.341 238.041 267.619 238.459C267.55 238.528 267.48 238.598 267.341 238.667C266.994 238.945 266.437 239.015 265.812 238.945ZM261.571 239.501C264.143 240.961 266.576 241.17 268.106 240.336C268.801 239.919 269.079 239.501 269.079 239.015V237.902C269.079 237.346 268.662 236.721 267.828 236.095C270.331 237.416 272.694 237.624 274.154 236.79C274.849 236.373 275.127 235.956 275.127 235.469V234.357C275.127 233.801 274.71 233.175 273.876 232.549C276.379 233.94 278.743 234.079 280.203 233.245C280.898 232.827 281.176 232.41 281.176 231.924V230.881C281.176 230.325 280.759 229.699 279.924 229.073C282.427 230.464 284.791 230.603 286.251 229.769C286.946 229.351 287.224 228.934 287.224 228.448V227.405C287.224 226.64 286.459 225.736 284.86 224.833C283.609 224.068 282.358 223.651 281.176 223.512C280.133 223.373 279.16 223.581 278.395 223.998C277.769 224.346 277.422 224.833 277.422 225.319V226.432C277.422 226.988 277.839 227.613 278.604 228.239C277.352 227.544 276.17 227.127 275.058 227.057C274.015 226.918 273.042 227.127 272.277 227.544C271.651 227.891 271.304 228.378 271.304 228.865V229.977C271.304 230.533 271.721 231.159 272.486 231.785C271.234 231.089 270.052 230.672 268.94 230.603C268.384 230.533 267.828 230.603 267.272 230.672C266.855 230.742 266.507 230.881 266.159 231.089C265.534 231.437 265.186 231.924 265.186 232.41V233.523C265.186 234.079 265.603 234.704 266.368 235.33C265.116 234.635 263.935 234.218 262.822 234.148C261.78 234.009 260.806 234.218 260.041 234.635C259.416 234.983 259.068 235.469 259.068 235.956V237.068C259.346 237.694 260.041 238.598 261.571 239.501ZM257.261 243.951C256.357 243.881 255.245 243.464 254.132 242.769C253.159 242.213 252.533 241.726 252.255 241.239C252.325 241.17 252.394 241.1 252.464 241.1C253.576 240.475 255.245 240.892 257.191 242.004C258.095 242.56 258.79 243.047 259.068 243.464C258.999 243.534 258.929 243.603 258.79 243.673C258.373 243.881 257.886 244.02 257.261 243.951ZM251.143 247.427C250.239 247.357 249.127 246.94 248.014 246.245C247.041 245.689 246.415 245.202 246.137 244.715C246.207 244.646 246.276 244.576 246.346 244.576C247.389 243.951 249.127 244.368 251.073 245.48C251.977 246.036 252.672 246.523 252.95 246.94C252.881 247.01 252.811 247.079 252.672 247.149C252.325 247.427 251.768 247.496 251.143 247.427ZM245.095 250.972C244.191 250.903 243.078 250.486 241.966 249.791C240.993 249.234 240.367 248.748 240.089 248.261C240.159 248.192 240.228 248.122 240.298 248.122C241.34 247.496 243.078 247.913 245.025 249.026C245.929 249.582 246.624 250.069 246.902 250.486C246.833 250.555 246.763 250.625 246.624 250.694C246.207 250.903 245.72 250.972 245.095 250.972ZM238.977 254.448C238.073 254.379 236.961 253.962 235.848 253.267C234.875 252.71 234.249 252.224 233.971 251.737C234.041 251.668 234.11 251.598 234.18 251.598C235.223 250.972 236.961 251.389 238.907 252.502C239.811 253.058 240.506 253.545 240.784 253.962C240.715 254.031 240.645 254.101 240.506 254.17C240.159 254.448 239.602 254.518 238.977 254.448ZM234.805 255.005C237.378 256.465 239.811 256.673 241.34 255.839C242.036 255.422 242.314 255.005 242.314 254.518V253.406C242.314 252.849 241.897 252.224 241.062 251.598C243.565 252.988 245.929 253.128 247.389 252.293C248.084 251.876 248.362 251.459 248.362 250.972V249.86C248.362 249.304 247.945 248.678 247.111 248.053C249.613 249.443 251.977 249.582 253.437 248.748C254.132 248.331 254.41 247.913 254.41 247.427V246.314C254.41 245.758 253.993 245.133 253.159 244.507C255.662 245.897 258.025 246.036 259.485 245.202C260.181 244.785 260.459 244.368 260.459 243.881V242.769C260.459 242.004 259.694 241.1 258.095 240.197C256.844 239.432 255.592 239.015 254.41 238.876C253.367 238.737 252.394 238.945 251.629 239.362C251.004 239.71 250.656 240.197 250.656 240.683V241.796C250.656 242.352 251.073 242.977 251.838 243.603C250.587 242.908 249.405 242.491 248.292 242.421C247.25 242.282 246.276 242.491 245.512 242.908C244.886 243.256 244.538 243.742 244.538 244.229V245.341C244.538 245.897 244.955 246.523 245.72 247.149C244.469 246.454 243.287 246.036 242.175 245.967C241.132 245.828 240.159 246.036 239.394 246.454C238.768 246.801 238.421 247.288 238.421 247.774V248.887C238.421 249.443 238.838 250.069 239.602 250.694C238.351 249.999 237.169 249.582 236.057 249.512C235.014 249.373 234.041 249.582 233.276 249.999C232.65 250.347 232.303 250.833 232.303 251.32V252.432C232.511 253.197 233.276 254.101 234.805 255.005ZM230.426 259.384C229.522 259.315 228.41 258.898 227.297 258.203C226.324 257.646 225.698 257.16 225.42 256.673C225.49 256.604 225.559 256.534 225.629 256.534C226.741 255.908 228.41 256.325 230.356 257.438C231.26 257.994 231.955 258.481 232.233 258.898C232.164 258.967 232.094 259.037 231.955 259.106C231.607 259.384 231.051 259.454 230.426 259.384ZM225.907 262.652C225.49 262.86 225.003 262.93 224.377 262.93C223.474 262.86 222.361 262.443 221.249 261.748C220.276 261.192 219.65 260.705 219.372 260.219C219.441 260.149 219.511 260.08 219.58 260.08C220.693 259.454 222.361 259.871 224.308 260.983C225.212 261.54 225.907 262.026 226.185 262.443C226.046 262.513 225.976 262.582 225.907 262.652ZM218.259 266.406C217.356 266.336 216.243 265.919 215.131 265.224C214.158 264.668 213.532 264.181 213.254 263.695C213.323 263.625 213.393 263.556 213.463 263.556C214.575 262.93 216.243 263.347 218.19 264.459C219.094 265.016 219.789 265.502 220.067 265.919C219.998 265.989 219.928 266.058 219.789 266.128C219.441 266.406 218.885 266.476 218.259 266.406ZM212.211 269.952C211.307 269.882 210.195 269.465 209.083 268.77C208.109 268.214 207.553 267.727 207.206 267.24C207.275 267.171 207.345 267.101 207.414 267.101C208.527 266.476 210.195 266.893 212.142 268.005C213.045 268.561 213.741 269.048 214.019 269.465C213.949 269.534 213.88 269.604 213.741 269.673C213.324 269.882 212.837 269.952 212.211 269.952ZM207.97 270.438C210.543 271.898 212.976 272.107 214.505 271.272C215.201 270.855 215.479 270.438 215.479 269.952V268.839C215.479 268.283 215.062 267.657 214.227 267.032C216.73 268.353 219.094 268.561 220.554 267.727C221.249 267.31 221.527 266.893 221.527 266.406V265.294C221.527 264.737 221.11 264.112 220.276 263.486C222.778 264.807 225.142 265.016 226.602 264.181C227.297 263.764 227.575 263.347 227.575 262.86V261.748C227.575 261.192 227.158 260.566 226.324 259.941C228.827 261.261 231.19 261.47 232.65 260.636C233.345 260.219 233.624 259.802 233.624 259.315V258.203C233.624 257.438 232.859 256.534 231.26 255.63C230.008 254.866 228.757 254.448 227.575 254.309C226.532 254.17 225.559 254.379 224.794 254.796C224.169 255.144 223.821 255.63 223.821 256.117V257.229C223.821 257.785 224.238 258.411 225.003 259.037C223.752 258.342 222.57 257.924 221.457 257.855C220.415 257.716 219.441 257.924 218.677 258.342C218.051 258.689 217.703 259.176 217.703 259.662V260.775C217.703 261.331 218.12 261.957 218.885 262.582C217.634 261.887 216.452 261.47 215.34 261.4C214.297 261.261 213.323 261.47 212.559 261.887C211.933 262.235 211.585 262.721 211.585 263.208V264.32C211.585 264.877 212.003 265.502 212.767 266.128C211.516 265.433 210.334 265.016 209.222 264.946C208.179 264.807 207.206 265.016 206.441 265.433C205.815 265.78 205.468 266.267 205.468 266.754V267.866C205.676 268.7 206.441 269.534 207.97 270.438ZM203.591 274.888C202.687 274.818 201.574 274.401 200.462 273.706C199.489 273.15 198.863 272.663 198.585 272.176C198.655 272.107 198.724 272.037 198.794 272.037C199.836 271.411 201.574 271.829 203.521 272.941C204.425 273.497 205.12 273.984 205.398 274.401C205.329 274.47 205.259 274.54 205.12 274.609C204.772 274.888 204.216 274.957 203.591 274.888ZM197.542 278.364C196.638 278.294 195.526 277.877 194.414 277.182C193.441 276.626 192.815 276.139 192.537 275.652C192.606 275.583 192.676 275.513 192.745 275.513C193.788 274.888 195.526 275.305 197.473 276.417C198.377 276.973 199.072 277.46 199.35 277.877C199.28 277.946 199.211 278.016 199.072 278.085C198.724 278.364 198.168 278.433 197.542 278.364ZM191.494 281.909C190.59 281.84 189.478 281.422 188.366 280.727C187.392 280.171 186.767 279.684 186.488 279.198C186.558 279.128 186.628 279.059 186.697 279.059C187.809 278.433 189.478 278.85 191.424 279.963C192.328 280.519 193.023 281.005 193.302 281.422C193.232 281.492 193.162 281.562 193.023 281.631C192.606 281.84 192.12 281.979 191.494 281.909ZM186.906 285.177C186.488 285.385 186.002 285.455 185.376 285.455C184.472 285.385 183.36 284.968 182.248 284.273C181.274 283.717 180.649 283.23 180.371 282.743C180.44 282.674 180.51 282.604 180.579 282.604C181.692 281.979 183.36 282.396 185.307 283.508C186.21 284.064 186.906 284.551 187.184 284.968C187.114 285.038 187.045 285.107 186.906 285.177ZM181.205 285.941C183.777 287.401 186.21 287.61 187.74 286.776C188.435 286.358 188.713 285.941 188.713 285.455V284.342C188.713 283.786 188.296 283.16 187.462 282.535C189.965 283.856 192.328 284.064 193.788 283.23C194.483 282.813 194.761 282.396 194.761 281.909V280.797C194.761 280.241 194.344 279.615 193.51 278.989C196.013 280.31 198.377 280.519 199.836 279.684C200.532 279.267 200.81 278.85 200.81 278.364V277.251C200.81 276.695 200.393 276.069 199.558 275.444C202.061 276.834 204.425 276.973 205.885 276.139C206.58 275.722 206.858 275.305 206.858 274.818V273.706C206.858 272.941 206.093 272.037 204.494 271.133C203.243 270.369 201.992 269.952 200.81 269.813C199.767 269.673 198.794 269.882 198.029 270.299C197.403 270.647 197.056 271.133 197.056 271.62V272.732C197.056 273.289 197.473 273.914 198.237 274.54C196.986 273.845 195.804 273.428 194.692 273.358C193.649 273.219 192.676 273.428 191.911 273.845C191.285 274.192 190.938 274.679 190.938 275.166V276.278C190.938 276.834 191.355 277.46 192.12 278.085C190.868 277.39 189.686 276.973 188.574 276.904C187.531 276.765 186.558 276.973 185.793 277.39C185.168 277.738 184.82 278.225 184.82 278.711V279.823C184.82 280.38 185.237 281.005 186.002 281.631C184.75 280.936 183.569 280.519 182.456 280.449C181.413 280.31 180.44 280.519 179.675 280.936C179.05 281.283 178.702 281.77 178.702 282.257V283.369C178.911 284.134 179.606 285.038 181.205 285.941Z" fill="#7DA9DA"/>
<path id="Vector_38" d="M186.28 281.77C188.922 283.3 189.339 284.69 187.67 285.663C186.141 286.498 183.707 286.289 181.135 284.829C178.563 283.369 178.215 281.909 179.814 281.006C181.483 280.032 183.846 280.31 186.28 281.77ZM182.247 284.273C184.264 285.455 186.002 285.733 186.975 285.177C188.018 284.551 187.323 283.578 185.376 282.396C183.499 281.284 181.761 280.866 180.649 281.492C179.675 281.979 180.162 283.022 182.247 284.273Z" fill="white"/>
<path id="Vector_39" d="M192.398 278.225C195.04 279.754 195.457 281.144 193.788 282.118C192.259 282.952 189.826 282.743 187.253 281.283C184.681 279.823 184.333 278.364 185.932 277.46C187.531 276.556 189.895 276.834 192.398 278.225ZM188.296 280.727C190.312 281.909 192.05 282.187 193.024 281.631C194.066 281.005 193.371 280.032 191.425 278.85C189.548 277.738 187.81 277.321 186.697 277.946C185.793 278.503 186.211 279.545 188.296 280.727Z" fill="white"/>
<path id="Vector_40" d="M198.446 274.749C201.088 276.278 201.505 277.669 199.836 278.642C198.307 279.476 195.873 279.268 193.301 277.808C190.729 276.348 190.381 274.888 191.98 273.984C193.649 273.011 196.013 273.359 198.446 274.749ZM194.414 277.252C196.43 278.434 198.168 278.712 199.141 278.156C200.184 277.53 199.489 276.557 197.542 275.375C195.665 274.262 193.927 273.845 192.815 274.471C191.841 275.027 192.258 276 194.414 277.252Z" fill="white"/>
<path id="Vector_41" d="M204.495 271.274C207.136 272.804 207.553 274.194 205.885 275.167C204.356 276.002 201.922 275.793 199.35 274.333C196.778 272.873 196.43 271.413 198.029 270.509C199.698 269.536 202.061 269.814 204.495 271.274ZM200.462 273.707C202.478 274.889 204.216 275.167 205.19 274.611C206.233 273.985 205.537 273.012 203.591 271.83C201.714 270.718 199.976 270.301 198.863 270.927C197.89 271.483 198.377 272.526 200.462 273.707Z" fill="white"/>
<path id="Vector_42" d="M213.115 266.267C215.756 267.797 216.174 269.187 214.505 270.161C212.976 270.995 210.542 270.786 207.97 269.326C205.398 267.866 205.05 266.407 206.649 265.503C208.318 264.599 210.681 264.877 213.115 266.267ZM209.013 268.77C211.029 269.952 212.767 270.23 213.74 269.674C214.783 269.048 214.088 268.075 212.141 266.893C210.264 265.781 208.526 265.364 207.414 265.989C206.51 266.546 206.927 267.588 209.013 268.77Z" fill="white"/>
<path id="Vector_43" d="M219.163 262.792C221.804 264.321 222.221 265.712 220.553 266.685C219.023 267.519 216.59 267.311 214.018 265.851C211.446 264.391 211.098 262.931 212.697 262.027C214.366 261.054 216.729 261.332 219.163 262.792ZM215.13 265.294C217.146 266.476 218.884 266.754 219.858 266.198C220.901 265.573 220.205 264.599 218.259 263.417C216.382 262.305 214.644 261.888 213.531 262.514C212.558 263 213.045 264.043 215.13 265.294Z" fill="white"/>
<path id="Vector_44" d="M225.281 259.246C227.922 260.775 228.34 262.166 226.671 263.139C225.142 263.973 222.708 263.765 220.136 262.305C217.564 260.845 217.216 259.385 218.815 258.481C220.414 257.578 222.778 257.856 225.281 259.246ZM221.179 261.749C223.195 262.931 224.933 263.209 225.906 262.653C226.949 262.027 226.254 261.054 224.307 259.872C222.43 258.759 220.692 258.342 219.58 258.968C218.676 259.524 219.093 260.567 221.179 261.749Z" fill="white"/>
<path id="Vector_45" d="M231.33 255.769C233.971 257.298 234.388 258.688 232.72 259.662C231.19 260.496 228.757 260.287 226.185 258.827C223.613 257.368 223.265 255.908 224.864 255.004C226.533 254.031 228.896 254.378 231.33 255.769ZM227.297 258.271C229.313 259.453 231.051 259.731 232.025 259.175C233.068 258.549 232.372 257.576 230.426 256.394C228.549 255.282 226.811 254.865 225.698 255.49C224.725 255.977 225.142 257.02 227.297 258.271Z" fill="white"/>
<path id="Vector_46" d="M239.88 250.835C242.522 252.364 242.939 253.755 241.271 254.728C239.741 255.562 237.308 255.354 234.736 253.894C232.163 252.434 231.816 250.974 233.415 250.07C235.083 249.097 237.447 249.375 239.88 250.835ZM235.848 253.268C237.864 254.45 239.602 254.728 240.576 254.172C241.618 253.546 240.923 252.573 238.977 251.391C237.099 250.279 235.361 249.861 234.249 250.487C233.276 251.043 233.762 252.086 235.848 253.268Z" fill="white"/>
<path id="Vector_47" d="M245.998 247.287C248.64 248.816 249.057 250.207 247.389 251.18C245.859 252.014 243.426 251.806 240.854 250.346C238.282 248.886 237.934 247.426 239.533 246.522C241.132 245.619 243.565 245.897 245.998 247.287ZM241.897 249.79C243.913 250.972 245.651 251.25 246.624 250.694C247.667 250.068 246.972 249.095 245.025 247.913C243.148 246.8 241.41 246.383 240.298 247.009C239.394 247.565 239.811 248.608 241.897 249.79Z" fill="white"/>
<path id="Vector_48" d="M252.046 243.813C254.688 245.343 255.105 246.733 253.437 247.706C251.907 248.541 249.474 248.332 246.902 246.872C244.33 245.412 243.982 243.952 245.581 243.048C247.249 242.075 249.613 242.353 252.046 243.813ZM248.014 246.246C250.03 247.428 251.768 247.706 252.742 247.15C253.784 246.525 253.089 245.551 251.143 244.369C249.265 243.257 247.527 242.84 246.415 243.466C245.442 244.022 245.928 245.065 248.014 246.246Z" fill="white"/>
<path id="Vector_49" d="M258.094 240.266C260.736 241.795 261.153 243.185 259.485 244.159C257.955 244.993 255.522 244.784 252.95 243.324C250.377 241.865 250.03 240.405 251.629 239.501C253.297 238.597 255.661 238.875 258.094 240.266ZM254.062 242.768C256.078 243.95 257.816 244.228 258.789 243.672C259.832 243.046 259.137 242.073 257.19 240.891C255.313 239.779 253.575 239.362 252.463 239.987C251.49 240.544 251.976 241.586 254.062 242.768Z" fill="white"/>
<path id="Vector_50" d="M266.715 235.329C269.357 236.859 269.774 238.249 268.106 239.222C266.576 240.057 264.143 239.848 261.571 238.388C258.998 236.928 258.651 235.468 260.25 234.564C261.918 233.591 264.282 233.939 266.715 235.329ZM262.683 237.832C264.699 239.014 266.437 239.292 267.41 238.736C268.453 238.11 267.758 237.137 265.811 235.955C263.934 234.842 262.196 234.425 261.084 235.051C260.111 235.607 260.528 236.58 262.683 237.832Z" fill="white"/>
<path id="Vector_51" d="M272.764 231.854C275.406 233.384 275.823 234.774 274.154 235.747C272.625 236.582 270.192 236.373 267.62 234.913C265.047 233.453 264.7 231.993 266.299 231.089C267.967 230.116 270.331 230.394 272.764 231.854ZM268.732 234.287C270.748 235.469 272.486 235.747 273.459 235.191C274.502 234.566 273.807 233.592 271.86 232.41C269.983 231.298 268.245 230.881 267.133 231.507C266.16 232.063 266.646 233.106 268.732 234.287Z" fill="white"/>
<path id="Vector_52" d="M278.881 228.308C281.523 229.837 281.94 231.227 280.272 232.201C278.742 233.035 276.309 232.826 273.737 231.367C271.164 229.907 270.817 228.447 272.416 227.543C274.015 226.57 276.379 226.917 278.881 228.308ZM274.78 230.81C276.796 231.992 278.534 232.27 279.507 231.714C280.55 231.088 279.855 230.115 277.908 228.933C276.031 227.821 274.293 227.404 273.181 228.03C272.277 228.586 272.694 229.559 274.78 230.81Z" fill="white"/>
<path id="Vector_53" d="M284.93 224.833C287.572 226.362 287.989 227.753 286.321 228.726C284.791 229.56 282.358 229.352 279.786 227.892C277.213 226.432 276.866 224.972 278.465 224.068C280.133 223.095 282.497 223.373 284.93 224.833ZM280.898 227.266C282.914 228.448 284.652 228.726 285.625 228.17C286.668 227.544 285.973 226.571 284.026 225.389C282.149 224.277 280.411 223.859 279.299 224.485C278.326 225.041 278.743 226.084 280.898 227.266Z" fill="white"/>
<path id="Vector_54" d="M261.571 259.176C264.213 260.705 267.063 260.636 269.01 259.524C269.844 259.037 270.33 258.55 270.469 258.272V257.16L269.496 256.812C269.357 257.16 268.94 257.507 268.384 257.855C267.48 258.342 266.437 258.55 265.325 258.481C264.421 258.411 263.448 258.064 262.544 257.577C261.71 257.09 261.223 256.604 260.945 256.117C261.084 255.769 261.432 255.491 261.918 255.213C262.475 254.866 263.1 254.657 263.656 254.588V253.475L263.031 252.85C262.683 252.919 261.918 253.058 261.015 253.614C260.041 254.171 259.555 254.866 259.555 255.561V256.673C259.485 257.508 260.18 258.411 261.571 259.176ZM252.742 265.92C251.699 265.85 250.656 265.433 249.683 264.946C248.848 264.46 248.223 263.903 247.945 263.347C248.084 263.139 248.292 263 248.57 262.791C250.03 261.957 252.394 262.513 253.993 263.417C254.827 263.903 255.453 264.46 255.731 264.946C255.592 265.155 255.383 265.294 255.105 265.502C254.48 265.92 253.645 265.989 252.742 265.92ZM247.806 269.674L245.303 268.214C245.72 268.005 246.207 267.866 246.763 267.797C247.389 267.727 248.014 267.866 248.64 268.214C248.918 268.353 249.127 268.561 249.266 268.7C249.127 268.909 248.918 269.048 248.64 269.257C248.292 269.465 248.014 269.604 247.806 269.674ZM239.672 267.101L247.597 271.69C247.945 271.551 248.431 271.273 249.057 270.925C249.961 270.438 250.587 269.743 250.587 269.117V268.005C250.587 267.936 250.587 267.936 250.587 267.866C250.587 267.658 250.447 267.379 250.239 267.171C252.255 267.866 254.41 267.866 255.87 267.032C256.635 266.615 257.052 265.989 257.052 265.363V264.251C257.052 263.764 256.774 263.208 256.218 262.652C258.72 263.903 261.362 263.834 263.17 262.791C264.004 262.304 264.491 261.818 264.63 261.54V260.427L263.656 260.08C263.587 260.149 263.587 260.219 263.517 260.288C263.309 260.566 262.961 260.844 262.544 261.053C261.64 261.54 260.597 261.748 259.485 261.679C258.581 261.609 257.608 261.262 256.704 260.775C255.87 260.288 255.383 259.802 255.105 259.315C255.244 258.967 255.592 258.689 256.079 258.411C256.635 258.064 257.26 257.855 257.817 257.786V256.673L257.191 256.048C256.843 256.117 256.079 256.256 255.175 256.812C254.202 257.368 253.715 258.064 253.715 258.759V259.871C253.715 260.427 253.993 260.914 254.48 261.47C253.437 260.914 252.325 260.636 251.282 260.497C249.961 260.358 248.709 260.566 247.736 261.123C246.971 261.609 246.554 262.165 246.554 262.791V263.903C246.554 264.599 247.041 265.363 248.014 266.059C247.875 266.059 247.667 265.989 247.528 265.989C247.18 265.989 246.902 265.989 246.624 265.989C245.79 266.059 244.955 266.337 244.33 266.684C244.121 266.823 243.704 267.032 243.565 267.24L242.383 266.545L244.399 265.363V264.251L243.565 263.764L239.672 265.989V267.101ZM230.843 272.246L238.837 276.834L239.811 276.278V275.166C239.811 275.166 237.795 271.273 237.725 271.134C238.351 271.481 238.977 271.898 239.811 272.385L243.217 274.332L244.052 273.845V272.733L236.057 268.144L235.153 268.631V269.743C235.153 269.743 237.239 273.775 237.308 273.914C236.613 273.497 235.918 273.08 235.083 272.594L232.024 270.855C232.372 270.786 232.72 270.716 232.998 270.508C233.345 270.299 233.554 270.091 233.623 269.882V269.813V268.7C233.623 268.422 233.415 268.214 233.067 267.936L232.372 268.353V269.187C232.163 269.257 231.955 269.326 231.816 269.257C231.607 269.257 231.329 269.117 231.121 269.048L230.425 269.465V270.577C230.704 270.716 231.051 270.855 231.329 270.855L230.773 271.134V272.246H230.843ZM231.26 279.198L228.757 277.738C229.661 277.321 230.912 277.112 232.094 277.808C232.372 277.947 232.581 278.155 232.72 278.294C232.581 278.503 232.372 278.642 232.094 278.85C231.746 278.989 231.538 279.128 231.26 279.198ZM223.195 276.695L231.121 281.284C231.468 281.145 231.955 280.866 232.581 280.519C233.415 280.032 234.11 279.407 234.11 278.711V277.599C234.11 277.529 234.11 277.46 234.11 277.46C234.041 277.251 233.971 277.043 233.832 276.904L236.265 278.294L237.169 277.808V276.695L229.174 272.107L228.27 272.594V273.706L231.746 275.722C231.468 275.652 231.26 275.583 230.982 275.583C229.8 275.444 228.687 275.791 227.784 276.278C227.575 276.417 227.228 276.626 227.019 276.765L224.03 275.027L223.126 275.513V276.695H223.195ZM215.27 284.064L213.601 283.091C214.436 282.674 215.409 282.535 216.243 283.091C216.382 283.161 216.452 283.23 216.521 283.3C216.382 283.439 216.243 283.508 216.104 283.647L215.27 284.064ZM216.521 280.519L224.516 285.107L225.42 284.621V283.508L222.639 281.909L225.003 280.519L228.757 282.674L229.661 282.187V281.075L221.666 276.487L220.762 276.973V278.086L223.195 279.476L220.832 280.866L217.495 278.92L216.591 279.407V280.519H216.521ZM219.094 286.289L217.008 285.107C217.912 284.621 219.094 284.482 220.136 285.107C220.345 285.246 220.484 285.316 220.554 285.455C220.414 285.663 220.136 285.802 219.928 285.942C219.58 286.011 219.302 286.15 219.094 286.289ZM211.099 283.786L218.955 288.305C219.302 288.166 219.789 287.888 220.414 287.54C221.527 286.915 222.083 286.359 222.083 285.802V284.69C222.013 284.273 221.735 283.856 221.04 283.439C220.484 283.161 219.928 282.952 219.441 282.952C218.815 282.883 218.259 282.952 217.842 283.091V282.535C217.842 282.118 217.564 281.77 217.077 281.423C216.591 281.145 216.104 281.006 215.618 280.936C215.409 280.936 215.27 280.936 215.061 280.936C214.227 280.936 213.462 281.145 212.559 281.701C211.933 282.048 211.377 282.465 211.099 282.744V283.786ZM210.751 288.166L209.708 287.054C209.778 287.054 211.585 287.68 211.585 287.68L210.751 288.166ZM206.58 286.289L212.211 292.268L213.115 291.712V290.599L212.002 289.418L213.74 288.375L217.008 289.418L217.981 288.861V287.749L207.623 284.482L206.58 285.107V286.289ZM205.12 295.466L206.093 295.883C206.51 295.674 206.719 295.327 206.788 295.049C206.788 294.979 206.788 294.91 206.788 294.91V293.797C206.788 292.824 205.05 291.781 203.382 290.808L201.922 289.974L203.243 289.209L210.334 293.311L211.238 292.824V291.712L203.243 287.123L199.211 289.487V290.599L202.548 292.546C203.521 293.102 204.703 293.797 205.189 294.423L205.12 294.493V295.466ZM194.553 293.241L202.548 297.83L203.451 297.343V296.231L197.264 292.685L199.072 291.642V290.53L198.237 290.043L194.553 292.129V293.241Z" fill="#7DA9DA"/>
<path id="Vector_55" d="M198.168 290.043L199.072 290.53L196.291 292.129L203.382 296.23L202.478 296.717L194.553 292.129L198.168 290.043Z" fill="white"/>
<path id="Vector_56" d="M203.243 287.123L211.238 291.711L210.334 292.198L203.243 288.096L200.949 289.417L203.382 290.808C205.12 291.781 206.997 292.963 206.789 293.936C206.719 294.214 206.511 294.562 206.093 294.77L205.12 294.353C205.329 294.145 205.398 293.867 205.398 293.658C205.329 292.963 203.799 292.059 202.548 291.294L199.211 289.348L203.243 287.123Z" fill="white"/>
<path id="Vector_57" d="M211.308 288.722L213.115 290.599L212.211 291.155L206.58 285.176L207.623 284.551L217.982 287.818L217.008 288.374L213.741 287.332L211.308 288.722ZM212.767 286.984L209.778 286.08C209.083 285.872 208.527 285.663 207.97 285.455C208.318 285.802 208.735 286.15 209.083 286.497L210.751 288.235L212.767 286.984Z" fill="white"/>
<path id="Vector_58" d="M211.099 282.675C211.377 282.397 211.933 281.98 212.559 281.632C213.462 281.145 214.227 280.867 215.061 280.867C215.757 280.867 216.382 281.006 217.008 281.354C217.773 281.771 217.981 282.466 217.564 283.022C218.398 282.744 219.789 282.675 220.971 283.37C221.666 283.787 221.944 284.204 222.013 284.621C222.013 285.177 221.527 285.803 220.414 286.429C219.789 286.776 219.302 287.055 218.954 287.194L211.099 282.675ZM215.27 284.065L216.104 283.578C217.077 283.022 217.008 282.397 216.243 281.98C215.339 281.423 214.297 281.562 213.462 282.119C213.045 282.327 212.837 282.536 212.767 282.605L215.27 284.065ZM219.094 286.29C219.302 286.22 219.58 286.081 219.858 285.873C220.762 285.317 221.249 284.621 220.067 283.926C218.955 283.3 217.703 283.509 216.73 284.065L215.965 284.482L219.094 286.29Z" fill="white"/>
<path id="Vector_59" d="M217.425 278.92L220.762 280.866L224.099 278.92L220.762 276.973L221.666 276.486L229.661 281.075L228.757 281.561L225.003 279.406L221.666 281.353L225.42 283.508L224.516 283.995L216.521 279.406L217.425 278.92Z" fill="white"/>
<path id="Vector_60" d="M224.099 275.095L227.088 276.833C227.227 276.694 227.644 276.485 227.853 276.346C229.243 275.512 231.26 275.234 232.998 276.277C233.762 276.694 234.04 277.111 234.179 277.528C234.318 278.223 233.623 278.919 232.65 279.475C232.024 279.822 231.538 280.1 231.19 280.239L223.265 275.651L224.099 275.095ZM231.26 279.197C231.468 279.127 231.746 278.988 232.024 278.849C232.998 278.293 233.276 277.459 232.094 276.763C230.842 276.068 229.452 276.277 228.548 276.833C228.201 277.041 227.992 277.181 227.923 277.25L231.26 279.197ZM229.243 272.105L237.238 276.694L236.335 277.181L228.34 272.592L229.243 272.105Z" fill="white"/>
<path id="Vector_61" d="M231.12 269.048C231.537 269.256 232.024 269.395 232.51 269.117C232.997 268.839 232.719 268.561 232.371 268.353L233.067 267.936C233.831 268.422 233.901 268.909 232.997 269.465C232.163 269.952 231.259 269.882 230.425 269.465L231.12 269.048ZM231.676 270.716L235.013 272.663C236.265 273.428 237.307 273.984 238.281 274.679C237.794 273.984 237.377 273.219 236.89 272.385L235.013 268.7L235.917 268.214L243.912 272.802L243.078 273.289L239.671 271.342C238.35 270.577 237.446 270.021 236.473 269.395H236.404C236.96 270.091 237.377 270.925 237.794 271.69L239.602 275.235L238.628 275.791L230.633 271.203L231.676 270.716Z" fill="white"/>
<path id="Vector_62" d="M243.565 263.834L244.399 264.321L241.41 266.059L243.565 267.31C243.773 267.171 244.121 266.893 244.33 266.754C244.955 266.406 245.79 266.128 246.624 266.059C247.528 265.989 248.501 266.128 249.474 266.684C250.239 267.101 250.586 267.588 250.656 268.005C250.726 268.7 250.03 269.396 249.127 269.952C248.501 270.299 248.014 270.577 247.667 270.717L239.741 266.128L243.565 263.834ZM247.806 269.674C248.084 269.604 248.292 269.465 248.64 269.257C249.196 268.909 249.544 268.492 249.474 268.075C249.405 267.797 249.196 267.449 248.709 267.171C248.084 266.823 247.458 266.684 246.832 266.754C246.207 266.823 245.581 266.962 245.094 267.31C244.886 267.449 244.608 267.588 244.469 267.727L247.806 269.674Z" fill="white"/>
<path id="Vector_63" d="M254.966 261.748C257.747 263.347 257.747 265.016 255.939 265.989C254.132 267.032 251.212 266.823 248.779 265.433C246.276 263.973 245.928 262.235 247.805 261.192C249.682 260.149 252.602 260.358 254.966 261.748ZM249.752 264.946C251.49 265.919 253.784 266.337 255.175 265.572C256.565 264.738 255.87 263.417 254.062 262.374C252.463 261.47 250.1 260.914 248.64 261.748C247.11 262.582 248.014 263.903 249.752 264.946Z" fill="white"/>
<path id="Vector_64" d="M264.699 260.497C264.56 260.775 264.074 261.262 263.239 261.748C261.293 262.861 258.442 262.861 255.801 261.401C253.298 259.941 253.089 258.133 255.175 256.882C256.009 256.395 256.774 256.187 257.191 256.117L257.817 256.743C257.261 256.812 256.635 257.021 256.079 257.369C254.48 258.272 254.619 259.593 256.704 260.845C258.651 261.957 260.876 262.166 262.544 261.192C263.1 260.914 263.517 260.497 263.656 260.149L264.699 260.497Z" fill="white"/>
<path id="Vector_65" d="M270.469 257.229C270.33 257.507 269.843 257.994 269.009 258.481C267.062 259.593 264.212 259.593 261.57 258.133C259.067 256.673 258.859 254.866 260.944 253.614C261.779 253.128 262.543 252.919 262.961 252.85L263.586 253.475C263.03 253.545 262.404 253.753 261.848 254.101C260.249 255.005 260.388 256.326 262.474 257.577C264.421 258.689 266.645 258.898 268.314 257.925C268.87 257.577 269.287 257.229 269.426 256.882L270.469 257.229Z" fill="white"/>
</g>
<defs>
<linearGradient id="paint0_linear_1628_4893" x1="1.04328e-07" y1="130.5" x2="488" y2="134.5" gradientUnits="userSpaceOnUse">
<stop offset="0.34568" stop-color="#0E253D"/>
<stop offset="1" stop-color="#0E253F" stop-opacity="0"/>
</linearGradient>
<linearGradient id="paint1_linear_1628_4893" x1="307.525" y1="296.824" x2="366.677" y2="228.533" gradientUnits="userSpaceOnUse">
<stop stop-color="#04624E"/>
<stop offset="0.1" stop-color="#25E2BD" stop-opacity="0.4"/>
<stop offset="0.7" stop-color="#27F0B6" stop-opacity="0.12"/>
<stop offset="1" stop-color="#0D2139" stop-opacity="0.05"/>
</linearGradient>
<linearGradient id="paint2_linear_1628_4893" x1="307.242" y1="296.756" x2="366.5" y2="228.381" gradientUnits="userSpaceOnUse">
<stop stop-color="#226A90" stop-opacity="0.5"/>
<stop offset="1" stop-color="#226A90" stop-opacity="0"/>
</linearGradient>
<linearGradient id="paint3_linear_1628_4893" x1="329.62" y1="134.295" x2="301.939" y2="77.0001" gradientUnits="userSpaceOnUse">
<stop stop-color="#1169A6"/>
<stop offset="0.1256" stop-color="#0E64A2"/>
<stop offset="0.1959" stop-color="#0B5E9E"/>
<stop offset="0.2595" stop-color="#0D61A0"/>
<stop offset="0.3106" stop-color="#156BA6"/>
<stop offset="0.3573" stop-color="#217CB1"/>
<stop offset="0.4014" stop-color="#3294C1"/>
<stop offset="0.4437" stop-color="#49B3D4"/>
<stop offset="0.4841" stop-color="#64D8EC"/>
<stop offset="0.5031" stop-color="#73ECF9"/>
<stop offset="1" stop-color="#00ABE2"/>
</linearGradient>
<linearGradient id="paint4_linear_1628_4893" x1="380.075" y1="106.649" x2="250.947" y2="231.791" gradientUnits="userSpaceOnUse">
<stop stop-color="#085395"/>
<stop offset="0.998" stop-color="#06306E"/>
</linearGradient>
<linearGradient id="paint5_linear_1628_4893" x1="266.883" y1="287.636" x2="327.784" y2="120.723" gradientUnits="userSpaceOnUse">
<stop offset="0.1347" stop-color="#83AFCD"/>
<stop offset="0.3936" stop-color="#A2C2D9"/>
<stop offset="0.9576" stop-color="#F1F2F9"/>
<stop offset="1" stop-color="#F7F6FB"/>
</linearGradient>
<linearGradient id="paint6_linear_1628_4893" x1="306.485" y1="266.737" x2="289.61" y2="279.827" gradientUnits="userSpaceOnUse">
<stop offset="0.0353535" stop-color="#FF9E6E"/>
<stop offset="0.3036" stop-color="#FFAD73"/>
<stop offset="0.821" stop-color="#FFD680"/>
<stop offset="1" stop-color="#FFE585"/>
</linearGradient>
<linearGradient id="paint7_linear_1628_4893" x1="323.883" y1="276.827" x2="304.388" y2="291.95" gradientUnits="userSpaceOnUse">
<stop offset="0.0353535" stop-color="#FF9E6E"/>
<stop offset="0.3036" stop-color="#FFAD73"/>
<stop offset="0.821" stop-color="#FFD680"/>
<stop offset="1" stop-color="#FFE585"/>
</linearGradient>
<linearGradient id="paint8_linear_1628_4893" x1="311.149" y1="256.927" x2="300.76" y2="264.985" gradientUnits="userSpaceOnUse">
<stop offset="0.0353535" stop-color="#FF9E6E"/>
<stop offset="0.3036" stop-color="#FFAD73"/>
<stop offset="0.821" stop-color="#FFD680"/>
<stop offset="1" stop-color="#FFE585"/>
</linearGradient>
<linearGradient id="paint9_linear_1628_4893" x1="306.811" y1="248.385" x2="289.578" y2="261.753" gradientUnits="userSpaceOnUse">
<stop offset="0.0353535" stop-color="#FF9E6E"/>
<stop offset="0.3036" stop-color="#FFAD73"/>
<stop offset="0.821" stop-color="#FFD680"/>
<stop offset="1" stop-color="#FFE585"/>
</linearGradient>
<linearGradient id="paint10_linear_1628_4893" x1="311.743" y1="279.813" x2="316.939" y2="269.734" gradientUnits="userSpaceOnUse">
<stop offset="0.0353535" stop-color="#FF9E6E"/>
<stop offset="0.3036" stop-color="#FFAD73"/>
<stop offset="0.821" stop-color="#FFD680"/>
<stop offset="1" stop-color="#FFE585"/>
</linearGradient>
<linearGradient id="paint11_linear_1628_4893" x1="290.083" y1="283.847" x2="304.384" y2="265.952" gradientUnits="userSpaceOnUse">
<stop offset="0.0353535" stop-color="#FF9E6E"/>
<stop offset="0.3036" stop-color="#FFAD73"/>
<stop offset="0.821" stop-color="#FFD680"/>
<stop offset="1" stop-color="#FFE585"/>
</linearGradient>
<linearGradient id="paint12_linear_1628_4893" x1="327.955" y1="166.044" x2="327.955" y2="120.062" gradientUnits="userSpaceOnUse">
<stop stop-color="#457D83"/>
<stop offset="0.9975" stop-color="#1599DD"/>
</linearGradient>
<linearGradient id="paint13_linear_1628_4893" x1="340.119" y1="112.842" x2="303.438" y2="91.4144" gradientUnits="userSpaceOnUse">
<stop stop-color="#84ECF4"/>
<stop offset="1" stop-color="#00ABD5"/>
</linearGradient>
<linearGradient id="paint14_linear_1628_4893" x1="287.34" y1="86.1064" x2="287.34" y2="76.6837" gradientUnits="userSpaceOnUse">
<stop stop-color="#105383"/>
<stop offset="0.9975" stop-color="#1599DD"/>
</linearGradient>
<linearGradient id="paint15_linear_1628_4893" x1="314.026" y1="102.998" x2="276.705" y2="139.167" gradientUnits="userSpaceOnUse">
<stop stop-color="#105383"/>
<stop offset="0.998" stop-color="#0D305E"/>
</linearGradient>
<linearGradient id="paint16_linear_1628_4893" x1="312.838" y1="92.7687" x2="277.574" y2="154.998" gradientUnits="userSpaceOnUse">
<stop offset="0.00505051" stop-color="#20B0D3"/>
<stop offset="0.56" stop-color="#24D4C3"/>
<stop offset="1" stop-color="#27F3B5"/>
</linearGradient>
<linearGradient id="paint17_linear_1628_4893" x1="319.338" y1="189.162" x2="297.714" y2="210.119" gradientUnits="userSpaceOnUse">
<stop stop-color="#105383"/>
<stop offset="0.998" stop-color="#0D305E"/>
</linearGradient>
<linearGradient id="paint18_linear_1628_4893" x1="307.406" y1="204.901" x2="310.84" y2="198.893" gradientUnits="userSpaceOnUse">
<stop stop-color="#EEEFFC"/>
<stop offset="1" stop-color="#10446E"/>
</linearGradient>
<linearGradient id="paint19_linear_1628_4893" x1="223.192" y1="304.298" x2="223.192" y2="239.576" gradientUnits="userSpaceOnUse">
<stop stop-color="#105383"/>
<stop offset="0.9975" stop-color="#1599DD"/>
</linearGradient>
<linearGradient id="paint20_linear_1628_4893" x1="278.79" y1="196.829" x2="184.074" y2="284.993" gradientUnits="userSpaceOnUse">
<stop offset="0.00505051" stop-color="#20B0D3"/>
<stop offset="0.56" stop-color="#24D4C3"/>
<stop offset="1" stop-color="#27F3B5"/>
</linearGradient>
<linearGradient id="paint21_linear_1628_4893" x1="259.99" y1="200.213" x2="244.363" y2="212.335" gradientUnits="userSpaceOnUse">
<stop offset="0.0353535" stop-color="#FF9E6E"/>
<stop offset="0.3036" stop-color="#FFAD73"/>
<stop offset="0.821" stop-color="#FFD680"/>
<stop offset="1" stop-color="#FFE585"/>
</linearGradient>
<linearGradient id="paint22_linear_1628_4893" x1="248.285" y1="206.972" x2="232.658" y2="219.093" gradientUnits="userSpaceOnUse">
<stop offset="0.0353535" stop-color="#FF9E6E"/>
<stop offset="0.3036" stop-color="#FFAD73"/>
<stop offset="0.821" stop-color="#FFD680"/>
<stop offset="1" stop-color="#FFE585"/>
</linearGradient>
<linearGradient id="paint23_linear_1628_4893" x1="175.299" y1="251.281" x2="153.666" y2="268.061" gradientUnits="userSpaceOnUse">
<stop offset="0.0353535" stop-color="#FF9E6E"/>
<stop offset="0.3036" stop-color="#FFAD73"/>
<stop offset="0.821" stop-color="#FFD680"/>
<stop offset="1" stop-color="#FFE585"/>
</linearGradient>
<linearGradient id="paint24_linear_1628_4893" x1="210.546" y1="184.549" x2="189.534" y2="156.341" gradientUnits="userSpaceOnUse">
<stop offset="0.1347" stop-color="#83AFCD"/>
<stop offset="0.3936" stop-color="#A2C2D9"/>
<stop offset="0.9576" stop-color="#F1F2F9"/>
<stop offset="1" stop-color="#F7F6FB"/>
</linearGradient>
<linearGradient id="paint25_linear_1628_4893" x1="219.792" y1="206.113" x2="172.695" y2="214.145" gradientUnits="userSpaceOnUse">
<stop offset="0.1347" stop-color="#83AFCD"/>
<stop offset="0.3936" stop-color="#A2C2D9"/>
<stop offset="0.9576" stop-color="#F1F2F9"/>
<stop offset="1" stop-color="#F7F6FB"/>
</linearGradient>
<linearGradient id="paint26_linear_1628_4893" x1="205.491" y1="220.492" x2="247.842" y2="214.285" gradientUnits="userSpaceOnUse">
<stop offset="0.1347" stop-color="#83AFCD"/>
<stop offset="0.3936" stop-color="#A2C2D9"/>
<stop offset="0.9576" stop-color="#F1F2F9"/>
<stop offset="1" stop-color="#F7F6FB"/>
</linearGradient>
<linearGradient id="paint27_linear_1628_4893" x1="164.992" y1="181" x2="212.043" y2="169.336" gradientUnits="userSpaceOnUse">
<stop offset="0.1347" stop-color="#83AFCD"/>
<stop offset="0.369" stop-color="#ABC7DD"/>
<stop offset="0.6477" stop-color="#D4E1ED"/>
<stop offset="0.8677" stop-color="#EEF0F7"/>
<stop offset="1" stop-color="#F7F6FB"/>
</linearGradient>
<linearGradient id="paint28_linear_1628_4893" x1="188.638" y1="181.221" x2="223.178" y2="165.966" gradientUnits="userSpaceOnUse">
<stop offset="0.1347" stop-color="#83AFCD"/>
<stop offset="0.3936" stop-color="#A2C2D9"/>
<stop offset="0.9576" stop-color="#F1F2F9"/>
<stop offset="1" stop-color="#F7F6FB"/>
</linearGradient>
</defs>
    <style>
        .card {
            transform: translate(-12px , 10px);
            animation: card-anim 6s ease-in-out infinite;
        }
        @keyframes card-anim {
            0% {
                transform: translate(-12px , 10px);
            }
            50% {
                transform: translate(20px, -8px);
            }
            100% {
                transform: translate(-12px , 10px);
            }
        }
    </style>
</svg>
