<svg width="30" height="30" viewBox="0 0 30 30" fill="none" xmlns="http://www.w3.org/2000/svg">
<circle cx="15" cy="15" r="15" fill="#27F3B5"/>
<path d="M18.2432 10.9893C18.0451 10.9939 17.8569 11.0768 17.7197 11.2197L15 13.9395L12.2803 11.2197C12.2104 11.1477 12.1267 11.0905 12.0343 11.0514C11.9419 11.0123 11.8425 10.9922 11.7422 10.9922C11.5929 10.9922 11.4471 11.0368 11.3233 11.1202C11.1995 11.2036 11.1034 11.322 11.0473 11.4603C10.9912 11.5986 10.9776 11.7506 11.0084 11.8966C11.0391 12.0427 11.1127 12.1763 11.2197 12.2803L13.9395 15L11.2197 17.7197C11.1478 17.7888 11.0903 17.8716 11.0507 17.9632C11.0111 18.0548 10.9902 18.1534 10.9892 18.2532C10.9882 18.3529 11.0071 18.4519 11.0448 18.5443C11.0825 18.6367 11.1383 18.7206 11.2088 18.7912C11.2794 18.8617 11.3633 18.9175 11.4557 18.9552C11.5481 18.9929 11.6471 19.0118 11.7468 19.0108C11.8466 19.0098 11.9452 18.9889 12.0368 18.9493C12.1284 18.9097 12.2112 18.8523 12.2803 18.7803L15 16.0605L17.7197 18.7803C17.7888 18.8523 17.8716 18.9097 17.9632 18.9493C18.0548 18.9889 18.1534 19.0098 18.2532 19.0108C18.3529 19.0118 18.4519 18.9929 18.5443 18.9552C18.6367 18.9175 18.7206 18.8617 18.7912 18.7912C18.8617 18.7206 18.9175 18.6367 18.9552 18.5443C18.9929 18.4519 19.0118 18.3529 19.0108 18.2532C19.0098 18.1534 18.9889 18.0548 18.9493 17.9632C18.9097 17.8716 18.8523 17.7888 18.7803 17.7197L16.0606 15L18.7803 12.2803C18.8893 12.1756 18.9642 12.0404 18.9951 11.8924C19.026 11.7444 19.0115 11.5906 18.9534 11.451C18.8953 11.3114 18.7965 11.1927 18.6697 11.1103C18.543 11.0279 18.3943 10.9857 18.2432 10.9893Z" fill="#0C1E34"/>
</svg>
