<svg width="30" height="30" viewBox="0 0 30 30" fill="none" xmlns="http://www.w3.org/2000/svg">
<circle cx="15" cy="15" r="15" fill="#27F3B5"/>
<path d="M8.24994 9.75008C8.15056 9.74867 8.05188 9.76703 7.95966 9.80409C7.86743 9.84115 7.78349 9.89617 7.71271 9.96595C7.64194 10.0357 7.58573 10.1189 7.54737 10.2106C7.50901 10.3023 7.48926 10.4007 7.48926 10.5001C7.48926 10.5995 7.50901 10.6979 7.54737 10.7896C7.58573 10.8813 7.64194 10.9644 7.71271 11.0342C7.78349 11.104 7.86743 11.159 7.95966 11.1961C8.05188 11.2331 8.15056 11.2515 8.24994 11.2501H21.7499C21.8493 11.2515 21.948 11.2331 22.0402 11.1961C22.1324 11.159 22.2164 11.104 22.2872 11.0342C22.3579 10.9644 22.4141 10.8813 22.4525 10.7896C22.4909 10.6979 22.5106 10.5995 22.5106 10.5001C22.5106 10.4007 22.4909 10.3023 22.4525 10.2106C22.4141 10.1189 22.3579 10.0357 22.2872 9.96595C22.2164 9.89617 22.1324 9.84115 22.0402 9.80409C21.948 9.76703 21.8493 9.74867 21.7499 9.75008H8.24994ZM8.24994 14.2501C8.15056 14.2487 8.05188 14.267 7.95966 14.3041C7.86743 14.3412 7.78349 14.3962 7.71271 14.466C7.64194 14.5357 7.58573 14.6189 7.54737 14.7106C7.50901 14.8023 7.48926 14.9007 7.48926 15.0001C7.48926 15.0995 7.50901 15.1979 7.54737 15.2896C7.58573 15.3813 7.64194 15.4644 7.71271 15.5342C7.78349 15.604 7.86743 15.659 7.95966 15.6961C8.05188 15.7331 8.15056 15.7515 8.24994 15.7501H21.7499C21.8493 15.7515 21.948 15.7331 22.0402 15.6961C22.1324 15.659 22.2164 15.604 22.2872 15.5342C22.3579 15.4644 22.4141 15.3813 22.4525 15.2896C22.4909 15.1979 22.5106 15.0995 22.5106 15.0001C22.5106 14.9007 22.4909 14.8023 22.4525 14.7106C22.4141 14.6189 22.3579 14.5357 22.2872 14.466C22.2164 14.3962 22.1324 14.3412 22.0402 14.3041C21.948 14.267 21.8493 14.2487 21.7499 14.2501H8.24994ZM8.24994 18.7501C8.15056 18.7487 8.05188 18.767 7.95966 18.8041C7.86743 18.8412 7.78349 18.8962 7.71271 18.966C7.64194 19.0357 7.58573 19.1189 7.54737 19.2106C7.50901 19.3023 7.48926 19.4007 7.48926 19.5001C7.48926 19.5995 7.50901 19.6979 7.54737 19.7896C7.58573 19.8813 7.64194 19.9644 7.71271 20.0342C7.78349 20.104 7.86743 20.159 7.95966 20.1961C8.05188 20.2331 8.15056 20.2515 8.24994 20.2501H21.7499C21.8493 20.2515 21.948 20.2331 22.0402 20.1961C22.1324 20.159 22.2164 20.104 22.2872 20.0342C22.3579 19.9644 22.4141 19.8813 22.4525 19.7896C22.4909 19.6979 22.5106 19.5995 22.5106 19.5001C22.5106 19.4007 22.4909 19.3023 22.4525 19.2106C22.4141 19.1189 22.3579 19.0357 22.2872 18.966C22.2164 18.8962 22.1324 18.8412 22.0402 18.8041C21.948 18.767 21.8493 18.7487 21.7499 18.7501H8.24994Z" fill="#0C1E34"/>
</svg>
