<svg width="50" height="50" viewBox="0 0 50 50" fill="none" xmlns="http://www.w3.org/2000/svg">
<path d="M32.9902 15.9863C32.7265 15.9926 32.4758 16.1028 32.293 16.293L25 23.5859L17.707 16.293C17.6138 16.1972 17.5024 16.121 17.3793 16.069C17.2562 16.017 17.1239 15.9902 16.9902 15.9902C16.7913 15.9903 16.5969 16.0497 16.4319 16.1608C16.2669 16.2719 16.1388 16.4297 16.0639 16.614C15.989 16.7983 15.9709 17.0008 16.0117 17.1955C16.0525 17.3902 16.1504 17.5683 16.293 17.707L23.5859 25L16.293 32.293C16.197 32.3851 16.1204 32.4955 16.0676 32.6176C16.0148 32.7397 15.9869 32.8712 15.9856 33.0042C15.9842 33.1373 16.0094 33.2692 16.0597 33.3924C16.11 33.5156 16.1843 33.6275 16.2784 33.7216C16.3725 33.8156 16.4844 33.89 16.6076 33.9403C16.7308 33.9906 16.8627 34.0158 16.9958 34.0144C17.1288 34.0131 17.2603 33.9852 17.3824 33.9324C17.5045 33.8796 17.6149 33.803 17.707 33.707L25 26.4141L32.293 33.707C32.3851 33.803 32.4955 33.8796 32.6176 33.9324C32.7397 33.9852 32.8712 34.0131 33.0042 34.0144C33.1373 34.0158 33.2692 33.9906 33.3924 33.9403C33.5156 33.89 33.6275 33.8156 33.7216 33.7216C33.8156 33.6275 33.89 33.5156 33.9403 33.3924C33.9906 33.2692 34.0158 33.1373 34.0144 33.0042C34.0131 32.8712 33.9852 32.7397 33.9324 32.6176C33.8796 32.4955 33.803 32.3851 33.707 32.293L26.4141 25L33.707 17.707C33.8523 17.5674 33.9519 17.3871 33.993 17.1899C34.034 16.9926 34.0145 16.7876 33.937 16.6016C33.8595 16.4156 33.7277 16.2573 33.5588 16.1476C33.3898 16.0378 33.1917 15.9816 32.9902 15.9863Z" fill="#0C1E34"/>
</svg>
