<svg width="504" height="437" viewBox="0 0 504 437" fill="none" xmlns="http://www.w3.org/2000/svg">
<path d="M188.7 311.7V324.1L174.1 332.5L160.6 340.4V327.9L188.7 311.7Z" fill="url(#paint0_linear_1802_5448)"/>
<path d="M171.399 266.1L178.999 279.3L150.899 295.5L143.299 282.3L171.399 266.1Z" fill="url(#paint1_linear_1802_5448)"/>
<path d="M178.099 302.6C180.499 303.4 185.599 308.2 188.599 311.7L160.499 327.9C157.399 324.4 152.399 319.6 149.999 318.8C149.799 318.7 149.599 318.7 149.499 318.6L177.599 302.4C177.699 302.5 177.899 302.6 178.099 302.6Z" fill="url(#paint2_linear_1802_5448)"/>
<path d="M150.899 295.5L178.999 279.3C177.999 282 175.999 285.5 174.099 286.5C173.699 286.7 155.099 297.5 146.199 302.6C147.999 301.5 149.899 298.1 150.899 295.5Z" fill="url(#paint3_linear_1802_5448)"/>
<path d="M171.399 266.1L143.299 282.3C140.499 281.8 136.599 281.8 134.799 282.8C143.699 277.6 162.499 266.8 162.899 266.6C164.699 265.6 168.599 265.6 171.399 266.1Z" fill="url(#paint4_linear_1802_5448)"/>
<path d="M96.0994 261.9L106.799 263C106.799 262.9 106.699 262.4 106.699 262.3C106.599 261.9 106.599 261.5 106.599 261C106.599 259.2 107.099 257.1 107.799 255.2C107.899 255.1 107.899 254.9 107.999 254.8C108.499 253.6 108.999 252.4 109.399 251.6L120.199 257.8C121.299 261.2 122.899 267.1 122.899 270.3C122.899 270.8 122.899 271.2 122.799 271.5C122.799 271.7 122.699 271.9 122.699 272.1L133.899 284C133.999 283.9 134.099 283.8 134.199 283.6C134.399 283.4 134.599 283.2 134.899 283C136.799 281.9 140.699 282 143.399 282.5L150.999 295.7C149.999 298.3 148.099 301.7 146.299 302.8C145.999 303 145.699 303.1 145.399 303.1C145.199 303.1 145.099 303.1 144.899 303.2L149.599 318.9C149.799 319 149.999 319 150.099 319.1C152.499 319.9 157.599 324.7 160.599 328.2V340.6C159.599 340.6 158.399 340.5 157.199 340.2C156.999 340.2 156.899 340.1 156.699 340.1C154.199 339.6 151.599 338.8 150.099 337.5C149.999 337.4 149.599 337.1 149.599 337L144.899 347.3C145.099 347.5 145.199 347.7 145.399 347.9C147.499 350.6 149.899 357.5 150.999 361.9L143.399 366.3C140.599 363.5 136.499 358.8 134.699 355.6C134.499 355.2 134.299 354.8 134.099 354.5C133.999 354.3 133.899 354 133.799 353.8L122.599 352.7C122.599 352.9 122.699 353.2 122.699 353.4C122.799 353.8 122.799 354.2 122.799 354.7C122.799 357.9 121.199 362 120.099 364.1L109.299 357.9C108.199 354.5 106.599 348.6 106.599 345.4C106.599 344.9 106.599 344.5 106.699 344.2C106.699 344 106.799 343.8 106.799 343.6L95.5994 331.7C95.4994 331.8 95.3994 331.9 95.2994 332.1C95.0994 332.3 94.8994 332.5 94.6994 332.6C94.6994 332.6 94.5994 332.6 94.5994 332.7C92.6994 333.8 88.7994 333.7 85.9994 333.3L78.3994 320.1C79.3994 317.5 81.2994 314 83.1994 312.9H83.2994C83.5994 312.8 83.7994 312.7 84.0994 312.6C84.2994 312.6 84.3994 312.6 84.5994 312.5L79.8994 296.8C79.6994 296.7 79.4994 296.7 79.3994 296.6C76.9994 295.8 71.8994 291 68.8994 287.5V275.1C71.9994 275.2 76.9994 276.2 79.3994 278.2C79.5994 278.4 79.7994 278.5 79.8994 278.7L84.5994 268.4C84.3994 268.2 84.2994 268 84.0994 267.8C83.8994 267.5 83.5994 267.1 83.3994 266.7C81.4994 263.5 79.4994 257.7 78.4994 253.8L86.0994 249.4C89.2994 252.6 94.0994 258.1 95.3994 261.3C95.4994 261.5 95.5994 261.8 95.6994 262L96.0994 261.9ZM102.599 286.8C99.3994 288.7 97.5994 292.6 97.5994 297.8C97.5994 303 99.3994 309 102.599 314.6C105.799 320.2 110.099 324.7 114.699 327.3C119.299 329.9 123.499 330.4 126.799 328.5C129.999 326.6 131.799 322.7 131.799 317.5C131.799 312.2 129.999 306.3 126.799 300.7C120.099 289.2 109.199 282.9 102.599 286.8Z" fill="white"/>
<path d="M149.499 336.8C149.599 336.9 149.699 336.9 149.699 337L149.199 337.3L149.499 336.8Z" fill="#E6E6E6"/>
<path d="M149.299 337.4C149.199 337.4 149.199 337.4 149.299 337.4C149.199 337.3 149.199 337.3 149.199 337.2L149.399 336.7C149.399 336.7 149.399 336.6 149.499 336.6C149.599 336.6 149.599 336.6 149.599 336.6L149.799 336.8V336.9C149.799 336.9 149.799 337 149.699 337L149.299 337.4Z" fill="black"/>
<path d="M148.099 241.5C149.199 244.9 150.799 250.8 150.799 254C150.799 254.5 150.799 254.9 150.699 255.2C150.699 255.4 150.599 255.6 150.599 255.8L122.499 272C122.499 271.8 122.599 271.6 122.599 271.4C122.699 271.1 122.699 270.7 122.699 270.2C122.699 267 121.099 261.1 119.999 257.7L148.099 241.5Z" fill="url(#paint5_linear_1802_5448)"/>
<path d="M148.099 241.5L119.999 257.7L109.299 251.5L137.399 235.3L148.099 241.5Z" fill="url(#paint6_linear_1802_5448)"/>
<path d="M150.899 361.7C149.799 357.3 147.399 350.5 145.299 347.7C145.099 347.5 144.999 347.3 144.799 347.1L157.099 340C158.399 340.2 159.599 340.3 160.499 340.4L173.999 332.6C175.899 335.8 177.899 341.6 178.899 345.5L150.899 361.7Z" fill="url(#paint7_linear_1802_5448)"/>
<path d="M156.599 339.9C154.099 339.4 151.499 338.6 149.999 337.3C149.899 337.2 149.799 337.1 149.699 337.1L149.199 337.4L144.799 347.2L157.099 340.1C156.999 340 156.799 339.9 156.599 339.9Z" fill="url(#paint8_linear_1802_5448)"/>
<path d="M177.399 301.8L173.099 287.2C164.199 292.4 155.199 297.5 146.299 302.7C145.999 302.9 145.699 303 145.399 303C145.199 303 145.099 303 144.899 303.1L149.599 318.8L177.699 302.6L177.399 301.8Z" fill="url(#paint9_linear_1802_5448)"/>
<path d="M131.699 317.5C131.699 322.8 129.899 326.7 126.699 328.5C123.499 330.4 119.199 329.9 114.599 327.3C109.999 324.7 105.799 320.2 102.499 314.6C99.299 309 97.499 303 97.499 297.8C97.499 292.5 99.299 288.6 102.499 286.8C106.199 284.7 111.199 285.6 115.999 288.9C116.299 293.7 118.099 299 120.899 304C123.799 309 127.499 313.1 131.499 315.8C131.699 316.4 131.699 316.9 131.699 317.5Z" fill="url(#paint10_linear_1802_5448)"/>
<path d="M161.599 267.4C152.699 272.6 143.699 277.7 134.799 282.9C134.499 283.1 134.199 283.3 134.099 283.5C133.999 283.6 133.899 283.7 133.799 283.9L122.499 272L150.599 255.8L161.599 267.4Z" fill="url(#paint11_linear_1802_5448)"/>
<path d="M133.699 353.5C133.799 353.7 133.899 354 133.999 354.2C134.099 354.6 134.299 354.9 134.599 355.3L119.999 363.7C121.099 361.6 122.699 357.6 122.699 354.3C122.699 353.8 122.699 353.4 122.599 353C122.599 352.8 122.499 352.5 122.499 352.3L133.699 353.5Z" fill="url(#paint12_linear_1802_5448)"/>
<path d="M114.099 233C116.899 235.8 120.999 240.5 122.799 243.7L109.299 251.5C108.899 252.3 108.399 253.4 107.899 254.7L95.599 261.8C95.499 261.6 95.399 261.3 95.299 261.1C93.999 257.9 89.199 252.4 85.999 249.2L114.099 233Z" fill="url(#paint13_linear_1802_5448)"/>
<path d="M107.9 254.7L95.5996 261.8L106.8 262.9C106.8 262.8 106.7 262.3 106.7 262.2C106.6 261.8 106.6 261.4 106.6 260.9C106.6 259.1 107.1 257 107.8 255.1C107.8 255 107.8 254.8 107.9 254.7Z" fill="url(#paint14_linear_1802_5448)"/>
<path d="M94.6992 332.4C94.8992 332.2 95.1992 332.1 95.2992 331.9C95.3992 331.8 95.4992 331.7 95.5992 331.5L95.7992 331.7C95.3992 331.9 94.9992 332.2 94.6992 332.4Z" fill="url(#paint15_linear_1802_5448)"/>
<path d="M83.1992 312.6C83.5992 312.4 83.9992 312.2 84.2992 311.9L84.3992 312.2C84.1992 312.2 84.0992 312.2 83.8992 312.3C83.7992 312.4 83.4992 312.5 83.1992 312.6Z" fill="#E6E6E6"/>
<path d="M83.1996 312.7C83.1996 312.7 83.0996 312.7 83.0996 312.6C83.0996 312.5 83.0996 312.5 83.0996 312.4L84.1996 311.7H84.2996C84.2996 311.7 84.3996 311.7 84.3996 311.8L84.4996 312.1V312.2L84.3996 312.3L83.8996 312.4C83.7996 312.5 83.4996 312.6 83.1996 312.7C83.2996 312.7 83.2996 312.7 83.1996 312.7Z" fill="black"/>
<path d="M68.6992 274.9L83.2992 266.5C83.4992 266.9 83.7992 267.3 83.9992 267.6C84.1992 267.8 84.2992 268 84.4992 268.2L79.7992 278.5C79.5992 278.3 79.3992 278.2 79.2992 278C76.8992 276 71.7992 275 68.6992 274.9Z" fill="url(#paint16_linear_1802_5448)"/>
<path d="M173.3 75.7002L188.5 101.9L159.6 118.6L144.5 92.3002L173.3 75.7002Z" fill="url(#paint17_linear_1802_5448)"/>
<path d="M207 164.1L178.1 180.8C172.1 174 162 164.2 157.1 162.7C156.9 162.6 156.7 162.6 156.5 162.5L185.4 145.8C185.6 145.9 185.8 145.9 186 146C190.8 147.5 201 157.4 207 164.1Z" fill="url(#paint18_linear_1802_5448)"/>
<path d="M179.2 204.9C182.9 211.5 186.6 222.6 188.4 229.7L159.5 246.4C157.3 237.9 152.5 224 148.3 218.5C148.1 218.3 148 218.1 147.8 217.9L170.6 204.8C173.3 205.3 175.9 205.6 178 205.6L179.2 204.9Z" fill="url(#paint19_linear_1802_5448)"/>
<path d="M179.2 204.9L178.1 205.6V180.8L207 164.1V188.9L179.2 204.9Z" fill="url(#paint20_linear_1802_5448)"/>
<path d="M53.0996 52.8994L73.2996 54.8994C73.2996 54.7994 73.2996 54.6994 73.1996 54.5994C73.1996 54.4994 73.1996 54.2994 73.0996 54.1994C72.9996 53.3994 72.8996 52.4994 72.8996 51.4994C72.8996 47.8994 73.8996 43.7994 75.0996 40.1994C75.1996 39.9994 75.1996 39.8994 75.2996 39.7994C76.2996 37.0994 77.3996 34.6994 78.2996 32.9994L99.7996 45.3994C102 51.9994 105.2 63.6994 105.2 70.1994C105.2 71.1994 105.1 71.9994 105 72.5994C105 72.7994 104.9 72.9994 104.9 73.1994L125.6 95.0994C125.7 94.9994 125.8 94.7994 125.9 94.6994C126.3 94.2994 126.7 93.8994 127.3 93.4994C127.3 93.4994 127.3 93.4994 127.4 93.4994C131.2 91.3994 139.1 91.4994 144.5 92.4994L159.7 118.799C157.8 123.899 154 130.799 150.3 133.099C150.3 133.099 150.2 133.099 150.2 133.199C149.6 133.499 149 133.799 148.5 133.799C148.3 133.799 148.2 133.799 148 133.899L156.6 162.799C156.8 162.899 157 162.899 157.2 162.999C162.1 164.499 172.3 174.399 178.2 181.099V205.899C176.1 205.899 173.5 205.599 170.8 205.099C170.6 205.099 170.5 204.999 170.3 204.999C165.4 204.099 160.2 202.299 157.1 199.699C157 199.599 156.9 199.499 156.8 199.399C156.7 199.299 156.6 199.299 156.6 199.199L148 218.199C148.2 218.399 148.3 218.599 148.5 218.799C152.7 224.299 157.5 238.199 159.7 246.699L144.5 255.499C139.2 250.299 131.5 241.499 127.6 235.099C126.9 233.899 126.4 232.899 125.9 231.899C125.8 231.699 125.7 231.399 125.6 231.199L104.9 229.099C104.9 229.299 105 229.599 105 229.799C105.1 230.599 105.2 231.499 105.2 232.499C105.2 238.999 102 246.999 99.7996 251.099L78.2996 238.699C76.0996 232.099 72.8996 220.399 72.8996 213.899C72.8996 212.899 72.9996 212.099 73.0996 211.499C73.0996 211.299 73.1996 211.099 73.1996 210.899L52.4996 188.999C52.3996 189.099 52.2996 189.299 52.1996 189.399C49.4996 192.799 39.8996 192.699 33.6996 191.599L18.5996 164.999C20.4996 159.699 24.4996 152.599 28.2996 150.599C28.7996 150.299 29.2996 150.099 29.7996 150.099C29.9996 150.099 30.0996 150.099 30.2996 149.999L21.6996 121.099C21.4996 120.999 21.2996 120.999 21.0996 120.899C16.1996 119.399 5.99961 109.499 0.0996094 102.799V77.9994C6.09961 78.0994 16.1996 79.9994 21.0996 84.0994C21.2996 84.2994 21.4996 84.3994 21.6996 84.5994L30.2996 65.5994C30.0996 65.3994 29.9996 65.1994 29.7996 64.9994C29.1996 64.1994 28.4996 63.0994 27.7996 61.9994C24.0996 55.3994 20.3996 44.2994 18.5996 37.1994L33.7996 28.3994C39.9996 34.4994 49.6996 45.5994 52.2996 51.9994C52.3996 52.1994 52.4996 52.4994 52.5996 52.6994L53.0996 52.8994ZM69.8996 75.2994C63.4996 74.4994 57.5996 75.5994 52.4996 78.4994C42.6996 84.0994 37.3996 95.9994 37.3996 111.999C37.3996 127.899 42.7996 145.999 52.4996 162.899C72.6996 197.799 105.4 216.699 125.6 205.099C130.7 202.199 134.5 197.599 137.1 191.599C139.5 185.999 140.7 179.299 140.7 171.599C140.7 155.699 135.3 137.599 125.6 120.699C115.8 103.799 102.9 90.0994 89.0996 82.0994C82.3996 78.2994 75.9996 75.9994 69.8996 75.2994Z" fill="white"/>
<path d="M173.3 238.499L159.6 246.399L173.3 238.499Z" fill="#E6E6E6"/>
<path d="M159.6 246.499C159.5 246.499 159.5 246.399 159.5 246.399C159.5 246.399 159.5 246.299 159.6 246.299L173.3 238.399C173.4 238.399 173.4 238.399 173.5 238.399C173.5 238.499 173.5 238.499 173.5 238.599L159.6 246.499C159.7 246.499 159.6 246.499 159.6 246.499Z" fill="black"/>
<path d="M173.3 75.6995L144.4 92.3995C139 91.3995 131.1 91.2995 127.3 93.3995C136.2 88.2995 155.4 77.1995 156.1 76.7995C159.9 74.5995 167.9 74.6995 173.3 75.6995Z" fill="url(#paint21_linear_1802_5448)"/>
<path d="M159.599 246.4L144.399 255.2L159.599 246.4Z" fill="#E6E6E6"/>
<path d="M144.499 255.3C144.499 255.3 144.399 255.3 144.399 255.2C144.399 255.1 144.399 255.1 144.399 255L159.599 246.2H159.699L159.799 246.3C159.799 246.3 159.799 246.4 159.699 246.4L144.499 255.3Z" fill="black"/>
<path d="M185.199 145.1L176.999 117.7L148.199 134.4L156.499 162.5L185.399 145.8L185.199 145.1Z" fill="url(#paint22_linear_1802_5448)"/>
<path d="M134.299 57L153.899 77.7L125.099 94.4L105.399 73.6L134.299 57Z" fill="url(#paint23_linear_1802_5448)"/>
<path d="M170.699 204.799L147.899 217.899L156.499 198.899C156.599 198.999 156.699 198.999 156.699 199.099C156.799 199.199 156.899 199.299 156.999 199.399C160.099 201.999 165.299 203.699 170.199 204.699C170.399 204.699 170.499 204.699 170.699 204.799Z" fill="url(#paint24_linear_1802_5448)"/>
<path d="M159.599 118.599C157.699 123.699 153.899 130.599 150.199 132.899C150.199 132.899 150.099 132.899 150.099 132.999C149.499 133.299 148.899 133.599 148.399 133.599C148.199 133.599 148.099 133.599 147.899 133.699L148.099 134.399L176.999 117.699L176.899 117.399C177.499 116.999 178.899 116.299 178.999 116.199C182.799 113.999 186.599 107.099 188.499 101.899L159.599 118.599Z" fill="url(#paint25_linear_1802_5448)"/>
<path d="M137.099 191.599C134.499 197.599 130.699 202.099 125.599 205.099C105.399 216.699 72.6994 197.799 52.4994 162.899C42.6994 145.999 37.3994 127.899 37.3994 111.999C37.3994 96.0995 42.7994 84.1995 52.4994 78.4995C57.4994 75.5995 63.3994 74.4995 69.8994 75.2995C67.4994 80.8995 66.1994 87.5995 66.1994 95.2995C66.1994 111.199 71.5994 129.299 81.2994 146.199C96.4994 172.299 118.499 189.399 137.099 191.599Z" fill="url(#paint26_linear_1802_5448)"/>
<path d="M128.699 28.6002L99.7994 45.2002L78.3994 32.9002L107.199 16.2002L128.699 28.6002Z" fill="url(#paint27_linear_1802_5448)"/>
<path d="M154.1 77.9002C145.2 83.0002 127.3 93.4002 127.3 93.4002C126.7 93.7002 126.2 94.1002 125.9 94.6002C125.8 94.7002 125.7 94.9002 125.6 95.0002L125.1 94.4002L154 77.7002L154.1 77.9002Z" fill="url(#paint28_linear_1802_5448)"/>
<path d="M133.8 56.3996C133.8 56.1996 133.9 55.9996 133.9 55.7996C134 55.1996 134.1 54.2996 134.1 53.3996C134.1 46.8996 130.9 35.1996 128.7 28.5996L99.7998 45.2996C102 51.8996 105.2 63.5996 105.2 70.0996C105.2 71.0996 105.1 71.8996 105 72.4996C105 72.6996 104.9 72.8996 104.9 73.0996L105.4 73.6996L134.3 56.9996L133.8 56.3996Z" fill="url(#paint29_linear_1802_5448)"/>
<path d="M125.599 230.8C125.699 231 125.799 231.3 125.899 231.5C126.299 232.5 126.899 233.6 127.599 234.7L99.8994 250.7C102.099 246.7 105.299 238.6 105.299 232.1C105.299 231.1 105.199 230.2 105.099 229.4C105.099 229.2 104.999 228.9 104.999 228.7L125.599 230.8Z" fill="url(#paint30_linear_1802_5448)"/>
<path d="M73.1996 54.0996C73.0996 53.2996 72.9996 52.3996 72.9996 51.3996C72.9996 47.7996 73.9996 43.6996 75.1996 40.0996L53.0996 52.7996L73.2996 54.7996C73.2996 54.6996 73.2996 54.5996 73.1996 54.4996C73.1996 54.3996 73.1996 54.2996 73.1996 54.0996Z" fill="url(#paint31_linear_1802_5448)"/>
<path d="M62.5992 11.7998L33.6992 28.4998C39.8992 34.5998 49.5992 45.6998 52.1992 52.0998C52.2992 52.2998 52.3992 52.5998 52.4992 52.7998L52.9992 52.8998L75.0992 40.1998C75.1992 39.9998 75.1992 39.8998 75.2992 39.7998C76.2992 37.0998 77.3992 34.6998 78.2992 32.9998L79.3992 32.2998C75.6992 25.6998 67.8992 16.9998 62.5992 11.7998Z" fill="url(#paint32_linear_1802_5448)"/>
<path d="M28.2988 150.6C28.8988 150.2 29.4988 149.9 30.1988 149.5L30.2988 150C30.0988 150 29.9988 150 29.7988 150.1C29.2988 150.1 28.7988 150.3 28.2988 150.6Z" fill="#E6E6E6"/>
<path d="M28.2992 150.7C28.2992 150.7 28.1992 150.7 28.1992 150.6C28.1992 150.5 28.1992 150.5 28.1992 150.4C28.7992 150 29.3992 149.7 30.0992 149.3H30.1992C30.1992 149.3 30.2992 149.3 30.2992 149.4L30.3992 149.9V150L30.2992 150.1C30.1992 150.1 29.8992 150.2 29.7992 150.2C29.2992 150.2 28.7992 150.4 28.2992 150.7ZM30.0992 149.7C29.8992 149.8 29.7992 149.9 29.5992 150C29.6992 150 29.6992 150 29.7992 150C29.8992 150 30.0992 150 30.0992 150V149.7Z" fill="black"/>
<path d="M29.7996 65.0996C29.9996 65.2996 30.0996 65.4996 30.2996 65.6996L21.6996 84.6996C21.4996 84.4996 21.2996 84.3996 21.0996 84.1996C16.1996 80.0996 5.99961 78.1996 0.0996094 78.0996L27.7996 62.0996C28.4996 63.1996 29.1996 64.1996 29.7996 65.0996Z" fill="url(#paint33_linear_1802_5448)"/>
<path d="M323.6 256.6L338.7 282.9L309.9 299.5L294.7 273.3L323.6 256.6Z" fill="url(#paint34_linear_1802_5448)"/>
<path d="M357.2 345.099L328.3 361.799C322.3 354.999 312.2 345.199 307.3 343.699C307.1 343.599 306.9 343.599 306.7 343.499L335.6 326.799C335.8 326.899 336 326.899 336.2 326.999C341.1 328.499 351.3 338.299 357.2 345.099Z" fill="url(#paint35_linear_1802_5448)"/>
<path d="M329.5 385.799C333.2 392.399 336.9 403.499 338.7 410.599L309.8 427.299C307.6 418.799 302.8 404.899 298.6 399.399C298.4 399.199 298.3 398.999 298.1 398.799L320.9 385.699C323.6 386.199 326.2 386.499 328.3 386.499L329.5 385.799Z" fill="url(#paint36_linear_1802_5448)"/>
<path d="M329.499 385.8L328.399 386.5V361.7L357.199 345.1V369.8L329.499 385.8Z" fill="url(#paint37_linear_1802_5448)"/>
<path d="M203.4 233.799L223.6 235.799C223.6 235.699 223.6 235.599 223.5 235.499C223.5 235.399 223.5 235.199 223.4 235.099C223.3 234.299 223.2 233.399 223.2 232.399C223.2 228.799 224.2 224.699 225.4 221.099C225.5 220.899 225.5 220.799 225.6 220.699C226.6 217.999 227.7 215.599 228.6 213.899L250.1 226.299C252.3 232.899 255.5 244.599 255.5 251.099C255.5 252.099 255.4 252.899 255.3 253.499C255.3 253.699 255.2 253.899 255.2 254.099L275.9 275.999C276 275.899 276.1 275.699 276.2 275.599C276.6 275.199 277 274.799 277.6 274.399C277.6 274.399 277.6 274.399 277.7 274.399C281.5 272.299 289.4 272.399 294.8 273.399L310 299.699C308.1 304.799 304.3 311.699 300.6 313.999C300.6 313.999 300.5 313.999 300.5 314.099C299.9 314.399 299.3 314.699 298.8 314.699C298.6 314.699 298.5 314.699 298.3 314.799L306.9 343.699C307.1 343.799 307.3 343.799 307.5 343.899C312.4 345.399 322.6 355.299 328.5 361.999V386.799C326.4 386.799 323.8 386.499 321.1 385.999C320.9 385.999 320.8 385.899 320.6 385.899C315.7 384.999 310.5 383.199 307.4 380.599C307.3 380.499 307.2 380.399 307.1 380.299C307 380.199 306.9 380.199 306.9 380.099L298.3 399.099C298.5 399.299 298.6 399.499 298.8 399.699C303 405.199 307.8 419.099 310 427.599L294.8 436.399C289.5 431.199 281.8 422.399 277.9 415.999C277.2 414.799 276.7 413.799 276.2 412.799C276.1 412.599 276 412.299 275.9 412.099L255.2 409.999C255.2 410.199 255.3 410.499 255.3 410.699C255.4 411.499 255.5 412.399 255.5 413.399C255.5 419.899 252.3 427.899 250.1 431.999L228.6 419.599C226.4 412.999 223.2 401.299 223.2 394.799C223.2 393.799 223.3 392.999 223.4 392.399C223.4 392.199 223.5 391.999 223.5 391.799L202.8 369.899C202.7 369.999 202.6 370.199 202.5 370.299C199.8 373.699 190.2 373.599 184 372.499L168.8 346.199C170.7 340.899 174.7 333.799 178.5 331.799C179 331.499 179.5 331.299 180 331.299C180.2 331.299 180.3 331.299 180.5 331.199L171.9 302.299C171.7 302.199 171.5 302.199 171.3 302.099C166.4 300.599 156.2 290.699 150.3 283.999V258.999C156.3 259.099 166.4 260.999 171.3 265.099C171.5 265.299 171.7 265.399 171.9 265.599L180.5 246.599C180.3 246.399 180.2 246.199 180 245.999C179.4 245.199 178.7 244.099 178 242.999C174.3 236.399 170.6 225.299 168.8 218.199L184 209.399C190.2 215.499 199.9 226.599 202.5 232.999C202.6 233.199 202.7 233.499 202.8 233.699L203.4 233.799ZM220.2 256.199C213.8 255.399 207.9 256.499 202.8 259.399C193 264.999 187.7 276.899 187.7 292.899C187.7 308.799 193.1 326.899 202.8 343.799C223 378.699 255.7 397.599 275.9 385.999C281 383.099 284.8 378.499 287.4 372.499C289.8 366.899 291 360.199 291 352.499C291 336.599 285.6 318.499 275.9 301.599C266.1 284.699 253.2 270.999 239.4 262.999C232.7 259.199 226.2 256.899 220.2 256.199Z" fill="white"/>
<path d="M323.599 419.399L309.899 427.299L323.599 419.399Z" fill="#E6E6E6"/>
<path d="M309.9 427.499C309.9 427.499 309.8 427.499 309.9 427.499C309.8 427.499 309.8 427.399 309.8 427.399C309.8 427.399 309.8 427.299 309.9 427.299L323.6 419.399C323.7 419.399 323.7 419.399 323.8 419.399C323.8 419.499 323.8 419.499 323.8 419.599L309.9 427.499Z" fill="black"/>
<path d="M323.6 256.599L294.7 273.299C289.3 272.299 281.4 272.199 277.6 274.299C286.5 269.199 305.7 258.099 306.4 257.699C310.2 255.499 318.1 255.599 323.6 256.599Z" fill="url(#paint38_linear_1802_5448)"/>
<path d="M309.899 427.3L294.699 436.1L309.899 427.3Z" fill="#E6E6E6"/>
<path d="M294.7 436.2C294.7 436.2 294.6 436.2 294.6 436.1C294.6 436 294.6 436 294.6 435.9L309.8 427.1H309.9L310 427.2C310 427.2 310 427.3 309.9 427.3L294.7 436.2Z" fill="black"/>
<path d="M307 380.099L306.5 380.399L306.7 379.899C306.9 379.999 306.9 379.999 307 380.099Z" fill="#E6E6E6"/>
<path d="M306.6 380.499C306.5 380.499 306.5 380.499 306.6 380.499C306.5 380.399 306.5 380.399 306.5 380.299L306.7 379.799C306.7 379.799 306.7 379.699 306.8 379.699H306.9L307.1 379.899V379.999C307.1 379.999 307.1 380.099 307 380.099L306.6 380.499Z" fill="black"/>
<path d="M335.399 326L327.299 298.6L298.399 315.3L306.799 343.4L335.599 326.8L335.399 326Z" fill="url(#paint39_linear_1802_5448)"/>
<path d="M284.5 237.899L304.2 258.699L275.3 275.299L255.7 254.599L284.5 237.899Z" fill="url(#paint40_linear_1802_5448)"/>
<path d="M320.5 385.599C315.6 384.699 310.4 382.899 307.3 380.299C307.2 380.199 307.1 380.099 307 379.999L306.5 380.299L298.1 398.799L320.9 385.699C320.8 385.699 320.6 385.599 320.5 385.599Z" fill="url(#paint41_linear_1802_5448)"/>
<path d="M309.9 299.499C308 304.599 304.2 311.499 300.5 313.799C300.5 313.799 300.4 313.799 300.4 313.899C299.8 314.199 299.2 314.499 298.7 314.499C298.5 314.499 298.4 314.499 298.2 314.599L298.4 315.299L327.3 298.599L327.2 298.299C327.8 297.899 329.2 297.199 329.3 297.099C333.1 294.899 336.9 287.999 338.8 282.799L309.9 299.499Z" fill="url(#paint42_linear_1802_5448)"/>
<path d="M287.4 372.599C284.8 378.599 281 383.099 275.9 386.099C255.7 397.699 223 378.799 202.8 343.899C193 326.999 187.7 308.899 187.7 292.999C187.7 277.099 193.1 265.199 202.8 259.499C207.8 256.599 213.7 255.499 220.2 256.299C217.8 261.899 216.5 268.599 216.5 276.299C216.5 292.199 221.9 310.299 231.6 327.199C246.7 353.199 268.8 370.399 287.4 372.599Z" fill="url(#paint43_linear_1802_5448)"/>
<path d="M279 209.5L250.1 226.2L228.6 213.8L257.5 197.1L279 209.5Z" fill="url(#paint44_linear_1802_5448)"/>
<path d="M304.399 258.8C295.499 263.9 277.599 274.3 277.599 274.3C276.999 274.6 276.499 275 276.199 275.5C276.099 275.6 275.999 275.8 275.899 275.9L275.399 275.3L304.299 258.6L304.399 258.8Z" fill="url(#paint45_linear_1802_5448)"/>
<path d="M284 237.4C284 237.2 284.1 237 284.1 236.8C284.2 236.2 284.3 235.3 284.3 234.4C284.3 227.9 281.1 216.2 278.9 209.6L250 226.3C252.2 232.9 255.4 244.6 255.4 251.1C255.4 252.1 255.3 252.9 255.2 253.5C255.2 253.7 255.1 253.9 255.1 254.1L255.6 254.7L284.5 238L284 237.4Z" fill="url(#paint46_linear_1802_5448)"/>
<path d="M275.9 411.7C276 411.9 276.1 412.2 276.2 412.4C276.6 413.4 277.2 414.5 277.9 415.6L250.2 431.6C252.4 427.6 255.6 419.5 255.6 413C255.6 412 255.5 411.1 255.4 410.3C255.4 410.1 255.3 409.8 255.3 409.6L275.9 411.7Z" fill="url(#paint47_linear_1802_5448)"/>
<path d="M223.4 235.1C223.3 234.3 223.2 233.4 223.2 232.4C223.2 228.8 224.2 224.7 225.4 221.1L203.3 233.8L223.5 235.8C223.5 235.7 223.5 235.6 223.4 235.5C223.5 235.3 223.5 235.2 223.4 235.1Z" fill="url(#paint48_linear_1802_5448)"/>
<path d="M212.9 192.699L184 209.399C190.2 215.499 199.9 226.599 202.5 232.999C202.6 233.199 202.7 233.499 202.8 233.699L203.3 233.799L225.4 221.099C225.5 220.899 225.5 220.799 225.6 220.699C226.6 217.999 227.7 215.599 228.6 213.899L229.7 213.199C225.9 206.699 218.2 197.899 212.9 192.699Z" fill="url(#paint49_linear_1802_5448)"/>
<path d="M178.499 331.499C179.099 331.099 179.699 330.799 180.399 330.399L180.499 330.899C180.299 330.899 180.199 330.899 179.999 330.999C179.499 330.999 178.999 331.199 178.499 331.499Z" fill="#E6E6E6"/>
<path d="M178.499 331.599C178.499 331.599 178.399 331.599 178.399 331.499C178.399 331.399 178.399 331.399 178.399 331.299C178.999 330.899 179.599 330.599 180.299 330.199H180.399C180.399 330.199 180.499 330.199 180.499 330.299L180.599 330.799V330.899L180.499 330.999C180.399 330.999 180.099 331.099 179.999 331.099C179.599 331.199 179.099 331.299 178.499 331.599C178.599 331.599 178.499 331.599 178.499 331.599ZM180.299 330.599C180.099 330.699 179.999 330.799 179.799 330.899C179.899 330.899 179.899 330.899 179.999 330.899C180.099 330.899 180.299 330.899 180.299 330.899V330.599Z" fill="black"/>
<path d="M180.099 245.999C180.299 246.199 180.399 246.399 180.599 246.599L171.999 265.599C171.799 265.399 171.599 265.299 171.399 265.099C166.499 260.999 156.299 259.099 150.399 258.999L178.099 242.999C178.799 244.099 179.399 245.199 180.099 245.999Z" fill="url(#paint50_linear_1802_5448)"/>
<path d="M346.5 126.6V146.6L323.1 160.1L301.3 172.7V152.7L346.5 126.6Z" fill="url(#paint51_linear_1802_5448)"/>
<path d="M318.8 53.2998L331 74.4998L285.8 100.5L273.6 79.3998L318.8 53.2998Z" fill="url(#paint52_linear_1802_5448)"/>
<path d="M329.6 111.999C333.5 113.199 341.6 120.999 346.6 126.599L301.4 152.699C296.5 147.099 288.3 139.299 284.4 138.099C284.1 137.999 283.8 137.899 283.5 137.799L328.7 111.699C329 111.899 329.3 111.899 329.6 111.999Z" fill="url(#paint53_linear_1802_5448)"/>
<path d="M285.8 100.499L331 74.3994C329.4 78.6994 326.2 84.3994 323.1 85.9994C322.5 86.2994 292.6 103.599 278.2 111.899C281.2 110.199 284.2 104.799 285.8 100.499Z" fill="url(#paint54_linear_1802_5448)"/>
<path d="M318.8 53.2994L273.6 79.3994C269.2 78.6994 262.9 78.5994 259.9 80.1994C274.3 71.8994 304.4 54.4994 305 54.0994C308 52.3994 314.3 52.4994 318.8 53.2994Z" fill="url(#paint55_linear_1802_5448)"/>
<path d="M197.6 46.3992L214.8 48.0992C214.8 47.8992 214.6 47.1992 214.6 46.9992C214.5 46.3992 214.4 45.6992 214.4 44.8992C214.4 41.9992 215.2 38.5992 216.3 35.5992C216.4 35.3992 216.5 35.0992 216.5 34.8992C217.2 32.8992 218 31.0992 218.7 29.7992L236 39.7992C237.8 45.1992 240.3 54.6992 240.3 59.8992C240.3 60.6992 240.2 61.2992 240.1 61.7992C240 62.0992 240 62.3992 239.9 62.6992L258 81.7992C258.2 81.5992 258.3 81.3992 258.5 81.1992C258.8 80.7992 259.2 80.4992 259.7 80.1992C262.7 78.4992 269 78.5992 273.4 79.3992L285.6 100.599C284 104.799 281 110.299 278 112.099C278 112.099 278 112.099 277.9 112.099C277.4 112.399 277 112.499 276.5 112.599C276.2 112.599 276 112.699 275.7 112.699L283.2 137.899C283.5 137.999 283.8 138.099 284.1 138.199C288 139.399 296.1 147.199 301.1 152.799V172.799C299.5 172.799 297.6 172.599 295.6 172.199C295.4 172.199 295.1 172.099 294.9 172.099C290.9 171.299 286.7 169.899 284.2 167.799C284 167.699 283.5 167.199 283.3 167.099L275.8 183.599C276.1 183.899 276.3 184.299 276.6 184.599C280 188.999 283.8 200.099 285.6 207.099L273.4 214.199C268.8 209.699 262.3 202.199 259.4 196.999C259 196.299 258.7 195.699 258.5 195.199C258.3 194.799 258.2 194.399 258 194.099L239.9 192.299C240 192.699 240 192.999 240.1 193.399C240.2 193.999 240.3 194.699 240.3 195.499C240.3 200.699 237.8 207.199 236 210.599L218.7 200.599C216.9 195.199 214.4 185.699 214.4 180.499C214.4 179.699 214.5 179.099 214.6 178.599C214.7 178.299 214.7 177.999 214.8 177.699L196.7 158.599C196.5 158.799 196.4 158.999 196.2 159.199C195.9 159.499 195.6 159.799 195.2 159.999L195.1 160.099C192.1 161.799 185.8 161.699 181.3 160.999L169.1 139.799C170.7 135.599 173.8 129.999 176.8 128.299C176.8 128.299 176.9 128.299 176.9 128.199C177.3 127.999 177.7 127.799 178.1 127.799C178.4 127.799 178.6 127.699 178.9 127.699L171.4 102.499C171.1 102.399 170.8 102.299 170.5 102.199C166.6 100.999 158.5 93.1992 153.5 87.5992V67.5992C158.4 67.6992 166.6 69.2992 170.5 72.5992C170.8 72.7992 171.1 73.0992 171.4 73.2992L178.9 56.7992C178.6 56.4992 178.4 56.0992 178.1 55.7992C177.7 55.2992 177.3 54.6992 177 54.0992C173.9 48.9992 170.7 39.5992 169.1 33.2992L181.3 26.1992C186.5 31.2992 194.1 40.0992 196.2 45.2992C196.4 45.6992 196.5 46.0992 196.7 46.3992H197.6ZM208.1 86.4992C202.9 89.4992 200.1 95.7992 200.1 104.299C200.1 112.799 203 122.399 208.1 131.299C213.3 140.299 220.2 147.499 227.5 151.799C234.8 155.999 241.7 156.699 246.9 153.699C252.1 150.699 254.9 144.399 254.9 135.899C254.9 127.399 252.1 117.799 246.9 108.899C236.2 90.3992 218.8 80.2992 208.1 86.4992Z" fill="white"/>
<path d="M283.499 167C283.599 167.1 283.799 167.2 283.899 167.3L283.199 167.7L283.499 167Z" fill="#E6E6E6"/>
<path d="M283.2 167.9C283.1 167.9 283.1 167.9 283.2 167.9C283.1 167.8 283.1 167.8 283.1 167.7L283.4 166.9C283.4 166.9 283.4 166.8 283.5 166.8H283.6L284 167.1V167.2C284 167.2 284 167.3 283.9 167.3L283.2 167.9ZM283.5 167.2L283.4 167.4L283.6 167.3L283.5 167.2Z" fill="black"/>
<path d="M281.3 13.6992C283.1 19.0992 285.6 28.5992 285.6 33.7992C285.6 34.5992 285.5 35.1992 285.4 35.6992C285.3 35.9992 285.3 36.2992 285.2 36.5992L240 62.6992C240.1 62.3992 240.1 62.0992 240.2 61.7992C240.3 61.2992 240.4 60.5992 240.4 59.8992C240.4 54.6992 237.9 45.1992 236.1 39.7992L281.3 13.6992Z" fill="url(#paint56_linear_1802_5448)"/>
<path d="M281.3 13.6998L236.1 39.7998L218.8 29.8998L264 3.7998L281.3 13.6998Z" fill="url(#paint57_linear_1802_5448)"/>
<path d="M285.8 207C284 200 280.1 188.9 276.8 184.5C276.5 184.2 276.3 183.8 276 183.5L295.8 172.1C297.8 172.5 299.7 172.6 301.3 172.7L323.1 160.1C326.2 165.2 329.4 174.6 331 180.9L285.8 207Z" fill="url(#paint58_linear_1802_5448)"/>
<path d="M295 172C291 171.2 286.8 169.8 284.3 167.7C284.1 167.6 284 167.4 283.8 167.3L283.1 167.7L276 183.5L295.8 172.1C295.5 172.1 295.3 172 295 172Z" fill="url(#paint59_linear_1802_5448)"/>
<path d="M328.3 110.6L321.3 87.0996C306.9 95.3996 292.5 103.7 278.2 112C278.2 112 278.2 112 278.1 112C277.6 112.3 277.2 112.4 276.7 112.5C276.4 112.5 276.2 112.6 275.9 112.6L283.4 137.8L328.6 111.7L328.3 110.6Z" fill="url(#paint60_linear_1802_5448)"/>
<path d="M254.9 135.9C254.9 144.4 252 150.7 246.9 153.7C241.7 156.7 234.8 156 227.5 151.8C220.2 147.6 213.3 140.3 208.1 131.3C202.9 122.3 200.1 112.7 200.1 104.3C200.1 95.8999 203 89.4999 208.1 86.4999C214 83.0999 222.1 84.5999 229.8 89.8999C230.3 97.5999 233.1 106.1 237.7 114.1C242.3 122.1 248.3 128.7 254.7 133.1C254.9 134.1 254.9 135 254.9 135.9Z" fill="url(#paint61_linear_1802_5448)"/>
<path d="M303 55.2996C288.6 63.5996 274.2 71.8996 259.8 80.1996C259.3 80.4996 258.9 80.7996 258.6 81.1996C258.4 81.3996 258.3 81.5996 258.1 81.7996L240 62.6996L285.2 36.5996L303 55.2996Z" fill="url(#paint62_linear_1802_5448)"/>
<path d="M258.2 193.799C258.4 194.199 258.5 194.599 258.7 194.899C258.9 195.499 259.2 196.099 259.6 196.699L236.2 210.199C238 206.899 240.5 200.299 240.5 195.099C240.5 194.299 240.4 193.599 240.3 192.999C240.2 192.599 240.2 192.299 240.1 191.899L258.2 193.799Z" fill="url(#paint63_linear_1802_5448)"/>
<path d="M226.6 0.0996094C231.2 4.59961 237.7 12.0996 240.6 17.2996L218.8 29.8996C218.1 31.1996 217.3 32.9996 216.6 34.9996L196.8 46.3996C196.6 45.9996 196.5 45.5996 196.3 45.2996C194.2 40.1996 186.5 31.2996 181.4 26.1996L226.6 0.0996094Z" fill="url(#paint64_linear_1802_5448)"/>
<path d="M216.6 34.8994L196.8 46.2994L214.9 48.0994C214.9 47.8994 214.7 47.1994 214.7 46.9994C214.6 46.3994 214.5 45.6994 214.5 44.8994C214.5 41.9994 215.3 38.5994 216.4 35.5994C216.4 35.3994 216.5 35.1994 216.6 34.8994Z" fill="url(#paint65_linear_1802_5448)"/>
<path d="M195.4 159.9C195.8 159.7 196.1 159.4 196.4 159.1C196.6 158.9 196.7 158.7 196.9 158.5L197.3 158.9C196.6 159.2 196 159.5 195.4 159.9Z" fill="url(#paint66_linear_1802_5448)"/>
<path d="M177 127.999C177.6 127.599 178.2 127.299 178.8 126.899L179 127.399C178.7 127.399 178.5 127.499 178.2 127.499C177.8 127.699 177.4 127.799 177 127.999Z" fill="#E6E6E6"/>
<path d="M177 128.2C177 128.2 176.9 128.2 176.9 128.1C176.9 128 176.9 128 176.9 127.9L178.7 126.8H178.8C178.8 126.8 178.9 126.8 178.9 126.9L179.1 127.4V127.5L179 127.6C178.9 127.6 178.2 127.7 178.2 127.7C177.9 127.8 177.5 127.9 177 128.2ZM178.8 127.2L178.2 127.5C178.2 127.5 178.7 127.4 178.8 127.4V127.2Z" fill="black"/>
<path d="M153.7 67.5L177.1 54C177.5 54.6 177.9 55.2 178.2 55.7C178.5 56 178.7 56.4 179 56.7L171.5 73.2C171.2 73 170.9 72.7 170.6 72.5C166.7 69.2 158.6 67.6 153.7 67.5Z" fill="url(#paint67_linear_1802_5448)"/>
<path d="M469.6 210.4L484.8 236.6L455.9 253.3L440.8 227L469.6 210.4Z" fill="url(#paint68_linear_1802_5448)"/>
<path d="M503.3 298.8L474.4 315.5C468.4 308.7 458.3 298.9 453.4 297.4C453.2 297.3 453 297.3 452.8 297.2L481.7 280.5C481.9 280.6 482.1 280.6 482.3 280.7C487.1 282.2 497.3 292.1 503.3 298.8Z" fill="url(#paint69_linear_1802_5448)"/>
<path d="M475.599 339.6C479.299 346.2 482.999 357.3 484.799 364.4L455.899 381.1C453.699 372.6 448.899 358.7 444.699 353.2C444.499 353 444.399 352.8 444.199 352.6L466.999 339.5C469.699 340 472.299 340.3 474.399 340.3L475.599 339.6Z" fill="url(#paint70_linear_1802_5448)"/>
<path d="M475.599 339.6L474.399 340.3V315.5L503.299 298.8V323.6L475.599 339.6Z" fill="url(#paint71_linear_1802_5448)"/>
<path d="M349.499 187.5L369.699 189.5C369.699 189.4 369.699 189.3 369.599 189.2C369.599 189.1 369.599 188.9 369.499 188.8C369.399 188 369.299 187.1 369.299 186.1C369.299 182.5 370.299 178.4 371.499 174.8C371.599 174.6 371.599 174.5 371.699 174.4C372.699 171.7 373.799 169.3 374.699 167.6L396.199 180C398.399 186.6 401.599 198.3 401.599 204.8C401.599 205.8 401.499 206.6 401.399 207.2C401.399 207.4 401.299 207.6 401.299 207.8L421.999 229.7C422.099 229.6 422.199 229.4 422.299 229.3C422.699 228.9 423.099 228.5 423.699 228.1C423.699 228.1 423.699 228.1 423.799 228.1C427.599 226 435.499 226.1 440.899 227.1L456.099 253.4C454.199 258.5 450.399 265.4 446.699 267.7C446.699 267.7 446.599 267.7 446.599 267.8C445.999 268.1 445.399 268.4 444.899 268.4C444.699 268.4 444.599 268.4 444.399 268.5L452.999 297.4C453.199 297.5 453.399 297.5 453.599 297.6C458.499 299.1 468.699 309 474.599 315.7V340.5C472.499 340.5 469.899 340.2 467.199 339.7C466.999 339.7 466.899 339.6 466.699 339.6C461.799 338.7 456.599 336.9 453.499 334.3C453.399 334.2 453.299 334.1 453.199 334C453.099 333.9 452.999 333.9 452.999 333.8L444.399 352.8C444.599 353 444.699 353.2 444.899 353.4C449.099 358.9 453.899 372.8 456.099 381.3L440.899 390.1C435.599 384.9 427.899 376.1 423.999 369.7C423.299 368.5 422.799 367.5 422.299 366.5C422.199 366.3 422.099 366 421.999 365.8L401.299 363.7C401.299 363.9 401.399 364.2 401.399 364.4C401.499 365.2 401.599 366.1 401.599 367.1C401.599 373.6 398.399 381.6 396.199 385.7L374.699 373.3C372.499 366.7 369.299 355 369.299 348.5C369.299 347.5 369.399 346.7 369.499 346.1C369.499 345.9 369.599 345.7 369.599 345.5L348.899 323.6C348.799 323.7 348.699 323.9 348.599 324C345.899 327.4 336.299 327.3 330.099 326.2L314.899 299.9C316.799 294.6 320.799 287.5 324.599 285.5C325.099 285.2 325.599 285 326.099 285C326.299 285 326.399 285 326.599 284.9L317.999 256C317.799 255.9 317.599 255.9 317.399 255.8C312.499 254.3 302.299 244.4 296.399 237.7V212.9C302.399 213 312.499 214.9 317.399 219C317.599 219.2 317.799 219.3 317.999 219.5L326.599 200.5C326.399 200.3 326.299 200.1 326.099 199.9C325.499 199.1 324.799 198 324.099 196.9C320.399 190.3 316.699 179.2 314.899 172.1L330.099 163.3C336.299 169.4 345.999 180.5 348.599 186.9C348.699 187.1 348.799 187.4 348.899 187.6L349.499 187.5ZM366.299 210C359.899 209.2 353.999 210.3 348.899 213.2C339.099 218.8 333.799 230.7 333.799 246.7C333.799 262.6 339.199 280.7 348.899 297.6C369.099 332.5 401.799 351.4 421.999 339.8C427.099 336.9 430.899 332.3 433.499 326.3C435.899 320.7 437.099 314 437.099 306.3C437.099 290.4 431.699 272.3 421.999 255.4C412.199 238.5 399.299 224.8 385.499 216.8C378.799 213 372.299 210.7 366.299 210Z" fill="white"/>
<path d="M469.599 373.199L455.899 381.099L469.599 373.199Z" fill="#E6E6E6"/>
<path d="M455.9 381.2C455.8 381.2 455.8 381.1 455.8 381.1C455.8 381.1 455.8 381 455.9 381L469.6 373.1C469.7 373.1 469.7 373.1 469.8 373.1C469.8 373.2 469.8 373.2 469.8 373.3L455.9 381.2C456 381.2 456 381.2 455.9 381.2Z" fill="black"/>
<path d="M469.599 210.4L440.799 227C435.399 226 427.499 225.9 423.699 228C432.599 222.9 451.799 211.8 452.499 211.4C456.299 209.3 464.199 209.4 469.599 210.4Z" fill="url(#paint72_linear_1802_5448)"/>
<path d="M455.899 381.101L440.699 389.901L455.899 381.101Z" fill="#E6E6E6"/>
<path d="M440.799 390C440.799 390 440.699 390 440.699 389.9C440.699 389.8 440.699 389.8 440.699 389.7L455.899 380.9H455.999L456.099 381C456.099 381 456.099 381.1 455.999 381.1L440.799 390Z" fill="black"/>
<path d="M453.099 333.9L452.599 334.2L452.799 333.7C452.899 333.7 452.999 333.8 453.099 333.9Z" fill="#E6E6E6"/>
<path d="M452.599 334.2C452.499 334.1 452.499 334.1 452.499 334L452.699 333.5C452.699 333.5 452.699 333.4 452.799 333.4H452.899L453.099 333.6V333.7C453.099 333.7 453.099 333.8 452.999 333.8L452.599 334.2C452.699 334.2 452.599 334.2 452.599 334.2Z" fill="black"/>
<path d="M481.499 279.8L473.299 252.4L444.499 269.1L452.799 297.2L481.699 280.5L481.499 279.8Z" fill="url(#paint73_linear_1802_5448)"/>
<path d="M430.6 191.7L450.3 212.4L421.4 229.1L401.8 208.3L430.6 191.7Z" fill="url(#paint74_linear_1802_5448)"/>
<path d="M466.599 339.4C461.699 338.5 456.499 336.7 453.399 334.1C453.299 334 453.199 333.9 453.099 333.8L452.599 334.1L444.199 352.6L466.999 339.5C466.899 339.4 466.699 339.4 466.599 339.4Z" fill="url(#paint75_linear_1802_5448)"/>
<path d="M455.899 253.3C453.999 258.4 450.199 265.3 446.499 267.6C446.499 267.6 446.399 267.6 446.399 267.7C445.799 268 445.199 268.3 444.699 268.3C444.499 268.3 444.399 268.3 444.199 268.4L444.399 269.1L473.299 252.4L473.199 252.1C473.799 251.7 475.199 251 475.299 250.9C479.099 248.7 482.899 241.8 484.799 236.6L455.899 253.3Z" fill="url(#paint76_linear_1802_5448)"/>
<path d="M433.5 326.3C430.9 332.3 427.1 336.8 422 339.8C401.8 351.4 369.1 332.5 348.9 297.6C339.1 280.7 333.8 262.6 333.8 246.7C333.8 230.8 339.2 218.9 348.9 213.2C353.9 210.3 359.8 209.2 366.3 210C363.9 215.6 362.6 222.3 362.6 230C362.6 245.9 368 264 377.7 280.9C392.8 307 414.9 324.1 433.5 326.3Z" fill="url(#paint77_linear_1802_5448)"/>
<path d="M424.999 163.3L396.199 179.9L374.699 167.5L403.599 150.9L424.999 163.3Z" fill="url(#paint78_linear_1802_5448)"/>
<path d="M450.399 212.6C441.499 217.7 423.599 228.1 423.599 228.1C422.999 228.4 422.499 228.8 422.199 229.3C422.099 229.4 421.999 229.6 421.899 229.7L421.399 229.1L450.299 212.4L450.399 212.6Z" fill="url(#paint79_linear_1802_5448)"/>
<path d="M430.1 191.1C430.1 190.9 430.2 190.7 430.2 190.5C430.3 189.9 430.4 189 430.4 188.1C430.4 181.6 427.2 169.9 425 163.3L396.1 180C398.3 186.6 401.5 198.3 401.5 204.8C401.5 205.8 401.4 206.6 401.3 207.2C401.3 207.4 401.2 207.6 401.2 207.8L401.7 208.4L430.6 191.7L430.1 191.1Z" fill="url(#paint80_linear_1802_5448)"/>
<path d="M421.899 365.5C421.999 365.7 422.099 366 422.199 366.2C422.599 367.2 423.199 368.3 423.899 369.4L396.199 385.4C398.399 381.4 401.599 373.3 401.599 366.8C401.599 365.8 401.499 364.9 401.399 364.1C401.399 363.9 401.299 363.6 401.299 363.4L421.899 365.5Z" fill="url(#paint81_linear_1802_5448)"/>
<path d="M369.499 188.8C369.399 188 369.299 187.1 369.299 186.1C369.299 182.5 370.299 178.4 371.499 174.8L349.399 187.5L369.599 189.5C369.599 189.4 369.599 189.3 369.499 189.2C369.599 189.1 369.499 189 369.499 188.8Z" fill="url(#paint82_linear_1802_5448)"/>
<path d="M359 146.5L330.1 163.2C336.3 169.3 346 180.4 348.6 186.8C348.7 187 348.8 187.3 348.9 187.5L349.4 187.6L371.5 174.9C371.6 174.7 371.6 174.6 371.7 174.5C372.7 171.8 373.8 169.4 374.7 167.7L375.8 167C372 160.4 364.3 151.6 359 146.5Z" fill="url(#paint83_linear_1802_5448)"/>
<path d="M324.599 285.3C325.199 284.9 325.799 284.6 326.499 284.2L326.599 284.7C326.399 284.7 326.299 284.7 326.099 284.8C325.599 284.8 325.099 285 324.599 285.3Z" fill="#E6E6E6"/>
<path d="M324.599 285.4C324.599 285.4 324.499 285.4 324.499 285.3C324.499 285.2 324.499 285.2 324.499 285.1C325.099 284.7 325.699 284.4 326.399 284H326.499C326.499 284 326.599 284 326.599 284.1L326.699 284.6V284.7L326.599 284.8C326.499 284.8 326.199 284.9 326.099 284.9C325.699 284.9 325.199 285.1 324.599 285.4ZM326.399 284.4C326.199 284.5 326.099 284.6 325.899 284.7C325.999 284.7 325.999 284.7 326.099 284.7C326.199 284.7 326.399 284.7 326.399 284.7V284.4Z" fill="black"/>
<path d="M326.099 199.8C326.299 200 326.399 200.2 326.599 200.4L317.999 219.4C317.799 219.2 317.599 219.1 317.399 218.9C312.499 214.8 302.299 212.9 296.399 212.8L324.099 196.8C324.799 197.9 325.499 198.9 326.099 199.8Z" fill="url(#paint84_linear_1802_5448)"/>
<path d="M276.9 314.2C278.8 315.3 280 318.1 279.7 320.4C277.6 335.4 275.5 350.3 273.4 365.3L269.4 366.8C271.5 351.8 273.6 336.9 275.7 321.9C276 319.6 274.8 316.8 272.9 315.7C263.2 310.1 253.4 304.4 243.7 298.8L247.7 297.3C257.4 303 267.2 308.6 276.9 314.2Z" fill="url(#paint85_linear_1802_5448)"/>
<path d="M225.3 274.4C225.9 274.2 226.5 274.3 227.2 274.7C230.2 276.4 233.3 278.2 236.3 280C237.5 280.7 238.7 281.9 239.5 283.4C242.2 288.1 245 292.8 247.7 297.4L243.7 298.9C241 294.2 238.2 289.5 235.5 284.9C234.6 283.4 233.5 282.2 232.3 281.5C229.3 279.7 226.2 278 223.2 276.2C222.5 275.8 221.9 275.7 221.3 275.9C222.6 275.4 223.9 274.9 225.3 274.4Z" fill="url(#paint86_linear_1802_5448)"/>
<path d="M273 315.699C274.9 316.799 276.1 319.499 275.8 321.899C273.7 336.899 271.6 351.799 269.5 366.799C269.5 352.799 269.5 338.899 269.5 324.899C269.5 322.699 268 320.099 266.1 318.999C250.1 309.699 234.1 300.499 218 291.199C218.3 288.999 219.6 280.199 219.9 277.999C220.1 276.899 220.6 276.099 221.4 275.799C222 275.599 222.6 275.699 223.3 276.099C226.3 277.899 229.4 279.599 232.4 281.399C233.6 282.099 234.8 283.299 235.6 284.799C238.3 289.499 241 294.199 243.8 298.799C253.5 304.399 263.2 310.099 273 315.699Z" fill="url(#paint87_linear_1802_5448)"/>
<path d="M222.3 267.1L265.4 291.9V359L222.3 334.1V267.1Z" fill="url(#paint88_linear_1802_5448)"/>
<path d="M265.4 327.2C265.4 341.2 265.4 355.1 265.4 369.1L208 335.9C208 321.9 208 308 208 294C208 292.9 208.4 292.2 209 291.8C209.6 291.5 210.4 291.5 211.4 292.1C228.3 301.8 245.2 311.6 262 321.3C263.9 322.4 265.4 325 265.4 327.2Z" fill="url(#paint89_linear_1802_5448)"/>
<path d="M269.5 366.8L265.5 369.1C265.5 355.1 265.5 341.2 265.5 327.2C265.5 325 264 322.4 262.1 321.3C245.2 311.6 228.3 301.8 211.5 292.1C210.6 291.6 209.7 291.5 209.1 291.8C210.4 291 213.1 289.5 213.1 289.5C213.7 289.1 214.6 289.2 215.5 289.7C216.4 290.2 250.1 309.7 266.1 318.9C268 320 269.5 322.6 269.5 324.8C269.5 338.8 269.5 352.8 269.5 366.8Z" fill="url(#paint90_linear_1802_5448)"/>
<path d="M128.3 189.8C128.2 189.9 118.2 195.6 118.1 195.7C111.8 184.7 105.4 173.7 99.0996 162.6C99.9996 162.1 108.4 157.3 109.3 156.7C115.7 167.8 122 178.8 128.3 189.8Z" fill="url(#paint91_linear_1802_5448)"/>
<path d="M131.3 190.7C131.3 190.6 131.3 190.5 131.2 190.4C131.2 190.3 131.1 190.2 131.1 190.1C131.1 190.1 131.1 190 131 190C130.9 189.9 130.9 189.8 130.8 189.7C130.7 189.6 130.7 189.6 130.6 189.5C130.5 189.4 130.4 189.4 130.3 189.3C130.2 189.3 130.1 189.2 130 189.2C129.9 189.2 129.8 189.2 129.7 189.2C129.6 189.2 129.5 189.2 129.4 189.2H129.3H129.2C129.2 189.2 129.2 189.2 129.1 189.2H129C128.9 189.3 128.7 189.4 128.5 189.5C128.4 189.6 118.4 195.3 118.3 195.4C118 195.6 117.8 195.7 117.7 195.7L117.6 195.8L117.5 195.9C117.4 196 117.4 196.1 117.3 196.1C117.3 196.2 117.2 196.3 117.2 196.4C117.2 196.5 117.1 196.6 117.1 196.7C117.1 196.8 117.1 196.9 117.1 197C117.1 197.1 117.1 197.2 117.2 197.3C117.2 197.4 117.3 197.5 117.3 197.6L117.4 197.7C117.5 197.8 117.5 197.9 117.6 198C117.7 198.1 117.7 198.1 117.8 198.2C117.9 198.3 118 198.3 118.1 198.4C118.2 198.4 118.3 198.5 118.4 198.5C118.5 198.5 118.6 198.5 118.7 198.5C118.8 198.5 118.9 198.5 119 198.5H119.1H119.2C119.2 198.5 119.2 198.5 119.3 198.5C119.6 198.3 130.7 192 130.7 192C130.7 192 130.7 192 130.8 192C130.9 191.9 130.9 191.9 131 191.8C131.1 191.7 131.1 191.6 131.2 191.5C131.2 191.4 131.3 191.3 131.3 191.2C131.3 191.1 131.3 191 131.4 190.9C131.3 190.9 131.3 190.8 131.3 190.7Z" fill="url(#paint92_linear_1802_5448)"/>
<path d="M106.299 102.6C110.599 110.1 108.699 119.3 102.099 123C95.4992 126.7 86.6993 123.7 82.3993 116.1C78.0993 108.6 79.9992 99.4998 86.5992 95.6998C93.2992 91.9998 102.099 95.0998 106.299 102.6Z" fill="url(#paint93_linear_1802_5448)"/>
<path d="M106.199 154.9C105.999 155 105.799 155.1 105.699 155.2C106.899 154.5 107.699 154.1 107.699 154C107.999 153.9 108.299 153.7 108.299 153.7C108.199 153.8 107.499 154.2 106.199 154.9Z" fill="url(#paint94_linear_1802_5448)"/>
<path d="M105.399 153.4C106.299 152.9 106.899 152.5 106.899 152.5C106.599 152.8 106.099 153.1 105.399 153.4Z" fill="url(#paint95_linear_1802_5448)"/>
<path d="M104.899 153.8C105.099 153.7 105.299 153.6 105.499 153.5C105.299 153.5 105.099 153.7 104.899 153.8Z" fill="url(#paint96_linear_1802_5448)"/>
<path d="M105.399 155.399C105.199 155.499 104.999 155.699 104.699 155.799C104.999 155.599 105.199 155.499 105.399 155.399Z" fill="url(#paint97_linear_1802_5448)"/>
<path d="M104.8 153.8C104.7 153.8 104.6 153.9 104.6 153.9C104.6 153.9 104.7 153.9 104.8 153.8Z" fill="url(#paint98_linear_1802_5448)"/>
<path d="M104.299 156C104.499 155.9 104.599 155.8 104.799 155.7C104.599 155.8 104.399 155.9 104.299 156Z" fill="url(#paint99_linear_1802_5448)"/>
<path d="M103.6 154.5C103.8 154.4 104.1 154.2 104.3 154.1C104 154.3 103.8 154.4 103.6 154.5Z" fill="url(#paint100_linear_1802_5448)"/>
<path d="M105.299 149.8C105.599 149.6 105.899 149.5 105.899 149.5C105.799 149.5 103.399 150.9 103.199 151C104.499 150.3 105.299 149.9 105.299 149.8Z" fill="url(#paint101_linear_1802_5448)"/>
<path d="M102.6 155.1C102.7 155.1 102.8 155 102.8 155C102.8 155 102.7 155 102.6 155.1Z" fill="url(#paint102_linear_1802_5448)"/>
<path d="M102.399 155.2C102.499 155.2 102.499 155.1 102.599 155.1C102.499 155.1 102.499 155.2 102.399 155.2Z" fill="url(#paint103_linear_1802_5448)"/>
<path d="M102.999 151.2C102.799 151.3 102.599 151.5 102.299 151.6C102.599 151.4 102.799 151.3 102.999 151.2Z" fill="url(#paint104_linear_1802_5448)"/>
<path d="M102.099 155.399C101.999 155.499 101.099 155.999 100.799 156.099C101.099 155.899 101.999 155.399 102.099 155.399Z" fill="url(#paint105_linear_1802_5448)"/>
<path d="M101.799 151.9C101.999 151.8 102.199 151.7 102.399 151.6C102.199 151.7 101.999 151.8 101.799 151.9Z" fill="url(#paint106_linear_1802_5448)"/>
<path d="M101.899 157.399C101.799 157.499 101.599 157.599 101.499 157.599C101.599 157.599 101.699 157.499 101.899 157.399Z" fill="url(#paint107_linear_1802_5448)"/>
<path d="M100.799 152.499C100.899 152.399 100.999 152.399 101.099 152.399C100.899 152.399 100.799 152.399 100.799 152.499Z" fill="url(#paint108_linear_1802_5448)"/>
<path d="M100.1 156.5C100.3 156.4 100.6 156.2 100.8 156.1C100.5 156.3 100.3 156.4 100.1 156.5Z" fill="url(#paint109_linear_1802_5448)"/>
<path d="M99.8994 156.7C99.9994 156.7 99.9994 156.6 100.099 156.6C99.9994 156.6 99.8994 156.6 99.8994 156.7Z" fill="url(#paint110_linear_1802_5448)"/>
<path d="M99.4996 153.2C99.3996 153.3 99.1996 153.4 99.0996 153.4C99.1996 153.4 99.2996 153.3 99.4996 153.2Z" fill="url(#paint111_linear_1802_5448)"/>
<path d="M96.6992 158.5C97.2992 158.1 98.4992 157.5 99.7992 156.7C99.8992 156.7 99.8992 156.6 99.9992 156.6C100.199 156.5 106.499 152.9 106.899 152.6C107.199 153.1 107.399 153.5 107.699 154C107.599 154.1 97.5992 159.8 97.4992 159.9C97.1992 159.4 96.9992 158.9 96.6992 158.5Z" fill="url(#paint112_linear_1802_5448)"/>
<path d="M110.699 154.899C110.699 154.799 110.699 154.699 110.599 154.599C110.599 154.499 110.499 154.399 110.499 154.299C110.499 154.299 110.499 154.199 110.399 154.199C110.299 154.099 110.299 153.999 110.199 153.899C110.099 153.799 110.099 153.799 109.999 153.699C109.899 153.599 109.799 153.599 109.699 153.499C109.599 153.499 109.499 153.399 109.399 153.399C109.299 153.399 109.199 153.399 109.099 153.399C108.999 153.399 108.899 153.399 108.799 153.399H108.699H108.599C108.599 153.399 108.599 153.399 108.499 153.399H108.399C108.199 153.499 105.999 154.799 105.799 154.899C106.999 154.199 107.799 153.799 107.799 153.699C107.699 153.799 97.6988 159.499 97.5988 159.599C97.2988 159.799 96.9988 159.899 96.9988 159.999C96.9988 159.999 96.9988 159.999 96.8988 159.999L96.7988 160.099L96.6988 160.199C96.5988 160.299 96.5988 160.399 96.4988 160.399C96.4988 160.499 96.3988 160.599 96.3988 160.699C96.3988 160.799 96.2988 160.899 96.2988 160.999C96.2988 161.099 96.2988 161.199 96.2988 161.299C96.2988 161.399 96.2988 161.499 96.3988 161.599C96.3988 161.699 96.4988 161.799 96.4988 161.899L96.5988 161.999C96.6988 162.099 96.6988 162.199 96.7988 162.299C96.8988 162.399 96.8988 162.399 96.9988 162.499C97.0988 162.599 97.1988 162.599 97.2988 162.699C97.3988 162.699 97.4988 162.799 97.5988 162.799C97.6988 162.799 97.7988 162.799 97.8988 162.799C97.9988 162.799 98.0988 162.799 98.1988 162.799H98.2988H98.3988C98.3988 162.799 98.3988 162.799 98.4988 162.799C98.5988 162.699 109.699 156.399 109.799 156.299C109.799 156.299 109.799 156.299 109.899 156.299C109.999 156.199 109.999 156.199 110.099 156.099C110.199 155.999 110.199 155.899 110.299 155.799C110.299 155.699 110.399 155.599 110.399 155.499C110.399 155.399 110.399 155.299 110.499 155.199C110.699 155.099 110.699 154.999 110.699 154.899Z" fill="url(#paint113_linear_1802_5448)"/>
<path d="M108.299 150.7C108.299 150.6 108.299 150.5 108.199 150.4C108.199 150.3 108.099 150.2 108.099 150.1L107.999 150C107.899 149.9 107.899 149.8 107.799 149.7C107.699 149.6 107.699 149.6 107.599 149.5C107.499 149.4 107.399 149.4 107.299 149.3C107.199 149.3 107.099 149.2 106.999 149.2C106.899 149.2 106.799 149.2 106.699 149.2C106.599 149.2 106.499 149.2 106.399 149.2H106.299H106.199C106.199 149.2 106.199 149.2 106.099 149.2C106.099 149.2 106.099 149.2 105.999 149.2C105.899 149.2 103.499 150.6 103.299 150.7C104.499 150 105.299 149.6 105.299 149.5C105.199 149.6 95.1994 155.3 95.0994 155.4C94.7994 155.6 94.4994 155.7 94.4994 155.8L94.3994 155.9L94.2994 156C94.1994 156.1 94.1994 156.2 94.0994 156.2C94.0994 156.3 93.9994 156.4 93.9994 156.5C93.9994 156.6 93.8994 156.7 93.8994 156.8C93.8994 156.9 93.8994 157 93.8994 157.1C93.8994 157.2 93.8994 157.3 93.9994 157.4C93.9994 157.5 94.0994 157.6 94.0994 157.7L94.1994 157.8C94.2994 157.9 94.2994 158 94.3994 158.1C94.4994 158.2 94.4994 158.2 94.5994 158.3C94.6994 158.4 94.7994 158.4 94.8994 158.5C94.9994 158.5 95.0994 158.6 95.1994 158.6C95.2994 158.6 95.3994 158.6 95.4994 158.6C95.5994 158.6 95.6994 158.6 95.7994 158.6H95.8994H95.9994C95.9994 158.6 95.9994 158.6 96.0994 158.6C96.0994 158.6 96.0994 158.6 96.1994 158.6C96.2994 158.5 98.4994 157.3 99.8994 156.5C99.9994 156.5 99.9994 156.4 100.099 156.4C100.299 156.3 105.299 153.4 105.499 153.3C106.399 152.8 106.999 152.4 106.999 152.4C107.299 152.2 107.499 152.1 107.599 152.1C107.599 152.1 107.599 152.1 107.699 152.1C107.799 152 107.799 152 107.899 151.9C107.999 151.8 107.999 151.7 108.099 151.6C108.099 151.5 108.199 151.4 108.199 151.3C108.199 151.2 108.199 151.1 108.299 151C108.299 150.9 108.299 150.8 108.299 150.7Z" fill="url(#paint114_linear_1802_5448)"/>
<path d="M82.4988 116.1C86.7988 123.6 95.5988 126.7 102.199 123C99.9988 124.2 95.5988 126.8 95.5988 126.8C94.6988 127.3 93.7988 127.7 92.7988 127.9C90.6988 128.5 88.4988 128.5 86.2988 128C84.5988 127.6 82.8988 126.9 81.2988 125.8C76.6988 122.7 73.7988 117.4 73.5988 111.9C73.4988 109.9 73.7988 108 74.4988 106.3C75.5988 103.4 77.4988 101 80.1988 99.4998C82.3988 98.2998 84.5988 96.9998 86.7988 95.7998C80.0988 99.4998 78.1988 108.6 82.4988 116.1Z" fill="url(#paint115_linear_1802_5448)"/>
<path d="M82.4992 133.7C82.0992 132.9 80.7992 130.8 80.6992 130.5V130.4V130.3V130.2C80.6992 130.2 80.6992 130.1 80.7992 130.1L80.8992 130L80.9992 129.9L81.0992 129.8C81.1992 129.8 81.1992 129.7 81.2992 129.7L81.3992 129.6C81.3992 129.6 81.4992 129.6 81.4992 129.5C81.5992 129.5 81.5992 129.4 81.6992 129.4C81.7992 129.4 81.8992 129.3 81.8992 129.3C81.9992 129.3 82.0992 129.2 82.1992 129.2C82.2992 129.2 82.3992 129.1 82.4992 129.1C82.5992 129.1 82.6992 129 82.7992 129C82.9992 128.9 83.0992 128.9 83.2992 128.9C83.4992 128.8 86.0992 128.1 86.1992 128.1C88.3992 128.6 90.5992 128.6 92.6992 128C96.8992 135.3 101.099 142.6 105.299 149.9C105.199 150 95.1992 155.7 95.0992 155.8C90.8992 148.4 86.6992 141 82.4992 133.7Z" fill="url(#paint116_linear_1802_5448)"/>
<path d="M81.0993 131.3C81.5993 132.1 81.9994 132.9 82.4994 133.7C81.7994 134.4 80.9993 135 80.0993 135.5C80.0993 135.5 80.0994 135.5 79.9994 135.5C74.7994 138.4 68.0994 137.2 63.2994 132.5C58.4994 127.8 56.7994 120.6 58.9994 114.7C60.0994 111.9 61.9994 109.7 64.3994 108.3C64.3994 108.3 64.4994 108.3 64.4994 108.2C66.9994 106.8 69.9993 106.2 73.1993 106.8C70.7993 108.2 68.3993 109.5 66.0993 110.9C62.9993 112.7 61.1994 116.3 61.4994 120.5C61.7994 124.8 64.0993 129.1 67.6993 131.6C71.1993 134.1 75.3993 134.5 78.5993 132.7C79.3993 132.3 80.2994 131.8 81.0993 131.3Z" fill="url(#paint117_linear_1802_5448)"/>
<path d="M81.1992 125.8C82.7992 126.9 84.4992 127.6 86.1992 128C86.0992 128 82.8992 128.9 82.7992 129C82.6992 129 82.5992 129.1 82.4992 129.1C82.3992 129.1 82.2992 129.2 82.1992 129.2C82.0992 129.2 81.9992 129.3 81.8992 129.3C81.7992 129.3 81.6992 129.4 81.6992 129.4C81.5992 129.4 81.5992 129.5 81.4992 129.5C81.4992 129.5 81.3992 129.5 81.3992 129.6L81.2992 129.7C81.1992 129.7 81.1992 129.8 81.0992 129.8C80.9992 129.8 80.9992 129.9 80.9992 129.9L80.8992 130L80.7992 130.1C80.7992 130.1 80.7992 130.2 80.6992 130.2V130.3V130.4V130.5C80.8992 130.8 80.9992 131 81.1992 131.3C80.2992 131.8 79.4992 132.3 78.5992 132.8C75.3992 134.6 71.1992 134.2 67.6992 131.7C64.1992 129.2 61.7992 124.9 61.4992 120.6C61.1992 116.4 62.9992 112.7 66.0992 111C68.4992 109.6 74.0992 106.5 74.4992 106.2C73.8992 107.9 73.5992 109.8 73.5992 111.8C73.6992 117.4 76.5992 122.7 81.1992 125.8Z" fill="url(#paint118_linear_1802_5448)"/>
<path d="M63.2992 132.599C68.0992 137.299 74.7992 138.499 79.9992 135.599C77.7992 136.899 73.3992 139.399 73.2992 139.399C68.9992 141.799 63.5992 141.499 58.9992 138.399C54.3992 135.299 51.4992 129.999 51.2992 124.499C51.0992 119.199 53.5992 114.499 57.7992 112.099C59.9992 110.899 62.1992 109.599 64.2992 108.399C61.8992 109.799 59.9992 111.999 58.8992 114.799C56.6992 120.699 58.4992 127.899 63.2992 132.599Z" fill="url(#paint119_linear_1802_5448)"/>
<path d="M381.1 288.8C380.2 289.3 378.7 288.5 377.7 286.8L365.9 266.4C365 264.8 363.4 263.9 362.5 264.4L369.9 260.2C370.8 259.7 372.4 260.5 373.3 262.2L385.1 282.6C386 284.2 387.6 285.1 388.5 284.6L381.1 288.8Z" fill="url(#paint120_linear_1802_5448)"/>
<path d="M380.8 319.299C380.9 319.299 380.9 319.199 381 319.199L422.7 283.899C423.6 283.199 423.4 281.299 422.3 279.699L412 265.099C411 263.699 409.7 263.099 408.9 263.599L416.3 259.399C417.1 258.899 418.5 259.599 419.4 260.899L429.6 275.599C430.7 277.199 430.9 279.099 430 279.799L388.3 315.099C388.2 315.099 388.2 315.199 388.1 315.199L380.8 319.299Z" fill="url(#paint121_linear_1802_5448)"/>
<path d="M380.8 319.3C379.9 319.8 378.3 318.9 377.4 317.2L353.6 273.6C352.7 272 352.8 270.4 353.7 269.8C353.7 269.8 362.6 264.5 362.6 264.4C363.5 263.9 365.1 264.7 366 266.4L377.8 286.8C378.7 288.4 380.3 289.3 381.2 288.8C381.3 288.8 381.3 288.7 381.4 288.7L408.8 263.7C408.9 263.6 408.9 263.6 409 263.6C409.8 263.1 411.2 263.8 412.1 265.1L422.3 279.8C423.4 281.4 423.6 283.3 422.7 284L381 319.2C381 319.2 380.9 319.3 380.8 319.3Z" fill="url(#paint122_linear_1802_5448)"/>
<defs>
<linearGradient id="paint0_linear_1802_5448" x1="170.479" y1="319.75" x2="175.493" y2="327.404" gradientUnits="userSpaceOnUse">
<stop offset="0.1347" stop-color="#83AFCD"/>
<stop offset="1" stop-color="#A1C1D7"/>
</linearGradient>
<linearGradient id="paint1_linear_1802_5448" x1="155.414" y1="272.034" x2="162.397" y2="282.693" gradientUnits="userSpaceOnUse">
<stop offset="0.1347" stop-color="#83AFCD"/>
<stop offset="1" stop-color="#A1C1D7"/>
</linearGradient>
<linearGradient id="paint2_linear_1802_5448" x1="163.78" y1="307.152" x2="170.199" y2="316.95" gradientUnits="userSpaceOnUse">
<stop offset="0.1347" stop-color="#83AFCD"/>
<stop offset="1" stop-color="#A1C1D7"/>
</linearGradient>
<linearGradient id="paint3_linear_1802_5448" x1="160.838" y1="288.27" x2="162.977" y2="291.534" gradientUnits="userSpaceOnUse">
<stop offset="0.1347" stop-color="#83AFCD"/>
<stop offset="1" stop-color="#A1C1D7"/>
</linearGradient>
<linearGradient id="paint4_linear_1802_5448" x1="151.031" y1="271.348" x2="153.523" y2="275.152" gradientUnits="userSpaceOnUse">
<stop offset="0.1347" stop-color="#83AFCD"/>
<stop offset="1" stop-color="#A1C1D7"/>
</linearGradient>
<linearGradient id="paint5_linear_1802_5448" x1="130.217" y1="248.981" x2="136.407" y2="258.429" gradientUnits="userSpaceOnUse">
<stop offset="0.1347" stop-color="#83AFCD"/>
<stop offset="1" stop-color="#A1C1D7"/>
</linearGradient>
<linearGradient id="paint6_linear_1802_5448" x1="124.336" y1="239.878" x2="129.638" y2="247.971" gradientUnits="userSpaceOnUse">
<stop offset="0.1347" stop-color="#83AFCD"/>
<stop offset="1" stop-color="#A1C1D7"/>
</linearGradient>
<linearGradient id="paint7_linear_1802_5448" x1="156.079" y1="337.308" x2="163.207" y2="348.188" gradientUnits="userSpaceOnUse">
<stop offset="0.1347" stop-color="#83AFCD"/>
<stop offset="1" stop-color="#A1C1D7"/>
</linearGradient>
<linearGradient id="paint8_linear_1802_5448" x1="147.156" y1="337.743" x2="149.855" y2="341.862" gradientUnits="userSpaceOnUse">
<stop offset="0.1347" stop-color="#83AFCD"/>
<stop offset="1" stop-color="#A1C1D7"/>
</linearGradient>
<linearGradient id="paint9_linear_1802_5448" x1="155.252" y1="293.786" x2="162.423" y2="304.731" gradientUnits="userSpaceOnUse">
<stop offset="0.1347" stop-color="#83AFCD"/>
<stop offset="1" stop-color="#A1C1D7"/>
</linearGradient>
<linearGradient id="paint10_linear_1802_5448" x1="91.6121" y1="301.796" x2="136.762" y2="313.288" gradientUnits="userSpaceOnUse">
<stop offset="0.1347" stop-color="#83AFCD"/>
<stop offset="0.3936" stop-color="#A2C2D9"/>
<stop offset="0.9576" stop-color="#F1F2F9"/>
<stop offset="1" stop-color="#F7F6FB"/>
</linearGradient>
<linearGradient id="paint11_linear_1802_5448" x1="136.11" y1="260.616" x2="143.32" y2="271.622" gradientUnits="userSpaceOnUse">
<stop offset="0.1347" stop-color="#83AFCD"/>
<stop offset="1" stop-color="#A1C1D7"/>
</linearGradient>
<linearGradient id="paint12_linear_1802_5448" x1="122.113" y1="351.371" x2="125.854" y2="357.08" gradientUnits="userSpaceOnUse">
<stop offset="0.1347" stop-color="#83AFCD"/>
<stop offset="1" stop-color="#A1C1D7"/>
</linearGradient>
<linearGradient id="paint13_linear_1802_5448" x1="99.1035" y1="238.345" x2="105.904" y2="248.725" gradientUnits="userSpaceOnUse">
<stop offset="0.1347" stop-color="#83AFCD"/>
<stop offset="1" stop-color="#A1C1D7"/>
</linearGradient>
<linearGradient id="paint14_linear_1802_5448" x1="101.054" y1="257.232" x2="103.962" y2="261.671" gradientUnits="userSpaceOnUse">
<stop offset="0.1347" stop-color="#83AFCD"/>
<stop offset="1" stop-color="#A1C1D7"/>
</linearGradient>
<linearGradient id="paint15_linear_1802_5448" x1="95.1108" y1="331.716" x2="95.2282" y2="332.033" gradientUnits="userSpaceOnUse">
<stop offset="0.1347" stop-color="#83AFCD"/>
<stop offset="1" stop-color="#A1C1D7"/>
</linearGradient>
<linearGradient id="paint16_linear_1802_5448" x1="75.2122" y1="269.443" x2="78.9259" y2="275.112" gradientUnits="userSpaceOnUse">
<stop offset="0.1347" stop-color="#83AFCD"/>
<stop offset="1" stop-color="#A1C1D7"/>
</linearGradient>
<linearGradient id="paint17_linear_1802_5448" x1="155.605" y1="80.5669" x2="168.81" y2="100.723" gradientUnits="userSpaceOnUse">
<stop offset="0.1347" stop-color="#83AFCD"/>
<stop offset="1" stop-color="#A1C1D7"/>
</linearGradient>
<linearGradient id="paint18_linear_1802_5448" x1="171.941" y1="148.355" x2="183.854" y2="166.538" gradientUnits="userSpaceOnUse">
<stop offset="0.1347" stop-color="#83AFCD"/>
<stop offset="1" stop-color="#A1C1D7"/>
</linearGradient>
<linearGradient id="paint19_linear_1802_5448" x1="165.05" y1="216.85" x2="175.482" y2="237.714" gradientUnits="userSpaceOnUse">
<stop offset="0.1347" stop-color="#83AFCD"/>
<stop offset="1" stop-color="#A1C1D7"/>
</linearGradient>
<linearGradient id="paint20_linear_1802_5448" x1="188.776" y1="174.73" x2="195.184" y2="192.011" gradientUnits="userSpaceOnUse">
<stop offset="0.1347" stop-color="#83AFCD"/>
<stop offset="1" stop-color="#A1C1D7"/>
</linearGradient>
<linearGradient id="paint21_linear_1802_5448" x1="146.847" y1="79.1653" x2="151.106" y2="85.6653" gradientUnits="userSpaceOnUse">
<stop offset="0.1347" stop-color="#83AFCD"/>
<stop offset="1" stop-color="#A1C1D7"/>
</linearGradient>
<linearGradient id="paint22_linear_1802_5448" x1="156.644" y1="124.643" x2="168.952" y2="143.428" gradientUnits="userSpaceOnUse">
<stop offset="0.1347" stop-color="#83AFCD"/>
<stop offset="1" stop-color="#A1C1D7"/>
</linearGradient>
<linearGradient id="paint23_linear_1802_5448" x1="119.558" y1="60.2307" x2="131.871" y2="79.025" gradientUnits="userSpaceOnUse">
<stop offset="0.1347" stop-color="#83AFCD"/>
<stop offset="1" stop-color="#A1C1D7"/>
</linearGradient>
<linearGradient id="paint24_linear_1802_5448" x1="151.997" y1="200.161" x2="157.184" y2="208.079" gradientUnits="userSpaceOnUse">
<stop offset="0.1347" stop-color="#83AFCD"/>
<stop offset="1" stop-color="#A1C1D7"/>
</linearGradient>
<linearGradient id="paint25_linear_1802_5448" x1="165.357" y1="113.636" x2="168.956" y2="119.129" gradientUnits="userSpaceOnUse">
<stop offset="0.1347" stop-color="#83AFCD"/>
<stop offset="1" stop-color="#A1C1D7"/>
</linearGradient>
<linearGradient id="paint26_linear_1802_5448" x1="64.2148" y1="130.154" x2="135.724" y2="168.585" gradientUnits="userSpaceOnUse">
<stop offset="0.1347" stop-color="#83AFCD"/>
<stop offset="0.3936" stop-color="#A2C2D9"/>
<stop offset="0.9576" stop-color="#F1F2F9"/>
<stop offset="1" stop-color="#F7F6FB"/>
</linearGradient>
<linearGradient id="paint27_linear_1802_5448" x1="95.4423" y1="18.3549" x2="105.292" y2="33.3878" gradientUnits="userSpaceOnUse">
<stop offset="0.1347" stop-color="#83AFCD"/>
<stop offset="1" stop-color="#A1C1D7"/>
</linearGradient>
<linearGradient id="paint28_linear_1802_5448" x1="138.879" y1="85.0512" x2="139.756" y2="86.3903" gradientUnits="userSpaceOnUse">
<stop offset="0.1347" stop-color="#83AFCD"/>
<stop offset="1" stop-color="#A1C1D7"/>
</linearGradient>
<linearGradient id="paint29_linear_1802_5448" x1="107.319" y1="36.3594" x2="119.1" y2="54.3416" gradientUnits="userSpaceOnUse">
<stop offset="0.1347" stop-color="#83AFCD"/>
<stop offset="1" stop-color="#A1C1D7"/>
</linearGradient>
<linearGradient id="paint30_linear_1802_5448" x1="103.755" y1="227.087" x2="110.91" y2="238.007" gradientUnits="userSpaceOnUse">
<stop offset="0.1347" stop-color="#83AFCD"/>
<stop offset="1" stop-color="#A1C1D7"/>
</linearGradient>
<linearGradient id="paint31_linear_1802_5448" x1="62.9735" y1="44.6464" x2="68.1987" y2="52.6216" gradientUnits="userSpaceOnUse">
<stop offset="0.1347" stop-color="#83AFCD"/>
<stop offset="1" stop-color="#A1C1D7"/>
</linearGradient>
<linearGradient id="paint32_linear_1802_5448" x1="46.8675" y1="15.3565" x2="60.1985" y2="35.7038" gradientUnits="userSpaceOnUse">
<stop offset="0.1347" stop-color="#83AFCD"/>
<stop offset="1" stop-color="#A1C1D7"/>
</linearGradient>
<linearGradient id="paint33_linear_1802_5448" x1="12.3995" y1="67.5848" x2="19.5274" y2="78.4642" gradientUnits="userSpaceOnUse">
<stop offset="0.1347" stop-color="#83AFCD"/>
<stop offset="1" stop-color="#A1C1D7"/>
</linearGradient>
<linearGradient id="paint34_linear_1802_5448" x1="305.86" y1="261.498" x2="319.066" y2="281.653" gradientUnits="userSpaceOnUse">
<stop offset="0.1347" stop-color="#83AFCD"/>
<stop offset="1" stop-color="#A1C1D7"/>
</linearGradient>
<linearGradient id="paint35_linear_1802_5448" x1="322.197" y1="329.286" x2="334.109" y2="347.468" gradientUnits="userSpaceOnUse">
<stop offset="0.1347" stop-color="#83AFCD"/>
<stop offset="1" stop-color="#A1C1D7"/>
</linearGradient>
<linearGradient id="paint36_linear_1802_5448" x1="315.305" y1="397.78" x2="325.737" y2="418.645" gradientUnits="userSpaceOnUse">
<stop offset="0.1347" stop-color="#83AFCD"/>
<stop offset="1" stop-color="#A1C1D7"/>
</linearGradient>
<linearGradient id="paint37_linear_1802_5448" x1="339.031" y1="355.661" x2="345.439" y2="372.942" gradientUnits="userSpaceOnUse">
<stop offset="0.1347" stop-color="#83AFCD"/>
<stop offset="1" stop-color="#A1C1D7"/>
</linearGradient>
<linearGradient id="paint38_linear_1802_5448" x1="297.102" y1="260.096" x2="301.361" y2="266.596" gradientUnits="userSpaceOnUse">
<stop offset="0.1347" stop-color="#83AFCD"/>
<stop offset="1" stop-color="#A1C1D7"/>
</linearGradient>
<linearGradient id="paint39_linear_1802_5448" x1="306.9" y1="305.574" x2="319.207" y2="324.359" gradientUnits="userSpaceOnUse">
<stop offset="0.1347" stop-color="#83AFCD"/>
<stop offset="1" stop-color="#A1C1D7"/>
</linearGradient>
<linearGradient id="paint40_linear_1802_5448" x1="269.814" y1="241.162" x2="282.127" y2="259.956" gradientUnits="userSpaceOnUse">
<stop offset="0.1347" stop-color="#83AFCD"/>
<stop offset="1" stop-color="#A1C1D7"/>
</linearGradient>
<linearGradient id="paint41_linear_1802_5448" x1="307.896" y1="387.877" x2="310.545" y2="394.814" gradientUnits="userSpaceOnUse">
<stop offset="0.1347" stop-color="#83AFCD"/>
<stop offset="1" stop-color="#A1C1D7"/>
</linearGradient>
<linearGradient id="paint42_linear_1802_5448" x1="315.613" y1="294.567" x2="319.212" y2="300.06" gradientUnits="userSpaceOnUse">
<stop offset="0.1347" stop-color="#83AFCD"/>
<stop offset="1" stop-color="#A1C1D7"/>
</linearGradient>
<linearGradient id="paint43_linear_1802_5448" x1="214.471" y1="311.086" x2="285.98" y2="349.516" gradientUnits="userSpaceOnUse">
<stop offset="0.1347" stop-color="#83AFCD"/>
<stop offset="0.3936" stop-color="#A2C2D9"/>
<stop offset="0.9576" stop-color="#F1F2F9"/>
<stop offset="1" stop-color="#F7F6FB"/>
</linearGradient>
<linearGradient id="paint44_linear_1802_5448" x1="245.698" y1="199.286" x2="255.547" y2="214.319" gradientUnits="userSpaceOnUse">
<stop offset="0.1347" stop-color="#83AFCD"/>
<stop offset="1" stop-color="#A1C1D7"/>
</linearGradient>
<linearGradient id="paint45_linear_1802_5448" x1="289.134" y1="265.982" x2="290.011" y2="267.321" gradientUnits="userSpaceOnUse">
<stop offset="0.1347" stop-color="#83AFCD"/>
<stop offset="1" stop-color="#A1C1D7"/>
</linearGradient>
<linearGradient id="paint46_linear_1802_5448" x1="257.574" y1="217.291" x2="269.356" y2="235.273" gradientUnits="userSpaceOnUse">
<stop offset="0.1347" stop-color="#83AFCD"/>
<stop offset="1" stop-color="#A1C1D7"/>
</linearGradient>
<linearGradient id="paint47_linear_1802_5448" x1="254.011" y1="408.018" x2="261.165" y2="418.938" gradientUnits="userSpaceOnUse">
<stop offset="0.1347" stop-color="#83AFCD"/>
<stop offset="1" stop-color="#A1C1D7"/>
</linearGradient>
<linearGradient id="paint48_linear_1802_5448" x1="213.229" y1="225.578" x2="218.454" y2="233.553" gradientUnits="userSpaceOnUse">
<stop offset="0.1347" stop-color="#83AFCD"/>
<stop offset="1" stop-color="#A1C1D7"/>
</linearGradient>
<linearGradient id="paint49_linear_1802_5448" x1="197.123" y1="196.287" x2="210.454" y2="216.635" gradientUnits="userSpaceOnUse">
<stop offset="0.1347" stop-color="#83AFCD"/>
<stop offset="1" stop-color="#A1C1D7"/>
</linearGradient>
<linearGradient id="paint50_linear_1802_5448" x1="162.655" y1="248.516" x2="169.782" y2="259.395" gradientUnits="userSpaceOnUse">
<stop offset="0.1347" stop-color="#83AFCD"/>
<stop offset="1" stop-color="#A1C1D7"/>
</linearGradient>
<linearGradient id="paint51_linear_1802_5448" x1="317.287" y1="139.552" x2="325.351" y2="151.859" gradientUnits="userSpaceOnUse">
<stop offset="0.1347" stop-color="#83AFCD"/>
<stop offset="1" stop-color="#A1C1D7"/>
</linearGradient>
<linearGradient id="paint52_linear_1802_5448" x1="293.06" y1="62.8155" x2="304.291" y2="79.9577" gradientUnits="userSpaceOnUse">
<stop offset="0.1347" stop-color="#83AFCD"/>
<stop offset="1" stop-color="#A1C1D7"/>
</linearGradient>
<linearGradient id="paint53_linear_1802_5448" x1="306.514" y1="119.29" x2="316.838" y2="135.047" gradientUnits="userSpaceOnUse">
<stop offset="0.1347" stop-color="#83AFCD"/>
<stop offset="1" stop-color="#A1C1D7"/>
</linearGradient>
<linearGradient id="paint54_linear_1802_5448" x1="301.783" y1="88.9245" x2="305.223" y2="94.1745" gradientUnits="userSpaceOnUse">
<stop offset="0.1347" stop-color="#83AFCD"/>
<stop offset="1" stop-color="#A1C1D7"/>
</linearGradient>
<linearGradient id="paint55_linear_1802_5448" x1="286.012" y1="61.7116" x2="290.019" y2="67.8286" gradientUnits="userSpaceOnUse">
<stop offset="0.1347" stop-color="#83AFCD"/>
<stop offset="1" stop-color="#A1C1D7"/>
</linearGradient>
<linearGradient id="paint56_linear_1802_5448" x1="252.538" y1="25.7407" x2="262.493" y2="40.9345" gradientUnits="userSpaceOnUse">
<stop offset="0.1347" stop-color="#83AFCD"/>
<stop offset="1" stop-color="#A1C1D7"/>
</linearGradient>
<linearGradient id="paint57_linear_1802_5448" x1="243.08" y1="11.1015" x2="251.607" y2="24.1163" gradientUnits="userSpaceOnUse">
<stop offset="0.1347" stop-color="#83AFCD"/>
<stop offset="1" stop-color="#A1C1D7"/>
</linearGradient>
<linearGradient id="paint58_linear_1802_5448" x1="294.13" y1="167.788" x2="305.594" y2="185.286" gradientUnits="userSpaceOnUse">
<stop offset="0.1347" stop-color="#83AFCD"/>
<stop offset="1" stop-color="#A1C1D7"/>
</linearGradient>
<linearGradient id="paint59_linear_1802_5448" x1="279.78" y1="168.488" x2="284.121" y2="175.113" gradientUnits="userSpaceOnUse">
<stop offset="0.1347" stop-color="#83AFCD"/>
<stop offset="1" stop-color="#A1C1D7"/>
</linearGradient>
<linearGradient id="paint60_linear_1802_5448" x1="292.8" y1="97.7959" x2="304.332" y2="115.398" gradientUnits="userSpaceOnUse">
<stop offset="0.1347" stop-color="#83AFCD"/>
<stop offset="1" stop-color="#A1C1D7"/>
</linearGradient>
<linearGradient id="paint61_linear_1802_5448" x1="190.454" y1="110.679" x2="263.063" y2="129.161" gradientUnits="userSpaceOnUse">
<stop offset="0.1347" stop-color="#83AFCD"/>
<stop offset="0.3936" stop-color="#A2C2D9"/>
<stop offset="0.9576" stop-color="#F1F2F9"/>
<stop offset="1" stop-color="#F7F6FB"/>
</linearGradient>
<linearGradient id="paint62_linear_1802_5448" x1="262.015" y1="44.4525" x2="273.612" y2="62.1521" gradientUnits="userSpaceOnUse">
<stop offset="0.1347" stop-color="#83AFCD"/>
<stop offset="1" stop-color="#A1C1D7"/>
</linearGradient>
<linearGradient id="paint63_linear_1802_5448" x1="239.506" y1="190.403" x2="245.522" y2="199.585" gradientUnits="userSpaceOnUse">
<stop offset="0.1347" stop-color="#83AFCD"/>
<stop offset="1" stop-color="#A1C1D7"/>
</linearGradient>
<linearGradient id="paint64_linear_1802_5448" x1="202.503" y1="8.63601" x2="213.44" y2="25.3293" gradientUnits="userSpaceOnUse">
<stop offset="0.1347" stop-color="#83AFCD"/>
<stop offset="1" stop-color="#A1C1D7"/>
</linearGradient>
<linearGradient id="paint65_linear_1802_5448" x1="205.638" y1="39.0101" x2="210.315" y2="46.1478" gradientUnits="userSpaceOnUse">
<stop offset="0.1347" stop-color="#83AFCD"/>
<stop offset="1" stop-color="#A1C1D7"/>
</linearGradient>
<linearGradient id="paint66_linear_1802_5448" x1="196.081" y1="158.796" x2="196.27" y2="159.305" gradientUnits="userSpaceOnUse">
<stop offset="0.1347" stop-color="#83AFCD"/>
<stop offset="1" stop-color="#A1C1D7"/>
</linearGradient>
<linearGradient id="paint67_linear_1802_5448" x1="164.08" y1="58.6488" x2="170.053" y2="67.7645" gradientUnits="userSpaceOnUse">
<stop offset="0.1347" stop-color="#83AFCD"/>
<stop offset="1" stop-color="#A1C1D7"/>
</linearGradient>
<linearGradient id="paint68_linear_1802_5448" x1="451.931" y1="215.26" x2="465.137" y2="235.416" gradientUnits="userSpaceOnUse">
<stop offset="0.1347" stop-color="#83AFCD"/>
<stop offset="1" stop-color="#A1C1D7"/>
</linearGradient>
<linearGradient id="paint69_linear_1802_5448" x1="468.268" y1="283.049" x2="480.18" y2="301.231" gradientUnits="userSpaceOnUse">
<stop offset="0.1347" stop-color="#83AFCD"/>
<stop offset="1" stop-color="#A1C1D7"/>
</linearGradient>
<linearGradient id="paint70_linear_1802_5448" x1="461.376" y1="351.543" x2="471.808" y2="372.407" gradientUnits="userSpaceOnUse">
<stop offset="0.1347" stop-color="#83AFCD"/>
<stop offset="1" stop-color="#A1C1D7"/>
</linearGradient>
<linearGradient id="paint71_linear_1802_5448" x1="485.103" y1="309.423" x2="491.51" y2="326.704" gradientUnits="userSpaceOnUse">
<stop offset="0.1347" stop-color="#83AFCD"/>
<stop offset="1" stop-color="#A1C1D7"/>
</linearGradient>
<linearGradient id="paint72_linear_1802_5448" x1="443.173" y1="213.859" x2="447.432" y2="220.359" gradientUnits="userSpaceOnUse">
<stop offset="0.1347" stop-color="#83AFCD"/>
<stop offset="1" stop-color="#A1C1D7"/>
</linearGradient>
<linearGradient id="paint73_linear_1802_5448" x1="452.971" y1="259.337" x2="465.278" y2="278.121" gradientUnits="userSpaceOnUse">
<stop offset="0.1347" stop-color="#83AFCD"/>
<stop offset="1" stop-color="#A1C1D7"/>
</linearGradient>
<linearGradient id="paint74_linear_1802_5448" x1="415.885" y1="194.924" x2="428.198" y2="213.718" gradientUnits="userSpaceOnUse">
<stop offset="0.1347" stop-color="#83AFCD"/>
<stop offset="1" stop-color="#A1C1D7"/>
</linearGradient>
<linearGradient id="paint75_linear_1802_5448" x1="453.967" y1="341.639" x2="456.616" y2="348.576" gradientUnits="userSpaceOnUse">
<stop offset="0.1347" stop-color="#83AFCD"/>
<stop offset="1" stop-color="#A1C1D7"/>
</linearGradient>
<linearGradient id="paint76_linear_1802_5448" x1="461.683" y1="248.329" x2="465.283" y2="253.823" gradientUnits="userSpaceOnUse">
<stop offset="0.1347" stop-color="#83AFCD"/>
<stop offset="1" stop-color="#A1C1D7"/>
</linearGradient>
<linearGradient id="paint77_linear_1802_5448" x1="360.542" y1="264.848" x2="432.051" y2="303.278" gradientUnits="userSpaceOnUse">
<stop offset="0.1347" stop-color="#83AFCD"/>
<stop offset="0.3936" stop-color="#A2C2D9"/>
<stop offset="0.9576" stop-color="#F1F2F9"/>
<stop offset="1" stop-color="#F7F6FB"/>
</linearGradient>
<linearGradient id="paint78_linear_1802_5448" x1="391.769" y1="153.048" x2="401.618" y2="168.081" gradientUnits="userSpaceOnUse">
<stop offset="0.1347" stop-color="#83AFCD"/>
<stop offset="1" stop-color="#A1C1D7"/>
</linearGradient>
<linearGradient id="paint79_linear_1802_5448" x1="435.205" y1="219.744" x2="436.083" y2="221.083" gradientUnits="userSpaceOnUse">
<stop offset="0.1347" stop-color="#83AFCD"/>
<stop offset="1" stop-color="#A1C1D7"/>
</linearGradient>
<linearGradient id="paint80_linear_1802_5448" x1="403.645" y1="171.053" x2="415.427" y2="189.035" gradientUnits="userSpaceOnUse">
<stop offset="0.1347" stop-color="#83AFCD"/>
<stop offset="1" stop-color="#A1C1D7"/>
</linearGradient>
<linearGradient id="paint81_linear_1802_5448" x1="400.082" y1="361.781" x2="407.236" y2="372.7" gradientUnits="userSpaceOnUse">
<stop offset="0.1347" stop-color="#83AFCD"/>
<stop offset="1" stop-color="#A1C1D7"/>
</linearGradient>
<linearGradient id="paint82_linear_1802_5448" x1="359.3" y1="179.34" x2="364.525" y2="187.315" gradientUnits="userSpaceOnUse">
<stop offset="0.1347" stop-color="#83AFCD"/>
<stop offset="1" stop-color="#A1C1D7"/>
</linearGradient>
<linearGradient id="paint83_linear_1802_5448" x1="343.195" y1="150.05" x2="356.525" y2="170.397" gradientUnits="userSpaceOnUse">
<stop offset="0.1347" stop-color="#83AFCD"/>
<stop offset="1" stop-color="#A1C1D7"/>
</linearGradient>
<linearGradient id="paint84_linear_1802_5448" x1="308.726" y1="202.278" x2="315.854" y2="213.157" gradientUnits="userSpaceOnUse">
<stop offset="0.1347" stop-color="#83AFCD"/>
<stop offset="1" stop-color="#A1C1D7"/>
</linearGradient>
<linearGradient id="paint85_linear_1802_5448" x1="261.249" y1="306.853" x2="268.628" y2="335.605" gradientUnits="userSpaceOnUse">
<stop stop-color="#5FE1FF"/>
<stop offset="0.4594" stop-color="#5FE1FF"/>
<stop offset="0.6005" stop-color="#61C0FF"/>
<stop offset="0.6749" stop-color="#62ADFF"/>
</linearGradient>
<linearGradient id="paint86_linear_1802_5448" x1="241.359" y1="315.568" x2="232.845" y2="279.618" gradientUnits="userSpaceOnUse">
<stop offset="0.0353535" stop-color="#4DF4FF"/>
<stop offset="0.3036" stop-color="#52E5FF"/>
<stop offset="0.821" stop-color="#5DBCFF"/>
<stop offset="1" stop-color="#62ADFF"/>
</linearGradient>
<linearGradient id="paint87_linear_1802_5448" x1="249.175" y1="307.837" x2="238.742" y2="341.169" gradientUnits="userSpaceOnUse">
<stop offset="0.0353535" stop-color="#4DF4FF"/>
<stop offset="0.3036" stop-color="#52E5FF"/>
<stop offset="0.821" stop-color="#5DBCFF"/>
<stop offset="1" stop-color="#62ADFF"/>
</linearGradient>
<linearGradient id="paint88_linear_1802_5448" x1="251.162" y1="299.649" x2="243.982" y2="312.743" gradientUnits="userSpaceOnUse">
<stop offset="0.3128" stop-color="white"/>
<stop offset="0.5587" stop-color="#E3ECF3"/>
</linearGradient>
<linearGradient id="paint89_linear_1802_5448" x1="241.497" y1="316.574" x2="228.679" y2="355.844" gradientUnits="userSpaceOnUse">
<stop offset="0.0353535" stop-color="#4DF4FF"/>
<stop offset="0.3036" stop-color="#52E5FF"/>
<stop offset="0.821" stop-color="#5DBCFF"/>
<stop offset="1" stop-color="#62ADFF"/>
</linearGradient>
<linearGradient id="paint90_linear_1802_5448" x1="240.022" y1="311.153" x2="248.165" y2="343.468" gradientUnits="userSpaceOnUse">
<stop stop-color="#5FE1FF"/>
<stop offset="0.4594" stop-color="#5FE1FF"/>
<stop offset="0.6005" stop-color="#61C0FF"/>
<stop offset="0.6749" stop-color="#62ADFF"/>
</linearGradient>
<linearGradient id="paint91_linear_1802_5448" x1="111.41" y1="177.761" x2="124.73" y2="168.989" gradientUnits="userSpaceOnUse">
<stop stop-color="#E35F4B"/>
<stop offset="0.1743" stop-color="#EA6E54"/>
<stop offset="0.5108" stop-color="#FC976A"/>
<stop offset="0.5673" stop-color="#FF9E6E"/>
<stop offset="0.6876" stop-color="#FFAD73"/>
<stop offset="0.9197" stop-color="#FFD680"/>
<stop offset="1" stop-color="#FFE585"/>
</linearGradient>
<linearGradient id="paint92_linear_1802_5448" x1="117.129" y1="197.999" x2="130.621" y2="190.463" gradientUnits="userSpaceOnUse">
<stop offset="0.0174037" stop-color="#FFBA77"/>
<stop offset="0.0192104" stop-color="#FEB876"/>
<stop offset="0.0468451" stop-color="#F49866"/>
<stop offset="0.0755326" stop-color="#ED7F5A"/>
<stop offset="0.1054" stop-color="#E76D52"/>
<stop offset="0.1371" stop-color="#E4624D"/>
<stop offset="0.1738" stop-color="#E35F4B"/>
<stop offset="0.2948" stop-color="#EA6E54"/>
<stop offset="0.5281" stop-color="#FC976A"/>
<stop offset="0.5673" stop-color="#FF9E6E"/>
<stop offset="0.6876" stop-color="#FFAD73"/>
<stop offset="0.9197" stop-color="#FFD680"/>
<stop offset="1" stop-color="#FFE585"/>
</linearGradient>
<linearGradient id="paint93_linear_1802_5448" x1="98.6313" y1="95.179" x2="92.1816" y2="116.752" gradientUnits="userSpaceOnUse">
<stop offset="0.0353535" stop-color="#FF9E6E"/>
<stop offset="0.3036" stop-color="#FFAD73"/>
<stop offset="0.821" stop-color="#FFD680"/>
<stop offset="1" stop-color="#FFE585"/>
</linearGradient>
<linearGradient id="paint94_linear_1802_5448" x1="107.972" y1="151.89" x2="106.957" y2="154.567" gradientUnits="userSpaceOnUse">
<stop offset="0.0353535" stop-color="#FF9E6E"/>
<stop offset="0.3036" stop-color="#FFAD73"/>
<stop offset="0.821" stop-color="#FFD680"/>
<stop offset="1" stop-color="#FFE585"/>
</linearGradient>
<linearGradient id="paint95_linear_1802_5448" x1="106.728" y1="151.568" x2="106.152" y2="153.088" gradientUnits="userSpaceOnUse">
<stop offset="0.0353535" stop-color="#FF9E6E"/>
<stop offset="0.3036" stop-color="#FFAD73"/>
<stop offset="0.821" stop-color="#FFD680"/>
<stop offset="1" stop-color="#FFE585"/>
</linearGradient>
<linearGradient id="paint96_linear_1802_5448" x1="105.358" y1="153.069" x2="105.144" y2="153.634" gradientUnits="userSpaceOnUse">
<stop offset="0.0353535" stop-color="#FF9E6E"/>
<stop offset="0.3036" stop-color="#FFAD73"/>
<stop offset="0.821" stop-color="#FFD680"/>
<stop offset="1" stop-color="#FFE585"/>
</linearGradient>
<linearGradient id="paint97_linear_1802_5448" x1="105.324" y1="154.912" x2="105.07" y2="155.581" gradientUnits="userSpaceOnUse">
<stop offset="0.0353535" stop-color="#FF9E6E"/>
<stop offset="0.3036" stop-color="#FFAD73"/>
<stop offset="0.821" stop-color="#FFD680"/>
<stop offset="1" stop-color="#FFE585"/>
</linearGradient>
<linearGradient id="paint98_linear_1802_5448" x1="104.754" y1="153.657" x2="104.661" y2="153.901" gradientUnits="userSpaceOnUse">
<stop offset="0.0353535" stop-color="#FF9E6E"/>
<stop offset="0.3036" stop-color="#FFAD73"/>
<stop offset="0.821" stop-color="#FFD680"/>
<stop offset="1" stop-color="#FFE585"/>
</linearGradient>
<linearGradient id="paint99_linear_1802_5448" x1="104.69" y1="155.43" x2="104.514" y2="155.895" gradientUnits="userSpaceOnUse">
<stop offset="0.0353535" stop-color="#FF9E6E"/>
<stop offset="0.3036" stop-color="#FFAD73"/>
<stop offset="0.821" stop-color="#FFD680"/>
<stop offset="1" stop-color="#FFE585"/>
</linearGradient>
<linearGradient id="paint100_linear_1802_5448" x1="104.162" y1="153.669" x2="103.902" y2="154.355" gradientUnits="userSpaceOnUse">
<stop offset="0.0353535" stop-color="#FF9E6E"/>
<stop offset="0.3036" stop-color="#FFAD73"/>
<stop offset="0.821" stop-color="#FFD680"/>
<stop offset="1" stop-color="#FFE585"/>
</linearGradient>
<linearGradient id="paint101_linear_1802_5448" x1="105.595" y1="147.669" x2="104.568" y2="150.377" gradientUnits="userSpaceOnUse">
<stop offset="0.0353535" stop-color="#FF9E6E"/>
<stop offset="0.3036" stop-color="#FFAD73"/>
<stop offset="0.821" stop-color="#FFD680"/>
<stop offset="1" stop-color="#FFE585"/>
</linearGradient>
<linearGradient id="paint102_linear_1802_5448" x1="102.817" y1="154.767" x2="102.722" y2="155.018" gradientUnits="userSpaceOnUse">
<stop offset="0.0353535" stop-color="#FF9E6E"/>
<stop offset="0.3036" stop-color="#FFAD73"/>
<stop offset="0.821" stop-color="#FFD680"/>
<stop offset="1" stop-color="#FFE585"/>
</linearGradient>
<linearGradient id="paint103_linear_1802_5448" x1="102.575" y1="154.945" x2="102.5" y2="155.143" gradientUnits="userSpaceOnUse">
<stop offset="0.0353535" stop-color="#FF9E6E"/>
<stop offset="0.3036" stop-color="#FFAD73"/>
<stop offset="0.821" stop-color="#FFD680"/>
<stop offset="1" stop-color="#FFE585"/>
</linearGradient>
<linearGradient id="paint104_linear_1802_5448" x1="102.919" y1="150.73" x2="102.665" y2="151.399" gradientUnits="userSpaceOnUse">
<stop offset="0.0353535" stop-color="#FF9E6E"/>
<stop offset="0.3036" stop-color="#FFAD73"/>
<stop offset="0.821" stop-color="#FFD680"/>
<stop offset="1" stop-color="#FFE585"/>
</linearGradient>
<linearGradient id="paint105_linear_1802_5448" x1="101.908" y1="154.509" x2="101.414" y2="155.811" gradientUnits="userSpaceOnUse">
<stop offset="0.0353535" stop-color="#FF9E6E"/>
<stop offset="0.3036" stop-color="#FFAD73"/>
<stop offset="0.821" stop-color="#FFD680"/>
<stop offset="1" stop-color="#FFE585"/>
</linearGradient>
<linearGradient id="paint106_linear_1802_5448" x1="102.267" y1="151.156" x2="102.04" y2="151.757" gradientUnits="userSpaceOnUse">
<stop offset="0.0353535" stop-color="#FF9E6E"/>
<stop offset="0.3036" stop-color="#FFAD73"/>
<stop offset="0.821" stop-color="#FFD680"/>
<stop offset="1" stop-color="#FFE585"/>
</linearGradient>
<linearGradient id="paint107_linear_1802_5448" x1="101.81" y1="157.12" x2="101.651" y2="157.538" gradientUnits="userSpaceOnUse">
<stop offset="0.0353535" stop-color="#FF9E6E"/>
<stop offset="0.3036" stop-color="#FFAD73"/>
<stop offset="0.821" stop-color="#FFD680"/>
<stop offset="1" stop-color="#FFE585"/>
</linearGradient>
<linearGradient id="paint108_linear_1802_5448" x1="100.98" y1="152.15" x2="100.881" y2="152.409" gradientUnits="userSpaceOnUse">
<stop offset="0.0353535" stop-color="#FF9E6E"/>
<stop offset="0.3036" stop-color="#FFAD73"/>
<stop offset="0.821" stop-color="#FFD680"/>
<stop offset="1" stop-color="#FFE585"/>
</linearGradient>
<linearGradient id="paint109_linear_1802_5448" x1="100.697" y1="155.627" x2="100.419" y2="156.361" gradientUnits="userSpaceOnUse">
<stop offset="0.0353535" stop-color="#FF9E6E"/>
<stop offset="0.3036" stop-color="#FFAD73"/>
<stop offset="0.821" stop-color="#FFD680"/>
<stop offset="1" stop-color="#FFE585"/>
</linearGradient>
<linearGradient id="paint110_linear_1802_5448" x1="100.041" y1="156.389" x2="99.9595" y2="156.603" gradientUnits="userSpaceOnUse">
<stop offset="0.0353535" stop-color="#FF9E6E"/>
<stop offset="0.3036" stop-color="#FFAD73"/>
<stop offset="0.821" stop-color="#FFD680"/>
<stop offset="1" stop-color="#FFE585"/>
</linearGradient>
<linearGradient id="paint111_linear_1802_5448" x1="99.4057" y1="152.938" x2="99.2472" y2="153.355" gradientUnits="userSpaceOnUse">
<stop offset="0.0353535" stop-color="#FF9E6E"/>
<stop offset="0.3036" stop-color="#FFAD73"/>
<stop offset="0.821" stop-color="#FFD680"/>
<stop offset="1" stop-color="#FFE585"/>
</linearGradient>
<linearGradient id="paint112_linear_1802_5448" x1="100.275" y1="157.511" x2="111.499" y2="150.119" gradientUnits="userSpaceOnUse">
<stop stop-color="#E35F4B"/>
<stop offset="0.1743" stop-color="#EA6E54"/>
<stop offset="0.5108" stop-color="#FC976A"/>
<stop offset="0.5673" stop-color="#FF9E6E"/>
<stop offset="0.6876" stop-color="#FFAD73"/>
<stop offset="0.9197" stop-color="#FFD680"/>
<stop offset="1" stop-color="#FFE585"/>
</linearGradient>
<linearGradient id="paint113_linear_1802_5448" x1="96.5335" y1="162.163" x2="110.026" y2="154.627" gradientUnits="userSpaceOnUse">
<stop offset="0.0174037" stop-color="#FFBA77"/>
<stop offset="0.0192104" stop-color="#FEB876"/>
<stop offset="0.0468451" stop-color="#F49866"/>
<stop offset="0.0755326" stop-color="#ED7F5A"/>
<stop offset="0.1054" stop-color="#E76D52"/>
<stop offset="0.1371" stop-color="#E4624D"/>
<stop offset="0.1738" stop-color="#E35F4B"/>
<stop offset="0.2948" stop-color="#EA6E54"/>
<stop offset="0.5281" stop-color="#FC976A"/>
<stop offset="0.5673" stop-color="#FF9E6E"/>
<stop offset="0.6876" stop-color="#FFAD73"/>
<stop offset="0.9197" stop-color="#FFD680"/>
<stop offset="1" stop-color="#FFE585"/>
</linearGradient>
<linearGradient id="paint114_linear_1802_5448" x1="94.1304" y1="157.982" x2="107.623" y2="150.446" gradientUnits="userSpaceOnUse">
<stop offset="0.0174037" stop-color="#FFBA77"/>
<stop offset="0.0192104" stop-color="#FEB876"/>
<stop offset="0.0468451" stop-color="#F49866"/>
<stop offset="0.0755326" stop-color="#ED7F5A"/>
<stop offset="0.1054" stop-color="#E76D52"/>
<stop offset="0.1371" stop-color="#E4624D"/>
<stop offset="0.1738" stop-color="#E35F4B"/>
<stop offset="0.2948" stop-color="#EA6E54"/>
<stop offset="0.5281" stop-color="#FC976A"/>
<stop offset="0.5673" stop-color="#FF9E6E"/>
<stop offset="0.6876" stop-color="#FFAD73"/>
<stop offset="0.9197" stop-color="#FFD680"/>
<stop offset="1" stop-color="#FFE585"/>
</linearGradient>
<linearGradient id="paint115_linear_1802_5448" x1="91.7986" y1="127.637" x2="81.0543" y2="104.408" gradientUnits="userSpaceOnUse">
<stop offset="0.1053" stop-color="#E35F4B"/>
<stop offset="0.2473" stop-color="#EA6E54"/>
<stop offset="0.5212" stop-color="#FC976A"/>
<stop offset="0.5673" stop-color="#FF9E6E"/>
<stop offset="0.6876" stop-color="#FFAD73"/>
<stop offset="0.9197" stop-color="#FFD680"/>
<stop offset="1" stop-color="#FFE585"/>
</linearGradient>
<linearGradient id="paint116_linear_1802_5448" x1="90.5939" y1="141.49" x2="103.179" y2="133.202" gradientUnits="userSpaceOnUse">
<stop stop-color="#E35F4B"/>
<stop offset="0.1743" stop-color="#EA6E54"/>
<stop offset="0.5108" stop-color="#FC976A"/>
<stop offset="0.5673" stop-color="#FF9E6E"/>
<stop offset="0.6876" stop-color="#FFAD73"/>
<stop offset="0.9197" stop-color="#FFD680"/>
<stop offset="1" stop-color="#FFE585"/>
</linearGradient>
<linearGradient id="paint117_linear_1802_5448" x1="72.4787" y1="136.56" x2="66.9217" y2="115.349" gradientUnits="userSpaceOnUse">
<stop offset="0.0353535" stop-color="#FF9E6E"/>
<stop offset="0.3036" stop-color="#FFAD73"/>
<stop offset="0.821" stop-color="#FFD680"/>
<stop offset="1" stop-color="#FFE585"/>
</linearGradient>
<linearGradient id="paint118_linear_1802_5448" x1="77.1789" y1="132.78" x2="68.4777" y2="113.968" gradientUnits="userSpaceOnUse">
<stop offset="0.1053" stop-color="#E35F4B"/>
<stop offset="0.2473" stop-color="#EA6E54"/>
<stop offset="0.5212" stop-color="#FC976A"/>
<stop offset="0.5673" stop-color="#FF9E6E"/>
<stop offset="0.6876" stop-color="#FFAD73"/>
<stop offset="0.9197" stop-color="#FFD680"/>
<stop offset="1" stop-color="#FFE585"/>
</linearGradient>
<linearGradient id="paint119_linear_1802_5448" x1="69.6509" y1="140.251" x2="58.9107" y2="117.032" gradientUnits="userSpaceOnUse">
<stop offset="0.1053" stop-color="#E35F4B"/>
<stop offset="0.2473" stop-color="#EA6E54"/>
<stop offset="0.5212" stop-color="#FC976A"/>
<stop offset="0.5673" stop-color="#FF9E6E"/>
<stop offset="0.6876" stop-color="#FFAD73"/>
<stop offset="0.9197" stop-color="#FFD680"/>
<stop offset="1" stop-color="#FFE585"/>
</linearGradient>
<linearGradient id="paint120_linear_1802_5448" x1="377.846" y1="280.165" x2="366.952" y2="253.903" gradientUnits="userSpaceOnUse">
<stop offset="0.00505051" stop-color="#20B0D3"/>
<stop offset="0.56" stop-color="#24D4C3"/>
<stop offset="1" stop-color="#27F3B5"/>
</linearGradient>
<linearGradient id="paint121_linear_1802_5448" x1="403.407" y1="294.569" x2="385.898" y2="267.529" gradientUnits="userSpaceOnUse">
<stop offset="0.00505051" stop-color="#20B0D3"/>
<stop offset="0.6065" stop-color="#20B0D3"/>
<stop offset="0.6854" stop-color="#24D4C3"/>
<stop offset="0.748" stop-color="#27F3B5"/>
</linearGradient>
<linearGradient id="paint122_linear_1802_5448" x1="395.473" y1="229.134" x2="384.639" y2="299.396" gradientUnits="userSpaceOnUse">
<stop offset="0.00505051" stop-color="#20B0D3"/>
<stop offset="0.56" stop-color="#24D4C3"/>
<stop offset="1" stop-color="#27F3B5"/>
</linearGradient>
</defs>
</svg>
