<svg width="544" height="467" viewBox="0 0 544 467" fill="none" xmlns="http://www.w3.org/2000/svg">
<path d="M133.6 242.5C133.3 242.5 132.9 242.3 132.7 242C132.4 241.5 132.6 240.9 133.1 240.6L252.6 171.6C252.9 171.4 253.3 171.4 253.6 171.6L302.9 200.1C303.4 200.4 303.5 201 303.3 201.5C303 202 302.4 202.1 301.9 201.9L253.1 173.7L134.1 242.4C133.9 242.4 133.7 242.5 133.6 242.5Z" fill="#3EE4BF"/>
<path d="M147.8 313.9C147.5 313.9 147.1 313.7 146.9 313.4C146.6 312.9 146.8 312.3 147.3 312L217.1 271.7L149.6 232.7C149.1 232.4 149 231.8 149.2 231.3C149.5 230.8 150.1 230.7 150.6 230.9L219.6 270.7C219.9 270.9 220.1 271.2 220.1 271.6C220.1 272 219.9 272.3 219.6 272.5L148.3 313.6C148.1 313.9 147.9 313.9 147.8 313.9Z" fill="#3EE4BF"/>
<path d="M138.6 241.9C138.6 242.7 138 243.6 136.9 244.2C135.8 244.8 134.3 245.2 132.8 245.2C131.3 245.2 129.8 244.9 128.7 244.2C127.6 243.5 127 242.7 127 241.8C127 241 127.6 240.1 128.7 239.5C129.8 238.9 131.3 238.5 132.8 238.5C134.3 238.5 135.8 238.8 136.9 239.5C138 240.2 138.6 241 138.6 241.9Z" fill="#3EE4BF"/>
<path d="M153.5 312.9C153.5 313.7 152.9 314.6 151.8 315.2C150.7 315.8 149.2 316.2 147.7 316.2C146.2 316.2 144.7 315.9 143.6 315.2C142.5 314.5 141.9 313.7 141.9 312.8C141.9 312 142.5 311.1 143.6 310.5C144.7 309.9 146.2 309.5 147.7 309.5C149.2 309.5 150.7 309.8 151.8 310.5C152.9 311.2 153.5 312.1 153.5 312.9Z" fill="#3EE4BF"/>
<path d="M378.699 404.7C378.399 404.7 377.999 404.5 377.799 404.2C377.499 403.7 377.699 403.1 378.199 402.8L514.099 324.3L466.299 296.7C465.799 296.4 465.699 295.8 465.899 295.3C466.199 294.8 466.799 294.7 467.299 294.9L516.599 323.4C516.899 323.6 517.099 323.9 517.099 324.3C517.099 324.7 516.899 325 516.599 325.2L379.199 404.5C379.099 404.6 378.899 404.7 378.699 404.7Z" fill="#3EE4BF"/>
<path d="M272.899 386.1C272.599 386.1 272.199 385.9 271.999 385.6C271.699 385.1 271.899 384.5 272.399 384.2L343.699 343.1C343.999 342.9 344.399 342.9 344.699 343.1L413.699 382.9C414.199 383.2 414.299 383.8 414.099 384.3C413.799 384.8 413.199 384.9 412.699 384.7L344.199 345.2L273.399 386C273.199 386.1 272.999 386.1 272.899 386.1Z" fill="#3EE4BF"/>
<path d="M278.6 385.101C278.6 385.901 278 386.801 276.9 387.401C274.7 388.701 271 388.701 268.8 387.401C267.7 386.701 267.1 385.901 267.1 385.001C267.1 384.201 267.7 383.301 268.8 382.701C271 381.401 274.7 381.401 276.9 382.701C278.1 383.401 278.6 384.301 278.6 385.101Z" fill="#3EE4BF"/>
<path d="M384.5 403.7C384.5 404.5 383.9 405.4 382.8 406C380.6 407.3 376.9 407.3 374.7 406C373.6 405.3 373 404.5 373 403.6C373 402.8 373.6 401.9 374.7 401.3C376.9 400 380.6 400 382.8 401.3C383.9 402 384.5 402.8 384.5 403.7Z" fill="#3EE4BF"/>
<path d="M536.1 117.4C536.1 114.4 534.5 111.7 531.9 110.2L343 1.09989C340.4 -0.400114 337.3 1.49989 337.3 4.39989V146.8C337.3 149.8 338.9 152.5 341.5 154L530.4 263.1C533 264.6 536.1 262.7 536.1 259.8V117.4Z" fill="#649DC5"/>
<path d="M533.7 119.1C533.7 116.1 532.1 113.4 529.5 111.9L340.6 2.80008C338 1.30008 334.9 3.20008 334.9 6.10008V148.5C334.9 151.5 336.5 154.2 339.1 155.7L528 264.8C530.6 266.3 533.7 264.4 533.7 261.5V119.1Z" fill="#085395"/>
<path d="M522.5 120.8L344.7 17.5996V147.9L522.5 251.1V120.8Z" fill="white"/>
<path d="M327.2 162.5L206.2 226.3C206.2 226.3 205.5 235.7 208.1 237.2L393.5 344.2C398.2 346.9 404.1 346.9 408.8 344.2L527.9 276.1C532.8 273 529.8 265.1 529.8 265.1L342.5 162.6C337.7 159.8 331.9 159.8 327.2 162.5Z" fill="#085395"/>
<path d="M342.5 155.2C337.8 152.5 331.9 152.5 327.2 155.2L208.1 223.3C205.5 224.8 205.5 228.5 208.1 230L393.5 337C398.2 339.7 404.1 339.7 408.8 337L527.8 269C530.4 267.5 530.4 263.8 527.8 262.3L342.5 155.2Z" fill="white"/>
<path d="M312.8 237.7L282.5 255C281.8 255.4 281.9 256.4 282.7 256.8L336.1 287.6C337.5 288.4 339 288.4 340.3 287.8L370.6 270.5C371.3 270.1 371.2 269.1 370.4 268.7L317 237.9C315.6 237.1 314 237 312.8 237.7Z" fill="#649DC5"/>
<path d="M314.8 172.4L324.5 178C325 178.3 325.9 178.3 326.5 177.9L335.7 172.6C336.3 172.3 336.4 171.7 335.8 171.4L326.1 165.8C325.6 165.5 324.7 165.5 324.1 165.9L314.9 171.2C314.3 171.5 314.3 172.1 314.8 172.4Z" fill="#085395"/>
<path d="M348.7 178.8L339 173.2C338.5 172.9 337.6 172.9 337 173.3L327.8 178.6C327.2 178.9 327.1 179.5 327.7 179.8L337.4 185.4C337.9 185.7 338.8 185.7 339.4 185.3L348.6 180C349.2 179.6 349.2 179.1 348.7 178.8Z" fill="#085395"/>
<path d="M361.5 186.2L351.8 180.6C351.3 180.3 350.4 180.3 349.8 180.7L340.6 186C340 186.3 339.9 186.9 340.5 187.2L350.2 192.8C350.7 193.1 351.6 193.1 352.2 192.7L361.4 187.4C362 187 362 186.5 361.5 186.2Z" fill="#085395"/>
<path d="M374.301 193.6L364.601 188C364.101 187.7 363.201 187.7 362.601 188.1L353.401 193.4C352.801 193.7 352.701 194.3 353.301 194.6L363.001 200.2C363.501 200.5 364.401 200.5 365.001 200.1L374.201 194.8C374.801 194.5 374.901 193.9 374.301 193.6Z" fill="#085395"/>
<path d="M387.2 200.999L377.5 195.399C377 195.099 376.1 195.099 375.5 195.499L366.3 200.799C365.7 201.099 365.6 201.699 366.2 201.999L375.9 207.599C376.4 207.899 377.3 207.899 377.9 207.499L387.1 202.199C387.6 201.899 387.7 201.299 387.2 200.999Z" fill="#085395"/>
<path d="M400 208.4L390.3 202.8C389.8 202.5 388.9 202.5 388.3 202.9L379.1 208.2C378.5 208.5 378.4 209.1 379 209.4L388.7 215C389.2 215.3 390.1 215.3 390.7 214.9L399.9 209.6C400.4 209.3 400.5 208.7 400 208.4Z" fill="#085395"/>
<path d="M412.801 215.8L403.101 210.2C402.601 209.9 401.701 209.9 401.101 210.3L391.901 215.6C391.301 215.9 391.201 216.5 391.801 216.8L401.501 222.4C402.001 222.7 402.901 222.7 403.501 222.3L412.701 217C413.301 216.7 413.301 216.1 412.801 215.8Z" fill="#085395"/>
<path d="M425.6 223.2L415.9 217.6C415.4 217.3 414.5 217.3 413.9 217.7L404.7 223C404.1 223.3 404 223.9 404.6 224.2L414.3 229.8C414.8 230.1 415.7 230.1 416.3 229.7L425.5 224.4C426.1 224.1 426.2 223.5 425.6 223.2Z" fill="#085395"/>
<path d="M438.5 230.6L428.8 225C428.3 224.7 427.4 224.7 426.8 225.1L417.6 230.4C417 230.7 416.9 231.3 417.5 231.6L427.2 237.2C427.7 237.5 428.6 237.5 429.2 237.1L438.4 231.8C438.9 231.5 439 230.9 438.5 230.6Z" fill="#085395"/>
<path d="M451.301 237.999L441.601 232.399C441.101 232.099 440.201 232.099 439.601 232.499L430.401 237.799C429.801 238.099 429.701 238.699 430.301 238.999L440.001 244.599C440.501 244.899 441.401 244.899 442.001 244.499L451.201 239.199C451.701 238.899 451.801 238.299 451.301 237.999Z" fill="#085395"/>
<path d="M464.1 245.499L454.4 239.899C453.9 239.599 453 239.599 452.4 239.999L443.2 245.299C442.6 245.599 442.5 246.199 443.1 246.499L452.8 252.099C453.3 252.399 454.2 252.399 454.8 251.999L464 246.699C464.6 246.299 464.6 245.799 464.1 245.499Z" fill="#085395"/>
<path d="M476.9 252.9L467.2 247.3C466.7 247 465.8 247 465.2 247.4L456 252.7C455.4 253 455.3 253.6 455.9 253.9L465.6 259.5C466.1 259.8 467 259.8 467.6 259.4L476.8 254.1C477.4 253.7 477.5 253.2 476.9 252.9Z" fill="#085395"/>
<path d="M489.801 260.3L480.101 254.7C479.601 254.4 478.701 254.4 478.101 254.8L468.901 260.1C468.301 260.4 468.201 261 468.801 261.3L478.501 266.9C479.001 267.2 479.901 267.2 480.501 266.8L489.701 261.5C490.201 261.1 490.301 260.6 489.801 260.3Z" fill="#085395"/>
<path d="M508.6 271.2L492.8 262.1C492.3 261.8 491.4 261.8 490.8 262.2L481.6 267.5C481 267.8 480.9 268.4 481.5 268.7L497.3 277.8C497.8 278.1 498.7 278.1 499.3 277.7L508.5 272.4C509.1 272 509.2 271.5 508.6 271.2Z" fill="#085395"/>
<path d="M302.6 179.6L318.2 188.6C318.8 189 320 188.9 320.7 188.5L329.4 183.5C330.1 183.1 330.2 182.4 329.6 182L314 173C313.4 172.6 312.2 172.7 311.5 173.1L302.8 178.1C302.1 178.6 302 179.3 302.6 179.6Z" fill="#085395"/>
<path d="M342.6 189.6L332.9 184C332.4 183.7 331.5 183.7 330.9 184.1L321.7 189.4C321.1 189.7 321 190.3 321.6 190.6L331.3 196.2C331.8 196.5 332.7 196.5 333.3 196.1L342.5 190.8C343.1 190.4 343.1 189.9 342.6 189.6Z" fill="#085395"/>
<path d="M355.4 196.999L345.7 191.399C345.2 191.099 344.3 191.099 343.7 191.499L334.5 196.799C333.9 197.099 333.8 197.699 334.4 197.999L344.1 203.599C344.6 203.899 345.5 203.899 346.1 203.499L355.3 198.199C355.9 197.799 355.9 197.299 355.4 196.999Z" fill="#085395"/>
<path d="M368.2 204.4L358.5 198.8C358 198.5 357.1 198.5 356.5 198.9L347.3 204.2C346.7 204.5 346.6 205.1 347.2 205.4L356.9 211C357.4 211.3 358.3 211.3 358.9 210.9L368.1 205.6C368.7 205.2 368.7 204.7 368.2 204.4Z" fill="#085395"/>
<path d="M393.801 219.2L384.101 213.6C383.601 213.3 382.701 213.3 382.101 213.7L372.901 219C372.301 219.3 372.201 219.9 372.801 220.2L382.501 225.8C383.001 226.1 383.901 226.1 384.501 225.7L393.701 220.4C394.301 220 394.401 219.5 393.801 219.2Z" fill="#085395"/>
<path d="M381 211.8L371.3 206.2C370.8 205.9 369.9 205.9 369.3 206.3L360.1 211.6C359.5 211.9 359.4 212.5 360 212.8L369.7 218.4C370.2 218.7 371.1 218.7 371.7 218.3L380.9 213C381.5 212.6 381.5 212.1 381 211.8Z" fill="#085395"/>
<path d="M406.6 226.6L396.9 221C396.4 220.7 395.5 220.7 394.9 221.1L385.7 226.4C385.1 226.7 385 227.3 385.6 227.6L395.3 233.2C395.8 233.5 396.7 233.5 397.3 233.1L406.5 227.8C407.1 227.4 407.2 226.9 406.6 226.6Z" fill="#085395"/>
<path d="M419.4 233.999L409.7 228.399C409.2 228.099 408.3 228.099 407.7 228.499L398.5 233.799C397.9 234.099 397.8 234.699 398.4 234.999L408.1 240.599C408.6 240.899 409.5 240.899 410.1 240.499L419.3 235.199C419.9 234.799 420 234.299 419.4 233.999Z" fill="#085395"/>
<path d="M432.2 241.3L422.5 235.7C422 235.4 421.1 235.4 420.5 235.8L411.3 241.1C410.7 241.4 410.6 242 411.2 242.3L420.9 247.9C421.4 248.2 422.3 248.2 422.9 247.8L432.1 242.5C432.7 242.2 432.8 241.6 432.2 241.3Z" fill="#085395"/>
<path d="M445.1 248.7L435.4 243.1C434.9 242.8 434 242.8 433.4 243.2L424.2 248.5C423.6 248.8 423.5 249.4 424.1 249.7L433.8 255.3C434.3 255.6 435.2 255.6 435.8 255.2L445 249.9C445.5 249.6 445.6 249 445.1 248.7Z" fill="#085395"/>
<path d="M457.9 256.1L448.2 250.5C447.7 250.2 446.8 250.2 446.2 250.6L437 255.9C436.4 256.2 436.3 256.8 436.9 257.1L446.6 262.7C447.1 263 448 263 448.6 262.6L457.8 257.3C458.3 257 458.4 256.4 457.9 256.1Z" fill="#085395"/>
<path d="M470.7 263.499L461 257.899C460.5 257.599 459.6 257.599 459 257.999L449.8 263.299C449.2 263.599 449.1 264.199 449.7 264.499L459.4 270.099C459.9 270.399 460.8 270.399 461.4 269.999L470.6 264.699C471.1 264.299 471.2 263.799 470.7 263.499Z" fill="#085395"/>
<path d="M462.4 271.9L472.1 277.5C472.6 277.8 473.5 277.8 474.1 277.4L483.3 272.1C483.9 271.8 484 271.2 483.4 270.9L473.7 265.3C473.2 265 472.3 265 471.7 265.4L462.5 270.7C461.9 271 461.8 271.6 462.4 271.9Z" fill="#085395"/>
<path d="M496.301 278.3L486.601 272.7C486.101 272.4 485.201 272.4 484.601 272.8L475.401 278.1C474.801 278.4 474.701 279 475.301 279.3L485.001 284.9C485.501 285.2 486.401 285.2 487.001 284.8L496.201 279.5C496.701 279.1 496.801 278.6 496.301 278.3Z" fill="#085395"/>
<path d="M290.4 186.8L309.2 197.6C309.9 198 311.1 198 311.9 197.5L320.3 192.6C321.1 192.1 321.2 191.4 320.5 191L301.7 180.2C301 179.8 299.8 179.8 299 180.3L290.6 185.2C289.7 185.7 289.6 186.4 290.4 186.8Z" fill="#085395"/>
<path d="M312.501 199.6L322.201 205.2C322.701 205.5 323.601 205.5 324.201 205.1L333.401 199.8C334.001 199.5 334.101 198.9 333.501 198.6L323.801 193C323.301 192.7 322.401 192.7 321.801 193.1L312.601 198.4C312.101 198.8 312.001 199.3 312.501 199.6Z" fill="#085395"/>
<path d="M346.4 206.1L336.7 200.5C336.2 200.2 335.3 200.2 334.7 200.6L325.5 205.9C324.9 206.2 324.8 206.8 325.4 207.1L335.1 212.7C335.6 213 336.5 213 337.1 212.6L346.3 207.3C346.9 206.9 346.9 206.4 346.4 206.1Z" fill="#085395"/>
<path d="M338.101 214.4L347.801 220C348.301 220.3 349.201 220.3 349.801 219.9L359.001 214.6C359.601 214.3 359.701 213.7 359.101 213.4L349.401 207.8C348.901 207.5 348.001 207.5 347.401 207.9L338.201 213.2C337.601 213.6 337.601 214.1 338.101 214.4Z" fill="#085395"/>
<path d="M350.9 221.8L360.6 227.4C361.1 227.7 362 227.7 362.6 227.3L371.8 222C372.4 221.7 372.5 221.1 371.9 220.8L362.2 215.2C361.7 214.9 360.8 214.9 360.2 215.3L351 220.6C350.4 221 350.4 221.5 350.9 221.8Z" fill="#085395"/>
<path d="M363.7 229.2L373.4 234.8C373.9 235.1 374.8 235.1 375.4 234.7L384.6 229.4C385.2 229.1 385.3 228.5 384.7 228.2L375 222.6C374.5 222.3 373.6 222.3 373 222.7L363.8 228C363.2 228.3 363.1 228.9 363.7 229.2Z" fill="#085395"/>
<path d="M376.5 236.499L386.2 242.099C386.7 242.399 387.6 242.399 388.2 241.999L397.4 236.699C398 236.399 398.1 235.799 397.5 235.499L387.8 229.899C387.3 229.599 386.4 229.599 385.8 229.999L376.6 235.299C376 235.699 375.9 236.199 376.5 236.499Z" fill="#085395"/>
<path d="M389.2 243.9L398.9 249.5C399.4 249.8 400.3 249.8 400.9 249.4L410.1 244.1C410.7 243.8 410.8 243.2 410.2 242.9L400.5 237.3C400 237 399.1 237 398.5 237.4L389.3 242.7C388.8 243.1 388.7 243.6 389.2 243.9Z" fill="#085395"/>
<path d="M402.001 251.3L411.701 256.9C412.201 257.2 413.101 257.2 413.701 256.8L422.901 251.5C423.501 251.2 423.601 250.6 423.001 250.3L413.301 244.7C412.801 244.4 411.901 244.4 411.301 244.8L402.101 250.1C401.601 250.5 401.501 251 402.001 251.3Z" fill="#085395"/>
<path d="M414.8 258.7L424.5 264.3C425 264.6 425.9 264.6 426.5 264.2L435.7 258.9C436.3 258.6 436.4 258 435.8 257.7L426.1 252.1C425.6 251.8 424.7 251.8 424.1 252.2L414.9 257.5C414.4 257.9 414.3 258.4 414.8 258.7Z" fill="#085395"/>
<path d="M427.6 266.1L437.3 271.7C437.8 272 438.7 272 439.3 271.6L448.5 266.3C449.1 266 449.2 265.4 448.6 265.1L438.9 259.5C438.4 259.2 437.5 259.2 436.9 259.6L427.7 264.9C427.2 265.3 427.1 265.8 427.6 266.1Z" fill="#085395"/>
<path d="M452.2 278.999L461.4 273.699C462 273.399 462.1 272.799 461.5 272.499L451.8 266.899C451.3 266.599 450.4 266.599 449.8 266.999L440.6 272.299C440 272.599 439.9 273.199 440.5 273.499L450.2 279.099C450.7 279.399 451.6 279.399 452.2 278.999Z" fill="#085395"/>
<path d="M483.8 285.4L464.6 274.3C464 274 463 274 462.4 274.4L453.4 279.6C452.7 280 452.7 280.5 453.2 280.9L472.4 292C473 292.3 474 292.3 474.6 291.9L483.6 286.7C484.3 286.3 484.4 285.7 483.8 285.4Z" fill="#085395"/>
<path d="M278.201 194.1L303.101 208.5C303.901 209 305.301 208.9 306.201 208.4L314.201 203.8C315.101 203.3 315.201 202.5 314.401 202L289.501 187.6C288.701 187.1 287.301 187.2 286.401 187.7L278.401 192.3C277.501 192.8 277.401 193.6 278.201 194.1Z" fill="#085395"/>
<path d="M306.601 210.499L316.301 216.099C316.801 216.399 317.701 216.399 318.301 215.999L327.501 210.699C328.101 210.399 328.201 209.799 327.601 209.499L317.901 203.899C317.401 203.599 316.501 203.599 315.901 203.999L306.701 209.299C306.101 209.699 306.101 210.199 306.601 210.499Z" fill="#085395"/>
<path d="M319.3 217.9L329 223.5C329.5 223.8 330.4 223.8 331 223.4L340.2 218.1C340.8 217.8 340.9 217.2 340.3 216.9L330.6 211.3C330.1 211 329.2 211 328.6 211.4L319.4 216.7C318.9 217 318.8 217.6 319.3 217.9Z" fill="#085395"/>
<path d="M332.1 225.2L341.8 230.8C342.3 231.1 343.2 231.1 343.8 230.7L353 225.4C353.6 225.1 353.7 224.5 353.1 224.2L343.4 218.6C342.9 218.3 342 218.3 341.4 218.7L332.2 224C331.7 224.4 331.6 224.9 332.1 225.2Z" fill="#085395"/>
<path d="M344.9 232.6L354.6 238.2C355.1 238.5 356 238.5 356.6 238.1L365.8 232.8C366.4 232.5 366.5 231.9 365.9 231.6L356.2 226C355.7 225.7 354.8 225.7 354.2 226.1L345 231.4C344.4 231.8 344.4 232.3 344.9 232.6Z" fill="#085395"/>
<path d="M357.6 239.999L367.3 245.599C367.8 245.899 368.7 245.899 369.3 245.499L378.5 240.199C379.1 239.899 379.2 239.299 378.6 238.999L368.9 233.399C368.4 233.099 367.5 233.099 366.9 233.499L357.7 238.799C357.2 239.199 357.1 239.699 357.6 239.999Z" fill="#085395"/>
<path d="M370.4 247.4L380.1 253C380.6 253.3 381.5 253.3 382.1 252.9L391.3 247.6C391.9 247.3 392 246.7 391.4 246.4L381.7 240.8C381.2 240.5 380.3 240.5 379.7 240.9L370.5 246.2C370 246.5 369.9 247.1 370.4 247.4Z" fill="#085395"/>
<path d="M383.2 254.7L392.9 260.3C393.4 260.6 394.3 260.6 394.9 260.2L404.1 254.9C404.7 254.6 404.8 254 404.2 253.7L394.5 248.1C394 247.8 393.1 247.8 392.5 248.2L383.3 253.5C382.7 253.9 382.7 254.4 383.2 254.7Z" fill="#085395"/>
<path d="M395.9 262.1L405.6 267.7C406.1 268 407 268 407.6 267.6L416.8 262.3C417.4 262 417.5 261.4 416.9 261.1L407.2 255.5C406.7 255.2 405.8 255.2 405.2 255.6L396 260.9C395.5 261.3 395.4 261.8 395.9 262.1Z" fill="#085395"/>
<path d="M408.7 269.499L418.4 275.099C418.9 275.399 419.8 275.399 420.4 274.999L429.6 269.699C430.2 269.399 430.3 268.799 429.7 268.499L420 262.899C419.5 262.599 418.6 262.599 418 262.999L408.8 268.299C408.3 268.599 408.2 269.199 408.7 269.499Z" fill="#085395"/>
<path d="M421.5 276.8L431.2 282.4C431.7 282.7 432.6 282.7 433.2 282.3L442.4 277C443 276.7 443.1 276.1 442.5 275.8L432.8 270.2C432.3 269.9 431.4 269.9 430.8 270.3L421.6 275.6C421 276 421 276.5 421.5 276.8Z" fill="#085395"/>
<path d="M471.3 292.5L445.9 277.8C445.3 277.4 444.1 277.5 443.4 277.9L434.7 282.9C434 283.3 433.9 284 434.5 284.4L459.9 299.1C460.5 299.5 461.7 299.4 462.4 299L471.1 294C471.8 293.5 471.9 292.8 471.3 292.5Z" fill="#085395"/>
<path d="M286.4 199.999L276.7 194.399C276.2 194.099 275.3 194.099 274.7 194.499L265.5 199.799C264.9 200.099 264.8 200.699 265.4 200.999L275.1 206.599C275.6 206.899 276.5 206.899 277.1 206.499L286.3 201.199C286.8 200.799 286.9 200.299 286.4 199.999Z" fill="#085395"/>
<path d="M299.2 207.4L289.5 201.8C289 201.5 288.1 201.5 287.5 201.9L278.3 207.2C277.7 207.5 277.6 208.1 278.2 208.4L287.9 214C288.4 214.3 289.3 214.3 289.9 213.9L299.1 208.6C299.6 208.2 299.7 207.7 299.2 207.4Z" fill="#085395"/>
<path d="M312 214.8L302.3 209.2C301.8 208.9 300.9 208.9 300.3 209.3L291.1 214.6C290.5 214.9 290.4 215.5 291 215.8L300.7 221.4C301.2 221.7 302.1 221.7 302.7 221.3L311.9 216C312.4 215.6 312.5 215.1 312 214.8Z" fill="#085395"/>
<path d="M328 224L315.2 216.6C314.6 216.3 313.6 216.3 312.9 216.7L304 221.8C303.3 222.2 303.2 222.8 303.8 223.1L316.6 230.5C317.2 230.8 318.2 230.8 318.9 230.4L327.8 225.3C328.5 224.9 328.5 224.3 328 224Z" fill="#085395"/>
<path d="M390.3 262.9C391.7 262.1 391.8 260.9 390.6 260.2L332.3 226.6C331.1 225.9 329 226 327.6 226.8L321.3 230.5C319.9 231.3 319.8 232.5 321 233.2L379.3 266.8C380.5 267.5 382.6 267.4 384 266.6L390.3 262.9Z" fill="#085395"/>
<path d="M408.101 270.3L395.101 262.8C394.501 262.5 393.501 262.5 392.801 262.9L383.901 268C383.201 268.4 383.101 269 383.701 269.3L396.701 276.8C397.301 277.1 398.301 277.1 399.001 276.7L407.901 271.6C408.601 271.2 408.701 270.6 408.101 270.3Z" fill="#085395"/>
<path d="M421.1 277.8L411.4 272.2C410.9 271.9 410 271.9 409.4 272.3L400.2 277.6C399.6 277.9 399.5 278.5 400.1 278.8L409.8 284.4C410.3 284.7 411.2 284.7 411.8 284.3L421 279C421.5 278.6 421.6 278.1 421.1 277.8Z" fill="#085395"/>
<path d="M433.9 285.2L424.2 279.6C423.7 279.3 422.8 279.3 422.2 279.7L413 285C412.4 285.3 412.3 285.9 412.9 286.2L422.6 291.8C423.1 292.1 424 292.1 424.6 291.7L433.8 286.4C434.3 286 434.4 285.5 433.9 285.2Z" fill="#085395"/>
<path d="M431.2 289.699L441.5 295.699C441.9 295.899 442.5 295.899 442.9 295.599L446.7 293.399C447.1 293.199 447.2 292.799 446.8 292.599L436.5 286.599C436.1 286.399 435.5 286.399 435.1 286.699L431.3 288.899C430.9 289.199 430.8 289.499 431.2 289.699Z" fill="#085395"/>
<path d="M440.7 296.099L430.4 290.099C430 289.899 429.4 289.899 429 290.199L425.2 292.399C424.8 292.599 424.7 292.999 425.1 293.199L435.4 299.199C435.8 299.399 436.4 299.399 436.8 299.099L440.6 296.899C441.1 296.699 441.1 296.299 440.7 296.099Z" fill="#085395"/>
<path d="M459.1 299.7L449.4 294.1C448.9 293.8 448 293.8 447.4 294.2L438.2 299.5C437.6 299.8 437.5 300.4 438.1 300.7L447.8 306.3C448.3 306.6 449.2 306.6 449.8 306.2L459 300.9C459.6 300.6 459.7 300 459.1 299.7Z" fill="#085395"/>
<path d="M517.2 266.2L334.7 160.8C334.2 160.5 333.3 160.5 332.7 160.9L327.3 164C326.7 164.3 326.6 164.9 327.2 165.2L509.7 270.6C510.2 270.9 511.1 270.9 511.7 270.5L517.1 267.4C517.7 267 517.8 266.5 517.2 266.2Z" fill="#085395"/>
<path d="M342.8 444.9C332 451.1 321.2 457.3 310.5 463.6C343.1 444.6 316.8 364.3 270.3 342.7L302.7 324C349.3 345.7 375.5 426 342.8 444.9Z" fill="url(#paint0_linear_1802_16739)"/>
<path d="M166.3 226.6C166.4 226.5 198.6 208 198.7 207.9C238.7 184.8 307.6 261.3 302.7 324L270.3 342.7C275.2 280 206.3 203.4 166.3 226.6Z" fill="url(#paint1_linear_1802_16739)"/>
<path d="M190.7 239.6C188 243.1 185.4 246.6 182.7 250.1C173.7 255.3 164.7 260.5 155.7 265.7C168.8 248.6 171 244 179.1 241.1C182.7 239.7 186.5 239.2 190.7 239.6Z" fill="url(#paint2_linear_1802_16739)"/>
<path d="M141.4 144.1C127.7 136.2 115.2 135.4 106.2 140.6C95.3998 146.8 84.5998 153.1 73.7998 159.3C82.7998 154.1 95.1998 154.9 108.9 162.8C132.3 176.3 151.9 206.4 157.2 234.6C159.7 231.3 162.8 228.6 166.2 226.6C173.8 222.2 181.5 217.8 189.1 213.4C183.2 185.9 164.1 157.2 141.4 144.1Z" fill="url(#paint3_linear_1802_16739)"/>
<path d="M125.5 255C107.6 215.5 95.2999 195.5 100.3 174.2C94.6999 172.5 88.5999 172.5 83.4999 175.2C67.2998 184.1 71.3999 210.6 78.9999 227.4C85.4999 241.8 91.9999 256.2 98.4999 270.6C99.1999 272 99.3998 274.1 98.1998 274.9C107.2 269.7 116.1 264.5 125.1 259.4C126.5 258.5 126.2 256.5 125.5 255Z" fill="url(#paint4_linear_1802_16739)"/>
<path d="M109 162.8C132.4 176.3 152 206.4 157.3 234.6C191 190.5 275.8 272.1 270.3 342.7C313.5 362.8 344.8 440.7 310.4 463.6C301.4 468.8 289 468 275.2 460.1C200.2 416.8 125.1 373.5 50.0998 330.1C22.5998 314.2 0.299805 275.7 0.299805 243.9C0.299805 201.9 36.7998 197.2 68.2998 229.7C44.9998 178.3 68.7998 139.6 109 162.8ZM94.9998 273.7C61.6998 239.3 59.2998 235.7 49.3998 230C42.5998 226.2 34.4998 223.9 27.1998 226.4C0.299807 235.7 15.5998 295.6 50.5998 315.2C125.3 358.3 200 401.5 274.8 444.6C284.2 449.8 294.7 452.6 303.1 446C307.2 442.8 309.6 438.1 310.8 433C316.5 408.9 298.1 373 275 360C264.4 353.9 256.8 353.7 256.2 347.6C255.6 340.9 262.3 323.6 249.7 293.9C230.7 249.5 187.2 224.1 168.6 248.6C154.3 267.4 155.9 265.3 155.4 265.7C153.7 266.6 151.5 264.1 150.7 262.2C150.4 261.4 151 264.2 144.7 230.5C136.9 188.8 93.3998 156.7 77.0998 180.9C68.7998 193.3 72.9998 213.3 79.1998 227.1C100.2 273.6 98.8998 270.5 99.0998 271.4C99.3998 272.5 99.3998 274 98.3998 274.6C97.5998 275.5 95.8998 274.7 94.9998 273.7Z" fill="white"/>
<path d="M59.1994 189.8C58.7994 203.3 62.6994 217.5 68.2994 229.9C54.2994 215.4 32.0994 202 14.8994 211.8C49.8994 191.6 50.5994 190.1 59.1994 189.8Z" fill="url(#paint5_linear_1802_16739)"/>
<path d="M76 298.9C315.5 436.8 303.2 431 310.8 433.3C307 449.1 293 455.2 275.3 445.1C261.7 436.8 51.3 316.2 46 312.4C28.9 300.3 15.6 277 13.7 256.7C11.4 232.1 25 221.8 41.4 226.6C36.1 248.8 51.9 284.1 76 298.9Z" fill="url(#paint6_linear_1802_16739)"/>
<path d="M543 165.299C518.4 174.499 493.9 183.599 469.3 192.799C465.5 194.199 459.2 193.599 455.4 191.299C435.3 179.699 415.2 168.099 395.1 156.499C383.9 154.499 372.7 152.599 361.6 150.599C358.1 149.999 354.8 148.799 352.2 147.399C345.9 143.799 339.7 140.199 333.4 136.599C331.6 135.599 330.8 134.399 330.9 133.299C330.9 133.299 330.9 133.299 330.9 133.199C331 132.299 331.8 131.499 333.3 130.899C336.8 129.599 397.7 106.899 424.5 96.8994L543 165.299Z" fill="url(#paint7_linear_1802_16739)"/>
<path d="M541.6 175.6V185.2C516.7 199.6 491.7 214 466.8 228.4C462.9 230.6 456.6 230.6 452.8 228.4C448.1 225.7 443.3 222.9 438.6 220.2L446.9 215.4C448.9 216.5 450.8 217.7 452.8 218.8C456.7 221 463 221 466.8 218.8C491.7 204.4 516.7 190 541.6 175.6Z" fill="url(#paint8_linear_1802_16739)"/>
<path d="M541.6 175.6C516.7 190 491.7 204.4 466.8 218.8C462.9 221 456.6 221 452.8 218.8C450.8 217.7 448.9 216.5 446.9 215.4L468.7 202.8C493 193.8 517.3 184.7 541.6 175.6Z" fill="url(#paint9_linear_1802_16739)"/>
<path d="M311.5 192.6L398.9 243.1V246.3L311.5 195.8V192.6Z" fill="#EEEFFC"/>
<path d="M398.9 243.099L490.5 190.199V193.399L398.9 246.299V243.099Z" fill="#EEEFFC"/>
<path d="M311.5 192.6L364.9 161.8C374.5 163.5 384.1 165.2 393.7 166.9C413.8 178.5 433.9 190.1 454 201.7C457.9 203.9 464.1 204.6 467.9 203.2C468.1 203.1 468.4 203 468.6 202.9L398.9 243.1L311.5 192.6Z" fill="white"/>
<path d="M360.1 160.9C361.7 161.2 363.3 161.5 364.8 161.7L359.3 164.9C355.6 162.8 351.9 160.6 348.2 158.5C346.3 157.4 345.3 156 345.3 154.6C347.1 155.6 348.9 156.7 350.7 157.7C353.3 159.2 356.6 160.3 360.1 160.9Z" fill="url(#paint10_linear_1802_16739)"/>
<path d="M348.3 158.499C352 160.599 355.7 162.799 359.4 164.899L351.1 169.699C350.2 169.199 349.3 168.599 348.3 168.099C346.4 166.999 345.4 165.499 345.4 163.999C345.4 160.799 345.4 157.699 345.4 154.499C345.4 155.999 346.4 157.399 348.3 158.499Z" fill="url(#paint11_linear_1802_16739)"/>
<path d="M345.4 154.699C345.3 154.699 345.3 154.599 345.3 154.599V154.499C345.3 154.399 345.4 154.399 345.4 154.399L345.5 154.499V154.599C345.5 154.599 345.5 154.599 345.4 154.699Z" fill="black"/>
<path d="M333.4 136.6C339.7 140.2 345.9 143.8 352.2 147.4C354.8 148.9 358 150 361.6 150.6C372.8 152.6 384 154.5 395.1 156.5L393.6 166.8C384 165.1 361.6 161.2 360.1 160.9C356.6 160.3 353.3 159.1 350.7 157.7C348.9 156.7 347.1 155.6 345.3 154.6V154.5V154.6C340.8 152 336.4 149.4 331.9 146.9C330.1 145.9 329.3 144.6 329.4 143.5C329.9 140.1 330.4 136.7 330.8 133.3C330.8 134.3 331.7 135.5 333.4 136.6Z" fill="url(#paint12_linear_1802_16739)"/>
<path d="M541.6 175.599C517.3 184.699 468.2 202.999 467.9 203.099C464.1 204.499 457.8 203.899 454 201.599C433.9 189.999 413.8 178.399 393.7 166.799L395.2 156.499C415.3 168.099 435.4 179.699 455.5 191.299C459.4 193.499 465.6 194.199 469.4 192.799C494 183.599 518.5 174.499 543.1 165.299L541.6 175.599Z" fill="url(#paint13_linear_1802_16739)"/>
<defs>
<linearGradient id="paint0_linear_1802_16739" x1="338.533" y1="466.524" x2="295.183" y2="302.572" gradientUnits="userSpaceOnUse">
<stop stop-color="#4DB1E5"/>
<stop offset="0.2113" stop-color="#6CBEE9"/>
<stop offset="0.6704" stop-color="#BBDEF3"/>
<stop offset="1" stop-color="#F7F6FB"/>
</linearGradient>
<linearGradient id="paint1_linear_1802_16739" x1="266.1" y1="385.651" x2="227.765" y2="239.975" gradientUnits="userSpaceOnUse">
<stop offset="0.1347" stop-color="#83AFCD"/>
<stop offset="0.3936" stop-color="#A2C2D9"/>
<stop offset="0.9576" stop-color="#F1F2F9"/>
<stop offset="1" stop-color="#F7F6FB"/>
</linearGradient>
<linearGradient id="paint2_linear_1802_16739" x1="171.638" y1="246.863" x2="175.745" y2="261.71" gradientUnits="userSpaceOnUse">
<stop offset="0.1347" stop-color="#83AFCD"/>
<stop offset="0.3936" stop-color="#A2C2D9"/>
<stop offset="0.9576" stop-color="#F1F2F9"/>
<stop offset="1" stop-color="#F7F6FB"/>
</linearGradient>
<linearGradient id="paint3_linear_1802_16739" x1="152.283" y1="265.153" x2="125.472" y2="163.271" gradientUnits="userSpaceOnUse">
<stop offset="0.1347" stop-color="#83AFCD"/>
<stop offset="0.3936" stop-color="#A2C2D9"/>
<stop offset="0.9576" stop-color="#F1F2F9"/>
<stop offset="1" stop-color="#F7F6FB"/>
</linearGradient>
<linearGradient id="paint4_linear_1802_16739" x1="77.8381" y1="184.368" x2="111.74" y2="247.726" gradientUnits="userSpaceOnUse">
<stop offset="0.1347" stop-color="#83AFCD"/>
<stop offset="0.3936" stop-color="#A2C2D9"/>
<stop offset="0.9576" stop-color="#F1F2F9"/>
<stop offset="1" stop-color="#F7F6FB"/>
</linearGradient>
<linearGradient id="paint5_linear_1802_16739" x1="49.1373" y1="246.607" x2="38.438" y2="205.949" gradientUnits="userSpaceOnUse">
<stop offset="0.1347" stop-color="#83AFCD"/>
<stop offset="0.3936" stop-color="#A2C2D9"/>
<stop offset="0.9576" stop-color="#F1F2F9"/>
<stop offset="1" stop-color="#F7F6FB"/>
</linearGradient>
<linearGradient id="paint6_linear_1802_16739" x1="18.7872" y1="250.094" x2="271.466" y2="444.495" gradientUnits="userSpaceOnUse">
<stop stop-color="#83AFCD"/>
<stop offset="0.0526038" stop-color="#96BBD4"/>
<stop offset="0.1842" stop-color="#C0D4E5"/>
<stop offset="0.3034" stop-color="#DEE7F1"/>
<stop offset="0.4049" stop-color="#F0F2F8"/>
<stop offset="0.4768" stop-color="#F7F6FB"/>
<stop offset="0.5898" stop-color="#F4F4FA"/>
<stop offset="0.6848" stop-color="#E9EEF6"/>
<stop offset="0.7734" stop-color="#D8E3EF"/>
<stop offset="0.858" stop-color="#BFD4E5"/>
<stop offset="0.9391" stop-color="#A0C1D8"/>
<stop offset="1" stop-color="#83AFCD"/>
</linearGradient>
<linearGradient id="paint7_linear_1802_16739" x1="426.078" y1="170.204" x2="458.694" y2="107.301" gradientUnits="userSpaceOnUse">
<stop offset="0.0353535" stop-color="#4DF4FF"/>
<stop offset="0.3036" stop-color="#52E5FF"/>
<stop offset="0.821" stop-color="#5DBCFF"/>
<stop offset="1" stop-color="#62ADFF"/>
</linearGradient>
<linearGradient id="paint8_linear_1802_16739" x1="423.275" y1="197.044" x2="498.862" y2="202.739" gradientUnits="userSpaceOnUse">
<stop stop-color="#5FE1FF"/>
<stop offset="0.4594" stop-color="#5FE1FF"/>
<stop offset="0.6005" stop-color="#61C0FF"/>
<stop offset="0.6749" stop-color="#62ADFF"/>
</linearGradient>
<linearGradient id="paint9_linear_1802_16739" x1="460.609" y1="216.762" x2="495.813" y2="194.501" gradientUnits="userSpaceOnUse">
<stop offset="0.0353535" stop-color="#4DF4FF"/>
<stop offset="0.3036" stop-color="#52E5FF"/>
<stop offset="0.821" stop-color="#5DBCFF"/>
<stop offset="1" stop-color="#62ADFF"/>
</linearGradient>
<linearGradient id="paint10_linear_1802_16739" x1="404.004" y1="127.243" x2="439.212" y2="104.979" gradientUnits="userSpaceOnUse">
<stop offset="0.0353535" stop-color="#4DF4FF"/>
<stop offset="0.3036" stop-color="#52E5FF"/>
<stop offset="0.821" stop-color="#5DBCFF"/>
<stop offset="1" stop-color="#62ADFF"/>
</linearGradient>
<linearGradient id="paint11_linear_1802_16739" x1="351.358" y1="163.864" x2="372.36" y2="175.292" gradientUnits="userSpaceOnUse">
<stop stop-color="#5FE1FF"/>
<stop offset="0.4594" stop-color="#5FE1FF"/>
<stop offset="0.6005" stop-color="#61C0FF"/>
<stop offset="0.6749" stop-color="#62ADFF"/>
</linearGradient>
<linearGradient id="paint12_linear_1802_16739" x1="327.834" y1="141.868" x2="428.012" y2="172.155" gradientUnits="userSpaceOnUse">
<stop stop-color="#5FE1FF"/>
<stop offset="0.4594" stop-color="#5FE1FF"/>
<stop offset="0.6005" stop-color="#61C0FF"/>
<stop offset="0.6749" stop-color="#62ADFF"/>
</linearGradient>
<linearGradient id="paint13_linear_1802_16739" x1="427.753" y1="158.262" x2="505.151" y2="185.959" gradientUnits="userSpaceOnUse">
<stop stop-color="#5FE1FF"/>
<stop offset="0.4594" stop-color="#5FE1FF"/>
<stop offset="0.6005" stop-color="#61C0FF"/>
<stop offset="0.6749" stop-color="#62ADFF"/>
</linearGradient>
</defs>
</svg>
