<svg width="146" height="427" viewBox="0 0 146 427" fill="none" xmlns="http://www.w3.org/2000/svg">
<path d="M101.401 209.6C100.601 210.1 99.7006 210.3 98.7006 210.3C95.7006 210.3 93.2006 207.8 93.2006 204.8V162C93.2006 154.6 87.6006 145 81.2006 141.3L39.0006 117C36.5006 115.6 34.8006 115.5 34.1006 116C33.3006 116.4 32.5006 117.9 32.5006 120.8V169.6C32.5006 177 38.1006 186.6 44.5006 190.3L68.9006 204.4C71.5006 205.9 72.4006 209.3 70.9006 211.9C70.4006 212.8 69.7006 213.4 68.9006 213.9C68.1006 214.4 67.1006 214.6 66.2006 214.6C65.3006 214.6 64.3006 214.4 63.5006 213.9L39.0006 199.7C29.2006 194.1 21.6006 180.8 21.6006 169.5V120.7C21.6006 114.2 24.2006 109 28.6006 106.4C33.1006 103.8 38.9006 104.2 44.5006 107.4L86.7006 131.8C96.5006 137.4 104.101 150.7 104.101 162V204.8C104.201 206.9 103.001 208.7 101.401 209.6Z" fill="url(#paint0_linear_1802_5100)"/>
<path d="M109.601 403.801C109.601 409.501 105.801 415.301 98.2008 419.701C94.3008 422.001 89.7008 423.701 84.8008 424.701C70.9008 427.801 54.5008 426.101 43.2008 419.701C35.6008 415.301 31.8008 409.601 31.8008 403.801C31.8008 403.401 31.8008 403.101 31.8008 402.701L38.2008 312.201C38.2008 313.001 38.3008 313.801 38.5008 314.601C39.4008 318.501 42.4008 322.401 47.7008 325.401C60.4008 332.701 80.9008 332.701 93.5008 325.401C98.6008 322.401 101.601 318.801 102.601 314.901C102.801 314.001 103.001 313.101 103.001 312.101C103.201 312.201 109.601 403.501 109.601 403.801Z" fill="#ECF0F1"/>
<path d="M109.6 403.8C109.6 409.5 105.8 415.3 98.2004 419.7C94.3004 422 89.7004 423.7 84.8004 424.7C86.9004 416.4 90.2004 404 90.2004 388.3C90.2004 377.5 88.4004 366.2 82.2004 361.7C75.9004 363.2 69.7004 364.1 63.8004 364.1C53.6004 364.1 44.0004 361.3 35.4004 353.5L38.1004 314.9C38.3004 314.7 38.4004 314.6 38.6004 314.5C39.5004 318.4 42.5004 322.3 47.8004 325.3C60.5004 332.6 81.0004 332.6 93.6004 325.3C98.7004 322.3 101.7 318.7 102.7 314.8C102.9 314.9 103.1 315 103.3 315C103.4 315.2 109.6 403.5 109.6 403.8Z" fill="#DCDFE0"/>
<path d="M92.7004 355.5C91.9004 355.9 88.8004 356.8 87.4004 356.8C83.4004 356.8 84.6004 351.9 82.1004 348.6C82.0004 349 82.0004 349.6 82.0004 350.2C82.0004 351.2 82.0004 352.3 82.0004 353.4C82.0004 356.2 81.7004 359.1 79.9004 359.5C60.1004 363.7 37.1004 360.1 31.9004 344.8C31.9004 344.8 37.6004 320.2 38.4004 311.4C56.7004 294.6 103.1 311.4 103.1 311.4V312.2L109.5 340.6C107.2 346.9 100.8 351.9 92.7004 355.5Z" fill="white"/>
<path d="M103.2 312.2C103.2 312.3 103.2 312.4 103.2 312.5C103.1 317.2 99.9004 321.8 93.7004 325.4C81.0004 332.7 60.5004 332.7 47.9004 325.4C41.6004 321.7 38.4004 317 38.4004 312.2C38.4004 310.6 38.8004 308.9 39.5004 307.3C39.7004 306.9 39.9004 306.6 40.1004 306.2C41.6004 303.6 44.2004 301.1 47.9004 299C49.4004 298.1 51.1004 297.4 52.8004 296.7C56.2004 295.4 60.0004 294.5 63.8004 294C74.2004 292.7 85.6004 294.4 93.7004 299C96.1004 300.4 98.0004 301.9 99.4004 303.5C101.9 306.3 103.2 309.2 103.2 312.2Z" fill="#FFBB9E"/>
<path d="M125.301 253.7C125.301 276.5 120.001 286 113.601 295.2C112.201 297.3 110.701 299.4 109.201 301.6C108.701 302.3 108.301 303 107.801 303.7C107.701 303.9 107.601 304.1 107.501 304.3C105.901 306.8 104.401 309.4 103.001 312.5C102.701 313.2 102.301 313.9 102.001 314.6L40.2006 311.3C39.9006 310 39.7006 308.6 39.3006 307.3C38.8006 305.2 36.7006 295.8 36.5006 294.5V294.4C35.7006 290.1 35.1006 285.7 35.1006 281.2C35.1006 278.9 35.2006 276.7 35.5006 274.4C39.0006 245 64.0006 218.2 82.8006 204.3C91.4006 197.9 98.7006 194.3 102.101 194.3C123.601 194.3 125.301 232.1 125.301 253.7Z" fill="#FFBB9E"/>
<path d="M145.3 205C145.3 213.6 143.7 222.9 141.5 231.6C139.2 240.4 136.4 248.8 133.9 255.4C133.3 257 132.8 258.4 132.2 259.8L129.2 183.4C129.8 180.7 131.3 177.8 133.9 176.7C142.3 182.9 145.3 193.3 145.3 205Z" fill="#FFBB9E"/>
<path d="M141.5 231.6C139.2 240.5 136.4 248.8 133.9 255.5C133.5 255.7 133 255.8 132.6 255.8C132.4 255.8 132.3 255.8 132.1 255.8C125.1 254.8 123.4 232.8 123.4 225.2C123.4 223.9 123.4 222.8 123.5 221.9L135.6 190.7C137.4 216.6 139.6 227.2 141.5 231.6Z" fill="#FFA78F"/>
<path d="M125.401 276.7C100.501 265.6 98.7006 263 91.2006 263C81.6006 263 79.2006 269.9 76.2006 273.5C76.1006 273.3 68.1006 243 68.1006 242.8C68.1006 233.6 83.8006 231.9 91.5006 231.9C91.7006 231.9 112.901 232.7 116.801 234.2L125.401 276.7Z" fill="#FFA78F"/>
<path d="M132.4 282.1V78.8004L136.6 76.4004V279.7L132.4 282.1Z" fill="#ECF0F1"/>
<path d="M132.4 78.8002L0.400391 2.7002L4.70039 0.200195L136.6 76.4002L132.4 78.8002Z" fill="#ECF0F1"/>
<path d="M132.4 282.1L0.400391 206V2.7002L132.4 78.8002V282.1Z" fill="white"/>
<path d="M12 39.5L120.8 102.3V121.6L12 58.8V39.5Z" fill="#ECF0F1"/>
<path d="M59.4008 167C58.8008 167.3 57.9008 166.8 57.4008 165.8L50.3008 153.6C49.7008 152.6 48.8008 152.1 48.3008 152.4L52.7008 149.9C53.3008 149.6 54.2008 150.1 54.7008 151.1L61.8008 163.3C62.4008 164.3 63.3008 164.8 63.8008 164.5L59.4008 167Z" fill="url(#paint1_linear_1802_5100)"/>
<path d="M59.2002 185.2C59.2002 185.2 59.3002 185.2 59.3002 185.1L84.2002 164C84.7002 163.6 84.6002 162.4 83.9002 161.5L77.8002 152.7C77.2002 151.9 76.4002 151.5 75.9002 151.8L80.3002 149.3C80.8002 149 81.6002 149.4 82.2002 150.2L88.3002 159C89.0002 159.9 89.1002 161.1 88.6002 161.5L63.7002 182.6L63.6002 182.7L59.2002 185.2Z" fill="url(#paint2_linear_1802_5100)"/>
<path d="M59.2004 185.2C58.6004 185.5 57.7004 185 57.1004 184L42.9004 157.9C42.4004 157 42.4004 156 42.9004 155.6L48.2004 152.4C48.8004 152.1 49.7004 152.6 50.2004 153.6L57.3004 165.8C57.9004 166.8 58.8004 167.3 59.3004 167L59.4004 166.9L75.8004 151.9L75.9004 151.8C76.4004 151.5 77.2004 151.9 77.8004 152.7L83.9004 161.5C84.6004 162.4 84.7004 163.6 84.2004 164L59.3004 185.1C59.3004 185.2 59.2004 185.2 59.2004 185.2Z" fill="url(#paint3_linear_1802_5100)"/>
<path d="M113.7 295.3C112.3 297.4 110.8 299.5 109.3 301.7C108.8 302.4 108.4 303.1 107.9 303.8C107.8 304 107.7 304.2 107.6 304.4C106 306.9 104.5 309.5 103.1 312.6C103 317.3 99.8003 321.9 93.6003 325.5C80.9003 332.8 60.4003 332.8 47.8003 325.5C41.5003 321.8 38.3003 317.1 38.3003 312.3C38.3003 310.7 38.7003 309 39.4003 307.4C38.9003 305.3 36.8003 295.9 36.6003 294.6V294.5C28.3003 264.9 25.5003 251.3 27.7003 243.3C28.0003 242.3 28.3003 241.3 28.6003 240.2C28.6003 240.6 28.6003 241 28.6003 241.4C28.6003 252.3 31.3003 264.3 35.6003 274.4C40.1003 284.9 46.2003 293.4 52.7003 296.6C54.5003 297.5 56.4003 298 58.3003 298C58.5003 298 58.6003 298 58.8003 298C63.2003 297.8 67.5003 295.5 70.8003 295.5C78.1003 295.5 79.3003 305.3 89.1003 305.3C92.7003 305.3 96.1003 304.6 99.3003 303.5C104.5 301.8 109.2 298.7 113.7 295.3Z" fill="#FFA78F"/>
<path d="M36.1006 121.899V180.299L42.1006 176.799V118.399L36.1006 121.899Z" fill="url(#paint4_linear_1802_5100)"/>
<path d="M36.1006 180.3L86.6006 209.4L92.7006 205.9L42.1006 176.8L36.1006 180.3Z" fill="url(#paint5_linear_1802_5100)"/>
<path d="M95.2004 224.3C96.6004 223.5 97.5004 221.7 97.5004 219.1V154C97.5004 148.9 93.9004 142.7 89.5004 140.2L33.0004 107.6C30.8004 106.3 28.8004 106.2 27.4004 107L33.4004 103.5C34.8004 102.7 36.8004 102.8 39.0004 104.1L95.5004 136.7C99.9004 139.2 103.5 145.4 103.5 150.5V215.7C103.5 218.3 102.6 220 101.2 220.9L95.2004 224.3Z" fill="url(#paint6_linear_1802_5100)"/>
<path d="M89.6006 140.2L33.1006 107.6C28.7006 105.1 25.1006 107.1 25.1006 112.2V177.4C25.1006 182.5 28.7006 188.7 33.1006 191.2L89.6006 223.8C94.0006 226.3 97.6006 224.3 97.6006 219.2V154C97.6006 148.9 94.0006 142.7 89.6006 140.2ZM86.6006 209.4L36.1006 180.2V121.8L86.6006 151V209.4Z" fill="url(#paint7_linear_1802_5100)"/>
<path d="M62.5003 225.7C62.5003 230.5 65.8003 239.7 66.8003 242.7C71.1003 255.7 78.0003 258.2 78.0003 272C78.0003 275.6 77.6003 279.2 77.3003 282.6L41.7003 312.1C41.6003 311.8 41.5003 311.6 41.5003 311.3C39.7003 305.1 38.1003 299.5 36.6003 294.4V294.3C28.3003 264.7 25.5003 251.1 27.7003 243.1C28.0003 242.1 28.3003 241.1 28.6003 240C31.2003 231.2 34.4003 223 37.8003 215.5C44.3003 201.5 78.5003 191.5 79.6003 191.5C83.1003 191.5 83.8003 194.3 83.8003 197.8C83.8003 200.2 83.4003 202.3 82.8003 204.1C78.8003 216.9 62.5003 219.2 62.5003 225.7Z" fill="#FFBB9E"/>
<defs>
<linearGradient id="paint0_linear_1802_5100" x1="70.8932" y1="110.053" x2="55.0405" y2="212.869" gradientUnits="userSpaceOnUse">
<stop offset="0.00505051" stop-color="#20B0D3"/>
<stop offset="0.56" stop-color="#24D4C3"/>
<stop offset="1" stop-color="#27F3B5"/>
</linearGradient>
<linearGradient id="paint1_linear_1802_5100" x1="57.3944" y1="161.786" x2="50.8789" y2="146.079" gradientUnits="userSpaceOnUse">
<stop offset="0.00505051" stop-color="#20B0D3"/>
<stop offset="0.56" stop-color="#24D4C3"/>
<stop offset="1" stop-color="#27F3B5"/>
</linearGradient>
<linearGradient id="paint2_linear_1802_5100" x1="72.6813" y1="170.401" x2="62.2099" y2="154.229" gradientUnits="userSpaceOnUse">
<stop offset="0.00505051" stop-color="#20B0D3"/>
<stop offset="0.6065" stop-color="#20B0D3"/>
<stop offset="0.6854" stop-color="#24D4C3"/>
<stop offset="0.748" stop-color="#27F3B5"/>
</linearGradient>
<linearGradient id="paint3_linear_1802_5100" x1="67.9363" y1="131.266" x2="61.457" y2="173.288" gradientUnits="userSpaceOnUse">
<stop offset="0.00505051" stop-color="#20B0D3"/>
<stop offset="0.56" stop-color="#24D4C3"/>
<stop offset="1" stop-color="#27F3B5"/>
</linearGradient>
<linearGradient id="paint4_linear_1802_5100" x1="39.2478" y1="130.368" x2="38.9463" y2="173.487" gradientUnits="userSpaceOnUse">
<stop offset="0.00505051" stop-color="#20B0D3"/>
<stop offset="0.56" stop-color="#24D4C3"/>
<stop offset="1" stop-color="#27F3B5"/>
</linearGradient>
<linearGradient id="paint5_linear_1802_5100" x1="46.4173" y1="168.114" x2="69.037" y2="199.569" gradientUnits="userSpaceOnUse">
<stop offset="0.00505051" stop-color="#20B0D3"/>
<stop offset="0.3122" stop-color="#24D4C3"/>
<stop offset="0.5558" stop-color="#27F3B5"/>
<stop offset="0.8036" stop-color="#23CFC5"/>
<stop offset="1" stop-color="#20B0D3"/>
</linearGradient>
<linearGradient id="paint6_linear_1802_5100" x1="45.4992" y1="99.0717" x2="112.789" y2="206.736" gradientUnits="userSpaceOnUse">
<stop offset="0.00505051" stop-color="#20B0D3"/>
<stop offset="0.0219772" stop-color="#22C1CB"/>
<stop offset="0.0542243" stop-color="#25DDBF"/>
<stop offset="0.0827463" stop-color="#26EDB8"/>
<stop offset="0.1044" stop-color="#27F3B5"/>
<stop offset="0.5331" stop-color="#27F3B5"/>
<stop offset="0.5765" stop-color="#23CFC5"/>
<stop offset="0.6109" stop-color="#20B0D3"/>
</linearGradient>
<linearGradient id="paint7_linear_1802_5100" x1="64.8189" y1="116.628" x2="58.2424" y2="209.685" gradientUnits="userSpaceOnUse">
<stop offset="0.00505051" stop-color="#20B0D3"/>
<stop offset="0.5116" stop-color="#24D4C3"/>
<stop offset="0.9134" stop-color="#27F3B5"/>
</linearGradient>
</defs>
</svg>
