<svg width="232" height="452" viewBox="0 0 232 452" fill="none" xmlns="http://www.w3.org/2000/svg">
<path d="M215.3 282.499V78.7994L219.5 76.3994V280.099L215.3 282.499Z" fill="#ECF0F1"/>
<path d="M215.3 78.7996L83.1 2.49961L87.3 0.0996094L219.5 76.3996L215.3 78.7996Z" fill="#ECF0F1"/>
<path d="M215.3 282.5L83.1 206.2V2.5L215.3 78.8V282.5Z" fill="white"/>
<path d="M95.9 42.9994V60.3994L97.7 59.3994V41.8994L95.9 42.9994Z" fill="url(#paint0_linear_1802_5035)"/>
<path d="M95.9 60.3994L111 69.1994L112.8 68.0994L97.7 59.3994L95.9 60.3994Z" fill="url(#paint1_linear_1802_5035)"/>
<path d="M113.5 73.5992C113.9 73.3992 114.2 72.7992 114.2 72.0992V52.5992C114.2 51.0992 113.1 49.1991 111.8 48.4991L94.9 38.7991C94.2 38.3991 93.6 38.3992 93.2 38.5992L95 37.5991C95.4 37.3991 96 37.3991 96.7 37.7991L113.6 47.4991C114.9 48.2991 116 50.0992 116 51.5992V70.9991C116 71.7991 115.7 72.2991 115.3 72.4991L113.5 73.5992Z" fill="url(#paint2_linear_1802_5035)"/>
<path d="M111.9 48.3995L95 38.6995C93.7 37.8995 92.6 38.4995 92.6 40.0995V59.5995C92.6 61.0995 93.7 62.9995 95 63.6995L111.9 73.3995C113.2 74.1995 114.3 73.5995 114.3 71.9995V52.4995C114.2 50.9995 113.2 49.1995 111.9 48.3995ZM111 69.1995L95.9 60.4995V42.9995L111 51.6995V69.1995Z" fill="url(#paint3_linear_1802_5035)"/>
<path d="M122.2 59.6992L206.2 108.199V116.499L122.2 67.9992V59.6992Z" fill="#ECF0F1"/>
<path d="M95.9 82.1992V99.6992L97.7 98.5992V81.1992L95.9 82.1992Z" fill="url(#paint4_linear_1802_5035)"/>
<path d="M95.9 99.6996L111 108.4L112.8 107.3L97.7 98.5996L95.9 99.6996Z" fill="url(#paint5_linear_1802_5035)"/>
<path d="M113.5 112.799C113.9 112.599 114.2 111.999 114.2 111.299V91.7993C114.2 90.2993 113.1 88.3993 111.8 87.6993L94.9 77.9993C94.2 77.5993 93.6 77.5993 93.2 77.7993L95 76.7993C95.4 76.5993 96 76.5993 96.7 76.9993L113.6 86.6993C114.9 87.4993 116 89.2993 116 90.7993V110.299C116 111.099 115.7 111.599 115.3 111.799L113.5 112.799Z" fill="url(#paint6_linear_1802_5035)"/>
<path d="M111.9 87.6993L95 77.9993C93.7 77.1993 92.6 77.7993 92.6 79.3993V98.8993C92.6 100.399 93.7 102.299 95 102.999L111.9 112.699C113.2 113.499 114.3 112.899 114.3 111.299V91.7993C114.2 90.2993 113.2 88.3993 111.9 87.6993ZM111 108.399L95.9 99.6993V82.1993L111 90.8993V108.399Z" fill="url(#paint7_linear_1802_5035)"/>
<path d="M122.2 98.8994L206.2 147.399V155.799L122.2 107.299V98.8994Z" fill="#ECF0F1"/>
<path d="M95.9 119.899V137.399L97.7 136.299V118.899L95.9 119.899Z" fill="url(#paint8_linear_1802_5035)"/>
<path d="M95.9 137.4L111 146.1L112.8 145.1L97.7 136.3L95.9 137.4Z" fill="url(#paint9_linear_1802_5035)"/>
<path d="M113.5 150.5C113.9 150.3 114.2 149.7 114.2 149V129.5C114.2 128 113.1 126.1 111.8 125.4L94.9 115.7C94.2 115.3 93.6 115.3 93.2 115.5L95 114.5C95.4 114.3 96 114.3 96.7 114.7L113.6 124.4C114.9 125.2 116 127 116 128.5V148C116 148.8 115.7 149.3 115.3 149.5L113.5 150.5Z" fill="url(#paint10_linear_1802_5035)"/>
<path d="M111.9 125.399L95 115.699C93.7 114.899 92.6 115.499 92.6 117.099V136.599C92.6 138.099 93.7 139.999 95 140.699L111.9 150.399C113.2 151.199 114.3 150.599 114.3 148.999V129.499C114.2 127.999 113.2 126.099 111.9 125.399ZM111 146.099L95.9 137.399V119.899L111 128.599V146.099Z" fill="url(#paint11_linear_1802_5035)"/>
<path d="M122.2 136.6L206.2 185.2V193.5L122.2 145V136.6Z" fill="#ECF0F1"/>
<path d="M95.9 159.2V176.6L97.7 175.6V158.1L95.9 159.2Z" fill="url(#paint12_linear_1802_5035)"/>
<path d="M95.9 176.6L111 185.3L112.8 184.3L97.7 175.6L95.9 176.6Z" fill="url(#paint13_linear_1802_5035)"/>
<path d="M113.5 189.799C113.9 189.599 114.2 188.999 114.2 188.299V168.799C114.2 167.299 113.1 165.399 111.8 164.699L94.9 154.999C94.2 154.599 93.6 154.599 93.2 154.799L95 153.799C95.4 153.599 96 153.599 96.7 153.999L113.6 163.699C114.9 164.499 116 166.299 116 167.799V187.299C116 188.099 115.7 188.599 115.3 188.799L113.5 189.799Z" fill="url(#paint14_linear_1802_5035)"/>
<path d="M111.9 164.6L95 154.9C93.7 154.1 92.6 154.7 92.6 156.3V175.8C92.6 177.3 93.7 179.2 95 179.9L111.9 189.6C113.2 190.4 114.3 189.8 114.3 188.2V168.7C114.2 167.2 113.2 165.4 111.9 164.6ZM111 185.3L95.9 176.6V159.1L111 167.8V185.3Z" fill="url(#paint15_linear_1802_5035)"/>
<path d="M122.2 175.899L206.2 224.399V232.699L122.2 184.199V175.899Z" fill="#ECF0F1"/>
<path d="M173.4 320L134 341.2L190.8 446.7C190.8 446.8 190.9 446.8 190.9 446.9C194.3 453.2 205.9 453.6 216.7 447.8C227.5 442 233.6 432.1 230.2 425.7C230.2 425.6 230.1 425.6 230.1 425.5L173.4 320Z" fill="url(#paint16_linear_1802_5035)"/>
<path d="M173.4 320L134 341.2L190.8 446.7C190.8 446.8 190.9 446.8 190.9 446.9C194.3 453.2 205.9 453.6 216.7 447.8C227.5 442 233.6 432.1 230.2 425.7C230.2 425.6 230.1 425.6 230.1 425.5L173.4 320Z" fill="url(#paint17_linear_1802_5035)"/>
<path d="M173.4 320.101C176.8 326.401 170.8 336.301 159.9 342.201C149 348.101 137.5 347.701 134.1 341.301C130.7 335.001 136.7 325.101 147.6 319.201C158.5 313.301 170 313.801 173.4 320.101Z" fill="#F7F6FB"/>
<path d="M150.3 296.7L126.9 309.3L140.9 334.8C140.9 334.8 140.9 334.9 141 334.9C143 338.7 149.9 338.9 156.4 335.4C162.9 331.9 166.5 326 164.4 322.3C164.4 322.3 164.4 322.2 164.3 322.2L150.3 296.7Z" fill="url(#paint18_linear_1802_5035)"/>
<path d="M38.7 134.099C27.3 140.699 20.3 154.699 20.3 174.699C20.3 214.699 48.5001 263.499 83.1001 283.499C100.4 293.499 116.1 294.399 127.4 287.899L142.4 279.199C131 285.799 115.4 284.799 98.1001 274.799C63.5001 254.799 35.3 205.999 35.3 165.999C35.3 145.999 42.3 131.999 53.7 125.399L38.7 134.099Z" fill="url(#paint19_linear_1802_5035)"/>
<path d="M141.2 311.7C156.1 303.1 165.3 284.7 165.3 258.5C165.3 206.1 128.5 142.3 83.1 116.1C60.4 103 39.8 101.7 25 110.3L40 101.6C54.9 92.9999 75.4 94.2999 98.1 107.4C143.5 133.6 180.3 197.4 180.3 249.8C180.3 276 171.1 294.4 156.2 303L141.2 311.7Z" fill="url(#paint20_linear_1802_5035)"/>
<path d="M83.1 116.1C37.7 89.8998 0.900024 111.1 0.900024 163.6C0.900024 216 37.7 279.8 83.1 306C128.5 332.2 165.3 311 165.3 258.5C165.3 206.1 128.5 142.3 83.1 116.1ZM83.1 283.5C48.5 263.5 20.3 214.7 20.3 174.7C20.3 134.7 48.5 118.5 83.1 138.5C117.7 158.5 145.9 207.3 145.9 247.2C145.9 287.2 117.7 303.5 83.1 283.5Z" fill="#22313F"/>
<path d="M219.7 284.899L218.9 285.399L219.3 284.499C219.4 284.699 219.6 284.799 219.7 284.899Z" fill="#E6E6E6"/>
<path d="M218.9 285.499C218.9 285.499 218.8 285.499 218.9 285.499C218.8 285.399 218.8 285.399 218.8 285.299L219.2 284.399C219.2 284.399 219.2 284.299 219.3 284.299H219.4C219.5 284.399 219.8 284.599 219.8 284.699V284.799C219.8 284.799 219.8 284.899 219.7 284.899L218.9 285.499ZM219.3 284.699L219.1 285.099L219.4 284.899C219.5 284.899 219.4 284.799 219.3 284.699Z" fill="black"/>
<path d="M90.9 204.299C89.2 205.299 86.5 203.699 84.8 200.799L63.7 164.199C62 161.299 59.3 159.699 57.6 160.699L70.8 153.099C72.5 152.099 75.2 153.699 76.9 156.599L98 193.199C99.7 196.099 102.4 197.699 104.1 196.699L90.9 204.299Z" fill="url(#paint21_linear_1802_5035)"/>
<path d="M90.4 258.899C90.5 258.799 90.6 258.799 90.7 258.699L165.3 195.599C166.8 194.299 166.5 190.899 164.5 187.999L146.2 161.799C144.5 159.299 142.1 158.199 140.6 158.999L153.8 151.399C155.3 150.499 157.7 151.699 159.4 154.199L177.7 180.399C179.7 183.199 180 186.599 178.5 187.999L103.9 250.999C103.8 251.099 103.7 251.199 103.6 251.199L90.4 258.899Z" fill="url(#paint22_linear_1802_5035)"/>
<path d="M90.4 258.899C88.7 259.899 85.9 258.199 84.2 255.199L41.6 177.199C40.1 174.399 40.1 171.399 41.7 170.399L57.6 160.799C59.3 159.799 62 161.399 63.7 164.299L84.8001 200.899C86.5001 203.799 89.2 205.399 90.9 204.399C91 204.299 91.1001 204.199 91.3001 204.099L140.3 159.299C140.4 159.199 140.5 159.099 140.7 158.999C142.2 158.099 144.6 159.299 146.3 161.799L164.6 187.999C166.6 190.799 166.9 194.199 165.4 195.599L90.8001 258.699C90.6001 258.699 90.5 258.799 90.4 258.899Z" fill="url(#paint23_linear_1802_5035)"/>
<defs>
<linearGradient id="paint0_linear_1802_5035" x1="96.8026" y1="45.5084" x2="96.7124" y2="58.4011" gradientUnits="userSpaceOnUse">
<stop offset="0.00505051" stop-color="#20B0D3"/>
<stop offset="0.56" stop-color="#24D4C3"/>
<stop offset="1" stop-color="#27F3B5"/>
</linearGradient>
<linearGradient id="paint1_linear_1802_5035" x1="98.9463" y1="56.7943" x2="105.71" y2="66.1995" gradientUnits="userSpaceOnUse">
<stop offset="0.00505051" stop-color="#20B0D3"/>
<stop offset="0.3122" stop-color="#24D4C3"/>
<stop offset="0.5558" stop-color="#27F3B5"/>
<stop offset="0.8036" stop-color="#23CFC5"/>
<stop offset="1" stop-color="#20B0D3"/>
</linearGradient>
<linearGradient id="paint2_linear_1802_5035" x1="98.6718" y1="36.1504" x2="118.792" y2="68.3421" gradientUnits="userSpaceOnUse">
<stop offset="0.00505051" stop-color="#20B0D3"/>
<stop offset="0.0219772" stop-color="#22C1CB"/>
<stop offset="0.0542243" stop-color="#25DDBF"/>
<stop offset="0.0827463" stop-color="#26EDB8"/>
<stop offset="0.1044" stop-color="#27F3B5"/>
<stop offset="0.5331" stop-color="#27F3B5"/>
<stop offset="0.5765" stop-color="#23CFC5"/>
<stop offset="0.6109" stop-color="#20B0D3"/>
</linearGradient>
<linearGradient id="paint3_linear_1802_5035" x1="104.448" y1="41.3999" x2="102.482" y2="69.2241" gradientUnits="userSpaceOnUse">
<stop offset="0.00505051" stop-color="#20B0D3"/>
<stop offset="0.5116" stop-color="#24D4C3"/>
<stop offset="0.9134" stop-color="#27F3B5"/>
</linearGradient>
<linearGradient id="paint4_linear_1802_5035" x1="96.8026" y1="84.7494" x2="96.7124" y2="97.6421" gradientUnits="userSpaceOnUse">
<stop offset="0.00505051" stop-color="#20B0D3"/>
<stop offset="0.56" stop-color="#24D4C3"/>
<stop offset="1" stop-color="#27F3B5"/>
</linearGradient>
<linearGradient id="paint5_linear_1802_5035" x1="98.9463" y1="96.0357" x2="105.71" y2="105.441" gradientUnits="userSpaceOnUse">
<stop offset="0.00505051" stop-color="#20B0D3"/>
<stop offset="0.3122" stop-color="#24D4C3"/>
<stop offset="0.5558" stop-color="#27F3B5"/>
<stop offset="0.8036" stop-color="#23CFC5"/>
<stop offset="1" stop-color="#20B0D3"/>
</linearGradient>
<linearGradient id="paint6_linear_1802_5035" x1="98.6718" y1="75.3918" x2="118.792" y2="107.584" gradientUnits="userSpaceOnUse">
<stop offset="0.00505051" stop-color="#20B0D3"/>
<stop offset="0.0219772" stop-color="#22C1CB"/>
<stop offset="0.0542243" stop-color="#25DDBF"/>
<stop offset="0.0827463" stop-color="#26EDB8"/>
<stop offset="0.1044" stop-color="#27F3B5"/>
<stop offset="0.5331" stop-color="#27F3B5"/>
<stop offset="0.5765" stop-color="#23CFC5"/>
<stop offset="0.6109" stop-color="#20B0D3"/>
</linearGradient>
<linearGradient id="paint7_linear_1802_5035" x1="104.448" y1="80.6409" x2="102.482" y2="108.465" gradientUnits="userSpaceOnUse">
<stop offset="0.00505051" stop-color="#20B0D3"/>
<stop offset="0.5116" stop-color="#24D4C3"/>
<stop offset="0.9134" stop-color="#27F3B5"/>
</linearGradient>
<linearGradient id="paint8_linear_1802_5035" x1="96.8026" y1="122.455" x2="96.7124" y2="135.348" gradientUnits="userSpaceOnUse">
<stop offset="0.00505051" stop-color="#20B0D3"/>
<stop offset="0.56" stop-color="#24D4C3"/>
<stop offset="1" stop-color="#27F3B5"/>
</linearGradient>
<linearGradient id="paint9_linear_1802_5035" x1="98.9463" y1="133.742" x2="105.71" y2="143.147" gradientUnits="userSpaceOnUse">
<stop offset="0.00505051" stop-color="#20B0D3"/>
<stop offset="0.3122" stop-color="#24D4C3"/>
<stop offset="0.5558" stop-color="#27F3B5"/>
<stop offset="0.8036" stop-color="#23CFC5"/>
<stop offset="1" stop-color="#20B0D3"/>
</linearGradient>
<linearGradient id="paint10_linear_1802_5035" x1="98.6718" y1="113.098" x2="118.792" y2="145.289" gradientUnits="userSpaceOnUse">
<stop offset="0.00505051" stop-color="#20B0D3"/>
<stop offset="0.0219772" stop-color="#22C1CB"/>
<stop offset="0.0542243" stop-color="#25DDBF"/>
<stop offset="0.0827463" stop-color="#26EDB8"/>
<stop offset="0.1044" stop-color="#27F3B5"/>
<stop offset="0.5331" stop-color="#27F3B5"/>
<stop offset="0.5765" stop-color="#23CFC5"/>
<stop offset="0.6109" stop-color="#20B0D3"/>
</linearGradient>
<linearGradient id="paint11_linear_1802_5035" x1="104.448" y1="118.347" x2="102.482" y2="146.171" gradientUnits="userSpaceOnUse">
<stop offset="0.00505051" stop-color="#20B0D3"/>
<stop offset="0.5116" stop-color="#24D4C3"/>
<stop offset="0.9134" stop-color="#27F3B5"/>
</linearGradient>
<linearGradient id="paint12_linear_1802_5035" x1="96.8026" y1="161.697" x2="96.7124" y2="174.589" gradientUnits="userSpaceOnUse">
<stop offset="0.00505051" stop-color="#20B0D3"/>
<stop offset="0.56" stop-color="#24D4C3"/>
<stop offset="1" stop-color="#27F3B5"/>
</linearGradient>
<linearGradient id="paint13_linear_1802_5035" x1="98.9463" y1="172.983" x2="105.71" y2="182.388" gradientUnits="userSpaceOnUse">
<stop offset="0.00505051" stop-color="#20B0D3"/>
<stop offset="0.3122" stop-color="#24D4C3"/>
<stop offset="0.5558" stop-color="#27F3B5"/>
<stop offset="0.8036" stop-color="#23CFC5"/>
<stop offset="1" stop-color="#20B0D3"/>
</linearGradient>
<linearGradient id="paint14_linear_1802_5035" x1="98.6718" y1="152.339" x2="118.792" y2="184.531" gradientUnits="userSpaceOnUse">
<stop offset="0.00505051" stop-color="#20B0D3"/>
<stop offset="0.0219772" stop-color="#22C1CB"/>
<stop offset="0.0542243" stop-color="#25DDBF"/>
<stop offset="0.0827463" stop-color="#26EDB8"/>
<stop offset="0.1044" stop-color="#27F3B5"/>
<stop offset="0.5331" stop-color="#27F3B5"/>
<stop offset="0.5765" stop-color="#23CFC5"/>
<stop offset="0.6109" stop-color="#20B0D3"/>
</linearGradient>
<linearGradient id="paint15_linear_1802_5035" x1="104.448" y1="157.588" x2="102.482" y2="185.412" gradientUnits="userSpaceOnUse">
<stop offset="0.00505051" stop-color="#20B0D3"/>
<stop offset="0.5116" stop-color="#24D4C3"/>
<stop offset="0.9134" stop-color="#27F3B5"/>
</linearGradient>
<linearGradient id="paint16_linear_1802_5035" x1="165.76" y1="399.652" x2="204.494" y2="378.778" gradientUnits="userSpaceOnUse">
<stop stop-color="#C211A1"/>
<stop offset="0.0524646" stop-color="#C518A5"/>
<stop offset="0.1307" stop-color="#CE2DAF"/>
<stop offset="0.1414" stop-color="#CF30B1"/>
<stop offset="0.2273" stop-color="#FF63CE"/>
<stop offset="0.2824" stop-color="#EB48BF"/>
<stop offset="0.3788" stop-color="#C211A1"/>
<stop offset="0.5404" stop-color="#A919AB"/>
<stop offset="0.6243" stop-color="#AC1BAB"/>
<stop offset="0.6972" stop-color="#B723AB"/>
<stop offset="0.7658" stop-color="#C92FAA"/>
<stop offset="0.8182" stop-color="#DC3DAA"/>
<stop offset="0.9279" stop-color="#CD24A5"/>
<stop offset="1" stop-color="#C211A1"/>
</linearGradient>
<linearGradient id="paint17_linear_1802_5035" x1="149.239" y1="410.991" x2="197.266" y2="380.737" gradientUnits="userSpaceOnUse">
<stop offset="0.1347" stop-color="#83AFCD"/>
<stop offset="0.3936" stop-color="#A2C2D9"/>
<stop offset="0.9576" stop-color="#F1F2F9"/>
<stop offset="1" stop-color="#F7F6FB"/>
</linearGradient>
<linearGradient id="paint18_linear_1802_5035" x1="136.3" y1="321.16" x2="180.457" y2="308.544" gradientUnits="userSpaceOnUse">
<stop stop-color="#22313F"/>
<stop offset="0.1427" stop-color="#374D5E"/>
<stop offset="0.4532" stop-color="#6D92AD"/>
<stop offset="0.5737" stop-color="#83AFCD"/>
</linearGradient>
<linearGradient id="paint19_linear_1802_5035" x1="6.74065" y1="141.85" x2="160.14" y2="305.391" gradientUnits="userSpaceOnUse">
<stop stop-color="#22313F"/>
<stop offset="0.1427" stop-color="#374D5E"/>
<stop offset="0.4532" stop-color="#6D92AD"/>
<stop offset="0.5737" stop-color="#83AFCD"/>
<stop offset="0.684" stop-color="#6E94AE"/>
<stop offset="0.9241" stop-color="#384E5F"/>
<stop offset="1" stop-color="#263745"/>
</linearGradient>
<linearGradient id="paint20_linear_1802_5035" x1="170.482" y1="302.902" x2="68.2919" y2="93.1723" gradientUnits="userSpaceOnUse">
<stop stop-color="#22313F"/>
<stop offset="0.1427" stop-color="#374D5E"/>
<stop offset="0.4532" stop-color="#6D92AD"/>
<stop offset="0.5737" stop-color="#83AFCD"/>
<stop offset="0.684" stop-color="#6E94AE"/>
<stop offset="0.9241" stop-color="#384E5F"/>
<stop offset="1" stop-color="#263745"/>
</linearGradient>
<linearGradient id="paint21_linear_1802_5035" x1="85.0288" y1="188.79" x2="65.5263" y2="141.775" gradientUnits="userSpaceOnUse">
<stop offset="0.00505051" stop-color="#20B0D3"/>
<stop offset="0.56" stop-color="#24D4C3"/>
<stop offset="1" stop-color="#27F3B5"/>
</linearGradient>
<linearGradient id="paint22_linear_1802_5035" x1="130.788" y1="214.577" x2="99.4444" y2="166.169" gradientUnits="userSpaceOnUse">
<stop offset="0.00505051" stop-color="#20B0D3"/>
<stop offset="0.6065" stop-color="#20B0D3"/>
<stop offset="0.6854" stop-color="#24D4C3"/>
<stop offset="0.748" stop-color="#27F3B5"/>
</linearGradient>
<linearGradient id="paint23_linear_1802_5035" x1="116.584" y1="97.4344" x2="97.1904" y2="223.217" gradientUnits="userSpaceOnUse">
<stop offset="0.00505051" stop-color="#20B0D3"/>
<stop offset="0.56" stop-color="#24D4C3"/>
<stop offset="1" stop-color="#27F3B5"/>
</linearGradient>
</defs>
</svg>
