<svg width="16" height="16" viewBox="0 0 16 16" fill="none" xmlns="http://www.w3.org/2000/svg">
<path fill-rule="evenodd" clip-rule="evenodd" d="M8 16C12.4183 16 16 12.4183 16 8C16 3.58172 12.4183 0 8 0C3.58172 0 0 3.58172 0 8C0 12.4183 3.58172 16 8 16ZM6.66706 4.88925C6.66706 4.1528 7.26395 3.55591 8.00039 3.55591C8.73684 3.55591 9.33372 4.1528 9.33372 4.88925C9.33372 5.62569 8.73684 6.22258 8.00039 6.22258C7.26395 6.22258 6.66706 5.62569 6.66706 4.88925ZM6.22261 8.00036V7.11147H7.55595H8.44484C8.69017 7.11147 8.88928 7.31058 8.88928 7.55591V11.5559H9.77817V12.4448H6.22261V11.5559H7.1115V8.00036H6.22261Z" fill="#27F3B5"/>
</svg>
