<svg width="180" height="45" viewBox="0 0 180 45" fill="none" xmlns="http://www.w3.org/2000/svg">
<rect x="35.374" y="12.9941" width="13.1809" height="13.1809" rx="0.3" transform="rotate(45 35.374 12.9941)" fill="white"/>
<rect x="22.3467" y="0.0332031" width="13.1809" height="13.1809" rx="0.3" transform="rotate(45 22.3467 0.0332031)" fill="#27F3B5"/>
<rect x="22.3467" y="26.084" width="13.1809" height="13.1809" rx="0.3" transform="rotate(45 22.3467 26.084)" fill="white"/>
<rect x="9.32031" y="13.0586" width="13.1809" height="13.1809" rx="0.3" transform="rotate(45 9.32031 13.0586)" fill="#27F3B5"/>
<path d="M62.2578 17.2163C60.7439 17.2163 59.6368 17.736 58.8912 18.5946V13.0137H55.502V28.83H58.8912V27.7681C59.6368 28.6267 60.7439 29.1463 62.2578 29.1463C65.2177 29.1463 67.6579 26.5479 67.6579 23.1813C67.6579 19.8147 65.2177 17.2163 62.2578 17.2163ZM61.5799 25.9379C60.0209 25.9379 58.8912 24.8759 58.8912 23.1813C58.8912 21.4867 60.0209 20.4248 61.5799 20.4248C63.139 20.4248 64.2687 21.4867 64.2687 23.1813C64.2687 24.8759 63.139 25.9379 61.5799 25.9379Z" fill="white"/>
<path d="M77.7814 17.5326V18.5946C77.0358 17.736 75.9287 17.2163 74.4148 17.2163C71.4549 17.2163 69.0147 19.8147 69.0147 23.1813C69.0147 26.5479 71.4549 29.1463 74.4148 29.1463C75.9287 29.1463 77.0358 28.6267 77.7814 27.7681V28.83H81.1707V17.5326H77.7814ZM75.0927 25.9379C73.5336 25.9379 72.4039 24.8759 72.4039 23.1813C72.4039 21.4867 73.5336 20.4248 75.0927 20.4248C76.6517 20.4248 77.7814 21.4867 77.7814 23.1813C77.7814 24.8759 76.6517 25.9379 75.0927 25.9379Z" fill="white"/>
<path d="M90.2774 17.2163C88.7861 17.2163 87.6564 17.7586 87.0464 18.5946V17.5326H83.6571V28.83H87.0464V22.6616C87.0464 21.0574 87.905 20.3344 89.1477 20.3344C90.2322 20.3344 91.1134 20.9896 91.1134 22.3905V28.83H94.5026V21.8934C94.5026 18.8431 92.5595 17.2163 90.2774 17.2163Z" fill="white"/>
<path d="M107.676 28.83L103.45 23.1813L107.563 17.5326H103.608L100.219 22.4809V13.0137H96.8301V28.83H100.219V23.8366L103.834 28.83H107.676Z" fill="white"/>
<path d="M112.311 19.5436V17.5326H108.922V28.83H112.311V23.7236C112.311 21.4867 114.299 20.9218 115.7 21.1478V17.3067C114.277 17.3067 112.763 18.0297 112.311 19.5436Z" fill="white"/>
<path d="M122.376 29.1463C125.698 29.1463 128.364 26.5479 128.364 23.1813C128.364 19.8147 125.698 17.2163 122.376 17.2163C119.055 17.2163 116.389 19.8147 116.389 23.1813C116.389 26.5479 119.055 29.1463 122.376 29.1463ZM122.376 25.8475C120.908 25.8475 119.778 24.7855 119.778 23.1813C119.778 21.5771 120.908 20.5151 122.376 20.5151C123.845 20.5151 124.975 21.5771 124.975 23.1813C124.975 24.7855 123.845 25.8475 122.376 25.8475Z" fill="white"/>
<path d="M131.297 29.1463C132.472 29.1463 133.443 28.1748 133.443 26.9998C133.443 25.8249 132.472 24.8533 131.297 24.8533C130.122 24.8533 129.15 25.8249 129.15 26.9998C129.15 28.1748 130.122 29.1463 131.297 29.1463Z" fill="white"/>
<path d="M142.567 20.7863V17.5326H140.24V14.3694L136.851 15.3861V17.5326H135.043V20.7863H136.851V24.7855C136.851 27.9488 138.138 29.2819 142.567 28.83V25.7571C141.076 25.8475 140.24 25.7571 140.24 24.7855V20.7863H142.567Z" fill="#27F3B5"/>
<path d="M147.293 24.537H155.314C155.405 24.1077 155.45 23.6558 155.45 23.1813C155.45 19.7695 153.01 17.2163 149.711 17.2163C146.141 17.2163 143.7 19.8147 143.7 23.1813C143.7 26.5479 146.096 29.1463 149.959 29.1463C152.106 29.1463 153.778 28.3555 154.885 26.8191L152.174 25.26C151.722 25.7571 150.931 26.1186 150.004 26.1186C148.762 26.1186 147.722 25.7119 147.293 24.537ZM147.225 22.0064C147.542 20.8541 148.4 20.2214 149.688 20.2214C150.705 20.2214 151.722 20.6959 152.083 22.0064H147.225Z" fill="#27F3B5"/>
<path d="M162.684 29.1463C164.899 29.1463 166.819 27.994 167.791 26.2316L164.831 24.537C164.469 25.3278 163.633 25.8023 162.639 25.8023C161.171 25.8023 160.086 24.7404 160.086 23.1813C160.086 21.6223 161.171 20.5603 162.639 20.5603C163.633 20.5603 164.447 21.0348 164.831 21.8256L167.791 20.1084C166.819 18.3686 164.876 17.2163 162.684 17.2163C159.25 17.2163 156.697 19.8147 156.697 23.1813C156.697 26.5479 159.25 29.1463 162.684 29.1463Z" fill="#27F3B5"/>
<path d="M175.775 17.2163C174.284 17.2163 173.154 17.7586 172.544 18.5946V13.0137H169.155V28.83H172.544V22.6616C172.544 21.0574 173.403 20.3344 174.645 20.3344C175.73 20.3344 176.611 20.9896 176.611 22.3905V28.83H180V21.8934C180 18.8431 178.057 17.2163 175.775 17.2163Z" fill="#27F3B5"/>
<circle cx="22.2253" cy="22.4226" r="12.8132" fill="#385272"/>
<rect x="21.959" y="28.4531" width="7.75096" height="1.29183" rx="0.645913" fill="white"/>
<path d="M23.1865 27.0332C23.1865 26.7571 23.4104 26.5332 23.6865 26.5332H27.8538C28.13 26.5332 28.3538 26.7571 28.3538 27.0332V27.825H23.1865V27.0332Z" fill="white"/>
<path d="M18.4499 20.3542C18.6288 20.5323 18.8631 20.6215 19.0975 20.6215C19.3318 20.6215 19.5665 20.5323 19.745 20.3533L22.7715 17.3275C23.1284 16.97 23.1284 16.3887 22.7436 16.0043C22.3861 15.6473 21.8054 15.6468 21.448 16.0043L18.422 19.0305C18.065 19.3875 18.065 19.9688 18.4224 20.3267L18.4499 20.3542Z" fill="white"/>
<path d="M20.0487 21.8945C18.3759 23.2681 16.4799 24.9702 16.2703 25.1799C15.8136 25.6362 15.8136 26.3795 16.2703 26.8363C16.4987 27.0647 16.7984 27.1791 17.0982 27.1791C17.3984 27.1791 17.6981 27.0646 17.9265 26.8363C18.1361 26.6262 19.8381 24.7295 21.2115 23.058C21.0079 22.8772 20.8065 22.6909 20.6106 22.4955C20.4148 22.2991 20.229 22.0977 20.0487 21.8945Z" fill="white"/>
<path d="M27.074 20.3359C26.7175 19.9799 26.1368 19.9785 25.7784 20.3359L22.7525 23.3622C22.395 23.7192 22.395 24.301 22.7525 24.658L22.7799 24.6854C22.9589 24.8639 23.1936 24.9536 23.4279 24.9536C23.6623 24.9536 23.897 24.8639 24.0755 24.6854L27.102 21.6591C27.4585 21.3021 27.4585 20.7209 27.074 20.3359Z" fill="white"/>
<path d="M25.7228 19.8086C25.3819 19.3637 25.0039 18.9307 24.5897 18.5165C24.1764 18.1028 23.7435 17.7247 23.2977 17.3828C23.2405 17.4785 23.176 17.5695 23.095 17.6506L20.069 20.6764C19.988 20.7574 19.8969 20.8224 19.8018 20.8796C20.1427 21.3245 20.5207 21.7575 20.9344 22.1721C21.3477 22.585 21.7811 22.9635 22.2264 23.3049C22.2836 23.2097 22.3486 23.1182 22.4296 23.0377L25.4556 20.0114C25.5366 19.9308 25.6276 19.8658 25.7228 19.8086Z" fill="white"/>
</svg>
