<svg width="395" height="377" viewBox="0 0 395 377" fill="none" xmlns="http://www.w3.org/2000/svg">
<path d="M352.578 145.389C352.578 140.365 350.836 134.778 347.966 129.806C345.096 124.833 341.15 120.476 336.743 117.964L136.265 2.16441C131.909 -0.347407 127.963 -0.603714 125.094 1.03665L122.89 2.31819C120.02 3.95856 118.227 7.4956 118.227 12.5705V231.611C118.227 235.507 119.303 239.761 121.096 243.76C121.609 244.939 122.224 246.067 122.839 247.194C125.709 252.167 129.655 256.524 134.062 259.036L334.54 374.836C338.896 377.347 342.842 377.604 345.711 375.963L347.915 374.682C350.785 373.041 352.578 369.504 352.578 364.429V145.389Z" fill="#105383"/>
<path d="M122.89 2.3179C125.76 0.677536 129.706 0.933843 134.062 3.44566L334.54 119.245C338.896 121.757 342.893 126.114 345.763 131.087C348.632 136.059 350.375 141.647 350.375 146.67V365.711C350.375 370.786 348.581 374.323 345.711 375.963C342.842 377.603 338.896 377.347 334.54 374.835L134.062 259.036C129.706 256.524 125.709 252.167 122.839 247.194C119.969 242.222 118.227 236.634 118.227 231.611V12.5702C118.227 7.54658 120.02 4.00953 122.89 2.3179Z" fill="url(#paint0_linear_1817_23830)"/>
<path d="M270.02 289.691C270.02 286.462 268.79 282.925 266.996 279.798C265.151 276.62 262.691 273.903 259.924 272.262L170.857 220.847C168.141 219.258 165.681 219.104 163.887 220.129C163.887 220.129 161.633 221.462 161.581 221.462C159.788 222.539 158.763 224.794 158.763 228.024V247.401C158.763 249.912 159.531 252.578 160.659 255.141C161.018 255.91 161.376 256.628 161.786 257.345C163.631 260.523 166.091 263.24 168.858 264.881L257.925 316.296C260.641 317.885 263.101 318.039 264.895 317.014L264.997 316.962L264.946 317.014C264.946 317.014 267.201 315.732 267.201 315.681C268.995 314.604 270.02 312.349 270.02 309.119V289.691Z" fill="#1599DD"/>
<path d="M161.682 221.411C163.476 220.385 165.936 220.539 168.652 222.128L257.669 273.544C260.436 275.133 262.946 277.901 264.74 281.079C266.533 284.206 267.764 287.794 267.764 290.973V310.349C267.764 313.579 266.739 315.834 264.946 316.911C264.894 316.911 264.893 316.962 264.842 316.962C263.049 317.987 260.589 317.834 257.873 316.244L168.908 264.829C166.141 263.24 163.631 260.472 161.837 257.294C160.043 254.167 158.812 250.578 158.812 247.4V228.023C158.812 224.794 159.838 222.538 161.632 221.462C161.632 221.411 161.631 221.411 161.682 221.411Z" fill="#105383"/>
<path d="M260.335 288.05C260.335 287.486 260.13 286.82 259.823 286.307C259.515 285.743 259.054 285.231 258.541 284.974L190.844 245.862C190.383 245.606 189.922 245.554 189.614 245.759L188.282 246.528C187.975 246.733 187.77 247.143 187.77 247.707C187.77 248.169 187.872 248.63 188.077 249.091C188.128 249.245 188.18 249.348 188.282 249.501C188.589 250.065 189.051 250.578 189.563 250.834L257.26 289.947C257.721 290.203 258.183 290.254 258.49 290.049L259.823 289.28C260.13 289.024 260.335 288.614 260.335 288.05Z" fill="#1599DD"/>
<path d="M188.282 246.478C188.589 246.273 189.051 246.324 189.512 246.581L257.209 285.693C257.721 286.001 258.131 286.462 258.49 287.026C258.798 287.59 259.003 288.205 259.003 288.769C259.003 289.333 258.798 289.743 258.49 289.948C258.183 290.153 257.721 290.102 257.26 289.845L189.563 250.733C189.051 250.425 188.641 249.964 188.282 249.4C187.974 248.836 187.77 248.221 187.77 247.657C187.718 247.042 187.923 246.632 188.282 246.478Z" fill="url(#paint1_linear_1817_23830)"/>
<path d="M241.886 295.431C242.193 295.226 242.654 295.277 243.115 295.534L260.334 305.478C260.847 305.786 261.257 306.247 261.616 306.811C261.923 307.375 262.128 307.99 262.128 308.554C262.128 309.118 261.923 309.528 261.616 309.733C261.308 309.938 260.847 309.887 260.386 309.631L243.167 299.686C242.654 299.378 242.244 298.917 241.886 298.353C241.578 297.789 241.373 297.174 241.373 296.61C241.373 295.995 241.578 295.585 241.886 295.431Z" fill="#366F97"/>
<path d="M216.211 280.568C216.518 280.363 216.979 280.414 217.441 280.67L234.66 290.615C235.172 290.923 235.582 291.384 235.941 291.948C236.248 292.512 236.453 293.127 236.453 293.691C236.453 294.255 236.248 294.665 235.941 294.87C235.633 295.075 235.172 295.024 234.711 294.767L217.492 284.823C216.979 284.515 216.569 284.054 216.211 283.49C215.903 282.926 215.698 282.311 215.698 281.747C215.698 281.183 215.903 280.773 216.211 280.568Z" fill="#366F97"/>
<path d="M190.793 257.857C191.1 257.652 191.561 257.703 192.023 257.959L225.487 277.285C225.999 277.593 226.409 278.054 226.768 278.618C227.076 279.182 227.28 279.797 227.28 280.361C227.28 280.925 227.076 281.335 226.768 281.54C226.461 281.745 225.999 281.694 225.538 281.437L192.074 262.112C191.561 261.804 191.151 261.343 190.793 260.779C190.485 260.215 190.28 259.6 190.28 259.036C190.229 258.472 190.434 258.062 190.793 257.857Z" fill="#366F97"/>
<path d="M190.536 265.752C190.843 265.546 191.305 265.598 191.766 265.854L208.985 275.799C209.497 276.106 209.907 276.568 210.266 277.132C210.573 277.695 210.778 278.311 210.778 278.874C210.778 279.438 210.573 279.848 210.266 280.053C209.958 280.259 209.497 280.207 209.036 279.951L191.817 270.006C191.305 269.699 190.895 269.237 190.536 268.673C190.228 268.11 190.023 267.494 190.023 266.931C189.972 266.315 190.177 265.905 190.536 265.752Z" fill="#366F97"/>
<path d="M185.31 244.12C185.31 242.684 185.207 241.915 184.849 241.249C184.49 240.634 183.824 240.173 182.594 239.455L166.964 230.484C165.734 229.766 165.067 229.459 164.709 229.664L163.376 230.433C163.018 230.638 163.018 231.407 163.018 232.842V251.091C163.018 252.373 163.12 253.142 163.376 253.757C163.428 253.808 163.428 253.911 163.479 253.962C163.838 254.577 164.504 255.038 165.734 255.756L181.364 264.778C182.594 265.496 183.26 265.803 183.619 265.598L184.951 264.829C185.31 264.624 185.31 263.855 185.259 262.42V244.12H185.31Z" fill="#1599DD"/>
<path d="M163.376 230.433C163.735 230.228 164.401 230.536 165.631 231.254L181.262 240.276C182.491 240.993 183.158 241.403 183.516 242.07C183.875 242.685 183.978 243.505 183.978 244.94V263.19C183.978 264.625 183.978 265.394 183.619 265.599C183.26 265.804 182.594 265.496 181.364 264.779L165.785 255.705C164.555 254.988 163.889 254.578 163.53 253.911C163.171 253.296 163.069 252.476 163.069 251.041V232.791C163.069 231.407 163.018 230.638 163.376 230.433Z" fill="url(#paint2_linear_1817_23830)"/>
<path d="M270.02 205.006C270.02 201.776 268.79 198.239 266.996 195.112C265.151 191.934 262.692 189.217 259.924 187.577L138.367 117.4C135.651 115.811 133.191 115.657 131.397 116.682C131.397 116.682 129.142 118.015 129.091 118.015C127.297 119.091 126.272 121.347 126.272 124.576V173.429C126.272 175.94 127.041 178.606 128.169 181.169C128.527 181.938 128.886 182.656 129.296 183.373C131.141 186.552 133.601 189.268 136.368 190.909L257.926 261.086C260.642 262.675 263.102 262.829 264.895 261.803L267.201 260.471C268.995 259.394 270.02 257.139 270.02 253.909V205.006Z" fill="#1599DD"/>
<path d="M129.193 117.963C130.987 116.938 133.447 117.092 136.163 118.681L257.72 188.858C260.488 190.447 262.999 193.215 264.792 196.393C266.586 199.52 267.816 203.109 267.816 206.287V255.139C267.816 258.369 266.791 260.624 264.997 261.701C264.946 261.701 264.946 261.752 264.895 261.752C263.101 262.777 260.641 262.623 257.925 261.034L136.419 190.857C133.652 189.268 131.14 186.5 129.347 183.322C127.553 180.195 126.323 176.607 126.323 173.428V124.576C126.323 121.347 127.348 119.091 129.142 118.015C129.142 117.963 129.142 117.963 129.193 117.963Z" fill="#105383"/>
<path d="M204.22 170.968C204.22 170.404 204.015 169.738 203.707 169.225C203.4 168.661 202.939 168.149 202.426 167.892L134.729 128.78C134.268 128.524 133.807 128.472 133.499 128.677L132.167 129.446C131.859 129.651 131.654 130.061 131.654 130.625C131.654 131.087 131.757 131.548 131.962 132.009C132.013 132.163 132.064 132.266 132.167 132.419C132.474 132.983 132.935 133.496 133.448 133.752L201.145 172.865C201.606 173.121 202.067 173.172 202.375 172.967L203.707 172.198C204.015 171.942 204.22 171.532 204.22 170.968Z" fill="#1599DD"/>
<path d="M132.116 129.396C132.423 129.191 132.885 129.242 133.346 129.499L201.043 168.611C201.555 168.919 201.965 169.38 202.324 169.944C202.632 170.508 202.837 171.123 202.837 171.687C202.837 172.251 202.632 172.661 202.324 172.866C202.017 173.071 201.555 173.02 201.094 172.763L133.397 133.651C132.885 133.343 132.475 132.882 132.116 132.318C131.809 131.754 131.604 131.139 131.604 130.575C131.604 129.96 131.809 129.55 132.116 129.396Z" fill="url(#paint3_linear_1817_23830)"/>
<path d="M156.406 154.412C156.714 154.207 157.175 154.258 157.636 154.514L191.1 173.84C191.613 174.147 192.023 174.609 192.381 175.173C192.689 175.736 192.894 176.352 192.894 176.915C192.894 177.479 192.689 177.889 192.381 178.094C192.074 178.3 191.613 178.248 191.151 177.992L157.687 158.666C157.175 158.359 156.765 157.897 156.406 157.334C156.099 156.77 155.894 156.155 155.894 155.591C155.894 154.976 156.099 154.565 156.406 154.412Z" fill="#366F97"/>
<path d="M325.727 290.971C325.727 288.357 324.805 285.486 323.37 282.974C321.884 280.411 319.885 278.207 317.63 276.874L292.263 262.213C290.008 260.932 288.01 260.778 286.523 261.649L284.32 262.931C282.834 263.802 281.911 265.597 281.911 268.211V319.934C281.911 321.933 282.475 324.137 283.397 326.188C283.654 326.803 283.961 327.367 284.32 327.931C285.806 330.494 287.805 332.698 290.059 334.031L315.427 348.692C317.681 349.973 319.68 350.127 321.166 349.255L323.37 347.974C324.856 347.102 325.778 345.308 325.778 342.694V290.971H325.727Z" fill="#1599DD"/>
<path d="M284.269 262.931C285.755 262.059 287.753 262.213 290.008 263.495L315.375 278.155C317.63 279.437 319.68 281.692 321.115 284.256C322.601 286.819 323.472 289.689 323.472 292.252V343.975C323.472 346.59 322.55 348.384 321.064 349.255C319.578 350.127 317.579 349.973 315.324 348.691L290.008 334.03C287.753 332.749 285.703 330.493 284.269 327.93C282.782 325.367 281.911 322.497 281.911 319.934V268.211C281.911 265.596 282.834 263.802 284.269 262.931Z" fill="#105383"/>
<path d="M230.099 62.8066C229.638 63.0629 228.869 62.6528 228.357 61.7813L222.31 51.324C221.849 50.5038 221.029 50.0424 220.567 50.2988L224.36 48.1458C224.821 47.8895 225.641 48.2996 226.102 49.171L232.149 59.6283C232.61 60.4485 233.43 60.9099 233.892 60.6536L230.099 62.8066Z" fill="url(#paint4_linear_1817_23830)"/>
<path d="M229.996 78.3889C230.047 78.3889 230.047 78.3376 230.099 78.3376L251.469 60.2423C251.93 59.8834 251.827 58.9095 251.264 58.0893L246.036 50.5539C245.524 49.8362 244.858 49.5286 244.448 49.7849L248.24 47.6319C248.65 47.3756 249.367 47.7345 249.829 48.4009L255.056 55.9363C255.62 56.7565 255.722 57.7305 255.261 58.0893L233.84 76.1846C233.788 76.1846 233.788 76.2359 233.737 76.2359L229.996 78.3889Z" fill="url(#paint5_linear_1817_23830)"/>
<path d="M229.996 78.3892C229.535 78.6455 228.715 78.1842 228.254 77.3127L216.006 55.014C215.545 54.1938 215.596 53.3736 216.057 53.066C216.057 53.066 220.618 50.3492 220.618 50.2979C221.079 50.0416 221.899 50.4517 222.361 51.3231L228.408 61.7805C228.869 62.6007 229.689 63.062 230.15 62.8057C230.201 62.8057 230.201 62.7545 230.253 62.7545L244.294 49.9391C244.345 49.8878 244.345 49.8878 244.397 49.8878C244.807 49.6315 245.524 49.9903 245.985 50.6567L251.213 58.1922C251.776 59.0124 251.879 59.9863 251.418 60.3452L230.048 78.4405C230.048 78.3379 229.996 78.3892 229.996 78.3892Z" fill="url(#paint6_linear_1817_23830)"/>
<path d="M375.898 146.823C375.898 141.8 374.156 136.212 371.286 131.24C368.416 126.267 364.47 121.91 360.063 119.398L310.764 90.8968C306.408 88.385 302.461 88.1287 299.592 89.7691L297.388 91.0506C294.518 92.691 292.725 96.228 292.725 101.303V222.485C292.725 226.381 293.801 230.636 295.594 234.634C296.107 235.813 296.722 236.941 297.337 238.069C300.207 243.041 304.153 247.398 308.56 249.91L357.859 278.411C362.215 280.923 366.161 281.18 369.031 279.539L371.235 278.258C374.105 276.617 375.898 273.08 375.898 268.005V146.823Z" fill="#1599DD"/>
<path d="M297.388 91.1031C300.258 89.4627 304.204 89.719 308.56 92.2308L357.859 120.732C362.215 123.244 366.213 127.601 369.082 132.574C371.952 137.546 373.695 143.133 373.695 148.157V269.339C373.695 274.414 371.901 277.951 369.031 279.592C366.161 281.232 362.215 280.976 357.859 278.464L308.56 249.962C304.204 247.451 300.207 243.093 297.337 238.121C294.467 233.149 292.725 227.561 292.725 222.538V101.355C292.725 96.3317 294.518 92.7434 297.388 91.1031Z" fill="#105383"/>
<path d="M340.998 199.521C340.742 199.521 340.434 199.418 340.229 199.213L316.041 173.685L299.744 176.043C299.181 176.145 298.668 175.735 298.566 175.171C298.463 174.608 298.873 174.095 299.437 173.992L316.246 171.583C316.553 171.532 316.912 171.634 317.117 171.891L341.049 197.163L365.135 180.554C365.596 180.246 366.263 180.349 366.57 180.81C366.878 181.272 366.775 181.938 366.314 182.246L341.562 199.316C341.357 199.418 341.203 199.521 340.998 199.521Z" fill="url(#paint7_linear_1817_23830)"/>
<path d="M299.643 191.165L316.452 188.756L340.999 214.694L365.751 197.573V258.266L299.643 220.641V191.165Z" fill="url(#paint8_linear_1817_23830)"/>
<path d="M303.588 176.195C303.588 174.196 302.205 171.838 300.513 170.864C299.693 170.402 298.925 170.351 298.361 170.659L297.49 171.171C296.926 171.479 296.567 172.197 296.567 173.222C296.567 173.991 296.772 174.811 297.131 175.58C297.695 176.81 298.617 177.938 299.642 178.553C300.462 179.014 301.231 179.066 301.795 178.758L302.666 178.245C303.229 177.887 303.588 177.169 303.588 176.195Z" fill="#FF9E6E"/>
<path d="M297.49 171.172C298.054 170.865 298.822 170.916 299.642 171.377C301.333 172.351 302.717 174.709 302.717 176.709C302.717 177.734 302.358 178.4 301.795 178.759C301.231 179.067 300.462 179.015 299.642 178.554C297.951 177.58 296.567 175.222 296.567 173.223C296.567 172.198 296.926 171.48 297.49 171.172Z" fill="url(#paint9_linear_1817_23830)"/>
<path d="M319.014 173.787C319.014 171.788 317.63 169.43 315.939 168.456C315.119 167.994 314.351 167.943 313.787 168.251L312.916 168.763C312.352 169.071 311.993 169.788 311.993 170.814C311.993 171.583 312.198 172.403 312.557 173.172C313.121 174.402 314.043 175.53 315.068 176.145C315.888 176.606 316.657 176.657 317.22 176.35L318.092 175.837C318.707 175.478 319.014 174.761 319.014 173.787Z" fill="#FF9E6E"/>
<path d="M312.916 168.764C313.479 168.457 314.248 168.508 315.068 168.969C316.759 169.943 318.143 172.301 318.143 174.3C318.143 175.326 317.784 175.992 317.22 176.351C316.657 176.658 315.888 176.607 315.068 176.146C313.377 175.172 311.993 172.814 311.993 170.815C311.993 169.789 312.352 169.072 312.916 168.764Z" fill="url(#paint10_linear_1817_23830)"/>
<path d="M344.689 198.904C344.689 196.905 343.305 194.547 341.614 193.573C340.794 193.111 340.025 193.06 339.462 193.368L338.59 193.88C338.027 194.188 337.668 194.906 337.668 195.931C337.668 196.7 337.873 197.52 338.232 198.289C338.795 199.519 339.718 200.647 340.743 201.262C341.563 201.723 342.331 201.775 342.895 201.467L343.766 200.954C344.381 200.647 344.689 199.929 344.689 198.904Z" fill="#FF9E6E"/>
<path d="M338.59 193.881C339.154 193.574 339.923 193.625 340.743 194.086C342.434 195.06 343.818 197.418 343.818 199.418C343.818 200.443 343.459 201.109 342.895 201.468C342.331 201.776 341.563 201.724 340.743 201.263C339.052 200.289 337.668 197.931 337.668 195.932C337.668 194.907 338.027 194.24 338.59 193.881Z" fill="url(#paint11_linear_1817_23830)"/>
<path d="M369.697 181.734C369.697 179.735 368.313 177.377 366.622 176.403C365.802 175.941 365.033 175.89 364.469 176.198L363.598 176.71C363.035 177.018 362.676 177.736 362.676 178.761C362.676 179.53 362.881 180.35 363.239 181.119C363.803 182.349 364.726 183.477 365.751 184.092C366.571 184.553 367.339 184.605 367.903 184.297L368.774 183.784C369.338 183.477 369.697 182.759 369.697 181.734Z" fill="#FF9E6E"/>
<path d="M363.598 176.711C364.162 176.404 364.931 176.455 365.751 176.916C367.442 177.89 368.825 180.248 368.825 182.248C368.825 183.273 368.467 183.939 367.903 184.298C367.339 184.606 366.571 184.554 365.751 184.093C364.059 183.119 362.676 180.761 362.676 178.762C362.676 177.788 362.983 177.07 363.598 176.711Z" fill="url(#paint12_linear_1817_23830)"/>
<path d="M392.655 131.599C394.192 132.471 395.217 134.726 394.961 136.623C393.27 148.772 391.527 160.972 389.836 173.121L386.607 174.352C388.299 162.203 390.041 150.002 391.732 137.853C391.988 135.957 390.963 133.701 389.426 132.83C381.483 128.267 373.591 123.654 365.647 119.092L368.876 117.861C376.768 122.424 384.711 126.986 392.655 131.599Z" fill="url(#paint13_linear_1817_23830)"/>
<path d="M350.632 99.2031C351.094 99.0493 351.657 99.1006 352.221 99.4082C354.681 100.843 357.141 102.279 359.601 103.663C360.626 104.227 361.548 105.201 362.214 106.431C364.418 110.224 366.673 114.069 368.876 117.862L365.648 119.093C363.444 115.299 361.189 111.455 358.986 107.661C358.268 106.431 357.346 105.508 356.372 104.893C353.912 103.458 351.452 102.022 348.992 100.638C348.429 100.331 347.916 100.28 347.455 100.433C348.48 99.972 349.556 99.6132 350.632 99.2031Z" fill="url(#paint14_linear_1817_23830)"/>
<path d="M389.427 132.778C390.964 133.65 391.989 135.905 391.733 137.802C390.041 149.951 388.299 162.151 386.608 174.3C386.608 162.92 386.608 151.591 386.608 140.211C386.608 138.468 385.378 136.315 383.841 135.392C370.824 127.857 357.756 120.322 344.739 112.837C344.995 110.992 346.02 103.867 346.225 102.124C346.328 101.201 346.789 100.586 347.404 100.381C347.865 100.227 348.378 100.278 348.942 100.586C351.401 102.021 353.861 103.457 356.321 104.841C357.346 105.404 358.268 106.378 358.935 107.609C361.138 111.402 363.342 115.247 365.597 119.04C373.54 123.654 381.483 128.216 389.427 132.778Z" fill="url(#paint15_linear_1817_23830)"/>
<path d="M348.225 93.2051L383.226 113.453V167.996L348.225 147.747V93.2051Z" fill="url(#paint16_linear_1817_23830)"/>
<path d="M383.277 142.159C383.277 153.539 383.277 164.867 383.277 176.247L336.591 149.284C336.591 137.904 336.591 126.575 336.591 115.195C336.591 114.324 336.898 113.708 337.411 113.401C337.411 113.401 337.411 113.401 337.462 113.401C337.974 113.144 338.641 113.196 339.409 113.606C353.144 121.551 366.878 129.446 380.561 137.391C382.047 138.263 383.277 140.364 383.277 142.159Z" fill="url(#paint17_linear_1817_23830)"/>
<path d="M386.557 174.352L383.277 176.248C383.277 164.868 383.277 153.539 383.277 142.159C383.277 140.416 382.047 138.263 380.51 137.341C366.776 129.395 353.041 121.501 339.359 113.555C338.59 113.145 337.924 113.094 337.411 113.35C338.487 112.735 340.64 111.505 340.64 111.454C341.152 111.146 341.818 111.197 342.587 111.659C343.305 112.069 370.722 127.909 383.738 135.444C385.276 136.315 386.506 138.468 386.506 140.263C386.557 151.591 386.557 162.971 386.557 174.352Z" fill="url(#paint18_linear_1817_23830)"/>
<g class="shield">
    <path d="M91.4089 264.204C116.648 249.54 127.574 212.531 127.267 170.091L135.885 165.125C136.193 207.565 125.189 244.575 100.027 259.239L91.4089 264.204Z" fill="url(#paint19_linear_1817_23830)"/>
    <path d="M127.343 170.09C100.335 153.486 86.176 129.434 64.323 105.149L72.941 100.184C94.871 124.468 109.03 148.521 135.961 165.124L127.343 170.09Z" fill="url(#paint20_linear_1817_23830)"/>
    <path d="M64.246 105.147C41.931 102.586 27.2341 109.104 0.225586 92.9656L8.84368 88C35.852 104.138 50.549 97.6209 72.864 100.181L64.246 105.147Z" fill="url(#paint21_linear_1817_23830)"/>
    <path d="M61.168 270.875C15.2309 217.417 -2.23611 147.821 0.226192 92.9668C27.2347 109.105 41.932 102.588 64.246 105.148C86.176 129.433 100.335 153.485 127.266 170.089C127.728 226.728 108.029 273.746 61.168 270.875Z" fill="url(#paint22_linear_1817_23830)"/>
    <path d="M14.7695 117.328C30.0051 123.535 41.701 123.535 53.166 123.535C56.706 123.535 60.245 123.535 63.939 123.69C67.555 127.958 71.095 132.303 74.481 136.492C85.638 150.225 97.103 164.346 112.185 176.527C111.646 184.209 110.723 191.424 109.338 198.252C107.029 209.657 103.49 219.511 98.796 227.502C93.948 235.804 88.023 242.089 80.944 246.123C80.944 246.123 80.867 246.123 80.867 246.201C75.096 249.537 68.556 251.399 61.4 251.865C54.397 242.865 48.088 233.244 42.625 223.002C35.853 210.588 30.236 197.166 25.85 183.2C21.6178 169.777 18.5399 155.967 16.6163 142.001C15.6159 133.699 14.9234 125.397 14.7695 117.328Z" fill="url(#paint23_linear_1817_23830)"/>
</g>
<path d="M175.469 62.1429C175.469 59.5286 174.546 56.658 173.112 54.1461C171.625 51.5831 169.627 49.3788 167.372 48.046L142.005 33.3852C139.75 32.1037 137.751 31.9499 136.265 32.8214L134.01 34.1542C132.524 35.0256 131.602 36.8198 131.602 39.4341V91.157C131.602 93.1561 132.165 95.3604 133.088 97.4109C133.344 98.026 133.651 98.5899 134.01 99.1537C135.496 101.717 137.495 103.921 139.75 105.254L165.117 119.915C167.372 121.196 169.37 121.35 170.857 120.479L173.06 119.197C174.546 118.326 175.469 116.531 175.469 113.917V62.1429Z" fill="#1599DD"/>
<path d="M134.01 34.1553C135.496 33.2839 137.495 33.4377 139.75 34.7192L165.117 49.38C167.372 50.6615 169.422 52.9171 170.857 55.4801C172.343 58.0432 173.214 60.9138 173.214 63.4769V115.149C173.214 117.763 172.292 119.557 170.805 120.428C169.319 121.3 167.321 121.146 165.066 119.865L139.699 105.204C137.444 103.922 135.394 101.667 133.959 99.1037C132.473 96.5406 131.602 93.67 131.602 91.1069V39.4353C131.602 36.8209 132.524 34.9755 134.01 34.1553Z" fill="#105383"/>
<path d="M136.419 65.9351C136.777 65.7301 137.187 65.7813 137.649 66.0376L167.218 83.1077C167.782 83.4153 168.243 84.0304 168.602 84.6968C168.96 85.4145 169.165 86.1834 169.165 86.9523C169.165 87.8238 168.909 88.3877 168.448 88.644C168.089 88.849 167.679 88.7978 167.218 88.5414L137.649 71.4714C137.085 71.1638 136.624 70.5487 136.265 69.8823C135.906 69.1646 135.701 68.3957 135.701 67.6267C135.701 66.7553 135.957 66.1402 136.419 65.9351Z" fill="#366F97"/>
<path d="M136.419 41.9449C136.777 41.7398 137.187 41.7911 137.649 42.0474L167.218 59.1175C167.782 59.4251 168.243 60.0402 168.602 60.7066C168.96 61.4243 169.165 62.1932 169.165 62.9621C169.165 63.8335 168.909 76.5464 168.448 76.8027C168.089 77.0078 167.679 76.9565 167.218 76.7002L137.649 59.6301C137.085 59.3225 136.624 58.7074 136.265 58.041C135.906 57.3233 135.701 44.4054 135.701 43.6365C135.701 42.7651 135.957 42.2012 136.419 41.9449Z" fill="#1599DD"/>
<path d="M135.702 77.0582C136.061 76.8531 136.471 76.9044 136.932 77.1607L166.501 94.2308C167.065 94.5383 167.526 95.1535 167.885 95.8199C168.244 96.5375 168.449 97.3065 168.449 98.0754C168.449 98.9468 168.192 99.5107 167.731 99.767C167.372 99.9721 166.962 99.9208 166.501 99.6645L136.932 82.5944C136.368 82.2868 135.907 81.6717 135.548 81.0053C135.189 80.2876 134.984 79.5187 134.984 78.7498C135.036 77.9296 135.292 77.3145 135.702 77.0582Z" fill="#366F97"/>
<path d="M166.143 106.944C166.143 106.227 165.887 105.458 165.477 104.74C165.067 104.022 164.503 103.407 163.888 103.048L142.262 90.5405C141.647 90.1817 141.083 90.1304 140.673 90.3868L139.341 91.1557C138.931 91.412 138.675 91.8733 138.675 92.591C138.675 93.1549 138.829 93.77 139.085 94.3339C139.136 94.4877 139.239 94.6415 139.341 94.7952C139.751 95.5129 140.315 96.128 140.93 96.4869L162.607 108.995C163.222 109.354 163.786 109.405 164.196 109.148L165.528 108.38C165.887 108.175 166.143 107.662 166.143 106.944Z" fill="#1599DD"/>
<path d="M139.341 91.1563C139.751 90.9 140.315 90.9512 140.93 91.3101L162.607 103.818C163.222 104.177 163.786 104.792 164.196 105.51C164.606 106.227 164.862 106.996 164.862 107.714C164.862 108.431 164.606 108.944 164.196 109.149C163.786 109.405 163.222 109.354 162.607 108.995L140.93 96.4875C140.315 96.1287 139.751 95.5135 139.341 94.7959C138.931 94.0782 138.675 93.3093 138.675 92.5916C138.675 91.8739 138.931 91.3613 139.341 91.1563Z" fill="url(#paint24_linear_1817_23830)"/>
<path d="M150.256 54.9669L150.666 54.7618L149.487 53.9929L149.026 52.4551L148.667 52.7114L148.36 53.3778L147.437 52.9164L147.027 53.1215L147.95 54.5055L147.642 55.6333L148.667 55.5308L149.641 56.8123L150.051 56.6073L149.743 55.1719L150.256 54.9669Z" fill="#ED6C5A"/>
<path d="M147.027 53.121L148.206 53.6849L148.668 52.7109L149.078 54.1975L150.257 54.9664L149.385 55.3253L149.642 56.8119L148.668 55.5303L147.642 55.6328L147.95 54.5051L147.027 53.121Z" fill="url(#paint25_linear_1817_23830)"/>
<path d="M154.356 57.3243L154.714 57.1193L153.587 56.3503L153.126 54.8125L152.767 55.0688L152.459 55.7352L151.486 55.2739L151.127 55.4789L152.049 56.863L151.742 57.9907L152.767 57.8882L153.741 59.1697L154.099 58.9647L153.843 57.5294L154.356 57.3243Z" fill="#ED6C5A"/>
<path d="M151.127 55.4785L152.306 56.0423L152.767 55.0684L153.177 56.5549L154.356 57.3239L153.485 57.6827L153.741 59.1693L152.767 57.8877L151.742 57.9903L152.05 56.8625L151.127 55.4785Z" fill="url(#paint26_linear_1817_23830)"/>
<path d="M158.454 59.6817L158.813 59.4767L157.634 58.7078L157.224 57.1699L156.814 57.4262L156.558 58.0926L155.584 57.6313L155.226 57.8363L156.097 59.2204L155.841 60.3994L156.814 60.2456L157.839 61.5272L158.198 61.3221L157.942 59.8868L158.454 59.6817Z" fill="#ED6C5A"/>
<path d="M155.226 57.8359L156.405 58.3998L156.815 57.4258L157.276 58.9124L158.455 59.6813L157.532 60.0401L157.84 61.5267L156.815 60.2452L155.841 60.399L156.097 59.2199L155.226 57.8359Z" fill="url(#paint27_linear_1817_23830)"/>
<path d="M162.556 62.0426L162.914 61.8375L161.736 61.0686L161.275 59.582L160.916 59.7871L160.608 60.4535L159.686 59.9921L159.327 60.1972L160.198 61.5812L159.942 62.7602L160.916 62.6065L161.941 63.888L162.299 63.683L162.043 62.2476L162.556 62.0426Z" fill="#ED6C5A"/>
<path d="M159.327 60.1972L160.455 60.7611L160.916 59.7871L161.378 61.2737L162.557 62.0426L161.634 62.4014L161.941 63.888L160.916 62.6065L159.942 62.7603L160.199 61.5813L159.327 60.1972Z" fill="url(#paint28_linear_1817_23830)"/>
<path d="M166.604 64.4L167.014 64.195L165.835 63.426L165.374 61.9395L165.015 62.1445L164.707 62.8109L163.785 62.3495L163.375 62.5546L164.297 63.9387L164.041 65.1177L165.015 64.9639L165.989 66.2454L166.399 66.0404L166.142 64.6051L166.604 64.4Z" fill="#ED6C5A"/>
<path d="M163.375 62.5546L164.554 63.1185L165.015 62.1445L165.477 63.6311L166.604 64.4L165.733 64.7589L165.989 66.2455L165.015 64.9639L164.041 65.1177L164.298 63.9387L163.375 62.5546Z" fill="url(#paint29_linear_1817_23830)"/>
<path d="M148.973 59.63C149.127 59.5275 149.332 59.5275 149.537 59.6813L164.911 68.5496C165.167 68.7033 165.372 68.9596 165.526 69.2672C165.68 69.5748 165.782 69.9336 165.782 70.2924C165.782 70.7025 165.68 70.9588 165.475 71.0614C165.321 71.1639 165.116 71.1639 164.911 71.0101L149.537 62.1419C149.281 61.9881 149.076 61.7318 148.922 61.4242C148.769 61.1166 148.666 60.7578 148.666 60.399C148.666 59.9889 148.769 59.7326 148.973 59.63Z" fill="#4FB2E5"/>
<path d="M140.621 48.7616C140.98 48.5565 141.543 48.5565 142.107 48.9154C142.671 49.2742 143.234 49.8381 143.593 50.5045C143.952 51.1709 144.208 51.8885 144.208 52.6062C144.208 53.2726 143.952 53.734 143.593 53.9903C143.234 54.1953 142.671 54.1953 142.107 53.8365C141.543 53.4776 140.98 52.9138 140.621 52.2474C140.262 51.581 140.006 50.8633 140.006 50.1456C140.006 49.4792 140.262 49.0179 140.621 48.7616Z" fill="#4FB2E5"/>
<path d="M138.213 52.9139C138.571 52.7089 139.084 52.7089 139.648 53.0677L144.772 56.0409C145.336 56.3485 145.848 56.9123 146.207 57.5787C146.566 58.1939 146.822 58.9115 146.822 59.5779V60.9107L137.598 55.5283V54.1955C137.598 53.5803 137.854 53.119 138.213 52.9139Z" fill="#4FB2E5"/>
<path d="M224.411 90.4359C224.411 87.8216 223.489 84.9509 222.054 82.4391C220.568 79.876 218.569 77.6718 216.314 76.339L190.896 61.6782C188.641 60.3967 186.642 60.2429 185.156 61.1143L182.953 62.3959C181.466 63.2673 180.544 65.0615 180.544 67.6758V119.399C180.544 121.398 181.108 123.602 182.03 125.653C182.286 126.268 182.594 126.832 182.953 127.395C184.439 129.959 186.437 132.163 188.692 133.496L214.059 148.156C216.314 149.438 218.313 149.592 219.799 148.72L222.003 147.439C223.489 146.567 224.411 144.773 224.411 142.159V90.4359Z" fill="#1599DD"/>
<path d="M182.953 62.3956C184.439 61.5241 186.437 61.6779 188.692 62.9594L214.059 77.6202C216.314 78.9018 218.364 81.1573 219.799 83.7204C221.285 86.2834 222.156 89.1541 222.156 91.7172V143.44C222.156 146.054 221.234 147.849 219.748 148.72C218.262 149.591 216.263 149.438 214.008 148.156L188.641 133.495C186.386 132.214 184.336 129.958 182.901 127.395C181.415 124.832 180.544 121.961 180.544 119.398V67.6755C180.544 65.0612 181.466 63.267 182.953 62.3956Z" fill="#105383"/>
<path d="M185.361 94.1773C185.72 93.9723 186.13 94.0235 186.591 94.2798L216.16 111.35C216.724 111.657 217.185 112.273 217.544 112.939C217.903 113.657 218.108 114.426 218.108 115.195C218.108 116.066 217.852 116.63 217.39 116.886C217.032 117.091 216.622 117.04 216.16 116.784L186.591 99.7648C186.027 99.4572 185.566 98.8421 185.207 98.1757C184.849 97.458 184.644 96.6891 184.644 95.9202C184.644 95.0487 184.9 94.4336 185.361 94.1773Z" fill="#366F97"/>
<path d="M185.361 70.1871C185.72 69.982 186.13 70.0333 186.591 70.2896L216.16 87.3597C216.724 87.6672 217.185 88.2824 217.544 88.9488C217.903 89.6664 218.108 90.4354 218.108 91.2043C218.108 92.0757 217.852 104.789 217.39 105.045C217.032 105.25 216.622 105.199 216.16 104.942L186.591 87.8723C186.027 87.5647 185.566 86.9496 185.207 86.2832C184.849 85.5655 184.644 72.6476 184.644 71.8787C184.644 71.0585 184.9 70.4434 185.361 70.1871Z" fill="#1599DD"/>
<path d="M184.695 105.302C185.054 105.097 185.464 105.149 185.925 105.405L215.494 122.475C216.058 122.782 216.519 123.398 216.878 124.064C217.237 124.782 217.442 125.551 217.442 126.32C217.442 127.191 217.186 127.755 216.724 128.011C216.366 128.216 215.956 128.165 215.494 127.909L185.925 110.839C185.361 110.531 184.9 109.916 184.541 109.249C184.183 108.532 183.978 107.763 183.978 106.994C183.978 106.174 184.234 105.559 184.695 105.302Z" fill="#366F97"/>
<path d="M215.084 135.186C215.084 134.469 214.828 133.7 214.418 132.982C214.008 132.265 213.444 131.649 212.829 131.291L191.152 118.783C190.537 118.424 189.973 118.373 189.563 118.629L188.231 119.398C187.821 119.654 187.564 120.116 187.564 120.833C187.564 121.397 187.718 122.012 187.974 122.576C188.026 122.73 188.128 122.884 188.231 123.037C188.641 123.755 189.204 124.37 189.819 124.729L211.497 137.237C212.112 137.596 212.675 137.647 213.085 137.391L214.418 136.622C214.828 136.417 215.084 135.904 215.084 135.186Z" fill="#1599DD"/>
<path d="M188.281 119.398C188.691 119.142 189.255 119.193 189.87 119.552L211.548 132.06C212.162 132.419 212.726 133.034 213.136 133.752C213.546 134.469 213.802 135.238 213.802 135.956C213.802 136.674 213.546 137.186 213.136 137.391C212.726 137.648 212.162 137.596 211.548 137.237L189.87 124.781C189.255 124.422 188.691 123.807 188.281 123.089C187.871 122.372 187.615 121.603 187.615 120.885C187.615 120.167 187.871 119.655 188.281 119.398Z" fill="url(#paint30_linear_1817_23830)"/>
<path d="M199.196 83.2599L199.606 83.0036L198.427 82.2346L197.966 80.748L197.607 80.9531L197.3 81.6195L196.377 81.1581L196.019 81.3632L196.89 82.7473L196.634 83.9263L197.607 83.7725L198.581 85.054L198.991 84.849L198.735 83.4649L199.196 83.2599Z" fill="#ED6C5A"/>
<path d="M196.019 81.3632L197.146 81.9271L197.608 80.9531L198.069 82.4397L199.197 83.2599L198.325 83.6187L198.582 85.054L197.608 83.7725L196.634 83.9263L196.89 82.7473L196.019 81.3632Z" fill="url(#paint31_linear_1817_23830)"/>
<path d="M203.297 85.6173L203.707 85.361L202.528 84.592L202.067 83.1055L201.708 83.3105L201.401 83.9769L200.478 83.5156L200.068 83.7206L200.991 85.1047L200.683 86.2837L201.708 86.1299L202.682 87.4114L203.092 87.2064L202.784 85.8223L203.297 85.6173Z" fill="#ED6C5A"/>
<path d="M200.068 83.7206L201.247 84.3358L201.709 83.3105L202.119 84.8484L203.298 85.6173L202.426 85.9762L202.683 87.4115L201.709 86.1299L200.684 86.2837L200.991 85.1047L200.068 83.7206Z" fill="url(#paint32_linear_1817_23830)"/>
<path d="M207.396 87.9786L207.754 87.7736L206.627 86.9534L206.166 85.4668L205.807 85.6718L205.499 86.3382L204.526 85.8769L204.167 86.0819L205.089 87.5173L204.782 88.645L205.807 88.4912L206.781 89.7728L207.139 89.5677L206.883 88.1837L207.396 87.9786Z" fill="#ED6C5A"/>
<path d="M204.167 86.082L205.346 86.6971L205.807 85.6719L206.217 87.2097L207.396 87.9786L206.525 88.3375L206.781 89.7728L205.807 88.4913L204.782 88.645L205.09 87.5173L204.167 86.082Z" fill="url(#paint33_linear_1817_23830)"/>
<path d="M211.496 90.336L211.855 90.131L210.676 89.3108L210.266 87.8242L209.856 88.0293L209.6 88.6957L208.626 88.2343L208.268 88.4906L209.139 89.8747L208.883 91.0024L209.856 90.8999L210.881 92.1814L211.24 91.9251L210.984 90.5411L211.496 90.336Z" fill="#ED6C5A"/>
<path d="M208.268 88.4906L209.447 89.0545L209.857 88.0293L210.318 89.5671L211.497 90.3361L210.574 90.6949L210.882 92.1815L209.857 90.8999L208.883 91.0025L209.139 89.8747L208.268 88.4906Z" fill="url(#paint34_linear_1817_23830)"/>
<path d="M215.595 92.6915L215.953 92.4865L214.775 91.7175L214.314 90.1797L213.955 90.3847L213.647 91.0511L212.725 90.5898L212.366 90.8461L213.237 92.2301L212.981 93.3579L213.955 93.2554L214.98 94.5369L215.339 94.2806L215.082 92.8965L215.595 92.6915Z" fill="#ED6C5A"/>
<path d="M212.366 90.8461L213.494 91.41L213.955 90.3848L214.417 91.9226L215.596 92.6915L214.673 93.0504L214.981 94.537L213.955 93.2554L212.981 93.3579L213.238 92.2302L212.366 90.8461Z" fill="url(#paint35_linear_1817_23830)"/>
<path d="M197.916 87.8742C198.07 87.7717 198.275 87.7717 198.48 87.9254L213.854 96.7937C214.11 96.9475 214.315 97.2038 214.469 97.5114C214.622 97.8189 214.725 98.1778 214.725 98.5366C214.725 98.9467 214.622 99.203 214.417 99.3055C214.264 99.408 214.059 99.408 213.854 99.2542L198.48 90.386C198.223 90.2322 198.018 89.9759 197.865 89.6683C197.711 89.3608 197.608 89.0019 197.608 88.6431C197.608 88.2843 197.711 87.9767 197.916 87.8742Z" fill="#4FB2E5"/>
<path d="M189.613 77.0565C189.972 76.8515 190.535 76.8515 191.099 77.2103C191.663 77.5691 192.227 78.133 192.585 78.7994C192.944 79.4658 193.2 80.1835 193.2 80.9011C193.2 81.5675 192.944 82.0289 192.585 82.2852C192.227 82.4902 191.663 82.4902 191.099 82.1314C190.535 81.7726 189.972 81.2087 189.613 80.5423C189.254 79.8759 188.998 79.1582 188.998 78.4406C188.998 77.7229 189.203 77.2616 189.613 77.0565Z" fill="#4FB2E5"/>
<path d="M187.154 81.1581C187.512 80.953 188.025 80.953 188.588 81.3119L193.713 84.285C194.277 84.5926 194.789 85.1565 195.148 85.8229C195.507 86.438 195.763 87.1557 195.763 87.8221V89.1549L186.59 83.8749V82.5421C186.59 81.8245 186.795 81.3631 187.154 81.1581Z" fill="#4FB2E5"/>
<path d="M273.349 118.686C273.349 116.072 272.427 113.201 270.992 110.689C269.506 108.126 267.507 105.922 265.252 104.589L239.885 89.9282C237.63 88.6467 235.632 88.4929 234.145 89.3643L231.942 90.6459C230.456 91.5173 229.533 93.3115 229.533 95.9258V147.649C229.533 149.648 230.097 151.852 231.019 153.903C231.276 154.518 231.583 155.082 231.942 155.645C233.428 158.209 235.427 160.413 237.681 161.746L263.049 176.406C265.304 177.688 267.302 177.842 268.788 176.97L270.992 175.689C272.478 174.817 273.401 173.023 273.401 170.409V118.686H273.349Z" fill="#1599DD"/>
<path d="M231.891 90.6983C233.377 89.8269 235.376 89.9806 237.631 91.2622L262.998 105.923C265.253 107.205 267.303 109.46 268.738 112.023C270.224 114.586 271.095 117.457 271.095 120.02V171.743C271.095 174.357 270.172 176.151 268.686 177.023C267.2 177.894 265.201 177.74 262.947 176.459L237.579 161.798C235.325 160.516 233.275 158.261 231.84 155.698C230.354 153.135 229.482 150.264 229.482 147.701V95.9782C229.534 93.3639 230.405 91.5185 231.891 90.6983Z" fill="#105383"/>
<path d="M234.3 122.478C234.659 122.273 235.069 122.324 235.53 122.581L265.1 139.651C265.664 139.958 266.125 140.573 266.484 141.24C266.842 141.957 267.047 142.726 267.047 143.495C267.047 144.367 266.791 144.931 266.33 145.187C265.971 145.392 265.561 145.341 265.1 145.084L235.53 128.014C234.967 127.707 234.505 127.092 234.147 126.425C233.788 125.708 233.583 124.939 233.583 124.17C233.583 123.298 233.891 122.683 234.3 122.478Z" fill="#366F97"/>
<path d="M234.3 98.4879C234.659 98.2828 235.069 98.3341 235.53 98.5904L265.1 115.66C265.664 115.968 266.125 116.583 266.484 117.25C266.842 117.967 267.047 118.736 267.047 119.505C267.047 120.377 266.791 133.089 266.33 133.346C265.971 133.551 265.561 133.499 265.1 133.243L235.53 116.173C234.967 115.866 234.505 115.25 234.147 114.584C233.788 113.866 233.583 100.948 233.583 100.179C233.583 99.308 233.891 98.6929 234.3 98.4879Z" fill="#1599DD"/>
<path d="M233.633 133.601C233.992 133.396 234.402 133.447 234.863 133.704L264.433 150.774C264.997 151.081 265.458 151.696 265.817 152.363C266.175 153.081 266.38 153.849 266.38 154.618C266.38 155.49 266.124 156.054 265.663 156.31C265.304 156.515 264.894 156.464 264.433 156.207L234.863 139.137C234.3 138.83 233.838 138.215 233.48 137.548C233.121 136.831 232.916 136.062 232.916 135.293C232.916 134.473 233.172 133.857 233.633 133.601Z" fill="#366F97"/>
<path d="M264.022 163.487C264.022 162.77 263.766 162.001 263.356 161.283C262.946 160.565 262.383 159.95 261.768 159.591L240.09 147.084C239.475 146.725 238.912 146.673 238.502 146.93L237.169 147.699C236.759 147.955 236.503 148.416 236.503 149.134C236.503 149.698 236.657 150.313 236.913 150.877C236.964 151.031 237.067 151.184 237.169 151.338C237.579 152.056 238.143 152.671 238.758 153.03L260.435 165.538C261.05 165.896 261.614 165.948 262.024 165.691L263.356 164.923C263.818 164.717 264.022 164.205 264.022 163.487Z" fill="#1599DD"/>
<path d="M237.22 147.699C237.63 147.443 238.194 147.494 238.809 147.853L260.486 160.361C261.101 160.72 261.665 161.335 262.075 162.052C262.485 162.77 262.741 163.539 262.741 164.257C262.741 164.974 262.485 165.487 262.075 165.692C261.665 165.948 261.101 165.897 260.486 165.538L238.809 153.03C238.194 152.672 237.63 152.056 237.22 151.339C236.81 150.621 236.554 149.852 236.554 149.135C236.554 148.417 236.81 147.904 237.22 147.699Z" fill="url(#paint36_linear_1817_23830)"/>
<path d="M248.188 111.51L248.546 111.305L247.368 110.536L246.958 108.998L246.548 109.254L246.24 109.921L245.318 109.459L244.959 109.664L245.83 111.049L245.574 112.176L246.548 112.074L247.573 113.355L247.931 113.15L247.675 111.715L248.188 111.51Z" fill="#ED6C5A"/>
<path d="M244.959 109.664L246.138 110.228L246.548 109.254L247.009 110.74L248.188 111.509L247.266 111.868L247.573 113.355L246.548 112.073L245.574 112.176L245.83 111.048L244.959 109.664Z" fill="url(#paint37_linear_1817_23830)"/>
<path d="M252.236 113.867L252.646 113.662L251.467 112.893L251.006 111.355L250.647 111.612L250.34 112.278L249.417 111.817L249.059 112.022L249.93 113.406L249.674 114.534L250.647 114.431L251.621 115.713L252.031 115.508L251.775 114.072L252.236 113.867Z" fill="#ED6C5A"/>
<path d="M249.059 112.021L250.186 112.585L250.648 111.611L251.109 113.098L252.237 113.867L251.365 114.226L251.622 115.712L250.648 114.431L249.674 114.533L249.93 113.405L249.059 112.021Z" fill="url(#paint38_linear_1817_23830)"/>
<path d="M256.336 116.225L256.746 116.02L255.567 115.251L255.106 113.713L254.747 113.969L254.44 114.636L253.517 114.174L253.107 114.379L254.03 115.763L253.722 116.942L254.747 116.789L255.721 118.07L256.131 117.865L255.824 116.43L256.336 116.225Z" fill="#ED6C5A"/>
<path d="M253.107 114.379L254.286 114.943L254.748 113.969L255.158 115.455L256.337 116.224L255.465 116.583L255.722 118.07L254.748 116.788L253.723 116.942L254.03 115.763L253.107 114.379Z" fill="url(#paint39_linear_1817_23830)"/>
<path d="M260.436 118.584L260.794 118.379L259.667 117.61L259.206 116.123L258.847 116.328L258.539 116.994L257.566 116.533L257.207 116.738L258.129 118.122L257.822 119.301L258.847 119.147L259.821 120.429L260.179 120.224L259.923 118.789L260.436 118.584Z" fill="#ED6C5A"/>
<path d="M257.207 116.738L258.386 117.302L258.847 116.328L259.257 117.815L260.437 118.584L259.565 118.942L259.821 120.429L258.847 119.148L257.822 119.301L258.13 118.122L257.207 116.738Z" fill="url(#paint40_linear_1817_23830)"/>
<path d="M264.535 120.939L264.894 120.734L263.715 119.965L263.305 118.479L262.895 118.684L262.639 119.35L261.665 118.889L261.307 119.094L262.178 120.478L261.922 121.657L262.895 121.503L263.92 122.784L264.279 122.579L264.023 121.144L264.535 120.939Z" fill="#ED6C5A"/>
<path d="M261.307 119.094L262.486 119.658L262.896 118.684L263.357 120.17L264.536 120.939L263.613 121.298L263.921 122.785L262.896 121.503L261.922 121.657L262.178 120.478L261.307 119.094Z" fill="url(#paint41_linear_1817_23830)"/>
<path d="M246.907 116.171C247.061 116.069 247.266 116.069 247.471 116.222L262.845 125.091C263.101 125.244 263.306 125.501 263.46 125.808C263.614 126.116 263.716 126.475 263.716 126.833C263.716 127.244 263.614 127.5 263.409 127.602C263.255 127.705 263.05 127.705 262.845 127.551L247.471 118.683C247.215 118.529 247.01 118.273 246.856 117.965C246.702 117.658 246.6 117.299 246.6 116.94C246.549 116.53 246.702 116.274 246.907 116.171Z" fill="#4FB2E5"/>
<path d="M238.554 105.303C238.913 105.098 239.477 105.098 240.041 105.456C240.604 105.815 241.168 106.379 241.527 107.045C241.885 107.712 242.142 108.43 242.142 109.147C242.142 109.814 241.885 110.275 241.527 110.531C241.168 110.736 240.604 110.736 240.041 110.377C239.477 110.019 238.913 109.455 238.554 108.788C238.196 108.122 237.939 107.404 237.939 106.687C237.939 106.02 238.144 105.559 238.554 105.303Z" fill="#4FB2E5"/>
<path d="M236.095 109.455C236.454 109.25 236.966 109.25 237.53 109.609L242.655 112.582C243.218 112.889 243.731 113.453 244.089 114.12C244.448 114.735 244.704 115.453 244.704 116.119V117.452L235.531 112.069V110.736C235.531 110.121 235.736 109.66 236.095 109.455Z" fill="#4FB2E5"/>
<path d="M256.286 246.887V197.727L252.648 195.625L251.315 196.394V245.554L254.954 247.655L256.286 246.887Z" fill="#0C4263"/>
<path d="M251.315 196.395L254.954 198.496V247.656L251.315 245.554V196.395Z" fill="#366F97"/>
<path d="M249.059 242.736V196.344L245.42 194.242L244.088 195.011V241.403L247.726 243.505L249.059 242.736Z" fill="#0C4263"/>
<path d="M244.088 195.012L247.726 197.113V243.505L244.088 241.403V195.012Z" fill="#366F97"/>
<path d="M241.834 238.532V196.395L238.196 194.293L236.863 195.062V237.199L240.502 239.301L241.834 238.532Z" fill="#0C4263"/>
<path d="M236.863 195.062L240.502 197.165V239.301L236.863 237.201V195.062Z" fill="#366F97"/>
<path d="M234.61 234.38V200.342L230.971 198.24L229.639 199.009V233.047L233.277 235.149L234.61 234.38Z" fill="#0C4263"/>
<path d="M229.639 199.01L233.277 201.111V235.149L229.639 233.047V199.01Z" fill="#366F97"/>
<path d="M227.383 230.177V192.09L223.745 189.988L222.412 190.757V228.844L226.051 230.946L227.383 230.177Z" fill="#0C4263"/>
<path d="M222.412 190.758L226.051 192.86V230.947L222.412 228.845V190.758Z" fill="#366F97"/>
<path d="M220.105 226.024V192.242L216.467 190.141L215.186 190.91V224.691L218.773 226.793L220.105 226.024Z" fill="#0C4263"/>
<path d="M215.186 190.91L218.773 193.012V226.793L215.186 224.692V190.91Z" fill="#366F97"/>
<path d="M212.88 221.819V189.268L209.242 187.166L207.909 187.935V220.486L211.548 222.588L212.88 221.819Z" fill="#0C4263"/>
<path d="M207.909 187.936L211.548 190.037V222.588L207.909 220.487V187.936Z" fill="#366F97"/>
<path d="M205.654 217.669V189.014L202.015 186.912L200.683 187.681V216.336L204.321 218.438L205.654 217.669Z" fill="#0C4263"/>
<path d="M200.683 187.682L204.321 189.783V218.439L200.683 216.337V187.682Z" fill="#366F97"/>
<path d="M198.429 213.515V187.936L194.79 185.834L193.458 186.603V212.182L197.097 214.284L198.429 213.515Z" fill="#0C4263"/>
<path d="M193.458 186.604L197.097 188.705V214.285L193.458 212.183V186.604Z" fill="#366F97"/>
<path d="M191.202 209.311V190.959L187.564 188.857L186.231 189.626V207.978L189.87 210.08L191.202 209.311Z" fill="#0C4263"/>
<path d="M186.231 189.627L189.87 191.729V210.08L186.231 207.979V189.627Z" fill="#366F97"/>
<path d="M293.901 291.074C294.721 292.92 295.029 294.867 294.568 296.303C294.414 296.713 294.26 297.072 294.004 297.379C293.85 297.379 293.748 297.431 293.594 297.431C292.466 297.482 291.185 296.867 289.955 295.688C288.725 294.56 287.752 293.022 287.188 291.33C286.573 289.69 286.471 288.101 286.829 286.922C286.983 286.512 287.137 286.153 287.393 285.845C287.547 285.845 287.649 285.794 287.803 285.794C288.93 285.743 290.212 286.358 291.442 287.537C292.518 288.562 293.338 289.793 293.901 291.074ZM303.382 292.868L301.998 288.972C301.742 288.819 301.332 288.665 300.973 288.511C300.922 288.511 300.871 288.46 300.82 288.46C300.256 288.255 299.692 288.05 299.282 288.101C299.18 288.101 299.077 288.101 299.026 288.152C299.026 288.152 298.975 288.152 298.975 288.203H298.924L296.31 284.154C296.31 284.103 296.361 284.103 296.412 284.051C296.771 283.539 296.72 281.796 296.566 280.668L293.696 277.951L292.364 278.72C292.005 278.976 291.544 279.386 291.237 279.797L288.777 278.618C288.777 278.566 288.725 278.464 288.725 278.413C288.572 277.541 287.496 275.696 286.727 274.619L284.062 274.67L282.73 275.439C282.781 276.516 282.986 278.259 283.396 279.13C283.396 279.181 283.447 279.233 283.447 279.233C283.498 279.284 283.498 279.386 283.549 279.438L282.576 280.258C282.525 280.155 282.422 280.104 282.32 280.002C282.32 280.002 282.32 280.002 282.268 279.95C281.551 279.284 280.372 278.618 279.552 278.259L278.22 279.028L277.349 281.847C277.964 282.821 278.937 284.256 279.655 284.923C279.655 284.923 279.655 284.923 279.706 284.974C279.808 285.076 279.911 285.128 279.962 285.179C280.013 285.23 280.065 285.23 280.116 285.282L280.372 288.819C280.321 288.819 280.27 288.87 280.218 288.87L278.886 289.639C278.527 289.844 278.22 290.1 277.964 290.305L279.347 294.201C280.065 294.611 281.346 295.124 282.012 295.124C282.115 295.124 282.217 295.124 282.268 295.072C282.32 295.072 282.371 295.021 282.371 295.021L284.984 299.071C284.933 299.122 284.933 299.122 284.882 299.173C284.831 299.225 284.831 299.276 284.779 299.378C284.523 300.045 284.574 301.531 284.728 302.557L287.598 305.274L288.93 304.505C289.289 304.248 289.75 303.838 290.058 303.428L292.518 304.607C292.518 304.658 292.569 304.761 292.569 304.812C292.62 305.068 292.723 305.376 292.876 305.684C293.081 306.145 293.389 306.709 293.696 307.221C293.748 307.273 293.748 307.324 293.799 307.375C294.055 307.837 294.363 308.247 294.568 308.606L297.232 308.554L298.565 307.785C298.514 306.658 298.309 304.812 297.847 303.941C297.796 303.889 297.796 303.787 297.745 303.736L298.719 302.916C298.77 303.018 298.872 303.121 298.975 303.172C299.692 303.838 300.871 304.505 301.691 304.812L303.023 304.043L303.894 301.224C303.28 300.25 302.306 298.815 301.64 298.148C301.537 298.046 301.435 297.943 301.332 297.892C301.281 297.841 301.23 297.841 301.178 297.789L300.922 294.252C300.973 294.252 301.025 294.201 301.076 294.201L302.408 293.432C302.87 293.381 303.177 293.125 303.382 292.868Z" fill="#1599DD"/>
<path d="M295.131 285.078L297.591 288.923H297.642C297.642 288.923 297.694 288.923 297.694 288.871C297.745 288.82 297.847 288.82 297.95 288.82C298.36 288.82 298.924 288.974 299.487 289.179C299.539 289.179 299.59 289.23 299.641 289.23C300 289.384 300.41 289.538 300.666 289.692L302.05 293.587C301.64 293.998 300.768 294.613 300.051 294.613C299.948 294.613 299.846 294.613 299.795 294.561C299.744 294.561 299.692 294.51 299.641 294.51L299.948 298.611C300 298.662 300.051 298.662 300.102 298.714C300.205 298.765 300.307 298.867 300.41 298.97C301.127 299.636 302.101 301.02 302.665 302.046L301.793 304.865C300.973 304.506 299.795 303.891 299.077 303.225C298.975 303.122 298.872 303.02 298.77 302.917C298.719 302.866 298.667 302.815 298.616 302.763L296.464 304.506C296.515 304.557 296.515 304.66 296.566 304.711C297.027 305.583 297.284 307.428 297.284 308.556L294.619 308.607C294.363 308.248 294.106 307.838 293.85 307.377C293.799 307.326 293.799 307.274 293.748 307.223C293.235 306.352 292.723 305.378 292.62 304.814C292.62 304.762 292.569 304.66 292.569 304.609L289.187 303.02C289.187 303.071 289.187 303.122 289.187 303.173C289.135 303.942 288.264 304.865 287.649 305.275L284.779 302.558C284.677 301.533 284.626 300.046 284.831 299.38C284.882 299.277 284.882 299.226 284.933 299.175C284.984 299.124 284.984 299.124 285.036 299.072L282.422 295.023C282.371 295.023 282.32 295.074 282.32 295.074C282.268 295.125 282.166 295.125 282.063 295.125C281.397 295.125 280.116 294.613 279.399 294.203L278.015 290.307C278.425 289.897 279.296 289.281 280.013 289.281C280.116 289.281 280.218 289.281 280.27 289.333C280.321 289.333 280.372 289.384 280.423 289.384L280.116 285.283C280.065 285.232 280.013 285.232 279.962 285.181C279.86 285.129 279.808 285.027 279.706 284.976C279.706 284.976 279.706 284.976 279.655 284.924C278.937 284.258 277.964 282.823 277.349 281.849L278.22 279.029C279.04 279.388 280.27 280.054 280.936 280.721C280.936 280.721 280.936 280.721 280.987 280.772C281.09 280.875 281.192 280.977 281.243 281.028C281.295 281.08 281.346 281.131 281.397 281.182L281.448 281.131L283.549 279.388C283.498 279.337 283.498 279.234 283.447 279.183C282.986 278.312 282.73 276.466 282.73 275.338L285.394 275.287C286.163 276.364 287.239 278.209 287.393 279.08C287.393 279.132 287.444 279.234 287.444 279.286L290.827 280.875C290.827 280.823 290.827 280.772 290.827 280.721C290.827 280.618 290.827 280.567 290.878 280.465C291.083 279.747 291.8 279.029 292.364 278.619L295.234 281.336C295.388 282.515 295.388 284.258 295.08 284.719C295.029 284.77 295.029 284.77 294.978 284.822L295.131 285.078ZM291.493 287.59C290.263 286.462 288.982 285.847 287.854 285.847C286.727 285.898 285.907 286.565 285.548 287.744C285.189 288.923 285.292 290.512 285.907 292.152C286.522 293.792 287.495 295.33 288.674 296.509C289.904 297.637 291.185 298.252 292.313 298.252C293.44 298.201 294.26 297.535 294.619 296.356C295.388 293.844 293.953 289.948 291.493 287.59Z" fill="url(#paint42_linear_1817_23830)"/>
<path d="M308.046 316.397C308.2 316.653 308.302 316.91 308.405 317.166C309.174 318.909 309.225 320.601 308.61 321.575C308.149 321.626 307.585 321.472 307.021 321.113C306.099 320.601 305.279 319.678 304.613 318.55C303.946 317.422 303.588 316.192 303.588 315.116C303.588 314.398 303.741 313.783 304.049 313.373C304.51 313.321 305.074 313.475 305.638 313.783C306.509 314.398 307.38 315.269 308.046 316.397ZM313.222 315.936C313.581 315.731 313.991 315.013 314.196 314.449L312.658 311.784C312.197 311.732 311.531 311.732 311.121 311.835C311.07 311.835 311.018 311.886 310.967 311.886L310.711 312.04L308.507 309.733C308.507 309.682 308.507 309.682 308.507 309.631C308.61 309.118 308.251 307.734 307.944 306.863L305.791 305.632L304.459 306.401C304.254 306.76 304.049 307.324 303.998 307.888L303.126 307.837C303.126 307.785 303.075 307.734 303.075 307.683C303.024 307.58 303.024 307.529 302.973 307.426C302.973 307.426 302.973 307.426 302.973 307.375C302.614 306.709 301.794 305.837 301.23 305.273L299.898 306.042L298.412 306.965C298.566 307.58 298.822 308.4 299.129 309.016C299.232 309.221 299.283 309.374 299.385 309.528C299.385 309.528 299.385 309.528 299.385 309.579C299.437 309.682 299.488 309.733 299.539 309.836C299.59 309.887 299.59 309.938 299.642 309.938L299.232 310.861C298.719 310.707 298.207 310.656 297.848 310.656L296.516 311.425V313.988C296.977 314.501 297.848 315.372 298.412 315.68C298.514 315.731 298.566 315.782 298.617 315.782C298.668 315.782 298.668 315.782 298.719 315.833L299.642 318.96L299.437 319.114C299.078 319.319 298.668 320.037 298.463 320.601L300 323.266C300.564 323.369 301.282 323.317 301.692 323.112L301.948 322.959L304.151 325.265V325.368C304.1 325.675 304.203 326.393 304.356 327.06C304.356 327.111 304.356 327.162 304.408 327.162C304.51 327.521 304.613 327.828 304.715 328.136L306.867 329.366L308.2 328.597C308.405 328.239 308.61 327.675 308.661 327.111L309.532 327.162C309.532 327.213 309.584 327.316 309.635 327.367C309.686 327.418 309.686 327.521 309.737 327.623C310.096 328.29 310.916 329.161 311.428 329.725L312.761 328.956L314.247 328.034C314.042 327.265 313.683 326.137 313.273 325.47C313.222 325.368 313.171 325.265 313.068 325.214C313.017 325.163 313.017 325.112 312.966 325.112L313.376 324.189C313.888 324.343 314.401 324.394 314.76 324.394L316.092 323.625V321.062C315.887 320.857 315.682 320.601 315.426 320.344C315.374 320.293 315.374 320.293 315.323 320.242C314.913 319.883 314.503 319.524 314.196 319.319C314.093 319.268 314.042 319.217 313.991 319.217L313.888 319.165L312.966 316.038L313.222 315.936Z" fill="#1599DD"/>
<path d="M311.684 316.961L312.607 319.985H312.658H312.709C312.76 319.985 312.863 320.036 312.914 320.088C313.222 320.241 313.632 320.6 314.042 321.01C314.093 321.062 314.093 321.062 314.144 321.113C314.4 321.369 314.657 321.626 314.81 321.831V324.394C314.349 324.394 313.478 324.291 312.914 323.984C312.812 323.932 312.76 323.881 312.709 323.83C312.658 323.778 312.658 323.779 312.607 323.727L311.684 325.829C311.735 325.88 311.735 325.931 311.787 325.931C311.838 325.983 311.889 326.085 311.992 326.188C312.35 326.854 312.76 327.982 312.965 328.751L311.479 329.674C310.916 329.11 310.147 328.238 309.788 327.572C309.737 327.469 309.686 327.367 309.634 327.316C309.634 327.264 309.583 327.213 309.583 327.162L307.379 327.008C307.379 327.059 307.379 327.11 307.431 327.162C307.533 327.777 307.226 328.802 306.918 329.366L304.766 328.136C304.663 327.828 304.561 327.521 304.458 327.162C304.458 327.11 304.458 327.059 304.407 327.059C304.253 326.393 304.1 325.675 304.202 325.368V325.316V325.265L301.947 322.907C301.947 322.958 301.896 322.958 301.896 323.01C301.64 323.368 300.717 323.368 300.051 323.266L298.514 320.6C298.719 320.036 299.078 319.319 299.487 319.114C299.539 319.062 299.59 319.062 299.641 319.062C299.692 319.062 299.692 319.062 299.744 319.062L298.77 315.884C298.719 315.884 298.719 315.884 298.668 315.833C298.616 315.833 298.514 315.782 298.463 315.73C297.899 315.423 297.028 314.551 296.566 314.039V311.476C297.028 311.476 297.899 311.578 298.463 311.886C298.565 311.937 298.616 311.988 298.668 312.04C298.719 312.091 298.719 312.091 298.77 312.142L299.692 310.04C299.641 309.989 299.641 309.938 299.59 309.938C299.539 309.887 299.487 309.784 299.436 309.682C299.436 309.682 299.436 309.682 299.436 309.63C299.077 308.964 298.668 307.836 298.463 307.067L299.949 306.145C300.512 306.708 301.281 307.58 301.691 308.246C301.691 308.246 301.691 308.246 301.691 308.298C301.742 308.4 301.794 308.451 301.794 308.554C301.794 308.605 301.845 308.656 301.845 308.708L304.048 308.861C304.048 308.81 304.048 308.759 304.048 308.708C303.946 308.092 304.253 307.067 304.561 306.503L306.713 307.734C307.021 308.605 307.379 309.989 307.277 310.502C307.277 310.553 307.277 310.553 307.277 310.604L309.532 312.962C309.532 312.911 309.583 312.911 309.583 312.86C309.634 312.809 309.634 312.809 309.686 312.757C310.044 312.501 310.864 312.501 311.428 312.604L312.965 315.269C312.76 315.884 312.299 316.756 311.889 316.807C311.838 316.807 311.838 316.807 311.787 316.807L311.684 316.961ZM308.046 316.397C307.379 315.269 306.56 314.346 305.637 313.834C304.715 313.321 303.895 313.27 303.228 313.629C302.614 314.039 302.255 314.859 302.255 315.935C302.255 317.012 302.614 318.242 303.28 319.37C303.946 320.498 304.766 321.42 305.688 321.933C306.611 322.446 307.431 322.497 308.097 322.138C309.378 321.267 309.378 318.704 308.046 316.397Z" fill="url(#paint43_linear_1817_23830)"/>
<defs>
<linearGradient id="paint0_linear_1817_23830" x1="182.018" y1="326.253" x2="269.323" y2="97.4089" gradientUnits="userSpaceOnUse">
<stop offset="0.0353535" stop-color="#105383"/>
<stop offset="0.2494" stop-color="#136290"/>
<stop offset="0.6619" stop-color="#1A8BB3"/>
<stop offset="1" stop-color="#20B0D3"/>
</linearGradient>
<linearGradient id="paint1_linear_1817_23830" x1="219.23" y1="275.14" x2="223.703" y2="267.687" gradientUnits="userSpaceOnUse">
<stop offset="0.00505051" stop-color="#20B0D3"/>
<stop offset="0.56" stop-color="#24D4C3"/>
<stop offset="1" stop-color="#27F3B5"/>
</linearGradient>
<linearGradient id="paint2_linear_1817_23830" x1="173.523" y1="244.701" x2="173.523" y2="273.116" gradientUnits="userSpaceOnUse">
<stop offset="0.0353535" stop-color="#4DF4FF"/>
<stop offset="0.3036" stop-color="#52E5FF"/>
<stop offset="0.821" stop-color="#5DBCFF"/>
<stop offset="1" stop-color="#62ADFF"/>
</linearGradient>
<linearGradient id="paint3_linear_1817_23830" x1="163.083" y1="158.044" x2="167.556" y2="150.591" gradientUnits="userSpaceOnUse">
<stop offset="0.00505051" stop-color="#20B0D3"/>
<stop offset="0.56" stop-color="#24D4C3"/>
<stop offset="1" stop-color="#27F3B5"/>
</linearGradient>
<linearGradient id="paint4_linear_1817_23830" x1="228.435" y1="58.3381" x2="222.85" y2="44.8766" gradientUnits="userSpaceOnUse">
<stop offset="0.00505051" stop-color="#20B0D3"/>
<stop offset="0.56" stop-color="#24D4C3"/>
<stop offset="1" stop-color="#27F3B5"/>
</linearGradient>
<linearGradient id="paint5_linear_1817_23830" x1="241.534" y1="65.7208" x2="232.558" y2="51.8617" gradientUnits="userSpaceOnUse">
<stop offset="0.00505051" stop-color="#20B0D3"/>
<stop offset="0.6065" stop-color="#20B0D3"/>
<stop offset="0.6854" stop-color="#24D4C3"/>
<stop offset="0.748" stop-color="#27F3B5"/>
</linearGradient>
<linearGradient id="paint6_linear_1817_23830" x1="237.468" y1="32.178" x2="231.913" y2="68.1948" gradientUnits="userSpaceOnUse">
<stop offset="0.00505051" stop-color="#20B0D3"/>
<stop offset="0.56" stop-color="#24D4C3"/>
<stop offset="1" stop-color="#27F3B5"/>
</linearGradient>
<linearGradient id="paint7_linear_1817_23830" x1="298.602" y1="185.505" x2="366.792" y2="185.505" gradientUnits="userSpaceOnUse">
<stop offset="0.0353535" stop-color="#4DF4FF"/>
<stop offset="0.3036" stop-color="#52E5FF"/>
<stop offset="0.821" stop-color="#5DBCFF"/>
<stop offset="1" stop-color="#62ADFF"/>
</linearGradient>
<linearGradient id="paint8_linear_1817_23830" x1="332.698" y1="198.498" x2="332.698" y2="252.278" gradientUnits="userSpaceOnUse">
<stop offset="0.0353535" stop-color="#4DF4FF"/>
<stop offset="0.3036" stop-color="#52E5FF"/>
<stop offset="0.821" stop-color="#5DBCFF"/>
<stop offset="1" stop-color="#62ADFF"/>
</linearGradient>
<linearGradient id="paint9_linear_1817_23830" x1="300.416" y1="164.587" x2="299.416" y2="177.702" gradientUnits="userSpaceOnUse">
<stop offset="0.0353535" stop-color="#FF9E6E"/>
<stop offset="0.3036" stop-color="#FFAD73"/>
<stop offset="0.821" stop-color="#FFD680"/>
<stop offset="1" stop-color="#FFE585"/>
</linearGradient>
<linearGradient id="paint10_linear_1817_23830" x1="315.857" y1="162.179" x2="314.858" y2="175.294" gradientUnits="userSpaceOnUse">
<stop offset="0.0353535" stop-color="#FF9E6E"/>
<stop offset="0.3036" stop-color="#FFAD73"/>
<stop offset="0.821" stop-color="#FFD680"/>
<stop offset="1" stop-color="#FFE585"/>
</linearGradient>
<linearGradient id="paint11_linear_1817_23830" x1="341.531" y1="187.322" x2="340.532" y2="200.437" gradientUnits="userSpaceOnUse">
<stop offset="0.0353535" stop-color="#FF9E6E"/>
<stop offset="0.3036" stop-color="#FFAD73"/>
<stop offset="0.821" stop-color="#FFD680"/>
<stop offset="1" stop-color="#FFE585"/>
</linearGradient>
<linearGradient id="paint12_linear_1817_23830" x1="366.521" y1="170.161" x2="365.521" y2="183.277" gradientUnits="userSpaceOnUse">
<stop offset="0.0353535" stop-color="#FF9E6E"/>
<stop offset="0.3036" stop-color="#FFAD73"/>
<stop offset="0.821" stop-color="#FFD680"/>
<stop offset="1" stop-color="#FFE585"/>
</linearGradient>
<linearGradient id="paint13_linear_1817_23830" x1="382.872" y1="149.695" x2="380.562" y2="129.687" gradientUnits="userSpaceOnUse">
<stop stop-color="#FFBB82"/>
<stop offset="0.4594" stop-color="#FFBB82"/>
<stop offset="0.6312" stop-color="#FFDC84"/>
<stop offset="0.6749" stop-color="#FFE585"/>
</linearGradient>
<linearGradient id="paint14_linear_1817_23830" x1="363.711" y1="132.682" x2="356.783" y2="103.439" gradientUnits="userSpaceOnUse">
<stop offset="0.0353535" stop-color="#FF9E6E"/>
<stop offset="0.3036" stop-color="#FFAD73"/>
<stop offset="0.821" stop-color="#FFD680"/>
<stop offset="1" stop-color="#FFE585"/>
</linearGradient>
<linearGradient id="paint15_linear_1817_23830" x1="362.302" y1="143.332" x2="384.68" y2="113.801" gradientUnits="userSpaceOnUse">
<stop offset="0.0353535" stop-color="#FF9E6E"/>
<stop offset="0.3036" stop-color="#FFAD73"/>
<stop offset="0.821" stop-color="#FFD680"/>
<stop offset="1" stop-color="#FFE585"/>
</linearGradient>
<linearGradient id="paint16_linear_1817_23830" x1="371.684" y1="119.732" x2="365.842" y2="130.381" gradientUnits="userSpaceOnUse">
<stop offset="0.3128" stop-color="white"/>
<stop offset="0.5587" stop-color="#E3ECF3"/>
</linearGradient>
<linearGradient id="paint17_linear_1817_23830" x1="377.822" y1="98.2035" x2="359.32" y2="146.981" gradientUnits="userSpaceOnUse">
<stop offset="0.0353535" stop-color="#FF9E6E"/>
<stop offset="0.3036" stop-color="#FFAD73"/>
<stop offset="0.821" stop-color="#FFD680"/>
<stop offset="1" stop-color="#FFE585"/>
</linearGradient>
<linearGradient id="paint18_linear_1817_23830" x1="364.301" y1="164.42" x2="361.913" y2="125.634" gradientUnits="userSpaceOnUse">
<stop stop-color="#FFBB82"/>
<stop offset="0.4594" stop-color="#FFBB82"/>
<stop offset="0.6312" stop-color="#FFDC84"/>
<stop offset="0.6749" stop-color="#FFE585"/>
</linearGradient>
<linearGradient id="paint19_linear_1817_23830" x1="113.66" y1="256.894" x2="113.66" y2="172.22" gradientUnits="userSpaceOnUse">
<stop stop-color="#457D83"/>
<stop offset="0.9975" stop-color="#1599DD"/>
</linearGradient>
<linearGradient id="paint20_linear_1817_23830" x1="135.272" y1="155.836" x2="68.16" y2="116.955" gradientUnits="userSpaceOnUse">
<stop stop-color="#84ECF4"/>
<stop offset="1" stop-color="#00ABD5"/>
</linearGradient>
<linearGradient id="paint21_linear_1817_23830" x1="36.538" y1="103.84" x2="36.538" y2="89.1637" gradientUnits="userSpaceOnUse">
<stop stop-color="#105383"/>
<stop offset="0.9975" stop-color="#1599DD"/>
</linearGradient>
<linearGradient id="paint22_linear_1817_23830" x1="90.593" y1="135.89" x2="19.1593" y2="204.548" gradientUnits="userSpaceOnUse">
<stop stop-color="#105383"/>
<stop offset="0.998" stop-color="#0D305E"/>
</linearGradient>
<linearGradient id="paint23_linear_1817_23830" x1="-50.1521" y1="354.149" x2="61.982" y2="166.741" gradientUnits="userSpaceOnUse">
<stop offset="0.1347" stop-color="#1599DD"/>
<stop offset="0.2756" stop-color="#34A6E1"/>
<stop offset="0.5851" stop-color="#84C7EC"/>
<stop offset="1" stop-color="#F7F6FB"/>
</linearGradient>
<linearGradient id="paint24_linear_1817_23830" x1="154.013" y1="85.3988" x2="151.388" y2="102.414" gradientUnits="userSpaceOnUse">
<stop offset="0.00505051" stop-color="#20B0D3"/>
<stop offset="0.56" stop-color="#24D4C3"/>
<stop offset="1" stop-color="#27F3B5"/>
</linearGradient>
<linearGradient id="paint25_linear_1817_23830" x1="151.318" y1="43.5161" x2="149.908" y2="49.0937" gradientUnits="userSpaceOnUse">
<stop offset="0.0353535" stop-color="#FF9E6E"/>
<stop offset="0.3036" stop-color="#FFAD73"/>
<stop offset="0.821" stop-color="#FFD680"/>
<stop offset="1" stop-color="#FFE585"/>
</linearGradient>
<linearGradient id="paint26_linear_1817_23830" x1="155.407" y1="45.8769" x2="153.997" y2="51.4546" gradientUnits="userSpaceOnUse">
<stop offset="0.0353535" stop-color="#FF9E6E"/>
<stop offset="0.3036" stop-color="#FFAD73"/>
<stop offset="0.821" stop-color="#FFD680"/>
<stop offset="1" stop-color="#FFE585"/>
</linearGradient>
<linearGradient id="paint27_linear_1817_23830" x1="159.495" y1="48.2378" x2="158.084" y2="53.8154" gradientUnits="userSpaceOnUse">
<stop offset="0.0353535" stop-color="#FF9E6E"/>
<stop offset="0.3036" stop-color="#FFAD73"/>
<stop offset="0.821" stop-color="#FFD680"/>
<stop offset="1" stop-color="#FFE585"/>
</linearGradient>
<linearGradient id="paint28_linear_1817_23830" x1="163.586" y1="50.6025" x2="162.175" y2="56.1801" gradientUnits="userSpaceOnUse">
<stop offset="0.0353535" stop-color="#FF9E6E"/>
<stop offset="0.3036" stop-color="#FFAD73"/>
<stop offset="0.821" stop-color="#FFD680"/>
<stop offset="1" stop-color="#FFE585"/>
</linearGradient>
<linearGradient id="paint29_linear_1817_23830" x1="167.674" y1="52.9633" x2="166.263" y2="58.541" gradientUnits="userSpaceOnUse">
<stop offset="0.0353535" stop-color="#FF9E6E"/>
<stop offset="0.3036" stop-color="#FFAD73"/>
<stop offset="0.821" stop-color="#FFD680"/>
<stop offset="1" stop-color="#FFE585"/>
</linearGradient>
<linearGradient id="paint30_linear_1817_23830" x1="202.964" y1="113.666" x2="200.34" y2="130.682" gradientUnits="userSpaceOnUse">
<stop offset="0.00505051" stop-color="#20B0D3"/>
<stop offset="0.56" stop-color="#24D4C3"/>
<stop offset="1" stop-color="#27F3B5"/>
</linearGradient>
<linearGradient id="paint31_linear_1817_23830" x1="200.269" y1="71.7837" x2="198.859" y2="77.3613" gradientUnits="userSpaceOnUse">
<stop offset="0.0353535" stop-color="#FF9E6E"/>
<stop offset="0.3036" stop-color="#FFAD73"/>
<stop offset="0.821" stop-color="#FFD680"/>
<stop offset="1" stop-color="#FFE585"/>
</linearGradient>
<linearGradient id="paint32_linear_1817_23830" x1="204.36" y1="74.1448" x2="202.949" y2="79.7225" gradientUnits="userSpaceOnUse">
<stop offset="0.0353535" stop-color="#FF9E6E"/>
<stop offset="0.3036" stop-color="#FFAD73"/>
<stop offset="0.821" stop-color="#FFD680"/>
<stop offset="1" stop-color="#FFE585"/>
</linearGradient>
<linearGradient id="paint33_linear_1817_23830" x1="208.447" y1="76.5092" x2="207.037" y2="82.0869" gradientUnits="userSpaceOnUse">
<stop offset="0.0353535" stop-color="#FF9E6E"/>
<stop offset="0.3036" stop-color="#FFAD73"/>
<stop offset="0.821" stop-color="#FFD680"/>
<stop offset="1" stop-color="#FFE585"/>
</linearGradient>
<linearGradient id="paint34_linear_1817_23830" x1="212.537" y1="78.8701" x2="211.127" y2="84.4478" gradientUnits="userSpaceOnUse">
<stop offset="0.0353535" stop-color="#FF9E6E"/>
<stop offset="0.3036" stop-color="#FFAD73"/>
<stop offset="0.821" stop-color="#FFD680"/>
<stop offset="1" stop-color="#FFE585"/>
</linearGradient>
<linearGradient id="paint35_linear_1817_23830" x1="216.625" y1="81.229" x2="215.215" y2="86.8066" gradientUnits="userSpaceOnUse">
<stop offset="0.0353535" stop-color="#FF9E6E"/>
<stop offset="0.3036" stop-color="#FFAD73"/>
<stop offset="0.821" stop-color="#FFD680"/>
<stop offset="1" stop-color="#FFE585"/>
</linearGradient>
<linearGradient id="paint36_linear_1817_23830" x1="251.914" y1="141.941" x2="249.29" y2="158.957" gradientUnits="userSpaceOnUse">
<stop offset="0.00505051" stop-color="#20B0D3"/>
<stop offset="0.56" stop-color="#24D4C3"/>
<stop offset="1" stop-color="#27F3B5"/>
</linearGradient>
<linearGradient id="paint37_linear_1817_23830" x1="249.221" y1="100.059" x2="247.81" y2="105.636" gradientUnits="userSpaceOnUse">
<stop offset="0.0353535" stop-color="#FF9E6E"/>
<stop offset="0.3036" stop-color="#FFAD73"/>
<stop offset="0.821" stop-color="#FFD680"/>
<stop offset="1" stop-color="#FFE585"/>
</linearGradient>
<linearGradient id="paint38_linear_1817_23830" x1="253.31" y1="102.419" x2="251.899" y2="107.997" gradientUnits="userSpaceOnUse">
<stop offset="0.0353535" stop-color="#FF9E6E"/>
<stop offset="0.3036" stop-color="#FFAD73"/>
<stop offset="0.821" stop-color="#FFD680"/>
<stop offset="1" stop-color="#FFE585"/>
</linearGradient>
<linearGradient id="paint39_linear_1817_23830" x1="257.399" y1="104.78" x2="255.989" y2="110.358" gradientUnits="userSpaceOnUse">
<stop offset="0.0353535" stop-color="#FF9E6E"/>
<stop offset="0.3036" stop-color="#FFAD73"/>
<stop offset="0.821" stop-color="#FFD680"/>
<stop offset="1" stop-color="#FFE585"/>
</linearGradient>
<linearGradient id="paint40_linear_1817_23830" x1="261.488" y1="107.143" x2="260.077" y2="112.721" gradientUnits="userSpaceOnUse">
<stop offset="0.0353535" stop-color="#FF9E6E"/>
<stop offset="0.3036" stop-color="#FFAD73"/>
<stop offset="0.821" stop-color="#FFD680"/>
<stop offset="1" stop-color="#FFE585"/>
</linearGradient>
<linearGradient id="paint41_linear_1817_23830" x1="265.577" y1="109.502" x2="264.166" y2="115.08" gradientUnits="userSpaceOnUse">
<stop offset="0.0353535" stop-color="#FF9E6E"/>
<stop offset="0.3036" stop-color="#FFAD73"/>
<stop offset="0.821" stop-color="#FFD680"/>
<stop offset="1" stop-color="#FFE585"/>
</linearGradient>
<linearGradient id="paint42_linear_1817_23830" x1="290.07" y1="288.902" x2="290.07" y2="315.78" gradientUnits="userSpaceOnUse">
<stop offset="0.0353535" stop-color="#4DF4FF"/>
<stop offset="0.3036" stop-color="#52E5FF"/>
<stop offset="0.821" stop-color="#5DBCFF"/>
<stop offset="1" stop-color="#62ADFF"/>
</linearGradient>
<linearGradient id="paint43_linear_1817_23830" x1="305.656" y1="315.676" x2="305.656" y2="334.707" gradientUnits="userSpaceOnUse">
<stop offset="0.0353535" stop-color="#4DF4FF"/>
<stop offset="0.3036" stop-color="#52E5FF"/>
<stop offset="0.821" stop-color="#5DBCFF"/>
<stop offset="1" stop-color="#62ADFF"/>
</linearGradient>
</defs>
    <style>
        .shield {
        transform: translateY(0px);
        animation: shield-anim 8s linear infinite;
        }
        @keyframes shield-anim {
        0% {
        transform: translateY(0px);
        }
        25% {
        transform: translateY(-10px);
        }
        50% {
        transform: translateY(0px);
        }
        75% {
        transform: translateY(10px);
        }
        100% {
        transform: translateY(0px);
        }
        }
    </style>
</svg>
