<svg width="28" height="28" viewBox="0 0 28 28" fill="none" xmlns="http://www.w3.org/2000/svg">
<rect width="28" height="28" rx="14" fill="#27F3B5"/>
<path d="M20.6858 16.9067C20.1608 16.8942 19.5 16.8633 19.0825 16.79C18.6308 16.71 18.0875 16.555 17.705 16.4358C17.405 16.3425 17.0783 16.425 16.8558 16.6467L15.0083 18.4833C13.7317 17.8108 12.7092 17.0275 11.8433 16.1567C10.9725 15.2908 10.1892 14.2683 9.51667 12.9917L11.3533 11.1433C11.575 10.9208 11.6575 10.5942 11.5642 10.2942C11.4458 9.9125 11.29 9.36917 11.2108 8.9175C11.1367 8.5 11.1067 7.83917 11.0933 7.31417C11.0825 6.86 10.7125 6.5 10.2583 6.5H7.33333C6.96833 6.5 6.5 6.77333 6.5 7.33333C6.5 11.1158 8.03333 14.7283 10.6383 17.3617C13.2717 19.9667 16.8842 21.5 20.6667 21.5C21.2267 21.5 21.5 21.0317 21.5 20.6667V17.7417C21.5 17.2875 21.14 16.9175 20.6858 16.9067Z" fill="#0D243D"/>
</svg>
