<svg width="62" height="63" viewBox="0 0 62 63" fill="none" xmlns="http://www.w3.org/2000/svg">
<g clip-path="url(#clip0_968_6711)">
<path d="M36.1494 22.517C36.2671 22.0477 36.1089 21.5525 35.7419 21.2373L27.843 14.4713C27.0433 13.7863 25.993 13.5141 24.9611 13.7246L17.2297 15.3016C16.4473 15.4613 15.8082 16.0011 15.5204 16.746C15.2324 17.4907 15.3421 18.32 15.8136 18.9644L20.8383 25.8308C20.8774 25.8842 20.92 25.934 20.9659 25.9798C21.2705 26.2843 21.713 26.418 22.1423 26.3235L35.186 23.4526C35.6586 23.3486 36.0316 22.9862 36.1494 22.517Z" fill="#E45A6E"/>
<path d="M36.15 40.6427C36.0322 40.1734 35.6592 39.811 35.1867 39.707L22.143 36.8362C21.6491 36.7275 21.1376 36.9208 20.8389 37.3289L15.8142 44.1953C15.3426 44.8397 15.233 45.669 15.521 46.4138C15.6407 46.7236 15.8213 46.9978 16.0476 47.2241C16.3652 47.5418 16.7734 47.7649 17.2303 47.8581L24.9618 49.4352C25.9935 49.6457 27.044 49.3735 27.8437 48.6884L35.7424 41.9224C36.11 41.6077 36.2677 41.1121 36.15 40.6427Z" fill="#D82E44"/>
<path d="M18.0038 37.1838C18.0038 37.9021 18.3461 38.5804 18.9308 38.9975C27.5044 45.1147 39.3988 44.8455 45.8899 42.7801C53.0977 40.4867 58.2089 35.5576 60.4349 33.0747C61.1976 32.2239 61.1976 30.9377 60.4349 30.0869C58.2088 27.6041 53.0977 22.675 45.8899 20.3816C39.3988 18.3163 27.5044 18.0471 18.9308 24.1643C18.3461 24.5815 18.0038 25.2597 18.0038 25.978L18.0038 37.1838Z" fill="#F1F1FB"/>
<path d="M61.0074 31.5797L18.0043 31.5797V37.1826C18.0043 37.9009 18.3466 38.5791 18.9313 38.9963C27.5049 45.1135 39.3993 44.8443 45.8904 42.7789C53.0981 40.4856 58.2093 35.5564 60.4353 33.0736C60.8167 32.6482 61.0074 32.1139 61.0074 31.5797Z" fill="#D7D6FB"/>
<path d="M38.0885 36.089C36.9329 34.9335 36.2176 33.3388 36.2176 31.5796C36.2176 29.8754 36.8812 28.273 38.0863 27.068C39.2914 25.8629 40.8937 25.1993 42.5979 25.1993C46.1158 25.1993 48.9781 28.0614 48.978 31.5795C48.9781 33.2837 48.3144 34.886 47.1093 36.091C45.9043 37.2961 44.302 37.9598 42.5978 37.9597C40.839 37.9598 39.2437 37.244 38.0885 36.089ZM42.5978 26.4754L42.5984 26.476L42.5978 26.4754Z" fill="#466288"/>
<path d="M18.9302 24.1629C18.3456 24.5801 18.0033 25.2583 18.0033 25.9765L18.0033 37.1824C18.0033 37.9006 18.3456 38.5789 18.9302 38.996C20.7958 40.3271 22.8187 41.3555 24.9088 42.1291L24.9088 21.0299C22.8187 21.8034 20.7958 22.8319 18.9302 24.1629Z" fill="#466288"/>
<path d="M6.7396 27.0825C6.97047 27.3134 7.28959 27.4563 7.64191 27.4562L13.5337 27.4562C14.2385 27.4563 14.8098 26.8849 14.8098 26.1802C14.8099 25.4755 14.2386 24.9042 13.5338 24.9041L7.64197 24.9042C6.93726 24.9041 6.36592 25.4755 6.36592 26.1802C6.36586 26.5327 6.50867 26.8516 6.7396 27.0825Z" fill="#FDB43A"/>
<path d="M14.8109 31.5796C14.8109 30.875 14.2396 30.3037 13.5349 30.3036H2.2074C1.5027 30.3035 0.931358 30.8749 0.931358 31.5796C0.931358 31.932 1.07422 32.251 1.30515 32.4819C1.53609 32.7129 1.85514 32.8557 2.20746 32.8556L13.5349 32.8556C14.2396 32.8557 14.811 32.2843 14.8109 31.5796Z" fill="#FDB43A"/>
<path d="M14.8098 36.9789C14.8098 36.2743 14.2385 35.703 13.5338 35.7029L7.64208 35.7029C6.93737 35.7028 6.36603 36.2742 6.36603 36.9789C6.36603 37.3313 6.50884 37.6504 6.73971 37.8813C6.97058 38.1121 7.28969 38.255 7.64202 38.2549L13.5339 38.2549C14.2386 38.255 14.8099 37.6836 14.8098 36.9789Z" fill="#F57A21"/>
<path d="M0.931252 31.5805C0.931253 31.9328 1.07412 32.2518 1.30505 32.4828C1.53598 32.7137 1.85504 32.8565 2.20736 32.8565L13.5348 32.8565C14.2395 32.8565 14.8109 32.2852 14.8109 31.5804L0.931252 31.5805Z" fill="#F57A21"/>
<path d="M18.0023 31.5797L18.0023 37.1826C18.0023 37.9009 18.3447 38.5791 18.9293 38.9963C20.7949 40.3273 22.8177 41.3557 24.9079 42.1294L24.9079 31.5798L18.0023 31.5797Z" fill="#354A67"/>
<path d="M36.2174 31.5815C36.2174 33.3407 36.9326 34.9355 38.0882 36.0909C39.2435 37.2459 40.8388 37.9617 42.5976 37.9617C44.3019 37.9617 45.9041 37.298 47.1091 36.0929C48.3142 34.8879 48.9779 33.2856 48.9779 31.5814L36.2174 31.5815Z" fill="#354A67"/>
<path d="M45.3026 28.8729C44.6095 28.1798 43.6524 27.7504 42.597 27.7505C41.5745 27.7505 40.6131 28.1486 39.8901 28.8716C39.167 29.5947 38.7689 30.5561 38.7689 31.5786C38.7689 33.6894 40.4863 35.4068 42.5971 35.4067C43.6197 35.4067 44.581 35.0085 45.3041 34.2855C46.0271 33.5624 46.4253 32.6011 46.4253 31.5786C46.4252 30.5232 45.9959 29.5662 45.3026 28.8729Z" fill="#4BBEFD"/>
<path d="M46.4258 31.5801L38.7695 31.5801C38.7695 33.6909 40.4868 35.4084 42.5977 35.4082C43.6202 35.4082 44.5815 35.01 45.3046 34.287C46.0276 33.5639 46.4259 32.6026 46.4258 31.5801Z" fill="#0590FB"/>
</g>
<defs>
<clipPath id="clip0_968_6711">
<rect width="43.5561" height="43.5561" fill="white" transform="translate(31.2012 0.78125) rotate(45)"/>
</clipPath>
</defs>
</svg>
