<svg width="366" height="57" viewBox="0 0 366 57" fill="none" xmlns="http://www.w3.org/2000/svg">
<g clip-path="url(#clip0_889_3788)">
<path d="M26.4447 53.3823C18.8721 52.3316 5.11731 50.0202 1.54596 44.6409C-2.32257 38.9001 3.49878 33.5292 10.2435 29.8056C26.8055 20.7028 58.502 15.0713 78.3064 12.1547C132.747 4.16972 318.225 -7.71526 357.51 6.77954C361.277 8.21263 364.541 10.0071 365.427 13.1717C367.125 18.7234 363.304 23.859 358.21 27.8809C334.935 46.0866 276.43 52.6008 245.195 55.9377C244.191 55.9835 243.338 55.6924 242.85 55.5234C242.548 55.4191 241.942 55.0447 241.819 54.3235C241.915 53.8625 242.195 53.5719 242.54 53.3251C243.203 52.8508 244.284 52.8247 245.195 52.7272C246.192 52.6179 253.521 52.5373 268.289 51.2724C292.965 49.1711 326.917 42.9658 347.857 32.4299C355.912 28.3785 364.822 21.0852 362.572 13.7054C359.266 1.5557 284 1.39879 268.419 1.49125C216.059 1.84847 55.6364 7.41414 11.74 31.5119C6.25824 34.5336 0.739349 39.0178 3.85434 43.6701C6.85788 48.2215 20.6988 51.3534 27.1092 52.257C81.6561 59.8301 184.744 50.0783 240.334 44.8888C255.834 43.6196 98.4238 63.208 26.4447 53.3823Z" fill="#27F3B5"/>
</g>
<defs>
<clipPath id="clip0_889_3788">
<rect width="366" height="57" fill="white" transform="translate(366 57) rotate(-180)"/>
</clipPath>
</defs>
</svg>
