<svg width="302" height="57" viewBox="0 0 302 57" fill="none" xmlns="http://www.w3.org/2000/svg">
<path d="M21.5969 53.4194C15.3405 52.3687 3.97635 50.0573 1.0257 44.678C-2.17047 38.9372 2.6391 33.5663 8.21155 29.8428C21.895 20.7399 48.0825 15.1084 64.4447 12.1918C109.423 4.20683 262.664 -7.67815 295.121 6.81665C298.234 8.24974 300.93 10.0443 301.662 13.2088C303.065 18.7605 299.908 23.8961 295.7 27.918C276.47 46.1237 228.133 52.6379 202.327 55.9748C201.498 56.0206 200.793 55.7295 200.389 55.5605C200.14 55.4562 199.639 55.0818 199.538 54.3607C199.617 53.8996 199.848 53.609 200.133 53.3622C200.681 52.888 201.575 52.8618 202.327 52.7643C203.151 52.655 209.206 52.5745 221.407 51.3095C241.794 49.2082 269.845 43.0029 287.146 32.467C293.801 28.4156 301.162 21.1223 299.303 13.7426C296.572 1.59281 234.387 1.4359 221.515 1.52835C178.255 1.88558 45.7149 7.45125 9.44794 31.549C4.91895 34.5707 0.359283 39.0549 2.93286 43.7072C5.41437 48.2586 16.8496 51.3905 22.1459 52.2941C67.2122 59.8672 152.383 50.1154 198.311 44.9259C211.117 43.6567 81.0656 63.2451 21.5969 53.4194Z" fill="#27F3B5"/>
</svg>
