<svg width="217" height="38" viewBox="0 0 217 38" fill="none" xmlns="http://www.w3.org/2000/svg">
<g clip-path="url(#clip0_889_3807)">
<path d="M15.6148 34.7341C11.1435 34.0505 3.02177 32.5465 0.91301 29.0464C-1.37122 25.3111 2.06607 21.8165 6.04858 19.3938C15.8278 13.471 34.5435 9.80678 46.2372 7.90907C78.3824 2.71361 187.9 -5.01943 211.096 4.41171C213.321 5.34415 215.248 6.51177 215.771 8.57081C216.774 12.183 214.518 15.5245 211.51 18.1414C197.767 29.9871 163.222 34.2256 144.779 36.3968C144.186 36.4266 143.682 36.2372 143.394 36.1272C143.216 36.0593 142.858 35.8157 142.785 35.3465C142.842 35.0465 143.007 34.8574 143.211 34.6968C143.603 34.3883 144.241 34.3713 144.779 34.3078C145.368 34.2367 149.695 34.1843 158.415 33.3612C172.985 31.994 193.032 27.9565 205.397 21.1012C210.153 18.4652 215.414 13.7198 214.086 8.91809C212.133 1.01278 167.691 0.910686 158.492 0.970844C127.575 1.20327 32.8514 4.82461 6.93221 20.504C3.69543 22.47 0.436737 25.3877 2.27603 28.4148C4.04951 31.3762 12.222 33.414 16.0072 34.0019C48.2151 38.9294 109.085 32.5843 141.908 29.2077C151.061 28.3819 58.1158 41.1272 15.6148 34.7341Z" fill="#27F3B5"/>
</g>
<defs>
<clipPath id="clip0_889_3807">
<rect width="216.109" height="37.0874" fill="white" transform="translate(216.109 37.0879) rotate(-180)"/>
</clipPath>
</defs>
</svg>
