<svg width="21" height="18" viewBox="0 0 21 18" fill="none" xmlns="http://www.w3.org/2000/svg">
<path d="M4.96364 18C3.43636 18 2.22727 17.4142 1.33636 16.2427C0.445454 15.0396 0 13.3931 0 11.3034C0 8.83377 0.652273 6.63324 1.95682 4.70185C3.26136 2.77045 5.15455 1.20317 7.63636 0L9.21136 2.99208C7.65227 3.8153 6.42727 4.81266 5.53636 5.98417C4.67727 7.12401 4.2 8.48549 4.10455 10.0686C4.39091 9.94195 4.74091 9.87863 5.15455 9.87863C6.3 9.87863 7.22273 10.2427 7.92273 10.971C8.65455 11.6675 9.02046 12.5858 9.02046 13.7256C9.02046 15.0237 8.63864 16.0686 7.875 16.8602C7.14318 17.6201 6.17273 18 4.96364 18ZM16.7523 18C15.225 18 14.0159 17.4142 13.125 16.2427C12.2341 15.0396 11.7886 13.3931 11.7886 11.3034C11.7886 8.83377 12.4409 6.63324 13.7455 4.70185C15.05 2.77045 16.9432 1.20317 19.425 0L21 2.99208C19.4409 3.8153 18.2159 4.81266 17.325 5.98417C16.4659 7.12401 15.9886 8.48549 15.8932 10.0686C16.1795 9.94195 16.5295 9.87863 16.9432 9.87863C18.0886 9.87863 19.0114 10.2427 19.7114 10.971C20.4432 11.6675 20.8091 12.5858 20.8091 13.7256C20.8091 15.0237 20.4273 16.0686 19.6636 16.8602C18.9318 17.6201 17.9614 18 16.7523 18Z" fill="#27F3B5"/>
</svg>
