<svg width="362" height="183" viewBox="0 0 362 183" fill="none" xmlns="http://www.w3.org/2000/svg">
<path d="M43.4703 170.931C36.0208 172.65 22.3459 175.395 17.0912 171.643C11.43 167.658 14.9537 160.565 19.9274 154.681C32.1551 140.271 59.7604 123.708 77.2231 113.922C125.238 87.0502 294.287 9.81238 336.158 9.34697C340.189 9.34245 343.878 9.85535 345.834 12.4959C349.4 17.0772 347.662 23.2376 344.337 28.8116C329.083 54.1196 276.745 81.0665 248.753 95.3212C247.832 95.7218 246.931 95.7542 246.415 95.7703C246.096 95.7803 245.396 95.6467 245.024 95.0168C244.949 94.5519 245.107 94.1806 245.341 93.8269C245.792 93.1473 246.793 92.7375 247.609 92.3217C248.502 91.8639 255.32 89.1756 268.666 82.7279C290.971 71.9663 320.479 54.063 336.286 36.7532C342.367 30.0959 348.091 20.105 343.357 14.0125C335.937 3.84018 265.561 30.5306 251.038 36.1723C202.247 55.1758 54.3529 117.576 21.934 155.742C17.8899 160.519 14.3327 166.677 18.9017 169.912C23.3307 173.094 37.3786 171.085 43.6899 169.643C97.3517 157.269 190.187 111.401 240.272 86.7317C254.302 80.019 114.222 154.446 43.4703 170.931Z" fill="#27F3B5"/>
</svg>
