<svg width="30" height="30" viewBox="0 0 30 30" fill="none" xmlns="http://www.w3.org/2000/svg">
<circle cx="15" cy="15" r="15" fill="#A1C1D7" fill-opacity="0.25"/>
<g clip-path="url(#clip0_2058_24166)">
<path d="M21.8703 18.5327C21.8517 18.4926 21.8344 18.4594 21.8183 18.4327C21.5517 17.9526 21.0422 17.3632 20.2902 16.6645L20.2743 16.6485L20.2663 16.6406L20.2583 16.6326H20.2502C19.9089 16.3072 19.6928 16.0885 19.6023 15.9765C19.4367 15.7631 19.3996 15.5472 19.4901 15.3283C19.554 15.163 19.7942 14.8139 20.2101 14.2804C20.4289 13.9977 20.6022 13.7711 20.7301 13.6004C21.6529 12.3736 22.0529 11.5897 21.9302 11.2483L21.8826 11.1685C21.8505 11.1205 21.7679 11.0766 21.6347 11.0365C21.5012 10.9965 21.3306 10.9899 21.1225 11.0165L18.8184 11.0325C18.7811 11.0192 18.7278 11.0205 18.6584 11.0365C18.589 11.0525 18.5543 11.0606 18.5543 11.0606L18.5142 11.0806L18.4824 11.1047C18.4557 11.1206 18.4264 11.1486 18.3944 11.1886C18.3625 11.2285 18.3359 11.2753 18.3146 11.3286C18.0637 11.974 17.7785 12.574 17.4584 13.1286C17.2611 13.4594 17.0798 13.746 16.9143 13.9887C16.749 14.2313 16.6103 14.4101 16.4984 14.5247C16.3863 14.6393 16.2852 14.7312 16.1943 14.8006C16.1036 14.8701 16.0344 14.8994 15.9864 14.8887C15.9384 14.8779 15.8931 14.8673 15.8503 14.8567C15.7756 14.8086 15.7156 14.7433 15.6704 14.6606C15.6249 14.578 15.5943 14.4739 15.5783 14.3486C15.5624 14.2232 15.553 14.1153 15.5503 14.0246C15.5478 13.934 15.5489 13.8058 15.5544 13.6405C15.5599 13.4751 15.5624 13.3632 15.5624 13.3045C15.5624 13.1018 15.5663 12.8818 15.5743 12.6445C15.5823 12.4071 15.5889 12.2191 15.5943 12.0805C15.5998 11.9418 15.6023 11.7951 15.6023 11.6404C15.6023 11.4858 15.5929 11.3645 15.5743 11.2764C15.5559 11.1885 15.5277 11.1031 15.4905 11.0204C15.4531 10.9377 15.3983 10.8738 15.3265 10.8284C15.2545 10.783 15.165 10.7471 15.0585 10.7203C14.7758 10.6564 14.4158 10.6218 13.9783 10.6164C12.9863 10.6057 12.3489 10.6698 12.0663 10.8085C11.9543 10.8671 11.8529 10.9471 11.7623 11.0484C11.6662 11.1658 11.6529 11.2298 11.7222 11.2404C12.0422 11.2883 12.2688 11.403 12.4022 11.5843L12.4502 11.6804C12.4876 11.7497 12.5249 11.8725 12.5623 12.0484C12.5996 12.2244 12.6237 12.4191 12.6343 12.6323C12.6609 13.0217 12.6609 13.3551 12.6343 13.6324C12.6075 13.9098 12.5823 14.1258 12.5583 14.2804C12.5342 14.4351 12.4982 14.5605 12.4502 14.6564C12.4022 14.7524 12.3702 14.8111 12.3542 14.8324C12.3382 14.8537 12.3248 14.8671 12.3142 14.8724C12.2449 14.899 12.1728 14.9125 12.0982 14.9125C12.0235 14.9125 11.9328 14.8751 11.8262 14.8004C11.7196 14.7257 11.6089 14.6231 11.4942 14.4924C11.3795 14.3617 11.2502 14.179 11.1061 13.9444C10.9622 13.7097 10.8128 13.4324 10.6581 13.1124L10.5302 12.8803C10.4502 12.731 10.3409 12.5136 10.2022 12.2283C10.0634 11.9429 9.94079 11.6668 9.83417 11.4002C9.79155 11.2882 9.72752 11.2029 9.64219 11.1442L9.60215 11.1201C9.57553 11.0988 9.5328 11.0762 9.47418 11.0521C9.41547 11.0281 9.35422 11.0108 9.29016 11.0002L7.09806 11.0161C6.87406 11.0161 6.72207 11.0668 6.64204 11.1682L6.61001 11.2161C6.59401 11.2429 6.58594 11.2855 6.58594 11.3442C6.58594 11.4029 6.60194 11.4749 6.63397 11.5602C6.95397 12.3123 7.30197 13.0376 7.67797 13.7363C8.05396 14.435 8.38069 14.9978 8.65796 15.4242C8.93529 15.851 9.21798 16.2537 9.50601 16.6323C9.79404 17.011 9.9847 17.2537 10.078 17.3603C10.1714 17.4671 10.2447 17.547 10.2981 17.6003L10.4981 17.7923C10.6261 17.9203 10.8141 18.0737 11.0621 18.2523C11.3102 18.4311 11.5848 18.607 11.8862 18.7805C12.1876 18.9537 12.5382 19.0951 12.9383 19.2044C13.3383 19.3138 13.7276 19.3577 14.1063 19.3365H15.0264C15.213 19.3204 15.3543 19.2617 15.4504 19.1605L15.4823 19.1204C15.5037 19.0885 15.5237 19.0391 15.5422 18.9725C15.5609 18.9059 15.5702 18.8324 15.5702 18.7525C15.5648 18.5232 15.5822 18.3166 15.6221 18.1326C15.662 17.9486 15.7074 17.81 15.7583 17.7166C15.8091 17.6233 15.8664 17.5445 15.9302 17.4807C15.9942 17.4167 16.0397 17.378 16.0664 17.3646C16.093 17.3512 16.1142 17.3421 16.1302 17.3366C16.2582 17.294 16.4089 17.3353 16.5824 17.4607C16.7558 17.5861 16.9184 17.7408 17.0705 17.9248C17.2225 18.1089 17.4051 18.3154 17.6184 18.5447C17.8319 18.7741 18.0185 18.9446 18.1784 19.0568L18.3384 19.1528C18.4452 19.2168 18.5839 19.2755 18.7546 19.3288C18.925 19.3821 19.0743 19.3955 19.2025 19.3688L21.2505 19.3369C21.4531 19.3369 21.6107 19.3033 21.7225 19.2368C21.8345 19.1701 21.9011 19.0967 21.9225 19.0168C21.9439 18.9368 21.9451 18.8461 21.9266 18.7446C21.9076 18.6435 21.8889 18.5727 21.8703 18.5327Z" fill="#0C1E34" fill-opacity="0.5"/>
</g>
<defs>
<clipPath id="clip0_2058_24166">
<rect width="15.3659" height="15.3659" fill="white" transform="translate(6.58594 7.31641)"/>
</clipPath>
</defs>
</svg>
